<svg width="30" height="30" viewBox="0 0 30 30" fill="none" xmlns="http://www.w3.org/2000/svg">
<mask id="path-1-outside-1" maskUnits="userSpaceOnUse" x="0" y="0" width="30" height="30" fill="black">
<rect fill="white" width="30" height="30"/>
<path d="M22.0573 7.47741C20.5666 7.47556 19.1154 7.95626 17.9205 8.84766V5.78516H19.4592C20.6263 5.78388 21.7453 5.31963 22.5705 4.49429C23.3957 3.66895 23.8598 2.54994 23.8609 1.38281C23.8609 1.28128 23.8206 1.18391 23.7488 1.11212C23.677 1.04033 23.5796 1 23.4781 1H21.5566C20.6884 1.00094 19.8399 1.25825 19.1174 1.73964C18.3949 2.22104 17.8307 2.90508 17.4955 3.70594C17.1264 2.89968 16.5339 2.2162 15.7881 1.73658C15.0423 1.25695 14.1746 1.00132 13.2878 1C13.1863 1 13.0889 1.04033 13.0172 1.11212C12.9454 1.18391 12.905 1.28128 12.905 1.38281C12.905 1.48434 12.9454 1.58171 13.0172 1.6535C13.0889 1.72529 13.1863 1.76562 13.2878 1.76562C14.3131 1.7669 15.2959 2.17473 16.0209 2.89967C16.7458 3.62461 17.1536 4.60747 17.1549 5.63269V8.84831C16.1894 8.13053 15.0538 7.67615 13.8597 7.52975C12.6655 7.38336 11.4538 7.54999 10.3435 8.01329C9.23324 8.47659 8.26248 9.22063 7.52656 10.1724C6.79064 11.1241 6.31484 12.2509 6.14588 13.4421H2.66797C2.22587 13.4426 1.80202 13.6184 1.48934 13.9309C1.17667 14.2435 1.00069 14.6673 1 15.1094V21.5352C1.00052 21.9774 1.17642 22.4013 1.48911 22.714C1.8018 23.0267 2.22576 23.2026 2.66797 23.2031H9.72813L12.9247 27.4355C13.293 27.9204 13.7682 28.3138 14.3132 28.5851C14.8583 28.8565 15.4586 28.9984 16.0675 29C16.5714 29.0004 17.0707 28.9033 17.5377 28.7141C18.0047 28.9034 18.504 29.0005 19.0079 29C19.6168 28.9984 20.217 28.8564 20.7621 28.5851C21.3071 28.3137 21.7822 27.9203 22.1505 27.4355L26.6213 21.5163C28.1603 19.4703 28.9949 16.9806 29 14.4203C28.998 12.5796 28.2659 10.8149 26.9643 9.51325C25.6627 8.21165 23.898 7.47949 22.0573 7.47741ZM21.5566 1.76562H23.0754C22.9797 2.65828 22.5577 3.48414 21.8903 4.08459C21.2229 4.68505 20.3572 5.01778 19.4594 5.01887H17.9404C18.0361 4.1262 18.4582 3.30034 19.1256 2.69989C19.7931 2.09943 20.6588 1.76671 21.5566 1.76562V1.76562ZM2.66797 14.207H6.07916C6.06393 14.8105 6.09949 15.4142 6.18547 16.0117H2.66797C2.42865 16.0117 2.19914 15.9166 2.02992 15.7474C1.86069 15.5782 1.76562 15.3487 1.76562 15.1094C1.76562 14.8701 1.86069 14.6405 2.02992 14.4713C2.19914 14.3021 2.42865 14.207 2.66797 14.207V14.207ZM1.76562 21.5352V16.5116C2.03506 16.6841 2.34805 16.7762 2.66797 16.7773H20.7422V22.4375H18.9648V19.9766C18.9648 19.875 18.9245 19.7777 18.8527 19.7059C18.7809 19.6341 18.6836 19.5937 18.582 19.5937C18.4805 19.5937 18.3831 19.6341 18.3113 19.7059C18.2396 19.7777 18.1992 19.875 18.1992 19.9766V22.4375H17.1055V21.207C17.1055 21.1055 17.0651 21.0081 16.9933 20.9363C16.9216 20.8645 16.8242 20.8242 16.7227 20.8242C16.6211 20.8242 16.5238 20.8645 16.452 20.9363C16.3802 21.0081 16.3398 21.1055 16.3398 21.207V22.4375H15.2461V19.9766C15.2461 19.875 15.2058 19.7777 15.134 19.7059C15.0622 19.6341 14.9648 19.5937 14.8633 19.5937C14.7618 19.5937 14.6644 19.6341 14.5926 19.7059C14.5208 19.7777 14.4805 19.875 14.4805 19.9766V22.4375H13.3867V21.207C13.3867 21.1055 13.3464 21.0081 13.2746 20.9363C13.2028 20.8645 13.1054 20.8242 13.0039 20.8242C12.9024 20.8242 12.805 20.8645 12.7332 20.9363C12.6614 21.0081 12.6211 21.1055 12.6211 21.207V22.4375H11.5273V19.9766C11.5273 19.875 11.487 19.7777 11.4152 19.7059C11.3434 19.6341 11.2461 19.5937 11.1445 19.5937C11.043 19.5937 10.9456 19.6341 10.8738 19.7059C10.8021 19.7777 10.7617 19.875 10.7617 19.9766V22.4375H9.66797V21.207C9.66797 21.1055 9.62764 21.0081 9.55585 20.9363C9.48405 20.8645 9.38668 20.8242 9.28516 20.8242C9.18363 20.8242 9.08626 20.8645 9.01447 20.9363C8.94268 21.0081 8.90234 21.1055 8.90234 21.207V22.4375H7.80859V19.9766C7.80859 19.875 7.76826 19.7777 7.69647 19.7059C7.62468 19.6341 7.52731 19.5937 7.42578 19.5937C7.32425 19.5937 7.22688 19.6341 7.15509 19.7059C7.0833 19.7777 7.04297 19.875 7.04297 19.9766V22.4375H5.94922V21.207C5.94922 21.1055 5.90889 21.0081 5.8371 20.9363C5.7653 20.8645 5.66793 20.8242 5.56641 20.8242C5.46488 20.8242 5.36751 20.8645 5.29572 20.9363C5.22393 21.0081 5.18359 21.1055 5.18359 21.207V22.4375H4.08984V19.9766C4.08984 19.875 4.04951 19.7777 3.97772 19.7059C3.90593 19.6341 3.80856 19.5937 3.70703 19.5937C3.6055 19.5937 3.50813 19.6341 3.43634 19.7059C3.36455 19.7777 3.32422 19.875 3.32422 19.9766V22.4375H2.66797C2.42874 22.4372 2.19939 22.342 2.03024 22.1729C1.86108 22.0037 1.76591 21.7744 1.76562 21.5352V21.5352ZM26.0103 21.0539L21.5406 26.9739C21.2439 27.3647 20.861 27.6817 20.4217 27.9003C19.9824 28.1189 19.4986 28.2333 19.0079 28.2344C18.5551 28.235 18.1074 28.138 17.6954 27.95C17.6457 27.9273 17.5917 27.9156 17.5371 27.9156C17.4824 27.9156 17.4284 27.9273 17.3787 27.95C16.9667 28.138 16.519 28.235 16.0662 28.2344C15.5757 28.2331 15.0921 28.1187 14.6531 27.9001C14.214 27.6815 13.8312 27.3645 13.5346 26.9739L10.6878 23.2031H21.125C21.2265 23.2031 21.3239 23.1628 21.3957 23.091C21.4675 23.0192 21.5078 22.9218 21.5078 22.8203V16.3945C21.5078 16.293 21.4675 16.1956 21.3957 16.1238C21.3239 16.052 21.2265 16.0117 21.125 16.0117H6.96094C6.84675 15.3042 6.81519 14.5858 6.86687 13.871C6.9695 12.7137 7.3966 11.6088 8.09908 10.6834C8.80156 9.7579 9.75092 9.04945 10.838 8.63941C11.9252 8.22938 13.1059 8.13441 14.2446 8.36543C15.3833 8.59644 16.4336 9.14406 17.275 9.94534C17.3468 10.0118 17.441 10.0487 17.5388 10.0487C17.6366 10.0487 17.7308 10.0118 17.8026 9.94534C18.6781 9.11248 19.7786 8.55475 20.968 8.34125C22.1573 8.12775 23.3831 8.26786 24.4936 8.74423C25.604 9.22059 26.5504 10.0123 27.2153 11.0212C27.8802 12.0301 28.2346 13.212 28.2344 14.4203C28.2297 16.8141 27.4493 19.142 26.0103 21.055V21.0539Z"/>
</mask>
<path d="M22.0573 7.47741C20.5666 7.47556 19.1154 7.95626 17.9205 8.84766V5.78516H19.4592C20.6263 5.78388 21.7453 5.31963 22.5705 4.49429C23.3957 3.66895 23.8598 2.54994 23.8609 1.38281C23.8609 1.28128 23.8206 1.18391 23.7488 1.11212C23.677 1.04033 23.5796 1 23.4781 1H21.5566C20.6884 1.00094 19.8399 1.25825 19.1174 1.73964C18.3949 2.22104 17.8307 2.90508 17.4955 3.70594C17.1264 2.89968 16.5339 2.2162 15.7881 1.73658C15.0423 1.25695 14.1746 1.00132 13.2878 1C13.1863 1 13.0889 1.04033 13.0172 1.11212C12.9454 1.18391 12.905 1.28128 12.905 1.38281C12.905 1.48434 12.9454 1.58171 13.0172 1.6535C13.0889 1.72529 13.1863 1.76562 13.2878 1.76562C14.3131 1.7669 15.2959 2.17473 16.0209 2.89967C16.7458 3.62461 17.1536 4.60747 17.1549 5.63269V8.84831C16.1894 8.13053 15.0538 7.67615 13.8597 7.52975C12.6655 7.38336 11.4538 7.54999 10.3435 8.01329C9.23324 8.47659 8.26248 9.22063 7.52656 10.1724C6.79064 11.1241 6.31484 12.2509 6.14588 13.4421H2.66797C2.22587 13.4426 1.80202 13.6184 1.48934 13.9309C1.17667 14.2435 1.00069 14.6673 1 15.1094V21.5352C1.00052 21.9774 1.17642 22.4013 1.48911 22.714C1.8018 23.0267 2.22576 23.2026 2.66797 23.2031H9.72813L12.9247 27.4355C13.293 27.9204 13.7682 28.3138 14.3132 28.5851C14.8583 28.8565 15.4586 28.9984 16.0675 29C16.5714 29.0004 17.0707 28.9033 17.5377 28.7141C18.0047 28.9034 18.504 29.0005 19.0079 29C19.6168 28.9984 20.217 28.8564 20.7621 28.5851C21.3071 28.3137 21.7822 27.9203 22.1505 27.4355L26.6213 21.5163C28.1603 19.4703 28.9949 16.9806 29 14.4203C28.998 12.5796 28.2659 10.8149 26.9643 9.51325C25.6627 8.21165 23.898 7.47949 22.0573 7.47741ZM21.5566 1.76562H23.0754C22.9797 2.65828 22.5577 3.48414 21.8903 4.08459C21.2229 4.68505 20.3572 5.01778 19.4594 5.01887H17.9404C18.0361 4.1262 18.4582 3.30034 19.1256 2.69989C19.7931 2.09943 20.6588 1.76671 21.5566 1.76562V1.76562ZM2.66797 14.207H6.07916C6.06393 14.8105 6.09949 15.4142 6.18547 16.0117H2.66797C2.42865 16.0117 2.19914 15.9166 2.02992 15.7474C1.86069 15.5782 1.76562 15.3487 1.76562 15.1094C1.76562 14.8701 1.86069 14.6405 2.02992 14.4713C2.19914 14.3021 2.42865 14.207 2.66797 14.207V14.207ZM1.76562 21.5352V16.5116C2.03506 16.6841 2.34805 16.7762 2.66797 16.7773H20.7422V22.4375H18.9648V19.9766C18.9648 19.875 18.9245 19.7777 18.8527 19.7059C18.7809 19.6341 18.6836 19.5937 18.582 19.5937C18.4805 19.5937 18.3831 19.6341 18.3113 19.7059C18.2396 19.7777 18.1992 19.875 18.1992 19.9766V22.4375H17.1055V21.207C17.1055 21.1055 17.0651 21.0081 16.9933 20.9363C16.9216 20.8645 16.8242 20.8242 16.7227 20.8242C16.6211 20.8242 16.5238 20.8645 16.452 20.9363C16.3802 21.0081 16.3398 21.1055 16.3398 21.207V22.4375H15.2461V19.9766C15.2461 19.875 15.2058 19.7777 15.134 19.7059C15.0622 19.6341 14.9648 19.5937 14.8633 19.5937C14.7618 19.5937 14.6644 19.6341 14.5926 19.7059C14.5208 19.7777 14.4805 19.875 14.4805 19.9766V22.4375H13.3867V21.207C13.3867 21.1055 13.3464 21.0081 13.2746 20.9363C13.2028 20.8645 13.1054 20.8242 13.0039 20.8242C12.9024 20.8242 12.805 20.8645 12.7332 20.9363C12.6614 21.0081 12.6211 21.1055 12.6211 21.207V22.4375H11.5273V19.9766C11.5273 19.875 11.487 19.7777 11.4152 19.7059C11.3434 19.6341 11.2461 19.5937 11.1445 19.5937C11.043 19.5937 10.9456 19.6341 10.8738 19.7059C10.8021 19.7777 10.7617 19.875 10.7617 19.9766V22.4375H9.66797V21.207C9.66797 21.1055 9.62764 21.0081 9.55585 20.9363C9.48405 20.8645 9.38668 20.8242 9.28516 20.8242C9.18363 20.8242 9.08626 20.8645 9.01447 20.9363C8.94268 21.0081 8.90234 21.1055 8.90234 21.207V22.4375H7.80859V19.9766C7.80859 19.875 7.76826 19.7777 7.69647 19.7059C7.62468 19.6341 7.52731 19.5937 7.42578 19.5937C7.32425 19.5937 7.22688 19.6341 7.15509 19.7059C7.0833 19.7777 7.04297 19.875 7.04297 19.9766V22.4375H5.94922V21.207C5.94922 21.1055 5.90889 21.0081 5.8371 20.9363C5.7653 20.8645 5.66793 20.8242 5.56641 20.8242C5.46488 20.8242 5.36751 20.8645 5.29572 20.9363C5.22393 21.0081 5.18359 21.1055 5.18359 21.207V22.4375H4.08984V19.9766C4.08984 19.875 4.04951 19.7777 3.97772 19.7059C3.90593 19.6341 3.80856 19.5937 3.70703 19.5937C3.6055 19.5937 3.50813 19.6341 3.43634 19.7059C3.36455 19.7777 3.32422 19.875 3.32422 19.9766V22.4375H2.66797C2.42874 22.4372 2.19939 22.342 2.03024 22.1729C1.86108 22.0037 1.76591 21.7744 1.76562 21.5352V21.5352ZM26.0103 21.0539L21.5406 26.9739C21.2439 27.3647 20.861 27.6817 20.4217 27.9003C19.9824 28.1189 19.4986 28.2333 19.0079 28.2344C18.5551 28.235 18.1074 28.138 17.6954 27.95C17.6457 27.9273 17.5917 27.9156 17.5371 27.9156C17.4824 27.9156 17.4284 27.9273 17.3787 27.95C16.9667 28.138 16.519 28.235 16.0662 28.2344C15.5757 28.2331 15.0921 28.1187 14.6531 27.9001C14.214 27.6815 13.8312 27.3645 13.5346 26.9739L10.6878 23.2031H21.125C21.2265 23.2031 21.3239 23.1628 21.3957 23.091C21.4675 23.0192 21.5078 22.9218 21.5078 22.8203V16.3945C21.5078 16.293 21.4675 16.1956 21.3957 16.1238C21.3239 16.052 21.2265 16.0117 21.125 16.0117H6.96094C6.84675 15.3042 6.81519 14.5858 6.86687 13.871C6.9695 12.7137 7.3966 11.6088 8.09908 10.6834C8.80156 9.7579 9.75092 9.04945 10.838 8.63941C11.9252 8.22938 13.1059 8.13441 14.2446 8.36543C15.3833 8.59644 16.4336 9.14406 17.275 9.94534C17.3468 10.0118 17.441 10.0487 17.5388 10.0487C17.6366 10.0487 17.7308 10.0118 17.8026 9.94534C18.6781 9.11248 19.7786 8.55475 20.968 8.34125C22.1573 8.12775 23.3831 8.26786 24.4936 8.74423C25.604 9.22059 26.5504 10.0123 27.2153 11.0212C27.8802 12.0301 28.2346 13.212 28.2344 14.4203C28.2297 16.8141 27.4493 19.142 26.0103 21.055V21.0539Z" fill="#A5FF01"/>
<path d="M22.0573 7.47741C20.5666 7.47556 19.1154 7.95626 17.9205 8.84766V5.78516H19.4592C20.6263 5.78388 21.7453 5.31963 22.5705 4.49429C23.3957 3.66895 23.8598 2.54994 23.8609 1.38281C23.8609 1.28128 23.8206 1.18391 23.7488 1.11212C23.677 1.04033 23.5796 1 23.4781 1H21.5566C20.6884 1.00094 19.8399 1.25825 19.1174 1.73964C18.3949 2.22104 17.8307 2.90508 17.4955 3.70594C17.1264 2.89968 16.5339 2.2162 15.7881 1.73658C15.0423 1.25695 14.1746 1.00132 13.2878 1C13.1863 1 13.0889 1.04033 13.0172 1.11212C12.9454 1.18391 12.905 1.28128 12.905 1.38281C12.905 1.48434 12.9454 1.58171 13.0172 1.6535C13.0889 1.72529 13.1863 1.76562 13.2878 1.76562C14.3131 1.7669 15.2959 2.17473 16.0209 2.89967C16.7458 3.62461 17.1536 4.60747 17.1549 5.63269V8.84831C16.1894 8.13053 15.0538 7.67615 13.8597 7.52975C12.6655 7.38336 11.4538 7.54999 10.3435 8.01329C9.23324 8.47659 8.26248 9.22063 7.52656 10.1724C6.79064 11.1241 6.31484 12.2509 6.14588 13.4421H2.66797C2.22587 13.4426 1.80202 13.6184 1.48934 13.9309C1.17667 14.2435 1.00069 14.6673 1 15.1094V21.5352C1.00052 21.9774 1.17642 22.4013 1.48911 22.714C1.8018 23.0267 2.22576 23.2026 2.66797 23.2031H9.72813L12.9247 27.4355C13.293 27.9204 13.7682 28.3138 14.3132 28.5851C14.8583 28.8565 15.4586 28.9984 16.0675 29C16.5714 29.0004 17.0707 28.9033 17.5377 28.7141C18.0047 28.9034 18.504 29.0005 19.0079 29C19.6168 28.9984 20.217 28.8564 20.7621 28.5851C21.3071 28.3137 21.7822 27.9203 22.1505 27.4355L26.6213 21.5163C28.1603 19.4703 28.9949 16.9806 29 14.4203C28.998 12.5796 28.2659 10.8149 26.9643 9.51325C25.6627 8.21165 23.898 7.47949 22.0573 7.47741ZM21.5566 1.76562H23.0754C22.9797 2.65828 22.5577 3.48414 21.8903 4.08459C21.2229 4.68505 20.3572 5.01778 19.4594 5.01887H17.9404C18.0361 4.1262 18.4582 3.30034 19.1256 2.69989C19.7931 2.09943 20.6588 1.76671 21.5566 1.76562V1.76562ZM2.66797 14.207H6.07916C6.06393 14.8105 6.09949 15.4142 6.18547 16.0117H2.66797C2.42865 16.0117 2.19914 15.9166 2.02992 15.7474C1.86069 15.5782 1.76562 15.3487 1.76562 15.1094C1.76562 14.8701 1.86069 14.6405 2.02992 14.4713C2.19914 14.3021 2.42865 14.207 2.66797 14.207V14.207ZM1.76562 21.5352V16.5116C2.03506 16.6841 2.34805 16.7762 2.66797 16.7773H20.7422V22.4375H18.9648V19.9766C18.9648 19.875 18.9245 19.7777 18.8527 19.7059C18.7809 19.6341 18.6836 19.5937 18.582 19.5937C18.4805 19.5937 18.3831 19.6341 18.3113 19.7059C18.2396 19.7777 18.1992 19.875 18.1992 19.9766V22.4375H17.1055V21.207C17.1055 21.1055 17.0651 21.0081 16.9933 20.9363C16.9216 20.8645 16.8242 20.8242 16.7227 20.8242C16.6211 20.8242 16.5238 20.8645 16.452 20.9363C16.3802 21.0081 16.3398 21.1055 16.3398 21.207V22.4375H15.2461V19.9766C15.2461 19.875 15.2058 19.7777 15.134 19.7059C15.0622 19.6341 14.9648 19.5937 14.8633 19.5937C14.7618 19.5937 14.6644 19.6341 14.5926 19.7059C14.5208 19.7777 14.4805 19.875 14.4805 19.9766V22.4375H13.3867V21.207C13.3867 21.1055 13.3464 21.0081 13.2746 20.9363C13.2028 20.8645 13.1054 20.8242 13.0039 20.8242C12.9024 20.8242 12.805 20.8645 12.7332 20.9363C12.6614 21.0081 12.6211 21.1055 12.6211 21.207V22.4375H11.5273V19.9766C11.5273 19.875 11.487 19.7777 11.4152 19.7059C11.3434 19.6341 11.2461 19.5937 11.1445 19.5937C11.043 19.5937 10.9456 19.6341 10.8738 19.7059C10.8021 19.7777 10.7617 19.875 10.7617 19.9766V22.4375H9.66797V21.207C9.66797 21.1055 9.62764 21.0081 9.55585 20.9363C9.48405 20.8645 9.38668 20.8242 9.28516 20.8242C9.18363 20.8242 9.08626 20.8645 9.01447 20.9363C8.94268 21.0081 8.90234 21.1055 8.90234 21.207V22.4375H7.80859V19.9766C7.80859 19.875 7.76826 19.7777 7.69647 19.7059C7.62468 19.6341 7.52731 19.5937 7.42578 19.5937C7.32425 19.5937 7.22688 19.6341 7.15509 19.7059C7.0833 19.7777 7.04297 19.875 7.04297 19.9766V22.4375H5.94922V21.207C5.94922 21.1055 5.90889 21.0081 5.8371 20.9363C5.7653 20.8645 5.66793 20.8242 5.56641 20.8242C5.46488 20.8242 5.36751 20.8645 5.29572 20.9363C5.22393 21.0081 5.18359 21.1055 5.18359 21.207V22.4375H4.08984V19.9766C4.08984 19.875 4.04951 19.7777 3.97772 19.7059C3.90593 19.6341 3.80856 19.5937 3.70703 19.5937C3.6055 19.5937 3.50813 19.6341 3.43634 19.7059C3.36455 19.7777 3.32422 19.875 3.32422 19.9766V22.4375H2.66797C2.42874 22.4372 2.19939 22.342 2.03024 22.1729C1.86108 22.0037 1.76591 21.7744 1.76562 21.5352V21.5352ZM26.0103 21.0539L21.5406 26.9739C21.2439 27.3647 20.861 27.6817 20.4217 27.9003C19.9824 28.1189 19.4986 28.2333 19.0079 28.2344C18.5551 28.235 18.1074 28.138 17.6954 27.95C17.6457 27.9273 17.5917 27.9156 17.5371 27.9156C17.4824 27.9156 17.4284 27.9273 17.3787 27.95C16.9667 28.138 16.519 28.235 16.0662 28.2344C15.5757 28.2331 15.0921 28.1187 14.6531 27.9001C14.214 27.6815 13.8312 27.3645 13.5346 26.9739L10.6878 23.2031H21.125C21.2265 23.2031 21.3239 23.1628 21.3957 23.091C21.4675 23.0192 21.5078 22.9218 21.5078 22.8203V16.3945C21.5078 16.293 21.4675 16.1956 21.3957 16.1238C21.3239 16.052 21.2265 16.0117 21.125 16.0117H6.96094C6.84675 15.3042 6.81519 14.5858 6.86687 13.871C6.9695 12.7137 7.3966 11.6088 8.09908 10.6834C8.80156 9.7579 9.75092 9.04945 10.838 8.63941C11.9252 8.22938 13.1059 8.13441 14.2446 8.36543C15.3833 8.59644 16.4336 9.14406 17.275 9.94534C17.3468 10.0118 17.441 10.0487 17.5388 10.0487C17.6366 10.0487 17.7308 10.0118 17.8026 9.94534C18.6781 9.11248 19.7786 8.55475 20.968 8.34125C22.1573 8.12775 23.3831 8.26786 24.4936 8.74423C25.604 9.22059 26.5504 10.0123 27.2153 11.0212C27.8802 12.0301 28.2346 13.212 28.2344 14.4203C28.2297 16.8141 27.4493 19.142 26.0103 21.055V21.0539Z" stroke="#A5FF01" mask="url(#path-1-outside-1)"/>
</svg>
