<svg width="54" height="55" viewBox="0 0 54 55" fill="none" xmlns="http://www.w3.org/2000/svg">
<g clip-path="url(#clip0)">
<path d="M53.2088 39.3636C53.6456 39.3636 53.9998 39.0095 53.9998 38.5726V37.0428C53.9998 35.4963 52.819 34.2381 51.3676 34.2381H50.0874V32.6173C50.0874 31.4832 49.1647 30.5606 48.0307 30.5606H41.6635C40.5294 30.5606 39.6068 31.4833 39.6068 32.6173V36.8383C33.919 36.1747 26.839 36.1737 21.1416 36.8383V32.6173C21.1416 31.4832 20.2188 30.5606 19.0848 30.5606H18.5817C22.9181 27.9199 27.7676 24.3392 31.5488 20.8519L34.0317 24.2652C34.6998 25.1839 35.9895 25.3846 36.9049 24.7188L42.054 20.9736C42.054 20.9736 42.054 20.9736 42.054 20.9735C42.971 20.3065 43.1745 19.0175 42.5074 18.1003L41.554 16.7895L42.5892 16.0366C43.763 15.1827 43.9778 13.4707 43.0682 12.2201L38.7745 6.31713C37.8648 5.06669 36.17 4.74364 34.9962 5.59741L33.9609 6.35056L33.0075 5.0399C32.3405 4.12254 31.0516 3.9193 30.1344 4.58628L24.9853 8.33147C24.0682 8.99846 23.8648 10.2874 24.5319 11.2046L27.0147 14.618C22.0233 17.428 16.2984 21.591 12.0819 25.4797L10.2555 22.969C9.22701 21.555 7.23702 21.2407 5.82322 22.2695L2.47923 24.7017C1.06448 25.7309 0.750709 27.7192 1.77977 29.1341L2.07655 29.5421L1.04138 30.2951C-0.155794 31.1657 -0.328657 32.8865 0.562447 34.1116L4.85607 40.0143C5.32583 40.6603 6.01433 41.0711 6.7486 41.1803V44.342C6.7486 45.8885 7.92943 47.1467 9.38078 47.1467H10.661V48.7675C10.661 49.9016 11.5837 50.8242 12.7177 50.8242H19.0848C20.2189 50.8242 21.1416 49.9015 21.1416 48.7675V44.5469C23.3896 44.8085 25.9168 44.9729 28.5125 45.0251C28.5179 45.0254 28.5233 45.0254 28.5287 45.0254C28.9582 45.0254 29.3106 44.6815 29.3194 44.2502C29.3281 43.8134 28.9812 43.4522 28.5443 43.4434C25.9271 43.3907 23.3846 43.2223 21.1416 42.9541V38.4306C26.7374 37.7599 33.8948 37.746 39.6068 38.4306V42.9541C37.364 43.2223 34.8214 43.3907 32.2041 43.4434C31.7673 43.4522 31.4202 43.8134 31.429 44.2501C31.4377 44.6815 31.79 45.0254 32.2197 45.0254C32.2251 45.0254 32.2305 45.0254 32.2359 45.0251C34.8317 44.9729 37.3588 44.8085 39.6068 44.5469V48.7675C39.6068 49.9016 40.5295 50.8242 41.6635 50.8242H48.0307C49.1648 50.8242 50.0874 49.9015 50.0874 48.7675V47.1467H51.3676C52.819 47.1467 53.9998 45.8885 53.9998 44.342V42.2643C53.9998 41.8273 53.6456 41.4733 53.2088 41.4733C52.7719 41.4733 52.4177 41.8273 52.4177 42.2643V44.342C52.4177 45.0047 51.9369 45.5646 51.3677 45.5646H50.0875V35.8204H51.3677C51.9368 35.8204 52.4177 36.3802 52.4177 37.0429V38.5727C52.4176 39.0095 52.7719 39.3636 53.2088 39.3636ZM35.9268 6.87685C36.3869 6.5423 37.1054 6.712 37.495 7.24789L41.7886 13.1509C42.1784 13.6866 42.1188 14.4224 41.6586 14.7571L40.6233 15.5101C39.9824 14.6286 35.543 8.52543 34.8915 7.62979L35.9268 6.87685ZM25.8113 10.2742C25.6601 10.0661 25.7079 9.76247 25.9159 9.61112L31.065 5.86583C31.2739 5.71406 31.5772 5.7631 31.728 5.97056C32.0482 6.41078 39.427 16.5552 39.8091 17.0806C39.8093 17.0808 39.8094 17.081 39.8096 17.0812L41.2278 19.0309C41.3792 19.239 41.3313 19.5427 41.1232 19.694L35.974 23.4393C35.765 23.5912 35.4644 23.5454 35.3112 23.3346C34.9991 22.9056 26.1879 10.7919 25.8113 10.2742ZM27.9514 15.906L30.6122 19.5641C26.4967 23.3837 20.724 27.6063 15.6791 30.4251L13.0187 26.7676C17.1231 22.958 22.8993 18.7288 27.9514 15.906ZM6.7486 37.0428V39.5537C6.5133 39.4661 6.29582 39.3039 6.13572 39.0837L1.8421 33.1808C1.43446 32.6206 1.52559 31.8994 1.97214 31.5745L3.00731 30.8216C3.13282 30.9942 4.11547 32.3451 6.88518 36.153C6.79089 36.4527 6.7486 36.7619 6.7486 37.0428ZM10.661 45.5645H9.38078C8.81167 45.5645 8.33073 45.0047 8.33073 44.3419C8.33073 43.6273 8.33073 37.7877 8.33073 37.0426C8.33073 36.7663 8.42196 36.468 8.60263 36.2336C8.81779 35.954 9.10878 35.8202 9.38078 35.8202H10.6609V45.5645H10.661ZM10.661 32.6172V34.238H9.38078C9.31655 34.238 9.25295 34.2413 9.18977 34.2463C9.1786 34.2471 9.16742 34.2479 9.15624 34.249C8.66644 34.2933 8.21461 34.4809 7.83777 34.7725L3.05931 28.2032C2.54336 27.4941 2.70061 26.4971 3.40989 25.9811L6.75387 23.5489C7.45999 23.0349 8.46204 23.1928 8.97599 23.8996C9.55195 24.6913 13.2045 29.713 13.8209 30.5603H12.7176C11.5837 30.5603 10.661 31.4831 10.661 32.6172ZM19.5595 48.7674C19.5595 49.0246 19.3422 49.242 19.0849 49.242H12.7178C12.4606 49.242 12.2432 49.0246 12.2432 48.7674C12.2432 48.0229 12.2432 33.1027 12.2432 32.6173C12.2432 32.3601 12.4606 32.1427 12.7178 32.1427C14.3276 32.1427 15.2164 32.1427 15.679 32.1427C16.0125 32.1427 16.1248 32.1427 16.1257 32.1427C16.5882 32.1427 17.4764 32.1427 19.0849 32.1427C19.3422 32.1427 19.5595 32.3601 19.5595 32.6173C19.5595 33.5961 19.5595 48.1655 19.5595 48.7674ZM48.5054 48.7674C48.5054 49.0246 48.288 49.242 48.0308 49.242H41.6636C41.4064 49.242 41.189 49.0246 41.189 48.7674V32.6173C41.189 32.3601 41.4064 32.1427 41.6636 32.1427H48.0308C48.288 32.1427 48.5054 32.3601 48.5054 32.6173C48.5054 33.5916 48.5054 48.2447 48.5054 48.7674Z" fill="black"/>
</g>
<defs>
<clipPath id="clip0">
<rect width="54" height="54" fill="white" transform="translate(0 0.508789)"/>
</clipPath>
</defs>
</svg>
