<svg width="298" height="133" viewBox="0 0 298 133" fill="none" xmlns="http://www.w3.org/2000/svg">
<path d="M106.821 28.968C106.183 28.4467 105.63 28.0412 105.167 27.7516C104.297 27.1724 103.891 26.3614 103.949 25.3188L104.034 24.0133C104.034 23.7236 104.177 23.5231 104.471 23.4028C104.935 23.3449 105.528 23.1266 106.255 22.7523C106.977 22.378 107.646 21.8121 108.257 21.0591C108.868 20.3061 109.403 19.3348 109.866 18.1495C110.33 16.9643 110.589 15.4984 110.651 13.7607C110.651 11.7913 110.464 10.2719 110.085 9.19804C109.706 8.12867 109.313 7.3311 108.912 6.80978C108.39 6.17261 107.78 5.82507 107.084 5.76714C106.041 5.82507 105.242 6.15925 104.694 6.76522C104.141 7.37565 103.722 8.09748 103.432 8.93961C103.142 9.78173 102.995 10.6506 102.995 11.5462C102.995 12.4462 102.995 13.1547 102.995 13.676C102.937 13.8498 102.835 13.979 102.692 14.0681C102.545 14.1572 102.389 14.1394 102.215 14.0236C101.577 13.5602 101.011 12.9676 100.52 12.2413C100.025 11.5195 99.6954 10.9803 99.5215 10.6328C99.4055 10.459 99.3743 10.1961 99.4368 9.84857C99.6686 7.64745 100.275 6.02557 101.265 4.98294C102.25 3.9403 103.236 3.21848 104.221 2.80856C105.497 2.40309 106.888 2.28724 108.395 2.46101C109.96 2.69271 111.351 3.24521 112.569 4.11408C113.67 4.86709 114.624 6.01221 115.44 7.54497C116.252 9.08219 116.626 11.212 116.573 13.93C116.631 16.5945 116.252 18.653 115.44 20.1011C114.629 21.5493 113.67 22.6231 112.569 23.3182C111.409 24.1291 110.076 24.5925 108.569 24.7083C109.67 25.1138 110.682 25.5772 111.614 26.0985L116.747 23.5766C117.79 23.2291 118.865 22.8815 119.966 22.534C121.067 22.1864 122.169 21.8968 123.27 21.6651C123.85 21.5493 124.313 21.723 124.661 22.1864C124.835 22.4181 124.862 22.681 124.746 22.9706C124.514 23.2602 124.282 23.4652 124.05 23.5811C123.355 23.6969 122.427 23.9286 121.268 24.2761C118.544 25.2029 116.051 26.2768 113.79 27.4932C115.703 28.9413 117.094 30.3894 117.964 31.8375C118.775 33.2277 119.324 34.6758 119.618 36.1818C119.966 37.4561 120.256 39.283 120.488 41.6579C120.72 44.0327 120.746 46.4076 120.572 48.7825C120.398 51.1574 120.051 53.5056 119.529 55.8225C118.891 58.0816 117.906 60.1669 116.573 62.0784C115.587 63.7002 114.37 65.1216 112.921 66.338C111.645 67.3806 110.107 68.3653 108.31 69.2921C106.455 70.2189 104.252 70.7402 101.702 70.8561C99.4412 70.9719 97.4703 70.3615 95.7893 69.0293C94.1083 67.6391 92.833 65.8434 91.9635 63.6423C90.9781 61.4412 90.4564 58.9772 90.3984 56.2547C90.3404 53.4744 90.8042 50.7519 91.7896 48.0874C92.3693 46.5235 93.1496 44.8437 94.1395 43.048C95.1829 41.2524 96.4314 39.4567 97.8806 37.6611C99.2718 35.7496 100.926 33.9228 102.839 32.185C104.096 31.0221 105.43 29.9527 106.821 28.968ZM111.431 60.7728C112.649 58.5138 113.371 55.9072 113.607 52.9531C113.781 50.0569 113.697 47.1607 113.349 44.2644C113.001 41.3103 112.479 38.8775 111.784 36.966C111.088 34.707 109.987 32.5058 108.48 30.3626C107.03 31.2894 105.118 32.8846 102.741 35.1436C100.306 37.4606 98.1303 40.2409 96.2174 43.4847C95.2899 45.1645 94.5363 46.9913 93.9567 48.9608C93.377 50.6406 93.0292 52.5521 92.9133 54.6953C92.7973 56.8384 93.0872 59.0707 93.7828 61.3877C94.2465 62.9517 94.8262 64.1681 95.5218 65.0369C96.1594 65.8479 96.8283 66.4539 97.5239 66.8638C98.2774 67.3272 99.0577 67.648 99.8737 67.8218C101.787 68.1114 103.441 67.9064 104.832 67.2113C106.223 66.5742 107.441 65.732 108.484 64.6894C109.63 63.6423 110.615 62.3368 111.431 60.7728Z" fill="white"/>
<path d="M147.175 44.086C147.175 44.4914 147.202 44.8969 147.26 45.3024C147.318 45.6499 147.362 45.9975 147.389 46.345C147.416 46.6925 147.492 46.9242 147.607 47.0401C148.245 46.4029 148.883 45.6232 149.52 44.6919C150.158 43.7651 150.738 42.8517 151.259 41.9561C151.781 41.0605 152.218 40.2318 152.566 39.4788C152.914 38.7257 153.177 38.1732 153.351 37.8257C153.467 37.5361 153.667 37.4514 153.962 37.5628H154.051C154.688 37.7945 154.889 38.2312 154.662 38.8683C153.154 42.1121 151.79 44.6474 150.573 46.4742C149.355 48.3011 148.223 49.6155 147.179 50.4264C147.121 51.0636 147.077 51.7319 147.05 52.427C147.019 53.1221 146.948 53.8439 146.832 54.6014C147.643 54.6593 148.441 54.7306 149.222 54.8197C150.006 54.9044 150.831 55.0381 151.701 55.2118C152.686 55.4435 153.556 55.7599 154.309 56.1698C154.947 56.5174 155.495 56.9808 155.964 57.56C156.427 58.1392 156.601 58.8655 156.485 59.7344C156.485 60.0819 156.396 60.4295 156.227 60.777C156.111 61.0666 155.906 61.3696 155.616 61.6904C155.326 62.0068 154.947 62.2563 154.483 62.4301C153.73 62.7197 152.945 62.7464 152.133 62.5147C151.322 62.2831 150.626 61.9622 150.047 61.5568C149.583 61.2092 149.017 60.8305 148.352 60.425C147.683 60.0196 146.943 59.6141 146.127 59.2086C145.775 60.7726 145.32 62.2652 144.763 63.6821C144.205 65.0991 143.532 66.3199 142.738 67.3314C141.945 68.3428 141.008 69.1137 139.929 69.635C138.846 70.1563 137.61 70.3301 136.219 70.1563C134.016 69.9246 132.451 69.1404 131.524 67.8081C130.596 66.4759 130.262 64.9966 130.525 63.3747C130.784 61.7528 131.658 60.1711 133.134 58.6383C134.614 57.1011 136.714 55.956 139.439 55.2074C139.555 52.8325 139.555 50.5735 139.439 48.4303C138.801 49.415 137.9 50.1992 136.741 50.7784C135.582 51.3577 134.217 51.5894 132.652 51.4735C131.435 51.4156 130.186 50.9388 128.911 50.0388C127.636 49.1432 126.521 47.9223 125.562 46.3896C124.604 44.8568 123.895 43.0745 123.431 41.0472C122.967 39.0198 122.967 36.8187 123.431 34.4438C123.895 32.0689 124.577 30.202 125.473 28.8385C126.369 27.4795 127.283 26.4503 128.211 25.7552C129.254 24.9442 130.414 24.3962 131.689 24.1021C133.312 23.8704 134.69 23.9729 135.818 24.4051C136.95 24.8418 137.891 25.3898 138.645 26.0582C139.398 26.7265 139.969 27.4038 140.348 28.0989C140.727 28.794 140.977 29.2574 141.097 29.4891C141.739 28.9677 142.578 28.5043 143.603 28.0989C144.629 27.6934 145.877 27.4617 147.34 27.4038C147.746 27.4038 147.951 27.6355 147.951 28.0989C147.893 28.794 147.821 29.8099 147.732 31.1421C147.648 32.4744 147.558 33.9091 147.474 35.4419C147.389 36.9791 147.313 38.5119 147.255 40.0491C147.202 41.5818 147.175 42.9275 147.175 44.086ZM135.434 48.956C136.71 48.4347 137.61 47.7708 138.132 46.9554C138.654 46.1445 139.002 45.4761 139.176 44.9548C139.002 43.7384 138.886 42.4774 138.828 41.1764C138.77 39.8709 138.739 38.6277 138.739 37.438C138.739 36.2528 138.765 35.1924 138.828 34.2656C138.886 33.3388 138.912 32.6437 138.912 32.1803C138.912 32.0065 138.912 31.7303 138.912 31.356C138.912 30.9817 138.841 30.5584 138.694 30.095C138.547 29.6316 138.333 29.1816 138.043 28.7494C137.753 28.3128 137.347 27.9518 136.826 27.6622C136.188 27.3726 135.479 27.4038 134.694 27.7513C133.909 28.0989 133.187 28.736 132.518 29.6628C131.849 30.5896 131.301 31.7793 130.864 33.2274C130.427 34.6755 130.24 36.3553 130.298 38.2668C130.414 40.4679 130.632 42.219 130.949 43.5245C131.265 44.8301 131.6 45.9128 131.947 46.7817C132.237 47.5347 132.714 48.1585 133.383 48.6486C134.052 49.1432 134.734 49.2457 135.434 48.956ZM134.213 67.2913C135.024 67.523 135.764 67.3804 136.429 66.8546C137.093 66.3333 137.575 65.6649 137.865 64.854C138.212 63.9851 138.502 62.9871 138.734 61.8553C138.966 60.7236 139.14 59.5205 139.256 58.2506C139.14 58.2506 139.037 58.264 138.953 58.2952C138.868 58.3219 138.765 58.3398 138.649 58.3398C137.78 58.5715 136.968 58.8878 136.215 59.2977C135.577 59.7032 134.922 60.2245 134.257 60.8617C133.588 61.4989 133.111 62.3677 132.821 63.4683C132.648 64.0475 132.59 64.6 132.648 65.1213C132.706 65.5847 132.835 66.0169 133.04 66.4269C133.245 66.8279 133.633 67.1175 134.213 67.2913Z" fill="white"/>
<path d="M173.523 30.0956C173.871 30.617 173.96 31.2274 173.782 31.9225C173.318 33.1968 172.796 34.2974 172.217 35.2242C172.275 35.9193 172.306 36.6589 172.306 37.4386C172.306 38.2184 172.248 39.016 172.132 39.8269C171.842 42.3756 171.276 44.3895 170.437 45.8688C169.595 47.3481 168.743 48.4888 167.874 49.2997C166.83 50.2844 165.698 50.9528 164.48 51.3003C162.335 51.7637 160.507 51.6479 159 50.9528C157.493 50.2577 156.289 49.1883 155.393 47.7358C154.492 46.2877 153.899 44.6212 153.609 42.7409C153.319 40.8606 153.346 38.9625 153.694 37.051C153.752 36.6455 153.868 36.2133 154.042 35.7455C154.158 35.34 154.318 34.9078 154.519 34.44C154.72 33.9766 154.996 33.5132 155.344 33.0498C155.286 32.0071 155.446 30.9779 155.821 29.9664C156.195 28.955 156.717 28.0282 157.386 27.1861C158.05 26.3484 158.835 25.6667 159.736 25.1454C160.632 24.624 161.604 24.3344 162.648 24.2765C164.792 24.1027 166.705 24.7533 168.386 26.2325C170.067 27.7118 171.227 29.8372 171.864 32.6176C172.154 32.0963 172.399 31.6329 172.605 31.2274C172.805 30.8219 172.966 30.4744 173.082 30.1848C173.082 30.0689 173.126 29.9976 173.211 29.9664C173.305 29.9397 173.407 29.9798 173.523 30.0956ZM168.132 42.0904C168.248 41.7429 168.319 41.3686 168.351 40.9587C168.377 40.5532 168.422 40.1744 168.48 39.8269C168.538 39.4214 168.596 38.9892 168.654 38.5214C167.321 39.2744 165.929 39.7111 164.48 39.8269C163.031 39.9428 161.667 39.769 160.391 39.3056C160.333 40.0007 160.289 40.9141 160.262 42.0414C160.231 43.1731 160.32 44.2559 160.521 45.2985C160.721 46.3412 161.1 47.1966 161.653 47.8605C162.202 48.5289 163 48.7428 164.043 48.5111C164.217 48.4532 164.462 48.3685 164.783 48.2482C165.1 48.1323 165.466 47.8739 165.871 47.464C166.277 47.0585 166.683 46.4347 167.089 45.597C167.495 44.7683 167.842 43.5964 168.132 42.0904ZM163.522 27.3153C162.246 27.4311 161.288 28.3 160.65 29.9219C160.94 29.9219 161.23 29.9219 161.519 29.9219C161.809 29.9219 162.13 29.9531 162.478 30.0065C162.652 30.0645 162.781 30.1803 162.871 30.3541C162.955 30.5278 162.942 30.7328 162.826 30.9645C162.536 31.4279 162.215 32.0517 161.867 32.8314C161.519 33.6112 161.198 34.5246 160.909 35.5673C161.198 35.9727 161.519 36.2757 161.867 36.4807C162.215 36.6856 162.532 36.8416 162.826 36.9574C163.174 37.1312 163.548 37.2203 163.959 37.2203C164.944 37.3362 165.827 37.2782 166.612 37.0465C167.396 36.8148 168.105 36.4673 168.743 36.0039C168.685 32.876 168.105 30.617 167.004 29.2268C165.898 27.8366 164.739 27.1994 163.522 27.3153Z" fill="white"/>
<path d="M202.31 37.5724C202.6 37.6883 202.787 37.8621 202.877 38.0938C202.966 38.3254 202.948 38.5883 202.832 38.878C201.267 42.4113 199.76 45.1917 198.311 47.219C197.847 47.9721 197.352 48.48 196.83 48.7384C196.309 49.0013 195.787 49.1573 195.265 49.2152C194.685 49.2152 194.28 49.1573 194.048 49.0414C193.7 49.5048 193.294 49.9103 192.831 50.2578C192.193 50.7791 191.524 51.1846 190.828 51.4742C190.191 51.7639 189.482 51.9376 188.697 51.9956C187.912 52.0535 187.087 51.8485 186.218 51.3851C185.812 51.1534 185.464 50.8638 185.174 50.5163C184.885 50.2266 184.622 49.8345 184.39 49.3444C184.158 48.8543 184.011 48.2884 183.953 47.6512C183.895 47.072 183.908 46.4348 183.997 45.7397C184.086 45.0447 184.39 44.3228 184.911 43.5654C185.549 42.5806 186.303 42.2064 187.172 42.4336C188.042 42.6653 188.938 43.1287 189.87 43.8238C189.986 43.3604 190.102 42.8836 190.218 42.3891C190.334 41.8989 190.449 41.4756 190.565 41.1281C190.681 40.7226 190.739 40.3171 190.739 39.9117C191.203 36.9575 191.377 34.6406 191.261 32.9608C191.145 31.281 190.913 30.0066 190.565 29.1378C190.16 28.0951 189.638 27.4312 189 27.1372C188.015 27.3109 187.159 27.8635 186.436 28.7902C185.71 29.717 185.116 30.7597 184.653 31.9181C184.189 33.0766 183.828 34.1906 183.565 35.2644C183.306 36.3382 183.146 37.0779 183.088 37.4789C182.624 43.2134 182.289 48.9211 182.089 54.5977C181.884 60.2743 181.928 65.835 182.218 71.2843C182.276 71.6319 182.174 71.9215 181.915 72.1532C181.652 72.3849 181.349 72.5007 181.001 72.5007C179.726 72.3849 178.754 72.0373 178.089 71.4581C177.42 70.8788 176.916 70.2684 176.569 69.6312C176.163 68.8782 175.9 68.0361 175.784 67.1093C175.436 64.5027 175.173 61.504 174.999 58.1132C174.825 54.7224 174.723 51.3361 174.696 47.9453C174.669 44.5545 174.682 41.3821 174.74 38.4279C174.798 35.4738 174.883 33.1836 174.999 31.5617C175.115 30.3453 175.374 29.3606 175.784 28.6076C176.19 27.8545 176.796 27.1906 177.612 26.6069C178.597 25.8539 179.596 25.3014 180.613 24.9539C181.625 24.6063 182.481 24.3746 183.177 24.2588C183.467 24.2009 183.743 24.29 184.002 24.5217C184.26 24.7534 184.363 25.0163 184.305 25.3059C184.189 25.8851 184.118 26.4644 184.086 27.0436C184.055 27.6228 183.984 28.2333 183.868 28.8704C184.68 27.5961 185.696 26.451 186.913 25.4396C188.131 24.4281 189.638 24.036 191.435 24.2677C193.174 24.4415 194.565 25.3549 195.608 27.0035C196.652 28.6566 197.348 30.6394 197.695 32.9563C198.043 35.2733 198.03 37.6927 197.651 40.2147C197.272 42.7366 196.536 44.9823 195.435 46.9517C195.84 46.9517 196.219 46.72 196.567 46.2566C197.147 45.5615 197.713 44.7951 198.262 43.953C198.81 43.1153 199.305 42.2999 199.742 41.5202C200.179 40.736 200.554 40.0142 200.875 39.3458C201.191 38.6819 201.41 38.174 201.526 37.8264C201.642 37.5368 201.842 37.4521 202.136 37.5635H202.31V37.5724ZM187.787 47.9141C188.077 47.7983 188.336 47.5398 188.572 47.1299C188.804 46.7245 189.036 46.2343 189.268 45.6506C188.746 45.2452 188.193 44.9288 187.614 44.6927C187.034 44.461 186.628 44.4921 186.396 44.7818C186.222 45.0135 186.12 45.3343 186.093 45.7397C186.062 46.1452 186.093 46.5373 186.178 46.9116C186.267 47.2903 186.436 47.58 186.699 47.7805C186.958 47.9854 187.319 48.03 187.787 47.9141Z" fill="white"/>
<path d="M221.961 30.0956C222.309 30.617 222.398 31.2274 222.22 31.9225C221.756 33.1968 221.234 34.2974 220.655 35.2242C220.713 35.9193 220.744 36.6589 220.744 37.4386C220.744 38.2184 220.686 39.016 220.57 39.8269C220.28 42.3756 219.714 44.3895 218.875 45.8688C218.033 47.3481 217.181 48.4888 216.312 49.2997C215.268 50.2844 214.136 50.9528 212.918 51.3003C210.773 51.7637 208.945 51.6479 207.438 50.9528C205.931 50.2577 204.727 49.1883 203.831 47.7358C202.93 46.2877 202.337 44.6212 202.047 42.7409C201.757 40.8606 201.784 38.9625 202.132 37.051C202.19 36.6455 202.306 36.2133 202.48 35.7455C202.596 35.34 202.756 34.9078 202.957 34.44C203.158 33.9766 203.434 33.5132 203.782 33.0498C203.724 32.0071 203.884 30.9779 204.259 29.9664C204.633 28.955 205.155 28.0282 205.824 27.1861C206.488 26.3484 207.273 25.6667 208.174 25.1454C209.07 24.624 210.042 24.3344 211.086 24.2765C213.23 24.1027 215.143 24.7533 216.824 26.2325C218.505 27.7118 219.665 29.8372 220.302 32.6176C220.592 32.0963 220.837 31.6329 221.043 31.2274C221.243 30.8219 221.404 30.4744 221.52 30.1848C221.52 30.0689 221.564 29.9976 221.649 29.9664C221.747 29.9397 221.845 29.9798 221.961 30.0956ZM216.57 42.0904C216.686 41.7429 216.757 41.3686 216.789 40.9587C216.815 40.5532 216.86 40.1744 216.918 39.8269C216.976 39.4214 217.034 38.9892 217.092 38.5214C215.759 39.2744 214.367 39.7111 212.918 39.8269C211.469 39.9428 210.105 39.769 208.829 39.3056C208.771 40.0007 208.727 40.9141 208.7 42.0414C208.669 43.1731 208.758 44.2559 208.959 45.2985C209.159 46.3412 209.538 47.1966 210.091 47.8605C210.64 48.5289 211.438 48.7428 212.481 48.5111C212.655 48.4532 212.9 48.3685 213.221 48.2482C213.538 48.1323 213.904 47.8739 214.309 47.464C214.715 47.0585 215.121 46.4347 215.527 45.597C215.933 44.7683 216.28 43.5964 216.57 42.0904ZM211.964 27.3153C210.689 27.4311 209.73 28.3 209.092 29.9219C209.382 29.9219 209.672 29.9219 209.962 29.9219C210.252 29.9219 210.573 29.9531 210.921 30.0065C211.095 30.0645 211.224 30.1803 211.313 30.3541C211.398 30.5278 211.384 30.7328 211.268 30.9645C210.979 31.4279 210.658 32.0517 210.31 32.8314C209.962 33.6112 209.641 34.5246 209.351 35.5673C209.641 35.9727 209.962 36.2757 210.31 36.4807C210.658 36.6856 210.974 36.8416 211.268 36.9574C211.616 37.1312 211.991 37.2203 212.401 37.2203C213.386 37.3362 214.269 37.2782 215.054 37.0465C215.839 36.8148 216.548 36.4673 217.186 36.0039C217.128 32.876 216.548 30.617 215.447 29.2268C214.336 27.8366 213.181 27.1994 211.964 27.3153Z" fill="white"/>
<path d="M244.488 37.4832C244.604 39.5685 244.341 41.7429 243.708 44.0019C243.418 45.1604 243.128 46.0872 242.838 46.7823C243.244 46.7823 243.618 46.5506 243.971 46.0872C244.55 45.3921 245.13 44.6079 245.71 43.739C246.231 42.9281 246.722 42.1172 247.19 41.3062C247.596 40.5532 247.975 39.8269 248.323 39.1318C248.613 38.4947 248.844 38.0001 249.018 37.6525C249.134 37.3629 249.308 37.2783 249.54 37.3941H249.714C250.004 37.51 250.204 37.6837 250.325 37.9154C250.383 38.1471 250.352 38.41 250.24 38.6996C248.675 42.233 247.168 45.0134 245.719 47.0407C245.255 47.7937 244.76 48.2883 244.238 48.52C243.717 48.8096 243.195 48.9834 242.673 49.0413C242.151 49.0413 241.746 48.9834 241.456 48.8676L240.934 49.478L240.323 50.0884C239.686 50.6097 239.017 51.0152 238.321 51.3048C237.684 51.5944 236.988 51.7682 236.234 51.8261C235.423 51.8841 234.58 51.6791 233.711 51.2157C233.247 50.984 232.868 50.6944 232.578 50.3469C232.288 50.0572 232.025 49.6518 231.793 49.1304C231.561 48.667 231.414 48.119 231.361 47.4774C231.303 46.8981 231.33 46.261 231.445 45.5659C231.503 44.8708 231.793 44.149 232.315 43.3915C232.953 42.4068 233.706 42.0325 234.576 42.2597C235.445 42.4914 236.373 42.9548 237.358 43.6499L237.706 42.1706C237.764 41.7072 237.849 41.3018 237.964 40.9542C238.254 39.4482 238.401 38.2318 238.401 37.305C238.401 36.9575 238.37 36.6099 238.312 36.2624C238.196 34.9301 237.991 33.9142 237.701 33.2191C237.296 32.3503 236.801 31.8289 236.221 31.6552C235.294 31.7131 234.482 32.1319 233.786 32.9161C233.091 33.7003 232.525 34.5558 232.092 35.4782C231.659 36.405 231.325 37.3184 231.093 38.214C230.861 39.114 230.714 39.7066 230.661 39.9962C229.849 42.6028 229.586 46.1674 229.876 50.6855C229.876 50.9172 229.76 51.1355 229.528 51.336C229.296 51.541 229.006 51.639 228.659 51.639C227.499 51.5811 226.599 51.3048 225.961 50.8147C225.323 50.3246 224.86 49.8434 224.57 49.38C224.164 48.7428 223.901 48.0477 223.785 47.2947C223.437 45.0936 223.174 44.0777 223.005 44.2514C222.831 44.4252 222.773 43.4138 222.831 41.2082C221.497 41.4399 220.253 41.4399 219.09 41.2082C218.742 41.1503 218.568 40.8027 218.568 40.1656C218.684 39.3546 218.916 39.0071 219.263 39.1229C219.727 39.1809 220.191 39.2388 220.655 39.2967C221.118 39.2388 221.555 39.1809 221.961 39.1229C222.309 39.065 222.63 39.0383 222.92 39.0383C222.92 37.8219 222.951 36.8104 223.009 35.995V31.6507C223.067 29.0441 223.21 26.5534 223.442 24.1785C223.673 21.6298 224.079 19.197 224.659 16.88C225.181 14.6789 225.903 12.7095 226.835 10.9718C227.357 9.8133 227.936 8.94444 228.574 8.36519C229.154 7.9018 229.706 7.55426 230.228 7.32256C230.75 7.20671 231.214 7.17998 231.619 7.23344C232.025 7.29137 232.315 7.40722 232.489 7.58099C233.764 8.04438 234.776 9.23406 235.534 11.1456C236.172 12.9991 236.493 14.9418 236.493 16.9692C236.435 19.0544 236.203 21.1709 235.797 23.3141C235.45 25.3414 234.897 27.2529 234.143 29.0486C233.853 29.7437 233.563 30.4388 233.274 31.1339C233.621 30.7284 233.969 30.412 234.317 30.1759C235.418 29.3649 236.81 29.0441 238.491 29.2179C240.114 29.3917 241.416 30.1447 242.406 31.4769C243.391 32.8092 244.06 34.4043 244.408 36.2579C244.457 36.6723 244.488 37.0778 244.488 37.4832ZM232.921 26.188L233.354 24.4503C233.47 24.0448 233.555 23.4923 233.613 22.7972C233.786 22.218 233.929 21.5808 234.049 20.8857C234.281 18.8005 234.281 17.0939 234.049 15.7572C233.876 14.4829 233.644 13.4714 233.354 12.714C232.948 11.7872 232.511 11.15 232.047 10.8025C231.178 10.3391 230.451 10.8916 229.871 12.4555C229.292 13.9616 228.797 15.9622 228.391 18.4529C228.101 21.1753 227.869 24.1027 227.695 27.2307C227.522 30.5323 227.464 33.6602 227.522 36.6144C227.869 36.3247 228.244 35.8925 228.654 35.3088C229.118 34.8455 229.55 34.2662 229.961 33.5711C231.24 31.3121 232.226 28.8525 232.921 26.188ZM235.182 47.7403C235.472 47.6244 235.731 47.366 235.967 46.9561C236.199 46.5506 236.457 46.0605 236.747 45.4768C236.168 45.0713 235.588 44.7549 235.008 44.5188C234.429 44.2871 234.023 44.3183 233.791 44.6034C233.617 44.8351 233.532 45.156 233.532 45.5614C233.474 45.9669 233.501 46.3456 233.617 46.6932C233.733 47.0986 233.907 47.3883 234.139 47.562C234.371 47.7982 234.718 47.8561 235.182 47.7403Z" fill="white"/>
<path d="M269.186 30.0956C269.534 30.617 269.623 31.2274 269.449 31.9225C268.986 33.1968 268.464 34.2974 267.884 35.2242C267.942 35.9193 267.969 36.6589 267.969 37.4386C267.969 38.2184 267.911 39.016 267.795 39.8269C267.505 42.3756 266.939 44.3895 266.101 45.8688C265.258 47.3481 264.406 48.4888 263.537 49.2997C262.493 50.2844 261.361 50.9528 260.143 51.3003C257.999 51.7637 256.17 51.6479 254.663 50.9528C253.156 50.2577 251.952 49.1883 251.056 47.7358C250.155 46.2877 249.562 44.6212 249.272 42.7409C248.983 40.8606 249.014 38.9625 249.362 37.051C249.419 36.6455 249.535 36.2133 249.709 35.7455C249.825 35.34 249.986 34.9078 250.186 34.44C250.387 33.9766 250.664 33.5132 251.011 33.0498C250.953 32.0071 251.114 30.9779 251.488 29.9664C251.863 28.955 252.385 28.0282 253.054 27.1861C253.718 26.3484 254.503 25.6667 255.403 25.1454C256.3 24.624 257.272 24.3344 258.315 24.2765C260.46 24.1027 262.373 24.7533 264.054 26.2325C265.735 27.7118 266.894 29.8372 267.532 32.6176C267.822 32.0963 268.067 31.6329 268.272 31.2274C268.473 30.8219 268.633 30.4744 268.749 30.1848C268.749 30.0689 268.794 29.9976 268.879 29.9664C268.968 29.9397 269.07 29.9798 269.186 30.0956ZM263.795 42.0904C263.911 41.7429 263.983 41.3686 264.014 40.9587C264.04 40.5532 264.085 40.1744 264.143 39.8269C264.201 39.4214 264.259 38.9892 264.317 38.5214C262.984 39.2744 261.593 39.7111 260.143 39.8269C258.694 39.9428 257.33 39.769 256.054 39.3056C255.996 40.0007 255.952 40.9141 255.925 42.0414C255.894 43.1731 255.983 44.2559 256.184 45.2985C256.384 46.3412 256.763 47.1966 257.316 47.8605C257.865 48.5289 258.663 48.7428 259.706 48.5111C259.88 48.4532 260.126 48.3685 260.447 48.2482C260.763 48.1323 261.129 47.8739 261.535 47.464C261.94 47.0585 262.346 46.4347 262.752 45.597C263.153 44.7683 263.501 43.5964 263.795 42.0904ZM259.185 27.3153C257.909 27.4311 256.951 28.3 256.313 29.9219C256.603 29.9219 256.893 29.9219 257.183 29.9219C257.472 29.9219 257.793 29.9531 258.141 30.0065C258.315 30.0645 258.444 30.1803 258.534 30.3541C258.623 30.5278 258.605 30.7328 258.489 30.9645C258.199 31.4279 257.878 32.0517 257.53 32.8314C257.183 33.6112 256.862 34.5246 256.572 35.5673C256.862 35.9727 257.183 36.2757 257.53 36.4807C257.878 36.6856 258.195 36.8416 258.489 36.9574C258.837 37.1312 259.211 37.2203 259.622 37.2203C260.607 37.3362 261.49 37.2782 262.275 37.0465C263.055 36.8148 263.768 36.4673 264.406 36.0039C264.348 32.876 263.768 30.617 262.667 29.2268C261.561 27.8366 260.402 27.1994 259.185 27.3153Z" fill="white"/>
<path d="M293.795 37.5723C294.085 37.6881 294.272 37.8619 294.362 38.0936C294.446 38.3253 294.433 38.5882 294.317 38.8778C293.679 40.268 293.069 41.529 292.489 42.6562C291.909 43.788 291.356 44.7861 290.835 45.6549C289.849 47.161 288.717 48.4353 287.441 49.4779C286.34 50.3468 285.007 51.0553 283.442 51.6078C281.876 52.1558 280.079 52.1157 278.051 51.4785C276.949 51.131 275.835 50.4359 274.702 49.3933C273.569 48.3506 272.629 47.0451 271.875 45.4812C271.121 43.9172 270.626 42.1349 270.395 40.1388C270.163 38.1426 270.395 35.9816 271.09 33.6646C271.728 31.4056 272.553 29.6545 273.569 28.4069C274.582 27.1638 275.585 26.2192 276.57 25.582C277.672 24.8869 278.831 24.4814 280.048 24.3656C281.497 24.2497 282.715 24.4101 283.7 24.8423C284.686 25.279 285.497 25.8137 286.135 26.4508C286.657 27.0301 287.062 27.6405 287.352 28.2777C287.642 28.8569 287.803 29.5253 287.829 30.2783C287.856 31.0313 287.669 31.9002 287.263 32.8849C286.799 33.9275 286.13 34.7964 285.261 35.4915C284.507 36.1286 283.491 36.6366 282.215 37.0109C280.94 37.3896 279.317 37.4297 277.346 37.1401C277.346 37.3139 277.333 37.4876 277.302 37.6614C277.27 37.8352 277.257 38.0089 277.257 38.1827C277.141 40.0942 277.199 41.8319 277.431 43.3959C277.663 44.7282 278.095 45.9891 278.737 47.1743C279.375 48.364 280.392 49.0145 281.783 49.1304C282.768 49.2462 283.709 49.0725 284.61 48.6091C285.506 48.1457 286.304 47.5976 287 46.956C287.811 46.2609 288.596 45.45 289.35 44.5232C290.219 43.1909 290.986 41.872 291.655 40.571C292.319 39.2655 292.77 38.3565 293.002 37.8352C293.118 37.5456 293.318 37.4609 293.613 37.5723H293.795ZM285.448 27.9257C285.042 27.5202 284.489 27.4044 283.794 27.5781C283.098 27.7519 282.371 28.1708 281.618 28.8391C280.864 29.5075 280.137 30.3763 279.442 31.4457C278.746 32.5195 278.193 33.7493 277.788 35.1395C278.309 35.2553 278.889 35.3132 279.527 35.3132C280.164 35.3132 280.815 35.2286 281.484 35.0548C282.148 34.881 282.791 34.636 283.397 34.3152C284.008 33.9988 284.543 33.5176 285.007 32.8804C285.528 32.1274 285.863 31.4457 286.006 30.8397C286.148 30.2293 286.166 29.6946 286.05 29.2312C285.939 28.7054 285.738 28.2732 285.448 27.9257Z" fill="white"/>
<path d="M210.523 70.3432H202.649V89.1463H194.721V70.3432H186.739V62.7373H210.528V70.3432H210.523Z" fill="white"/>
<path d="M226.327 82.8106C228.494 82.8106 230.344 81.9641 231.401 80.8056L237.742 84.4503C235.151 88.0416 231.24 89.8908 226.219 89.8908C217.181 89.8908 211.576 83.8176 211.576 75.9444C211.576 68.0712 217.284 61.998 225.635 61.998C233.354 61.998 239.061 67.9687 239.061 75.9444C239.061 77.0539 238.954 78.1099 238.745 79.1124H219.981C220.989 81.8616 223.419 82.8106 226.327 82.8106ZM231.191 73.1997C230.344 70.1342 227.967 69.0247 225.586 69.0247C222.572 69.0247 220.566 70.504 219.825 73.1997H231.191Z" fill="white"/>
<path d="M265.494 89.1507H257.566V70.3476H251.859V78.2164C251.859 86.1921 247.841 90.0463 240.123 89.1507V81.7543C242.606 82.4939 243.931 80.9611 243.931 77.6862V62.7373H265.499V89.1507H265.494Z" fill="white"/>
<path d="M269.984 75.9444C269.984 68.0756 276.222 61.998 283.99 61.998C291.758 61.998 298 68.0712 298 75.9444C298 83.8176 291.762 89.8908 283.99 89.8908C276.218 89.8908 269.984 83.8132 269.984 75.9444ZM290.072 75.9444C290.072 72.1927 287.428 69.7109 283.995 69.7109C280.561 69.7109 277.917 72.1927 277.917 75.9444C277.917 79.6961 280.561 82.1779 283.995 82.1779C287.428 82.1779 290.072 79.6961 290.072 75.9444Z" fill="white"/>
<path d="M41.4391 28.3079C38.6879 21.6867 36.3781 12.802 41.6175 6.12291C46.3797 0.0542372 56.0022 -1.64339 64.1264 1.72067C60.3318 3.93961 58.2762 11.7995 54.4103 16.5314C47.0619 25.5275 42.7456 25.5186 41.4391 28.3079Z" fill="#5B8F31"/>
<path d="M50.7759 6.66207C48.3413 8.67159 44.3505 11.9287 42.7898 17.2667C41.4298 21.9184 41.3317 25.8751 41.3897 28.1965C41.4031 28.2321 41.4209 28.2722 41.4343 28.3079C42.7408 25.5186 47.0616 25.5275 54.4055 16.5359C58.2715 11.7995 60.3271 3.94409 64.1217 1.72515C64.0815 1.70733 64.0414 1.69396 64.0013 1.67614C58.9804 1.08798 53.0678 4.77285 50.7759 6.66207Z" fill="#55862D"/>
<path d="M42.794 17.2664C44.3546 11.9285 48.341 8.67137 50.78 6.66185C53.072 4.77263 58.9846 1.08776 64.0054 1.67591C55.9079 -1.62131 46.3567 0.0852242 41.6168 6.12271C36.4042 12.7617 38.6605 21.584 41.3939 28.1963C41.3314 25.8749 41.434 21.9226 42.794 17.2664Z" fill="#9DDB16"/>
<path d="M41.559 31.2621C41.2157 28.2946 41.1265 25.2825 41.5055 22.2972C41.8756 19.3163 42.763 16.38 44.2255 13.7422C45.7059 11.1134 47.757 8.81868 50.1426 6.99184C52.5282 5.15609 55.1946 3.73917 57.9592 2.60742L55.9571 3.61887L55.4577 3.86839L54.9762 4.15355L54.013 4.72388C53.692 4.91548 53.3665 5.08925 53.0543 5.29421L52.1358 5.92692L51.2172 6.55963C50.9185 6.77796 50.642 7.02748 50.3522 7.25918C48.0424 9.11721 46.0359 11.3629 44.6135 13.9561C43.1464 16.527 42.2769 19.4099 41.84 22.3417C41.7419 23.0769 41.6705 23.8166 41.5858 24.5562L41.4743 26.7885L41.4699 29.0253L41.559 31.2621Z" fill="#2C602C"/>
<path d="M41.5723 14.2363C41.5277 14.6552 41.55 15.074 41.5946 15.4884C41.6437 15.9028 41.6972 16.3171 41.7819 16.7271C41.8577 17.137 41.9602 17.5425 42.0583 17.9435C42.1609 18.3445 42.2813 18.75 42.4418 19.1109L42.2412 19.0307C42.7495 18.8346 43.2578 18.7277 43.7751 18.6341C44.2878 18.5405 44.8051 18.4648 45.3223 18.4024C45.8396 18.3489 46.3613 18.3133 46.8785 18.291C47.4002 18.2777 47.9219 18.2732 48.4392 18.3623C47.9174 18.3534 47.4047 18.4113 46.8919 18.4692C46.3791 18.5227 45.8663 18.5985 45.358 18.6831C44.8452 18.7544 44.3369 18.8435 43.833 18.946C43.3336 19.0529 42.8253 19.1599 42.3571 19.3203L42.2144 19.3693L42.1609 19.2401C41.987 18.8302 41.88 18.4247 41.7819 18.0103C41.6793 17.5959 41.6169 17.1771 41.5634 16.7583C41.5099 16.3394 41.4653 15.9161 41.4608 15.4928C41.4564 15.074 41.4653 14.6463 41.5723 14.2363Z" fill="#2C602C"/>
<path d="M44.3903 8.62695C44.3992 9.30868 44.4929 9.97703 44.6489 10.6276C44.8139 11.2736 45.0503 11.9064 45.4159 12.441L45.2509 12.3742C46.3969 12.1514 47.5473 12.1514 48.6932 12.2004C49.8347 12.2717 50.9763 12.4054 52.0865 12.6772C50.9495 12.5613 49.8169 12.4901 48.6843 12.4811C48.118 12.4722 47.5517 12.4856 46.9899 12.5079C46.4281 12.5391 45.8618 12.5836 45.3178 12.6861L45.2108 12.7084L45.1528 12.6193C44.7604 12.0267 44.5464 11.3494 44.4305 10.6721C44.3056 9.99485 44.2878 9.29976 44.3903 8.62695Z" fill="#2C602C"/>
<path d="M48.2116 4.2207C48.1224 4.91134 48.1313 5.60643 48.2339 6.28369C48.3453 6.95651 48.5549 7.61149 48.8804 8.19965L48.7065 8.11945C49.8569 7.91448 51.0074 7.92339 52.1533 7.99023C52.7241 8.03479 53.2948 8.09717 53.8611 8.19074C54.4229 8.29322 54.9892 8.41798 55.5243 8.62294C54.4096 8.37788 53.2725 8.29767 52.1399 8.27094C51.5737 8.25312 51.0074 8.26203 50.4411 8.27985C49.8792 8.30659 49.3129 8.34223 48.7645 8.4358L48.6486 8.45808L48.595 8.3556C48.2517 7.72289 48.06 7.01889 48.0065 6.31043C47.9485 5.60643 48.0154 4.88906 48.2116 4.2207Z" fill="#2C602C"/>
<path d="M53.772 2.19727C53.6694 2.65175 53.5936 3.11069 53.5445 3.56962C53.5089 4.0241 53.4777 4.49641 53.5981 4.91525L53.4687 4.8395C54.1599 4.67018 54.8778 4.62117 55.5868 4.63899C56.2957 4.67018 57.0003 4.78603 57.6691 5.01327C56.9735 4.89297 56.2779 4.82613 55.5823 4.83504C54.8867 4.83059 54.1956 4.9197 53.5178 5.05337L53.4108 5.07565L53.3885 4.97763C53.2681 4.49195 53.3082 4.01074 53.3885 3.54734C53.4643 3.08395 53.5936 2.62947 53.772 2.19727Z" fill="#2C602C"/>
<path d="M60.4028 20.6084C51.5338 20.6084 44.0561 26.5479 41.7285 34.6662C39.4054 26.5479 31.9276 20.6084 23.0587 20.6084C12.3304 20.6084 3.63086 29.3015 3.63086 40.0219C3.63086 57.3992 18.836 70.4633 30.037 77.7305C29.5688 76.3181 28.6949 74.4021 28.2623 73.2035C26.2647 67.6295 25.578 64.2743 25.7787 60.3087H25.7831L25.9526 40.2224C25.957 39.7858 26.3093 39.4338 26.7463 39.4338C27.1877 39.4338 27.5444 39.7947 27.54 40.2358L27.977 60.6117C28.3916 60.7454 28.9802 60.8211 29.6446 60.5583L30.0326 40.2313C30.0326 39.7947 30.3893 39.4382 30.8307 39.4382C31.2722 39.4382 31.6289 39.7947 31.6289 40.2358L31.9142 60.5583C32.3066 60.7008 32.9577 60.8033 33.8628 60.5137L34.117 40.2358C34.117 39.7947 34.4737 39.4382 34.9107 39.4382C35.3477 39.4382 35.7044 39.7947 35.7044 40.2313L36.0611 60.4914C36.4535 60.5894 37.051 60.6652 37.76 60.536L38.1925 40.2402C38.1881 39.7991 38.5448 39.4382 38.9862 39.4382C39.4232 39.4382 39.7799 39.7902 39.7799 40.2269L39.9583 60.888H39.9538C40.1188 66.2348 40.1322 68.9706 38.2282 72.7892C37.3185 74.616 35.6955 78.185 35.6955 79.1252C35.6955 79.3123 35.6955 80.0653 35.691 81.1481C39.3117 83.1754 41.7285 84.2359 41.7285 84.2359C41.7285 84.2359 44.2478 83.2022 47.9845 81.1793C45.9378 77.9622 42.6649 75.271 43.2668 67.8567C44.5109 52.538 46.2098 39.9239 51.4981 39.0372C51.9084 38.9704 52.2874 39.2733 52.2874 39.6877V78.7063C63.5642 71.8312 79.8261 58.6869 79.8261 40.0264C79.8306 29.3015 71.1355 20.6084 60.4028 20.6084Z" fill="#446C25"/>
<path d="M52.9739 80.3955C56.9468 77.9538 60.7682 75.2492 64.3175 72.2193C67.8624 69.1939 71.1532 65.8477 73.9534 62.1182C76.7537 58.3977 79.059 54.2806 80.4992 49.8472C81.2216 47.6327 81.7254 45.3514 81.9841 43.0389C82.2382 40.7308 82.2962 38.3827 81.935 36.088C81.5828 33.7978 80.8604 31.5565 79.7546 29.5114C78.6443 27.4707 77.1907 25.6215 75.4784 24.0576C73.7661 22.4936 71.7953 21.2104 69.6594 20.297C67.5146 19.4014 65.2272 18.8801 62.913 18.733C58.2801 18.4033 53.5624 19.7534 49.7812 22.4402C45.9866 25.1091 43.1418 29.0881 41.8665 33.5482L41.7327 34.0205L41.599 33.5482C40.3505 29.1549 37.568 25.2294 33.8626 22.5649C30.1706 19.8826 25.5555 18.488 20.994 18.7063C16.4146 18.8221 11.9511 20.6668 8.47757 23.612C4.97281 26.5617 2.58725 30.7456 1.66423 35.2147L1.40561 36.9078C1.33427 37.4737 1.33427 38.0485 1.2986 38.6188C1.24955 39.1892 1.28522 39.7595 1.2986 40.3343C1.2986 40.9091 1.36102 41.4749 1.40561 42.0453C1.60627 44.3266 2.06109 46.5812 2.73439 48.7689C4.07655 53.1534 6.30159 57.2348 9.00819 60.933C11.7103 64.6402 14.8941 67.9864 18.323 71.0341C21.752 74.0863 25.4485 76.8354 29.2922 79.3484C25.4396 76.8532 21.7297 74.1219 18.2784 71.0831C14.8316 68.0488 11.6301 64.7159 8.90118 61.0132C6.17673 57.315 3.94278 53.2202 2.58279 48.8179C1.90056 46.6213 1.44128 44.3533 1.23617 42.0586C1.19158 41.4839 1.12916 40.9135 1.1247 40.3343C1.11132 39.7595 1.07565 39.1847 1.1247 38.6099C1.16037 38.0351 1.16037 37.4559 1.23171 36.8856L1.49033 35.1746C2.41335 30.6654 4.81228 26.4325 8.34826 23.4516C11.853 20.4707 16.3611 18.5994 20.994 18.4746C25.609 18.2473 30.282 19.6464 34.0231 22.3555C37.7776 25.0468 40.6002 29.0212 41.8754 33.468H41.6079C42.901 28.9455 45.7993 24.922 49.643 22.2263C53.4733 19.5128 58.2533 18.1538 62.9352 18.4924C65.2762 18.6439 67.5904 19.1786 69.7575 20.0876C71.9157 21.0143 73.9044 22.3154 75.63 23.8972C77.3556 25.479 78.8182 27.3504 79.9374 29.4089C81.0477 31.4763 81.7745 33.7398 82.1268 36.0524C82.4835 38.3693 82.4255 40.7308 82.1624 43.0478C81.8993 45.3692 81.3866 47.6639 80.6597 49.8873C79.2061 54.3341 76.8874 58.469 74.0694 62.1895C71.2423 65.9145 67.9338 69.2474 64.371 72.2594C60.7949 75.2893 56.9602 77.9716 52.9739 80.3955Z" fill="#9DDB16"/>
<path d="M41.7329 34.6662C39.4054 26.5479 31.9276 20.6084 23.0587 20.6084C12.3304 20.6084 3.63086 29.3015 3.63086 40.0219C3.63086 57.3992 18.836 70.4633 30.037 77.7305C29.5688 76.3181 28.6949 74.4021 28.2623 73.2035C26.2647 67.6295 25.578 64.2743 25.7787 60.3087H25.7831L25.9526 40.2224C25.957 39.7858 26.3093 39.4338 26.7463 39.4338C27.1877 39.4338 27.5444 39.7947 27.54 40.2358L27.977 60.6117C28.3916 60.7454 28.9802 60.8211 29.6446 60.5583L30.0326 40.2313C30.0326 39.7947 30.3893 39.4382 30.8307 39.4382C31.2722 39.4382 31.6289 39.7947 31.6289 40.2358L31.9142 60.5583C32.3066 60.7008 32.9577 60.8033 33.8628 60.5137L34.117 40.2358C34.117 39.7947 34.4737 39.4382 34.9107 39.4382C35.3477 39.4382 35.7044 39.7947 35.7044 40.2313L36.0611 60.4914C36.4535 60.5894 37.051 60.6652 37.76 60.536L38.1925 40.2402C38.1881 39.7991 38.5448 39.4382 38.9862 39.4382C39.4232 39.4382 39.7799 39.7902 39.7799 40.2269L39.9583 60.888H39.9538C40.1188 66.2348 40.1322 68.9706 38.2282 72.7892C37.3185 74.616 35.6955 78.185 35.6955 79.1252C35.6955 79.3123 35.6955 80.0653 35.691 81.1481C39.3117 83.1754 41.7285 84.2359 41.7285 84.2359C41.7285 84.2359 41.7329 84.2314 41.7374 84.2314V34.6394C41.7374 34.6483 41.7329 34.6572 41.7329 34.6662Z" fill="#9DDB16"/>
<path class="logo-txt" d="M14.9557 101.221L10.2264 109.779C9.77143 110.603 9.22126 111.226 8.57588 111.648C7.94107 112.071 7.24806 112.282 6.49688 112.282C5.91496 112.282 5.31189 112.158 4.68767 111.911L5.30661 110.011C5.75098 110.145 6.12127 110.212 6.41753 110.212C6.73493 110.212 7.02059 110.14 7.27452 109.995C7.52844 109.841 7.7612 109.604 7.97281 109.285L8.06803 109.161L3.68785 101.221H6.4334L9.38526 107.029L12.4323 101.221H14.9557ZM15.979 103.723H18.4389V106.967H22.1525V103.723H24.6282V112.034H22.1525V108.929H18.4389V112.034H15.979V103.723ZM27.3156 103.723H29.7755V108.667L33.9335 103.723H36.203V112.034H33.7431V107.091L29.601 112.034H27.3156V103.723ZM42.6616 108.883H41.3761V112.034H38.9003V103.723H41.3761V106.952H42.7092L45.0262 103.723H47.6607L44.6771 107.709L47.867 112.034H44.9469L42.6616 108.883ZM52.562 103.6C53.8844 103.6 54.9001 103.909 55.6091 104.527C56.3179 105.134 56.6724 106.056 56.6724 107.292V112.034H54.3553V110.999C53.8898 111.772 53.0222 112.158 51.7526 112.158C51.0966 112.158 50.5253 112.05 50.0386 111.834C49.5625 111.617 49.1975 111.319 48.9436 110.938C48.6897 110.557 48.5627 110.124 48.5627 109.64C48.5627 108.868 48.8589 108.26 49.4514 107.817C50.0545 107.374 50.9802 107.153 52.2287 107.153H54.1966C54.1966 106.628 54.0326 106.226 53.7047 105.948C53.3766 105.66 52.8846 105.515 52.2287 105.515C51.7737 105.515 51.3241 105.587 50.8798 105.732C50.4459 105.865 50.0756 106.051 49.7688 106.288L48.8801 104.604C49.3456 104.285 49.901 104.037 50.5465 103.862C51.2024 103.687 51.8743 103.6 52.562 103.6ZM52.3716 110.536C52.7947 110.536 53.1703 110.443 53.4983 110.258C53.8263 110.062 54.059 109.779 54.1966 109.408V108.559H52.4985C51.4828 108.559 50.975 108.883 50.975 109.532C50.975 109.841 51.0966 110.088 51.34 110.273C51.5939 110.448 51.9377 110.536 52.3716 110.536ZM67.3295 103.723V112.034H64.8537V105.701H62.1558L62.0764 107.168C62.034 108.26 61.9283 109.166 61.759 109.887C61.5897 110.608 61.3147 111.175 60.9338 111.586C60.5529 111.998 60.0238 112.204 59.3467 112.204C58.9869 112.204 58.5585 112.143 58.0613 112.019L58.1882 110.042C58.3575 110.062 58.4791 110.073 58.5532 110.073C58.9235 110.073 59.1986 109.944 59.3785 109.686C59.5689 109.419 59.6959 109.084 59.7594 108.682C59.8229 108.27 59.8705 107.73 59.9022 107.06L60.0292 103.723H67.3295ZM74.6459 106.38C75.7568 106.391 76.6085 106.638 77.201 107.122C77.7935 107.596 78.0897 108.27 78.0897 109.146C78.0897 110.062 77.7564 110.778 77.0899 111.293C76.4339 111.798 75.5082 112.05 74.3126 112.05L70.0276 112.034V103.723H72.4875V106.38H74.6459ZM74.0904 110.335C74.5665 110.345 74.9315 110.248 75.1855 110.042C75.4394 109.836 75.5664 109.527 75.5664 109.115C75.5664 108.713 75.4394 108.42 75.1855 108.234C74.9421 108.049 74.5771 107.951 74.0904 107.941L72.4875 107.925V110.335H74.0904ZM79.954 103.723H82.4139V106.967H86.1275V103.723H88.6033V112.034H86.1275V108.929H82.4139V112.034H79.954V103.723ZM94.6076 103.6C95.93 103.6 96.9457 103.909 97.6546 104.527C98.3635 105.134 98.718 106.056 98.718 107.292V112.034H96.4009V110.999C95.9353 111.772 95.0678 112.158 93.7982 112.158C93.1422 112.158 92.5708 112.05 92.0842 111.834C91.6081 111.617 91.2431 111.319 90.9892 110.938C90.7352 110.557 90.6083 110.124 90.6083 109.64C90.6083 108.868 90.9045 108.26 91.497 107.817C92.1001 107.374 93.0258 107.153 94.2743 107.153H96.2422C96.2422 106.628 96.0782 106.226 95.7502 105.948C95.4222 105.66 94.9302 105.515 94.2743 105.515C93.8193 105.515 93.3697 105.587 92.9253 105.732C92.4915 105.865 92.1212 106.051 91.8144 106.288L90.9257 104.604C91.3911 104.285 91.9466 104.037 92.592 103.862C93.2479 103.687 93.9198 103.6 94.6076 103.6ZM94.4171 110.536C94.8403 110.536 95.2159 110.443 95.5439 110.258C95.8719 110.062 96.1046 109.779 96.2422 109.408V108.559H94.5441C93.5284 108.559 93.0205 108.883 93.0205 109.532C93.0205 109.841 93.1422 110.088 93.3856 110.273C93.6395 110.448 93.9833 110.536 94.4171 110.536ZM108.772 103.723V112.034H106.566V109.655H104.741L103.122 112.034H100.488L102.44 109.316C101.847 109.089 101.392 108.765 101.075 108.342C100.768 107.91 100.615 107.39 100.615 106.782C100.615 105.804 100.974 105.052 101.694 104.527C102.424 103.991 103.424 103.723 104.693 103.723H108.772ZM104.741 105.685C104.212 105.685 103.81 105.778 103.535 105.963C103.27 106.149 103.138 106.447 103.138 106.859C103.138 107.271 103.265 107.575 103.519 107.771C103.783 107.956 104.18 108.049 104.709 108.049H106.566V105.685H104.741ZM124.772 103.723V112.034H122.296V105.701H118.741V112.034H116.281V103.723H124.772ZM132.494 103.6C133.287 103.6 134.006 103.78 134.652 104.14C135.307 104.491 135.821 104.99 136.192 105.639C136.561 106.277 136.747 107.024 136.747 107.879C136.747 108.734 136.561 109.486 136.192 110.134C135.821 110.773 135.307 111.272 134.652 111.633C134.006 111.983 133.287 112.158 132.494 112.158C131.403 112.158 130.546 111.823 129.923 111.154V115.031H127.447V103.723H129.812V104.681C130.425 103.96 131.319 103.6 132.494 103.6ZM132.065 110.181C132.7 110.181 133.218 109.975 133.621 109.563C134.033 109.141 134.24 108.579 134.24 107.879C134.24 107.179 134.033 106.622 133.621 106.21C133.218 105.788 132.7 105.577 132.065 105.577C131.43 105.577 130.907 105.788 130.494 106.21C130.092 106.622 129.891 107.179 129.891 107.879C129.891 108.579 130.092 109.141 130.494 109.563C130.907 109.975 131.43 110.181 132.065 110.181ZM142.798 112.158C141.899 112.158 141.09 111.978 140.37 111.617C139.661 111.247 139.106 110.737 138.704 110.088C138.302 109.439 138.1 108.703 138.1 107.879C138.1 107.055 138.302 106.319 138.704 105.67C139.106 105.021 139.661 104.516 140.37 104.156C141.09 103.785 141.899 103.6 142.798 103.6C143.698 103.6 144.502 103.785 145.21 104.156C145.92 104.516 146.475 105.021 146.877 105.67C147.279 106.319 147.48 107.055 147.48 107.879C147.48 108.703 147.279 109.439 146.877 110.088C146.475 110.737 145.92 111.247 145.21 111.617C144.502 111.978 143.698 112.158 142.798 112.158ZM142.798 110.181C143.433 110.181 143.952 109.975 144.353 109.563C144.766 109.141 144.972 108.579 144.972 107.879C144.972 107.179 144.766 106.622 144.353 106.21C143.952 105.788 143.433 105.577 142.798 105.577C142.163 105.577 141.64 105.788 141.227 106.21C140.814 106.622 140.608 107.179 140.608 107.879C140.608 108.579 140.814 109.141 141.227 109.563C141.64 109.975 142.163 110.181 142.798 110.181ZM156.34 105.701H151.96V112.034H149.5V103.723H156.34V105.701ZM163.001 103.6C163.794 103.6 164.513 103.78 165.159 104.14C165.814 104.491 166.328 104.99 166.699 105.639C167.068 106.277 167.254 107.024 167.254 107.879C167.254 108.734 167.068 109.486 166.699 110.134C166.328 110.773 165.814 111.272 165.159 111.633C164.513 111.983 163.794 112.158 163.001 112.158C161.91 112.158 161.053 111.823 160.43 111.154V115.031H157.954V103.723H160.319V104.681C160.932 103.96 161.826 103.6 163.001 103.6ZM162.572 110.181C163.207 110.181 163.725 109.975 164.128 109.563C164.54 109.141 164.747 108.579 164.747 107.879C164.747 107.179 164.54 106.622 164.128 106.21C163.725 105.788 163.207 105.577 162.572 105.577C161.938 105.577 161.414 105.788 161.001 106.21C160.599 106.622 160.398 107.179 160.398 107.879C160.398 108.579 160.599 109.141 161.001 109.563C161.414 109.975 161.938 110.181 162.572 110.181ZM172.483 103.6C173.806 103.6 174.822 103.909 175.53 104.527C176.24 105.134 176.594 106.056 176.594 107.292V112.034H174.277V110.999C173.812 111.772 172.944 112.158 171.674 112.158C171.019 112.158 170.447 112.05 169.96 111.834C169.484 111.617 169.119 111.319 168.865 110.938C168.611 110.557 168.484 110.124 168.484 109.64C168.484 108.868 168.781 108.26 169.373 107.817C169.976 107.374 170.902 107.153 172.15 107.153H174.118C174.118 106.628 173.955 106.226 173.626 105.948C173.298 105.66 172.806 105.515 172.15 105.515C171.696 105.515 171.245 105.587 170.801 105.732C170.368 105.865 169.997 106.051 169.69 106.288L168.801 104.604C169.267 104.285 169.823 104.037 170.468 103.862C171.124 103.687 171.796 103.6 172.483 103.6ZM172.293 110.536C172.717 110.536 173.092 110.443 173.42 110.258C173.748 110.062 173.981 109.779 174.118 109.408V108.559H172.42C171.404 108.559 170.896 108.883 170.896 109.532C170.896 109.841 171.019 110.088 171.261 110.273C171.515 110.448 171.86 110.536 172.293 110.536ZM187.395 112.034V107.06L184.839 111.231H183.792L181.3 107.045V112.034H179.063V103.723H181.65L184.379 108.528L187.283 103.723H189.601L189.632 112.034H187.395ZM200.653 112.034V107.06L198.098 111.231H197.05L194.559 107.045V112.034H192.321V103.723H194.908L197.638 108.528L200.542 103.723H202.859L202.891 112.034H200.653ZM208.896 103.6C210.218 103.6 211.234 103.909 211.944 104.527C212.652 105.134 213.007 106.056 213.007 107.292V112.034H210.69V110.999C210.224 111.772 209.357 112.158 208.087 112.158C207.431 112.158 206.859 112.05 206.373 111.834C205.897 111.617 205.532 111.319 205.278 110.938C205.024 110.557 204.897 110.124 204.897 109.64C204.897 108.868 205.193 108.26 205.786 107.817C206.389 107.374 207.314 107.153 208.563 107.153H210.531C210.531 106.628 210.367 106.226 210.039 105.948C209.71 105.66 209.218 105.515 208.563 105.515C208.107 105.515 207.659 105.587 207.214 105.732C206.78 105.865 206.409 106.051 206.103 106.288L205.215 104.604C205.679 104.285 206.235 104.037 206.881 103.862C207.536 103.687 208.208 103.6 208.896 103.6ZM208.706 110.536C209.129 110.536 209.504 110.443 209.833 110.258C210.16 110.062 210.393 109.779 210.531 109.408V108.559H208.833C207.817 108.559 207.309 108.883 207.309 109.532C207.309 109.841 207.431 110.088 207.674 110.273C207.928 110.448 208.272 110.536 208.706 110.536ZM228.777 103.723V112.034H226.302V105.701H222.747V112.034H220.287V103.723H228.777ZM231.468 103.723H233.928V108.667L238.086 103.723H240.356V112.034H237.896V107.091L233.754 112.034H231.468V103.723ZM250.226 105.701H247.338V112.034H244.878V105.701H241.989V103.723H250.226V105.701ZM255.18 103.6C256.503 103.6 257.518 103.909 258.227 104.527C258.936 105.134 259.29 106.056 259.29 107.292V112.034H256.973V110.999C256.508 111.772 255.64 112.158 254.37 112.158C253.715 112.158 253.144 112.05 252.656 111.834C252.18 111.617 251.815 111.319 251.561 110.938C251.307 110.557 251.18 110.124 251.18 109.64C251.18 108.868 251.477 108.26 252.069 107.817C252.672 107.374 253.598 107.153 254.846 107.153H256.814C256.814 106.628 256.651 106.226 256.322 105.948C255.995 105.66 255.503 105.515 254.846 105.515C254.392 105.515 253.942 105.587 253.497 105.732C253.064 105.865 252.694 106.051 252.387 106.288L251.498 104.604C251.964 104.285 252.519 104.037 253.164 103.862C253.821 103.687 254.493 103.6 255.18 103.6ZM254.989 110.536C255.413 110.536 255.788 110.443 256.116 110.258C256.445 110.062 256.677 109.779 256.814 109.408V108.559H255.116C254.101 108.559 253.593 108.883 253.593 109.532C253.593 109.841 253.715 110.088 253.958 110.273C254.212 110.448 254.556 110.536 254.989 110.536ZM261.759 103.723H264.219V106.967H267.933V103.723H270.408V112.034H267.933V108.929H264.219V112.034H261.759V103.723ZM273.095 103.723H275.555V108.667L279.713 103.723H281.982V112.034H279.522V107.091L275.38 112.034H273.095V103.723ZM292.266 103.723V112.034H290.06V109.655H288.235L286.616 112.034H283.982L285.934 109.316C285.341 109.089 284.887 108.765 284.569 108.342C284.262 107.91 284.109 107.39 284.109 106.782C284.109 105.804 284.468 105.052 285.188 104.527C285.918 103.991 286.918 103.723 288.188 103.723H292.266ZM288.235 105.685C287.706 105.685 287.303 105.778 287.029 105.963C286.764 106.149 286.632 106.447 286.632 106.859C286.632 107.271 286.759 107.575 287.013 107.771C287.277 107.956 287.674 108.049 288.203 108.049H290.06V105.685H288.235ZM10.0169 127.854V131.354H7.88011V129.69H2.30966V131.354H0.172852V127.854H0.497058C0.988279 127.844 1.32722 127.562 1.51388 127.007C1.70055 126.452 1.81845 125.664 1.86756 124.64L1.97072 121.972H8.88221V127.854H10.0169ZM3.94543 124.798C3.91596 125.582 3.8521 126.223 3.75385 126.72C3.66543 127.218 3.4935 127.595 3.23807 127.854H6.58329V123.808H3.98964L3.94543 124.798ZM19.0678 121.972V129.69H16.7688V123.808H14.2636L14.1899 125.171C14.1506 126.185 14.0524 127.026 13.8952 127.696C13.738 128.365 13.4826 128.891 13.1289 129.274C12.7752 129.656 12.284 129.847 11.6552 129.847C11.3212 129.847 10.9233 129.79 10.4616 129.675L10.5795 127.839C10.7366 127.858 10.8496 127.868 10.9184 127.868C11.2623 127.868 11.5177 127.748 11.6847 127.509C11.8615 127.261 11.9794 126.95 12.0384 126.577C12.0973 126.194 12.1415 125.692 12.171 125.071L12.2889 121.972H19.0678ZM28.3226 121.972V129.69H26.2742V127.481H24.5795L23.0764 129.69H20.6301L22.4427 127.165C21.8926 126.955 21.4701 126.653 21.1753 126.261C20.8905 125.86 20.748 125.377 20.748 124.812C20.748 123.904 21.082 123.206 21.7501 122.718C22.4279 122.221 23.3564 121.972 24.5353 121.972H28.3226ZM24.5795 123.794C24.0883 123.794 23.7149 123.88 23.4595 124.052C23.2139 124.224 23.0911 124.502 23.0911 124.884C23.0911 125.267 23.209 125.549 23.4448 125.73C23.6904 125.903 24.0588 125.989 24.55 125.989H26.2742V123.794H24.5795ZM41.3665 123.808H38.6844V129.69H36.4002V123.808H33.7181V121.972H41.3665V123.808ZM49.9682 125.86C49.9682 125.888 49.9535 126.089 49.924 126.462H43.9262C44.0342 126.94 44.2896 127.318 44.6925 127.595C45.0953 127.873 45.5963 128.011 46.1957 128.011C46.6083 128.011 46.9717 127.954 47.2862 127.839C47.6104 127.715 47.91 127.524 48.1851 127.265L49.4082 128.556C48.6615 129.388 47.571 129.804 46.1367 129.804C45.2426 129.804 44.4517 129.637 43.7641 129.302C43.0764 128.958 42.5458 128.485 42.1726 127.882C41.7991 127.28 41.6126 126.596 41.6126 125.831C41.6126 125.075 41.7943 124.396 42.1578 123.794C42.5311 123.182 43.037 122.708 43.6757 122.374C44.3241 122.03 45.0462 121.857 45.842 121.857C46.618 121.857 47.3205 122.02 47.9493 122.345C48.578 122.67 49.0693 123.139 49.423 123.751C49.7864 124.353 49.9682 125.056 49.9682 125.86ZM45.8567 123.55C45.3359 123.55 44.8988 123.694 44.5452 123.98C44.1915 124.267 43.9753 124.659 43.8967 125.157H47.8019C47.7233 124.669 47.5072 124.282 47.1535 123.995C46.7999 123.698 46.3675 123.55 45.8567 123.55ZM56.4955 129.69L54.7566 127.323L52.9588 129.69H50.4535L53.504 125.802L50.5567 121.972H53.1356L54.8156 124.224L56.5398 121.972H58.986L56.0387 125.745L59.1039 129.69H56.4955ZM61.0756 127.022C61.4882 127.022 61.8272 127.151 62.0924 127.409C62.3577 127.657 62.4903 127.987 62.4903 128.399C62.4903 128.59 62.4657 128.781 62.4166 128.972C62.3675 129.164 62.2594 129.451 62.0924 129.833L61.2524 131.899H59.7935L60.4419 129.618C60.1963 129.522 59.9998 129.369 59.8524 129.159C59.7149 128.939 59.6461 128.686 59.6461 128.399C59.6461 127.987 59.7788 127.657 60.044 127.409C60.3191 127.151 60.663 127.022 61.0756 127.022ZM71.7585 126.763H70.5648V129.69H68.2659V121.972H70.5648V124.97H71.8027L73.9543 121.972H76.4006L73.6301 125.673L76.5921 129.69H73.8806L71.7585 126.763ZM84.3099 123.808H81.6279V129.69H79.3437V123.808H76.6616V121.972H84.3099V123.808ZM88.9181 129.804C88.083 129.804 87.3314 129.637 86.6634 129.302C86.0051 128.958 85.4893 128.485 85.116 127.882C84.7426 127.28 84.556 126.596 84.556 125.831C84.556 125.066 84.7426 124.382 85.116 123.78C85.4893 123.177 86.0051 122.708 86.6634 122.374C87.3314 122.03 88.083 121.857 88.9181 121.857C89.7531 121.857 90.4998 122.03 91.1581 122.374C91.8162 122.708 92.332 123.177 92.7054 123.78C93.0787 124.382 93.2654 125.066 93.2654 125.831C93.2654 126.596 93.0787 127.28 92.7054 127.882C92.332 128.485 91.8162 128.958 91.1581 129.302C90.4998 129.637 89.7531 129.804 88.9181 129.804ZM88.9181 127.968C89.5076 127.968 89.9889 127.777 90.3623 127.394C90.7454 127.002 90.937 126.481 90.937 125.831C90.937 125.181 90.7454 124.664 90.3623 124.282C89.9889 123.89 89.5076 123.694 88.9181 123.694C88.3286 123.694 87.8423 123.89 87.4592 124.282C87.076 124.664 86.8844 125.181 86.8844 125.831C86.8844 126.481 87.076 127.002 87.4592 127.394C87.8423 127.777 88.3286 127.968 88.9181 127.968ZM104.001 129.69L102.262 127.323L100.464 129.69H97.959L101.01 125.802L98.0622 121.972H100.641L102.321 124.224L104.045 121.972H106.492L103.544 125.745L106.609 129.69H104.001ZM111.21 129.804C110.375 129.804 109.623 129.637 108.955 129.302C108.297 128.958 107.781 128.485 107.408 127.882C107.035 127.28 106.848 126.596 106.848 125.831C106.848 125.066 107.035 124.382 107.408 123.78C107.781 123.177 108.297 122.708 108.955 122.374C109.623 122.03 110.375 121.857 111.21 121.857C112.045 121.857 112.792 122.03 113.451 122.374C114.108 122.708 114.624 123.177 114.998 123.78C115.371 124.382 115.558 125.066 115.558 125.831C115.558 126.596 115.371 127.28 114.998 127.882C114.624 128.485 114.108 128.958 113.451 129.302C112.792 129.637 112.045 129.804 111.21 129.804ZM111.21 127.968C111.8 127.968 112.281 127.777 112.654 127.394C113.037 127.002 113.229 126.481 113.229 125.831C113.229 125.181 113.037 124.664 112.654 124.282C112.281 123.89 111.8 123.694 111.21 123.694C110.621 123.694 110.134 123.89 109.751 124.282C109.368 124.664 109.176 125.181 109.176 125.831C109.176 126.481 109.368 127.002 109.751 127.394C110.134 127.777 110.621 127.968 111.21 127.968ZM124.271 121.972V129.69H121.972V126.821C121.304 127.146 120.567 127.308 119.761 127.308C118.691 127.308 117.881 127.074 117.33 126.606C116.79 126.127 116.519 125.391 116.519 124.396V121.972H118.818V124.253C118.818 124.722 118.942 125.061 119.187 125.271C119.443 125.482 119.806 125.587 120.277 125.587C120.877 125.587 121.441 125.463 121.972 125.214V121.972H124.271ZM134.186 125.86C134.186 125.888 134.171 126.089 134.142 126.462H128.144C128.252 126.94 128.507 127.318 128.911 127.595C129.313 127.873 129.814 128.011 130.414 128.011C130.826 128.011 131.189 127.954 131.504 127.839C131.828 127.715 132.128 127.524 132.403 127.265L133.626 128.556C132.879 129.388 131.789 129.804 130.355 129.804C129.46 129.804 128.669 129.637 127.982 129.302C127.294 128.958 126.763 128.485 126.391 127.882C126.016 127.28 125.831 126.596 125.831 125.831C125.831 125.075 126.012 124.396 126.376 123.794C126.749 123.182 127.254 122.708 127.894 122.374C128.542 122.03 129.264 121.857 130.06 121.857C130.835 121.857 131.538 122.02 132.167 122.345C132.795 122.67 133.287 123.139 133.641 123.751C134.004 124.353 134.186 125.056 134.186 125.86ZM130.075 123.55C129.553 123.55 129.117 123.694 128.763 123.98C128.409 124.267 128.193 124.659 128.115 125.157H132.02C131.941 124.669 131.725 124.282 131.372 123.995C131.018 123.698 130.585 123.55 130.075 123.55ZM142.336 123.808H139.654V129.69H137.369V123.808H134.687V121.972H142.336V123.808ZM152.716 129.69L150.977 127.323L149.179 129.69H146.674L149.724 125.802L146.777 121.972H149.356L151.036 124.224L152.76 121.972H155.206L152.259 125.745L155.324 129.69H152.716ZM159.924 129.804C159.089 129.804 158.337 129.637 157.67 129.302C157.011 128.958 156.495 128.485 156.122 127.882C155.749 127.28 155.562 126.596 155.562 125.831C155.562 125.066 155.749 124.382 156.122 123.78C156.495 123.177 157.011 122.708 157.67 122.374C158.337 122.03 159.089 121.857 159.924 121.857C160.76 121.857 161.506 122.03 162.164 122.374C162.823 122.708 163.339 123.177 163.712 123.78C164.085 124.382 164.272 125.066 164.272 125.831C164.272 126.596 164.085 127.28 163.712 127.882C163.339 128.485 162.823 128.958 162.164 129.302C161.506 129.637 160.76 129.804 159.924 129.804ZM159.924 127.968C160.514 127.968 160.996 127.777 161.369 127.394C161.752 127.002 161.943 126.481 161.943 125.831C161.943 125.181 161.752 124.664 161.369 124.282C160.996 123.89 160.514 123.694 159.924 123.694C159.335 123.694 158.849 123.89 158.465 124.282C158.082 124.664 157.891 125.181 157.891 125.831C157.891 126.481 158.082 127.002 158.465 127.394C158.849 127.777 159.335 127.968 159.924 127.968ZM170.525 121.857C171.261 121.857 171.929 122.025 172.529 122.359C173.137 122.685 173.615 123.148 173.958 123.751C174.302 124.344 174.474 125.037 174.474 125.831C174.474 126.625 174.302 127.323 173.958 127.925C173.615 128.518 173.137 128.982 172.529 129.317C171.929 129.642 171.261 129.804 170.525 129.804C169.512 129.804 168.716 129.494 168.137 128.872V132.473H165.838V121.972H168.034V122.862C168.604 122.192 169.434 121.857 170.525 121.857ZM170.127 127.968C170.716 127.968 171.198 127.777 171.571 127.394C171.954 127.002 172.146 126.481 172.146 125.831C172.146 125.181 171.954 124.664 171.571 124.282C171.198 123.89 170.716 123.694 170.127 123.694C169.537 123.694 169.051 123.89 168.668 124.282C168.295 124.664 168.108 125.181 168.108 125.831C168.108 126.481 168.295 127.002 168.668 127.394C169.051 127.777 169.537 127.968 170.127 127.968ZM179.798 129.804C178.964 129.804 178.212 129.637 177.544 129.302C176.886 128.958 176.37 128.485 175.996 127.882C175.623 127.28 175.436 126.596 175.436 125.831C175.436 125.066 175.623 124.382 175.996 123.78C176.37 123.177 176.886 122.708 177.544 122.374C178.212 122.03 178.964 121.857 179.798 121.857C180.634 121.857 181.381 122.03 182.038 122.374C182.697 122.708 183.213 123.177 183.586 123.78C183.96 124.382 184.146 125.066 184.146 125.831C184.146 126.596 183.96 127.28 183.586 127.882C183.213 128.485 182.697 128.958 182.038 129.302C181.381 129.637 180.634 129.804 179.798 129.804ZM179.798 127.968C180.388 127.968 180.87 127.777 181.243 127.394C181.626 127.002 181.817 126.481 181.817 125.831C181.817 125.181 181.626 124.664 181.243 124.282C180.87 123.89 180.388 123.694 179.798 123.694C179.209 123.694 178.723 123.89 178.339 124.282C177.956 124.664 177.765 125.181 177.765 125.831C177.765 126.481 177.956 127.002 178.339 127.394C178.723 127.777 179.209 127.968 179.798 127.968ZM197.826 121.972V129.69H185.727V121.972H188.011V127.854H190.649V121.972H192.933V127.854H195.542V121.972H197.826ZM203.745 129.804C202.911 129.804 202.16 129.637 201.491 129.302C200.833 128.958 200.317 128.485 199.943 127.882C199.57 127.28 199.383 126.596 199.383 125.831C199.383 125.066 199.57 124.382 199.943 123.78C200.317 123.177 200.833 122.708 201.491 122.374C202.16 122.03 202.911 121.857 203.745 121.857C204.581 121.857 205.328 122.03 205.985 122.374C206.644 122.708 207.16 123.177 207.533 123.78C207.907 124.382 208.093 125.066 208.093 125.831C208.093 126.596 207.907 127.28 207.533 127.882C207.16 128.485 206.644 128.958 205.985 129.302C205.328 129.637 204.581 129.804 203.745 129.804ZM203.745 127.968C204.335 127.968 204.817 127.777 205.19 127.394C205.573 127.002 205.764 126.481 205.764 125.831C205.764 125.181 205.573 124.664 205.19 124.282C204.817 123.89 204.335 123.694 203.745 123.694C203.156 123.694 202.67 123.89 202.286 124.282C201.903 124.664 201.712 125.181 201.712 125.831C201.712 126.481 201.903 127.002 202.286 127.394C202.67 127.777 203.156 127.968 203.745 127.968ZM219.905 125.659C220.838 125.965 221.305 126.577 221.305 127.495C221.305 128.193 221.035 128.733 220.494 129.116C219.953 129.498 219.149 129.69 218.077 129.69H213.848V121.972H217.901C218.892 121.972 219.669 122.149 220.229 122.503C220.789 122.847 221.069 123.335 221.069 123.966C221.069 124.349 220.966 124.688 220.759 124.985C220.563 125.271 220.278 125.496 219.905 125.659ZM215.955 125.142H217.694C218.5 125.142 218.903 124.865 218.903 124.31C218.903 123.765 218.5 123.493 217.694 123.493H215.955V125.142ZM217.886 128.169C218.73 128.169 219.153 127.887 219.153 127.323C219.153 127.026 219.055 126.811 218.858 126.677C218.662 126.534 218.353 126.462 217.93 126.462H215.955V128.169H217.886ZM227.186 124.439C228.217 124.449 228.998 124.674 229.529 125.114C230.059 125.554 230.325 126.185 230.325 127.007C230.325 127.868 230.024 128.532 229.426 129.001C228.826 129.47 227.976 129.704 226.876 129.704L223.015 129.69V121.972H225.299V124.439H227.186ZM231.179 121.972H233.464V129.69H231.179V121.972ZM226.67 128.112C227.112 128.121 227.451 128.03 227.687 127.839C227.923 127.648 228.04 127.361 228.04 126.978C228.04 126.606 227.923 126.333 227.687 126.161C227.46 125.989 227.121 125.898 226.67 125.888L225.299 125.874V128.112H226.67ZM242.031 123.808H237.964V129.69H235.68V121.972H242.031V123.808ZM250.278 121.972V129.69H247.979V123.808H245.474L245.4 125.171C245.361 126.185 245.262 127.026 245.105 127.696C244.948 128.365 244.693 128.891 244.339 129.274C243.986 129.656 243.494 129.847 242.866 129.847C242.531 129.847 242.133 129.79 241.672 129.675L241.79 127.839C241.946 127.858 242.06 127.868 242.129 127.868C242.472 127.868 242.727 127.748 242.895 127.509C243.072 127.261 243.19 126.95 243.249 126.577C243.308 126.194 243.352 125.692 243.381 125.071L243.499 121.972H250.278ZM259.533 121.972V129.69H257.484V127.481H255.79L254.286 129.69H251.84L253.653 127.165C253.102 126.955 252.68 126.653 252.385 126.261C252.1 125.86 251.958 125.377 251.958 124.812C251.958 123.904 252.291 123.206 252.96 122.718C253.638 122.221 254.566 121.972 255.745 121.972H259.533ZM255.79 123.794C255.298 123.794 254.925 123.88 254.67 124.052C254.424 124.224 254.301 124.502 254.301 124.884C254.301 125.267 254.419 125.549 254.655 125.73C254.9 125.903 255.268 125.989 255.76 125.989H257.484V123.794H255.79ZM270.628 127.854V131.354H268.491V129.69H262.921V131.354H260.784V127.854H261.108C261.599 127.844 261.938 127.562 262.125 127.007C262.312 126.452 262.43 125.664 262.479 124.64L262.582 121.972H269.494V127.854H270.628ZM264.557 124.798C264.527 125.582 264.464 126.223 264.365 126.72C264.277 127.218 264.104 127.595 263.849 127.854H267.195V123.808H264.601L264.557 124.798ZM279.782 125.86C279.782 125.888 279.767 126.089 279.738 126.462H273.74C273.848 126.94 274.104 127.318 274.506 127.595C274.909 127.873 275.41 128.011 276.009 128.011C276.422 128.011 276.786 127.954 277.1 127.839C277.424 127.715 277.723 127.524 277.999 127.265L279.222 128.556C278.475 129.388 277.384 129.804 275.95 129.804C275.056 129.804 274.266 129.637 273.578 129.302C272.89 128.958 272.359 128.485 271.986 127.882C271.613 127.28 271.426 126.596 271.426 125.831C271.426 125.075 271.608 124.396 271.972 123.794C272.345 123.182 272.851 122.708 273.489 122.374C274.138 122.03 274.86 121.857 275.656 121.857C276.432 121.857 277.134 122.02 277.763 122.345C278.392 122.67 278.883 123.139 279.237 123.751C279.601 124.353 279.782 125.056 279.782 125.86ZM275.67 123.55C275.15 123.55 274.713 123.694 274.359 123.98C274.005 124.267 273.789 124.659 273.71 125.157H277.616C277.537 124.669 277.321 124.282 276.967 123.995C276.614 123.698 276.182 123.55 275.67 123.55ZM287.931 123.808H285.249V129.69H282.965V123.808H280.283V121.972H287.931V123.808ZM293.445 124.439C294.477 124.449 295.268 124.679 295.818 125.128C296.369 125.568 296.643 126.194 296.643 127.007C296.643 127.858 296.333 128.523 295.715 129.001C295.106 129.47 294.247 129.704 293.136 129.704L289.157 129.69V121.972H291.441V124.439H293.445ZM292.929 128.112C293.371 128.121 293.71 128.03 293.946 127.839C294.182 127.648 294.3 127.361 294.3 126.978C294.3 126.606 294.182 126.333 293.946 126.161C293.721 125.989 293.382 125.898 292.929 125.888L291.441 125.874V128.112H292.929Z" fill="white"/>
</svg>
