<svg width="54" height="54" viewBox="0 0 54 54" fill="none" xmlns="http://www.w3.org/2000/svg">
<g clip-path="url(#clip0)">
<path d="M37.4605 41.6255C37.1021 41.2534 36.4408 41.1467 35.9547 41.6118C35.9513 41.6151 35.9478 41.6185 35.9444 41.6218C35.4647 42.0936 35.5514 42.7578 35.9124 43.1274C36.1041 43.3238 36.3808 43.4447 36.6705 43.4447C36.9263 43.4447 37.192 43.3505 37.4184 43.1309C37.9013 42.6625 37.8192 41.9975 37.4605 41.6255Z" fill="black"/>
<path d="M47.0095 21.3216C46.807 20.7754 46.2005 20.4968 45.6543 20.6989C45.1081 20.9012 44.8294 21.5079 45.0317 22.0541C45.9421 24.5119 46.4036 27.0997 46.4036 29.7456C46.4036 41.9565 36.4692 51.8908 24.2584 51.8908C19.7272 51.8908 15.3715 50.5322 11.6616 47.9617C11.1831 47.63 10.526 47.7491 10.1943 48.2279C9.86245 48.7066 9.98163 49.3636 10.4605 49.6953C14.5248 52.5114 19.296 53.9999 24.2585 53.9999C30.7371 53.9999 36.8278 51.477 41.4089 46.8958C45.99 42.3148 48.5129 36.224 48.5129 29.7455C48.5127 26.8489 48.0068 24.0146 47.0095 21.3216Z" fill="black"/>
<path d="M32.4256 6.90089C29.8092 5.96538 27.0614 5.49109 24.2583 5.49109C17.7797 5.49109 11.689 8.014 7.10784 12.5949C2.52682 17.1762 0.00390625 23.267 0.00390625 29.7455C0.00390625 34.7695 1.52645 39.5896 4.40722 43.6847C4.61246 43.9767 4.93888 44.1327 5.27069 44.1327C5.48025 44.1327 5.69193 44.0703 5.87639 43.9405C6.3528 43.6053 6.46733 42.9475 6.13226 42.4712C3.50282 38.7332 2.11296 34.3327 2.11296 29.7454C2.11296 17.5344 12.0474 7.60014 24.2582 7.60014C26.8188 7.60014 29.3276 8.03299 31.7153 8.88675C32.2637 9.08293 32.8674 8.79732 33.0633 8.24888C33.2595 7.70055 32.9739 7.09706 32.4256 6.90089Z" fill="black"/>
<path d="M53.9154 8.74539C53.7522 8.35125 53.3677 8.09444 52.9411 8.09444H47.4001L47.996 7.49854C48.4078 7.08679 48.4078 6.41896 47.996 6.00711C47.5842 5.59536 46.9165 5.59536 46.5046 6.00711L45.9011 6.6106V1.05452C45.9011 0.628107 45.6441 0.243463 45.2501 0.0801977C44.856 -0.0830676 44.4024 0.0072135 44.101 0.308748L34.8045 9.60517C34.6068 9.80292 34.4956 10.0711 34.4956 10.3508V14.009C31.4538 12.0192 27.9471 10.9747 24.2576 10.9747C13.9074 10.9747 5.48682 19.3953 5.48682 29.7454C5.48682 40.0956 13.9074 48.5162 24.2576 48.5162C27.6929 48.5162 31.0538 47.5793 33.9768 45.807C34.4748 45.5051 34.6337 44.8566 34.3318 44.3585C34.03 43.8606 33.3815 43.7015 32.8834 44.0035C30.2901 45.576 27.3073 46.407 24.2576 46.407C15.0703 46.407 7.59587 38.9327 7.59587 29.7453C7.59587 20.558 15.0703 13.0836 24.2576 13.0836C28.0091 13.0836 31.5474 14.2996 34.4956 16.5999V18.0159L32.5739 19.9376C30.3296 18.0317 27.4259 16.8799 24.2576 16.8799C17.1636 16.8799 11.3922 22.6512 11.3922 29.7452C11.3922 36.8393 17.1636 42.6106 24.2576 42.6106C31.3516 42.6106 37.1229 36.8393 37.1229 29.7452C37.1229 26.5771 35.9712 23.6733 34.0652 21.4289L35.9945 19.4996H37.3975C39.6709 22.4132 40.9192 26.0376 40.9192 29.7452C40.9192 32.8541 40.0576 35.8865 38.4277 38.5142C38.1207 39.0091 38.2731 39.6592 38.7682 39.9662C38.9412 40.0736 39.1332 40.1247 39.3229 40.1247C39.6758 40.1247 40.0205 39.9476 40.2201 39.6259C42.0574 36.6641 43.0283 33.2474 43.0283 29.7452C43.0283 26.1027 41.9584 22.5312 39.9857 19.4996H43.6445C43.9242 19.4996 44.1923 19.3884 44.3902 19.1907L53.6866 9.89426C53.9884 9.59304 54.0786 9.13942 53.9154 8.74539ZM35.0141 29.7454C35.0141 35.6765 30.1888 40.5018 24.2578 40.5018C18.3268 40.5018 13.5015 35.6765 13.5015 29.7454C13.5015 23.8144 18.3268 18.9891 24.2578 18.9891C26.8444 18.9891 29.2204 19.907 31.0779 21.434L28.6762 23.8357C27.4436 22.9117 25.9135 22.3637 24.2579 22.3637C20.1875 22.3637 16.8762 25.6752 16.8762 29.7454C16.8762 33.8158 20.1877 37.1272 24.2579 37.1272C28.3282 37.1272 31.6396 33.8157 31.6396 29.7454C31.6396 28.0898 31.0916 26.5598 30.1676 25.327L32.5693 22.9253C34.0962 24.7828 35.0141 27.1588 35.0141 29.7454ZM23.5121 30.4912C23.7181 30.6972 23.9879 30.8001 24.2578 30.8001C24.5277 30.8001 24.7975 30.6972 25.0035 30.4912L28.6547 26.84C29.2074 27.6737 29.5305 28.6724 29.5305 29.7454C29.5305 32.6528 27.1651 35.0181 24.2578 35.0181C21.3504 35.0181 18.9851 32.6528 18.9851 29.7454C18.9851 26.8381 21.3504 24.4728 24.2578 24.4728C25.3309 24.4728 26.3295 24.7958 27.1633 25.3486L23.5121 28.9998C23.1003 29.4115 23.1003 30.0792 23.5121 30.4912ZM36.6049 15.9069V10.7877L43.7921 3.60042V8.71965L36.6049 15.9069ZM43.208 17.3908H38.1039L45.2912 10.2035H50.3952L43.208 17.3908Z" fill="black"/>
<path d="M8.57786 45.383C8.3818 45.1869 8.10979 45.074 7.83241 45.074C7.55387 45.074 7.28187 45.1868 7.08685 45.383C6.88963 45.5792 6.77783 45.8512 6.77783 46.1286C6.77783 46.4059 6.88963 46.6779 7.08685 46.8741C7.28292 47.0703 7.55397 47.1831 7.83241 47.1831C8.10979 47.1831 8.3818 47.0703 8.57786 46.8741C8.77403 46.6779 8.88699 46.4059 8.88699 46.1286C8.88699 45.8512 8.77414 45.5802 8.57786 45.383Z" fill="black"/>
</g>
<defs>
<clipPath id="clip0">
<rect width="54" height="54" fill="white"/>
</clipPath>
</defs>
</svg>
