<svg width="54" height="53" viewBox="0 0 54 53" fill="none" xmlns="http://www.w3.org/2000/svg">
<path d="M52.4561 7.2455C51.6617 6.46448 50.3728 6.46313 49.5784 7.24219L25.1631 31.1421L16.3542 21.7519C15.593 20.9409 14.3061 20.8883 13.4785 21.6353C12.6515 22.3824 12.5985 23.6461 13.3597 24.4578L23.6035 35.3767C23.9786 35.7769 24.5036 36.0093 25.0572 36.0206C25.0721 36.0212 25.0864 36.0212 25.1007 36.0212C25.6387 36.0212 26.1562 35.8115 26.5375 35.4386L52.4521 10.0705C53.2485 9.29159 53.2499 8.02653 52.4561 7.2455Z" fill="black"/>
<path d="M51.9648 24.5025C50.8407 24.5025 49.9296 25.3966 49.9296 26.5C49.9296 38.9098 39.6439 49.005 27 49.005C14.3568 49.005 4.07036 38.9098 4.07036 26.5C4.07036 14.091 14.3568 3.99498 27 3.99498C28.1241 3.99498 29.0352 3.10081 29.0352 1.99754C29.0352 0.894168 28.1241 0 27 0C12.112 0 0 11.8877 0 26.5C0 41.1116 12.112 53 27 53C41.8873 53 54 41.1116 54 26.5C54 25.3967 53.089 24.5025 51.9648 24.5025Z" fill="black"/>
</svg>
