<svg width="54" height="54" viewBox="0 0 54 54" fill="none" xmlns="http://www.w3.org/2000/svg">
<g clip-path="url(#clip0)">
<path d="M48.2383 10.5579H49.9068C50.4888 10.5579 50.9608 10.0947 50.9608 9.52343C50.9608 8.95219 50.4888 8.48895 49.9068 8.48895H45.9016C45.3196 8.48895 44.8476 8.95219 44.8476 9.52343V13.4544C44.8476 14.0257 45.3196 14.4889 45.9016 14.4889C46.4836 14.4889 46.9556 14.0257 46.9556 13.4544V12.3162C50.1537 16.5184 51.892 21.617 51.892 26.9199C51.892 40.3913 40.7256 51.351 27 51.351C13.2744 51.351 2.10799 40.3913 2.10799 26.9199C2.10799 13.4485 13.2744 2.48888 27 2.48888C28.0151 2.48888 29.0367 2.54939 30.0368 2.66867C30.6138 2.73715 31.1401 2.33381 31.2103 1.7666C31.2806 1.1995 30.8691 0.683714 30.2912 0.614817C29.2071 0.485508 28.0998 0.419922 27 0.419922C19.788 0.419922 13.0077 3.17639 7.90813 8.18161C2.80848 13.1867 0 19.8415 0 26.9199C0 33.9983 2.80848 40.6531 7.90813 45.6582C13.0077 50.6635 19.788 53.4199 27 53.4199C34.212 53.4199 40.9923 50.6635 46.0919 45.6582C51.1915 40.6531 54 33.9983 54 26.9199C54 20.9467 51.9668 15.2124 48.2383 10.5579Z" fill="black"/>
<path d="M11.4327 16.0419C10.9408 15.7363 10.2898 15.8801 9.97833 16.3626C7.57216 20.0925 6.507 24.5782 6.97908 28.9934C7.45812 33.4741 9.51289 37.6996 12.7649 40.8914C16.6894 44.7433 21.8446 46.6693 26.9999 46.6693C32.1552 46.6693 37.3103 44.7434 41.235 40.8914C49.0842 33.1876 49.0842 20.6524 41.235 12.9487C37.988 9.76186 33.6899 7.74588 29.1322 7.27209C24.6419 6.80502 20.0766 7.84229 16.2779 10.1923C15.7853 10.497 15.6379 11.1358 15.9482 11.6191C16.2586 12.1025 16.9094 12.2472 17.4018 11.9426C24.5625 7.51302 33.7498 8.52815 39.7443 14.4116C46.7716 21.3088 46.7716 32.5312 39.7443 39.4284C32.7171 46.3257 21.2828 46.3257 14.2556 39.4284C8.3439 33.6262 7.29412 24.3911 11.7595 17.4694C12.0707 16.9867 11.9245 16.3476 11.4327 16.0419Z" fill="black"/>
<path d="M40.7022 27.9712H42.002C42.584 27.9712 43.056 27.5079 43.056 26.9367C43.056 26.3655 42.584 25.9022 42.002 25.9022H40.7022C40.1202 25.9022 39.6482 26.3655 39.6482 26.9367C39.6482 27.5079 40.1201 27.9712 40.7022 27.9712Z" fill="black"/>
<path d="M10.9441 26.9031C10.9441 27.4744 11.4161 27.9376 11.9981 27.9376H13.2979C13.8799 27.9376 14.3519 27.4744 14.3519 26.9031C14.3519 26.3319 13.8799 25.8687 13.2979 25.8687H11.9981C11.4161 25.8687 10.9441 26.3318 10.9441 26.9031Z" fill="black"/>
<path d="M28.0709 13.4716V12.1959C28.0709 11.6246 27.5989 11.1614 27.0169 11.1614C26.4349 11.1614 25.9629 11.6246 25.9629 12.1959V13.4716C25.9629 14.0428 26.4349 14.506 27.0169 14.506C27.5989 14.506 28.0709 14.0428 28.0709 13.4716Z" fill="black"/>
<path d="M25.9287 40.3682V41.6439C25.9287 42.2152 26.4007 42.6784 26.9827 42.6784C27.5647 42.6784 28.0367 42.2152 28.0367 41.6439V40.3682C28.0367 39.797 27.5647 39.3337 26.9827 39.3337C26.4007 39.3337 25.9287 39.7969 25.9287 40.3682Z" fill="black"/>
<path d="M21.7171 20.2717C21.3054 19.8678 20.6382 19.8678 20.2264 20.2717C19.8148 20.6756 19.8148 21.3306 20.2264 21.7347L23.7985 25.2407C23.5248 25.7413 23.3691 26.3131 23.3691 26.9199C23.3691 28.885 24.998 30.4837 27.0001 30.4837C29.0023 30.4837 30.6311 28.885 30.6311 26.9199C30.6311 26.3131 30.4754 25.7413 30.2017 25.2407L37.4093 18.1666C37.8209 17.7626 37.8209 17.1076 37.4093 16.7035C36.9976 16.2997 36.3304 16.2997 35.9186 16.7035L28.7111 23.7776C28.2009 23.5089 27.6184 23.3562 27.0001 23.3562C26.3819 23.3562 25.7993 23.509 25.2892 23.7776L21.7171 20.2717ZM28.5232 26.9199C28.5232 27.7442 27.84 28.4147 27.0001 28.4147C26.1603 28.4147 25.4771 27.7442 25.4771 26.9199C25.4771 26.0957 26.1603 25.4251 27.0001 25.4251C27.84 25.4251 28.5232 26.0957 28.5232 26.9199Z" fill="black"/>
<path d="M14.255 14.411C14.4521 14.2186 14.5647 13.9517 14.5647 13.6796C14.5647 13.4076 14.4521 13.1417 14.255 12.9482C14.0589 12.7559 13.7879 12.6451 13.5098 12.6451C13.2326 12.6451 12.9607 12.7558 12.7646 12.9482C12.5687 13.1407 12.4558 13.4076 12.4558 13.6796C12.4558 13.9527 12.5686 14.2186 12.7646 14.411C12.9607 14.6033 13.2326 14.7141 13.5098 14.7141C13.7879 14.7141 14.0589 14.6033 14.255 14.411Z" fill="black"/>
<path d="M34.3013 3.51073C34.5797 3.51073 34.8516 3.40097 35.0475 3.20763C35.2436 3.01521 35.3565 2.74925 35.3565 2.47625C35.3565 2.20418 35.2437 1.93729 35.0475 1.74487C34.8516 1.55256 34.5797 1.44177 34.3013 1.44177C34.0241 1.44177 33.7522 1.55246 33.5562 1.74487C33.3602 1.93729 33.2473 2.20418 33.2473 2.47625C33.2473 2.74935 33.3601 3.01521 33.5562 3.20763C33.7522 3.40097 34.0241 3.51073 34.3013 3.51073Z" fill="black"/>
</g>
<defs>
<clipPath id="clip0">
<rect width="54" height="53" fill="white" transform="translate(0 0.419922)"/>
</clipPath>
</defs>
</svg>
