<svg width="54" height="53" viewBox="0 0 54 53" fill="none" xmlns="http://www.w3.org/2000/svg">
<path d="M6.75 38.9219H5.0625V43.8906H6.75V38.9219Z" fill="black"/>
<path d="M10.125 38.9219H8.4375V40.5781H10.125V38.9219Z" fill="black"/>
<path d="M10.125 42.2344H8.4375V43.8906H10.125V42.2344Z" fill="black"/>
<path d="M20.7204 18.8455C22.4114 19.5094 24.6415 19.875 27 19.875C29.3585 19.875 31.5886 19.5094 33.2796 18.8455C35.2153 18.0856 36.2812 16.9808 36.2812 15.7344C36.2812 14.4879 35.2153 13.3831 33.2796 12.6232C31.5886 11.9594 29.3585 11.5938 27 11.5938C24.6415 11.5938 22.4114 11.9594 20.7204 12.6232C18.7847 13.3831 17.7188 14.4879 17.7188 15.7344C17.7188 16.9808 18.7847 18.0856 20.7204 18.8455ZM27 13.25C31.6356 13.25 34.5938 14.7214 34.5938 15.7344C34.5938 16.7474 31.6356 18.2188 27 18.2188C22.3644 18.2188 19.4062 16.7474 19.4062 15.7344C19.4062 14.7214 22.3644 13.25 27 13.25Z" fill="black"/>
<path d="M45.5625 24.0156H44.7188V15.7344C44.7188 12.9854 42.8082 10.4402 39.339 8.56747C36.0293 6.78079 31.6472 5.79688 27 5.79688C22.3528 5.79688 17.9707 6.78027 14.661 8.56747C11.1918 10.4402 9.28125 12.9854 9.28125 15.7344V27.3281C9.28125 30.0771 11.1918 32.6223 14.661 34.495C15.4589 34.9227 16.2863 35.295 17.1371 35.6094H2.53125C2.30747 35.6094 2.09286 35.6966 1.93463 35.8519C1.77639 36.0072 1.6875 36.2179 1.6875 36.4375V46.375C1.6875 46.5946 1.77639 46.8053 1.93463 46.9606C2.09286 47.1159 2.30747 47.2031 2.53125 47.2031H45.5625C47.3521 47.2012 49.0678 46.5025 50.3333 45.2605C51.5987 44.0185 52.3105 42.3346 52.3125 40.5781V30.6406C52.3105 28.8842 51.5987 27.2002 50.3333 25.9582C49.0678 24.7162 47.3521 24.0176 45.5625 24.0156ZM11.8125 45.5469H3.375V37.2656H11.8125V45.5469ZM43.0312 24.0156H36.8629C37.7137 23.7013 38.5411 23.3289 39.339 22.9013C40.8937 22.0621 42.1339 21.0874 43.0312 20.0202V24.0156ZM15.4743 10.0187C18.539 8.36406 22.6323 7.45312 27 7.45312C31.3677 7.45312 35.461 8.36406 38.5257 10.0187C41.4312 11.5871 43.0312 13.6169 43.0312 15.7344C43.0312 17.8519 41.4312 19.8816 38.5257 21.4501C35.461 23.1047 31.3677 24.0156 27 24.0156C22.6323 24.0156 18.539 23.1047 15.4743 21.4501C12.5688 19.8816 10.9688 17.8519 10.9688 15.7344C10.9688 13.6169 12.5688 11.5871 15.4743 10.0187ZM15.4743 33.0438C12.5688 31.4754 10.9688 29.4455 10.9688 27.3281V20.0199C11.8652 21.0871 13.1063 22.0618 14.661 22.901C15.0993 23.1376 15.5561 23.3599 16.0312 23.5678V27.3281H17.7188V24.2238C18.5489 24.506 19.3939 24.7444 20.25 24.9381V27.3281H21.9375V25.2682C22.7626 25.4035 23.6082 25.5053 24.4688 25.573V30.6406H26.1562V25.6609C26.4364 25.6678 26.7176 25.6715 27 25.6719H28.6875V27.3281H30.375V25.6719H32.9062V27.3281H34.5938V25.6719H37.125V30.6406H38.8125V25.6719H41.3438V27.3281H43.0312V25.6719H45.5625V27.3281H47.25V25.9567C48.3754 26.3478 49.3238 27.1166 49.9277 28.1275C50.5315 29.1383 50.7519 30.326 50.55 31.4809C50.3481 32.6358 49.7369 33.6835 48.8243 34.4389C47.9116 35.1943 46.7564 35.6089 45.5625 35.6094H27C22.6323 35.6094 18.539 34.6984 15.4743 33.0438ZM50.625 40.5781C50.6235 41.8955 50.0896 43.1584 49.1405 44.0899C48.1915 45.0214 46.9047 45.5454 45.5625 45.5469H13.5V37.2656H16.0312V38.9219H17.7188V37.2656H20.25V38.9219H21.9375V37.2656H24.4688V42.2344H26.1562V37.2656H28.6875V38.9219H30.375V37.2656H32.9062V38.9219H34.5938V37.2656H37.125V42.2344H38.8125V37.2656H41.3438V38.9219H43.0312V37.2656H45.5625V38.9219H47.25V37.056C48.5575 36.7223 49.7331 36.0116 50.625 35.0156V40.5781Z" fill="black"/>
</svg>
