<svg width="48" height="48" viewBox="0 0 48 48" fill="none" xmlns="http://www.w3.org/2000/svg">
<g clip-path="url(#clip0)">
<path d="M2.99942 3.2656C-0.772578 7.1836 -0.000578046 11.3456 -0.000578046 23.9896C-0.000578046 34.4896 -1.83258 45.0156 7.75542 47.4936C10.7494 48.2636 37.2774 48.2636 40.2674 47.4896C44.2594 46.4596 47.5074 43.2216 47.9514 37.5756C48.0134 36.7876 48.0134 11.2056 47.9494 10.4016C47.4774 4.3876 43.7754 0.921605 38.8974 0.219605C37.7794 0.0576045 37.5554 0.00960451 31.8194 -0.000395492C11.4734 0.00960451 7.01342 -0.896396 2.99942 3.2656V3.2656Z" fill="url(#paint0_linear)"/>
<path d="M24.0004 9.01446C17.8564 9.01446 12.0221 8.46835 9.79359 14.1831C8.8731 16.5434 9.00677 19.6087 9.00677 23.9979C9.00677 27.8494 8.88325 31.4693 9.79359 33.811C12.017 39.5291 17.8987 38.9813 23.997 38.9813C29.8804 38.9813 35.9465 39.5934 38.2021 33.811C39.1243 31.427 38.9889 28.4074 38.9889 23.9979C38.9889 18.1445 39.3121 14.3657 36.4711 11.5286C33.5945 8.65433 29.7044 9.01446 23.9936 9.01446H24.0004ZM22.6569 11.7146C35.4727 11.6943 37.1039 10.2707 36.2037 30.0474C35.8839 37.042 30.5538 36.2744 24.0021 36.2744C12.0559 36.2744 11.7124 35.9329 11.7124 23.9911C11.7124 11.9107 12.66 11.7214 22.6569 11.7112V11.7146ZM32.004 14.2017C31.0107 14.2017 30.2053 15.0065 30.2053 15.9989C30.2053 16.9914 31.0107 17.7962 32.004 17.7962C32.9972 17.7962 33.8026 16.9914 33.8026 15.9989C33.8026 15.0065 32.9972 14.2017 32.004 14.2017V14.2017ZM24.0004 16.3033C19.7482 16.3033 16.3014 19.749 16.3014 23.9979C16.3014 28.2467 19.7482 31.6908 24.0004 31.6908C28.2526 31.6908 31.6977 28.2467 31.6977 23.9979C31.6977 19.749 28.2526 16.3033 24.0004 16.3033V16.3033ZM24.0004 19.0034C30.608 19.0034 30.6164 28.9924 24.0004 28.9924C17.3945 28.9924 17.3843 19.0034 24.0004 19.0034Z" fill="white"/>
</g>
<defs>
<linearGradient id="paint0_linear" x1="3.09146" y1="44.9338" x2="47.7024" y2="6.32356" gradientUnits="userSpaceOnUse">
<stop stop-color="#FFDD55"/>
<stop offset="0.5" stop-color="#FF543E"/>
<stop offset="1" stop-color="#C837AB"/>
</linearGradient>
<clipPath id="clip0">
<rect width="48" height="48" rx="24" fill="white"/>
</clipPath>
</defs>
</svg>
