<svg width="270" height="121" viewBox="0 0 270 121" fill="none" xmlns="http://www.w3.org/2000/svg">
<path d="M96.1421 26.3444C95.5622 25.8704 95.0594 25.5016 94.6376 25.2382C93.8469 24.7115 93.4779 23.974 93.5306 23.0259L93.6077 21.8386C93.6077 21.5752 93.7374 21.3929 94.0051 21.2835C94.4268 21.2308 94.9661 21.0323 95.6271 20.6919C96.284 20.3515 96.8922 19.8369 97.4478 19.1521C98.0033 18.4673 98.4899 17.584 98.9116 16.5062C99.3333 15.4283 99.5685 14.0952 99.6253 12.515C99.6253 10.724 99.455 9.34224 99.1103 8.36571C98.7656 7.39323 98.4088 6.66792 98.0438 6.19384C97.5694 5.6144 97.0139 5.29834 96.3813 5.24567C95.4324 5.29834 94.7066 5.60224 94.2078 6.15332C93.705 6.70844 93.3238 7.36486 93.0603 8.13069C92.7967 8.89652 92.6629 9.68666 92.6629 10.5011C92.6629 11.3196 92.6629 11.9639 92.6629 12.438C92.6102 12.596 92.5169 12.7135 92.3871 12.7945C92.2533 12.8756 92.1114 12.8594 91.9532 12.754C91.3734 12.3326 90.8584 11.7937 90.4123 11.1332C89.9622 10.4768 89.6622 9.98651 89.504 9.67045C89.3986 9.51242 89.3702 9.27336 89.427 8.9573C89.6378 6.95561 90.1893 5.48068 91.0895 4.53251C91.9857 3.58435 92.8818 2.92792 93.778 2.55514C94.9377 2.18641 96.2029 2.08105 97.5735 2.23908C98.9968 2.44979 100.262 2.95223 101.369 3.74237C102.371 4.42716 103.238 5.46853 103.98 6.86242C104.718 8.26036 105.059 10.1972 105.01 12.6689C105.063 15.092 104.718 16.9641 103.98 18.281C103.242 19.5979 102.371 20.5744 101.369 21.2065C100.315 21.944 99.1022 22.3654 97.7316 22.4707C98.7332 22.8395 99.6537 23.2609 100.501 23.735L105.168 21.4415C106.117 21.1255 107.095 20.8094 108.096 20.4933C109.098 20.1773 110.099 19.9139 111.101 19.7032C111.628 19.5979 112.05 19.7559 112.366 20.1773C112.524 20.388 112.549 20.6271 112.443 20.8904C112.232 21.1538 112.021 21.3402 111.811 21.4456C111.178 21.5509 110.335 21.7616 109.28 22.0777C106.803 22.9205 104.536 23.897 102.48 25.0032C104.22 26.3201 105.485 27.637 106.275 28.9539C107.013 30.2182 107.512 31.5351 107.78 32.9046C108.096 34.0635 108.36 35.7248 108.571 37.8845C108.781 40.0443 108.806 42.204 108.648 44.3637C108.489 46.5234 108.173 48.6588 107.699 50.7659C107.119 52.8202 106.223 54.7166 105.01 56.4549C104.114 57.9298 103.007 59.2224 101.689 60.3286C100.53 61.2767 99.1306 62.1722 97.4964 63.0151C95.8095 63.8579 93.8064 64.332 91.4869 64.4373C89.431 64.5427 87.6387 63.9875 86.11 62.776C84.5813 61.5118 83.4215 59.8788 82.6308 57.8771C81.7347 55.8754 81.2602 53.6347 81.2075 51.1589C81.1548 48.6305 81.5765 46.1547 82.4727 43.7316C82.9998 42.3093 83.7094 40.7817 84.6097 39.1488C85.5585 37.5158 86.6939 35.8829 88.0118 34.2499C89.2769 32.5116 90.7814 30.8503 92.5209 29.27C93.6644 28.2124 94.8769 27.2399 96.1421 26.3444ZM100.335 55.2676C101.442 53.2133 102.099 50.8428 102.314 48.1564C102.472 45.5226 102.395 42.8888 102.079 40.255C101.762 37.5685 101.288 35.3561 100.655 33.6178C100.023 31.5634 99.0211 29.5617 97.6505 27.6127C96.3326 28.4555 94.593 29.9062 92.4317 31.9605C90.2177 34.0676 88.2389 36.596 86.4993 39.5459C85.6558 41.0735 84.9705 42.7348 84.4434 44.5258C83.9163 46.0534 83.6 47.7917 83.4945 49.7407C83.3891 51.6897 83.6527 53.7198 84.2853 55.8268C84.707 57.2491 85.2341 58.3553 85.8667 59.1454C86.4466 59.8829 87.0548 60.4339 87.6874 60.8067C88.3727 61.2281 89.0823 61.5199 89.8244 61.6779C91.564 61.9413 93.0684 61.7549 94.3335 61.1228C95.5987 60.5433 96.7057 59.7775 97.6546 58.8293C98.6967 57.8771 99.5928 56.6899 100.335 55.2676Z" fill="#081E33"/>
<path d="M132.84 40.0925C132.84 40.4613 132.864 40.83 132.917 41.1987C132.97 41.5148 133.01 41.8308 133.034 42.1469C133.059 42.463 133.128 42.6737 133.233 42.779C133.813 42.1996 134.393 41.4905 134.973 40.6436C135.553 39.8008 136.08 38.9701 136.554 38.1557C137.029 37.3412 137.426 36.5876 137.742 35.9028C138.059 35.218 138.298 34.7155 138.456 34.3995C138.561 34.1361 138.744 34.0591 139.011 34.1604H139.093C139.672 34.3711 139.855 34.7682 139.648 35.3476C138.278 38.2975 137.037 40.6031 135.93 42.2644C134.823 43.9257 133.793 45.1211 132.844 45.8585C132.791 46.438 132.751 47.0458 132.726 47.6779C132.698 48.31 132.633 48.9664 132.528 49.6553C133.266 49.7079 133.991 49.7728 134.701 49.8538C135.415 49.9308 136.165 50.0524 136.956 50.2104C137.852 50.4211 138.642 50.7088 139.328 51.0816C139.908 51.3976 140.406 51.819 140.832 52.3458C141.254 52.8725 141.412 53.533 141.307 54.3232C141.307 54.6392 141.226 54.9553 141.071 55.2713C140.966 55.5347 140.779 55.8102 140.516 56.102C140.252 56.3897 139.908 56.6166 139.486 56.7746C138.801 57.038 138.087 57.0623 137.349 56.8516C136.611 56.6409 135.978 56.3492 135.451 55.9804C135.029 55.6644 134.514 55.32 133.91 54.9512C133.302 54.5825 132.629 54.2138 131.887 53.845C131.567 55.2673 131.153 56.6247 130.646 57.9132C130.139 59.2018 129.527 60.312 128.805 61.2318C128.083 62.1516 127.232 62.8526 126.25 63.3267C125.265 63.8008 124.142 63.9588 122.877 63.8008C120.874 63.5901 119.45 62.8769 118.607 61.6654C117.763 60.4538 117.459 59.1086 117.698 57.6337C117.934 56.1587 118.728 54.7203 120.071 53.3264C121.417 51.9284 123.327 50.8871 125.804 50.2063C125.91 48.0466 125.91 45.9922 125.804 44.0432C125.225 44.9387 124.405 45.6519 123.351 46.1786C122.297 46.7054 121.056 46.9161 119.633 46.8108C118.526 46.7581 117.39 46.3245 116.231 45.506C115.071 44.6916 114.057 43.5813 113.185 42.1874C112.313 40.7935 111.669 39.1727 111.247 37.3291C110.825 35.4854 110.825 33.4837 111.247 31.324C111.669 29.1643 112.289 27.4665 113.104 26.2266C113.919 24.9907 114.75 24.0547 115.594 23.4226C116.543 22.6851 117.597 22.1867 118.757 21.9193C120.233 21.7086 121.486 21.8018 122.512 22.1948C123.542 22.5919 124.397 23.0903 125.083 23.6981C125.768 24.3059 126.287 24.9218 126.632 25.5539C126.976 26.1861 127.203 26.6075 127.313 26.8182C127.897 26.3441 128.659 25.9227 129.592 25.5539C130.524 25.1852 131.66 24.9745 132.99 24.9218C133.359 24.9218 133.545 25.1325 133.545 25.5539C133.493 26.1861 133.428 27.1099 133.347 28.3215C133.27 29.533 133.189 30.8378 133.111 32.2317C133.034 33.6296 132.965 35.0235 132.913 36.4214C132.864 37.8153 132.84 39.039 132.84 40.0925ZM122.163 44.5214C123.323 44.0473 124.142 43.4435 124.616 42.702C125.091 41.9646 125.407 41.3568 125.565 40.8827C125.407 39.7765 125.302 38.6298 125.249 37.4466C125.196 36.2593 125.168 35.1288 125.168 34.0469C125.168 32.9691 125.192 32.0047 125.249 31.1619C125.302 30.3191 125.326 29.687 125.326 29.2656C125.326 29.1076 125.326 28.8563 125.326 28.516C125.326 28.1756 125.261 27.7907 125.127 27.3692C124.993 26.9478 124.799 26.5386 124.535 26.1455C124.272 25.7484 123.903 25.4202 123.428 25.1569C122.848 24.8935 122.204 24.9218 121.49 25.2379C120.776 25.554 120.119 26.1334 119.511 26.9762C118.903 27.819 118.404 28.9009 118.007 30.2178C117.609 31.5347 117.439 33.0623 117.492 34.8006C117.597 36.8023 117.796 38.3947 118.084 39.582C118.372 40.7692 118.676 41.7539 118.992 42.544C119.256 43.2288 119.689 43.7961 120.298 44.2418C120.906 44.6916 121.526 44.7848 122.163 44.5214ZM121.052 61.1954C121.79 61.4061 122.463 61.2764 123.067 60.7983C123.671 60.3242 124.109 59.7164 124.373 58.9789C124.689 58.1888 124.953 57.2811 125.164 56.2519C125.375 55.2227 125.533 54.1287 125.638 52.9738C125.533 52.9738 125.439 52.986 125.362 53.0144C125.285 53.0387 125.192 53.0549 125.087 53.0549C124.296 53.2656 123.558 53.5533 122.873 53.9261C122.293 54.2948 121.697 54.7689 121.092 55.3483C120.484 55.9278 120.05 56.7179 119.787 57.7187C119.629 58.2455 119.576 58.748 119.629 59.222C119.681 59.6434 119.799 60.0365 119.985 60.4093C120.172 60.7739 120.525 61.0373 121.052 61.1954Z" fill="#081E33"/>
<path d="M156.8 27.3696C157.117 27.8437 157.198 28.3988 157.036 29.031C156.614 30.1898 156.139 31.1907 155.612 32.0335C155.665 32.6656 155.693 33.3382 155.693 34.0473C155.693 34.7564 155.641 35.4817 155.535 36.2192C155.272 38.5369 154.757 40.3685 153.994 41.7137C153.228 43.059 152.454 44.0963 151.663 44.8338C150.714 45.7293 149.684 46.3371 148.577 46.6531C146.626 47.0745 144.964 46.9692 143.593 46.3371C142.223 45.7049 141.128 44.7325 140.313 43.4115C139.494 42.0946 138.954 40.5792 138.691 38.8692C138.427 37.1593 138.452 35.4331 138.768 33.6948C138.821 33.3261 138.926 32.933 139.084 32.5076C139.19 32.1388 139.336 31.7458 139.518 31.3203C139.701 30.8989 139.952 30.4775 140.268 30.0561C140.216 29.1079 140.362 28.1719 140.702 27.2521C141.043 26.3323 141.517 25.4895 142.125 24.7237C142.73 23.9619 143.443 23.3419 144.262 22.8679C145.077 22.3938 145.961 22.1304 146.91 22.0777C148.861 21.9197 150.6 22.5113 152.129 23.8565C153.658 25.2018 154.712 27.1346 155.292 29.6631C155.556 29.189 155.779 28.7676 155.965 28.3988C156.148 28.0301 156.294 27.714 156.399 27.4507C156.399 27.3453 156.44 27.2805 156.517 27.2521C156.602 27.2278 156.695 27.2643 156.8 27.3696ZM151.898 38.2776C152.003 37.9616 152.068 37.6212 152.097 37.2484C152.121 36.8797 152.162 36.5353 152.214 36.2192C152.267 35.8505 152.32 35.4574 152.372 35.032C151.16 35.7168 149.895 36.1138 148.577 36.2192C147.259 36.3246 146.018 36.1665 144.858 35.7451C144.806 36.3772 144.765 37.2079 144.741 38.233C144.713 39.2623 144.794 40.2469 144.976 41.1951C145.159 42.1432 145.503 42.9212 146.006 43.525C146.505 44.1328 147.231 44.3273 148.18 44.1166C148.338 44.0639 148.561 43.9869 148.853 43.8775C149.141 43.7721 149.473 43.5371 149.842 43.1643C150.211 42.7956 150.58 42.2283 150.949 41.4665C151.318 40.7129 151.634 39.6472 151.898 38.2776ZM147.705 24.8412C146.545 24.9465 145.674 25.7367 145.094 27.2116C145.357 27.2116 145.621 27.2116 145.884 27.2116C146.148 27.2116 146.44 27.24 146.756 27.2886C146.914 27.3413 147.032 27.4466 147.113 27.6046C147.19 27.7627 147.178 27.9491 147.073 28.1598C146.809 28.5812 146.517 29.1485 146.201 29.8576C145.884 30.5667 145.592 31.3973 145.329 32.3455C145.592 32.7142 145.884 32.9898 146.201 33.1762C146.517 33.3625 146.805 33.5044 147.073 33.6097C147.389 33.7677 147.729 33.8488 148.102 33.8488C148.999 33.9541 149.802 33.9015 150.515 33.6908C151.229 33.48 151.874 33.164 152.454 32.7426C152.401 29.8981 151.874 27.8437 150.872 26.5795C149.866 25.3153 148.812 24.7358 147.705 24.8412Z" fill="#081E33"/>
<path d="M182.98 34.1687C183.243 34.2741 183.413 34.4321 183.495 34.6428C183.576 34.8535 183.559 35.0926 183.454 35.356C182.031 38.5692 180.66 41.0977 179.342 42.9413C178.921 43.6261 178.47 44.088 177.996 44.3231C177.522 44.5621 177.047 44.7039 176.573 44.7566C176.046 44.7566 175.677 44.7039 175.466 44.5986C175.149 45.02 174.78 45.3887 174.359 45.7048C173.779 46.1789 173.171 46.5476 172.538 46.811C171.958 47.0744 171.313 47.2324 170.6 47.2851C169.886 47.3377 169.136 47.1514 168.345 46.7299C167.976 46.5192 167.66 46.2559 167.396 45.9398C167.133 45.6764 166.893 45.3199 166.683 44.8741C166.472 44.4284 166.338 43.9138 166.285 43.3344C166.232 42.8076 166.245 42.2282 166.326 41.5961C166.407 40.9639 166.683 40.3075 167.157 39.6187C167.737 38.7232 168.422 38.3828 169.213 38.5895C170.004 38.8002 170.819 39.2216 171.666 39.8537C171.772 39.4323 171.877 38.9987 171.982 38.549C172.088 38.1032 172.193 37.7183 172.299 37.4022C172.404 37.0335 172.457 36.6648 172.457 36.296C172.879 33.6096 173.037 31.5025 172.931 29.9749C172.826 28.4473 172.615 27.2884 172.299 26.4983C171.93 25.5501 171.455 24.9464 170.875 24.679C169.979 24.837 169.201 25.3394 168.544 26.1822C167.883 27.0251 167.344 27.9732 166.922 29.0268C166.5 30.0803 166.172 31.0933 165.932 32.0698C165.697 33.0463 165.551 33.719 165.498 34.0836C165.077 39.2986 164.773 44.4892 164.59 49.6514C164.404 54.8137 164.444 59.8706 164.708 64.8262C164.76 65.1422 164.667 65.4056 164.432 65.6163C164.193 65.827 163.917 65.9324 163.601 65.9324C162.441 65.827 161.557 65.511 160.953 64.9842C160.345 64.4575 159.886 63.9023 159.57 63.3229C159.201 62.6381 158.962 61.8723 158.856 61.0295C158.54 58.659 158.301 55.932 158.143 52.8485C157.985 49.7649 157.891 46.6854 157.867 43.6018C157.843 40.5182 157.855 37.6332 157.908 34.9467C157.96 32.2602 158.037 30.1775 158.143 28.7026C158.248 27.5964 158.483 26.7009 158.856 26.0161C159.225 25.3313 159.777 24.7276 160.519 24.1968C161.415 23.512 162.323 23.0095 163.248 22.6935C164.168 22.3774 164.947 22.1667 165.58 22.0614C165.843 22.0087 166.095 22.0897 166.33 22.3004C166.565 22.5111 166.658 22.7502 166.606 23.0136C166.5 23.5403 166.435 24.0671 166.407 24.5939C166.378 25.1206 166.314 25.6757 166.208 26.2552C166.946 25.0963 167.871 24.0549 168.978 23.1351C170.085 22.2153 171.455 21.8588 173.089 22.0695C174.671 22.2275 175.936 23.0582 176.885 24.5574C177.834 26.0607 178.466 27.8638 178.783 29.9709C179.099 32.0779 179.087 34.2781 178.742 36.5716C178.397 38.865 177.728 40.9072 176.727 42.6982C177.096 42.6982 177.44 42.4875 177.757 42.0661C178.284 41.434 178.799 40.737 179.298 39.9712C179.796 39.2094 180.246 38.4679 180.644 37.7588C181.041 37.0457 181.382 36.3892 181.674 35.7814C181.962 35.1777 182.16 34.7158 182.266 34.3997C182.371 34.1363 182.554 34.0593 182.821 34.1606H182.98V34.1687ZM169.772 43.5734C170.036 43.4681 170.271 43.2331 170.486 42.8603C170.697 42.4916 170.908 42.0458 171.119 41.515C170.644 41.1463 170.141 40.8586 169.614 40.6438C169.087 40.4331 168.718 40.4615 168.507 40.7249C168.349 40.9356 168.256 41.2273 168.232 41.5961C168.203 41.9648 168.232 42.3214 168.309 42.6617C168.39 43.0062 168.544 43.2695 168.783 43.4519C169.018 43.6383 169.347 43.6788 169.772 43.5734Z" fill="#081E33"/>
<path d="M200.85 27.3696C201.166 27.8437 201.247 28.3988 201.085 29.031C200.663 30.1898 200.189 31.1907 199.662 32.0335C199.714 32.6656 199.743 33.3382 199.743 34.0473C199.743 34.7564 199.69 35.4817 199.585 36.2192C199.321 38.5369 198.806 40.3685 198.044 41.7137C197.277 43.059 196.503 44.0963 195.712 44.8338C194.763 45.7293 193.733 46.3371 192.626 46.6531C190.676 47.0745 189.013 46.9692 187.643 46.3371C186.272 45.7049 185.177 44.7325 184.362 43.4115C183.543 42.0946 183.004 40.5792 182.74 38.8692C182.477 37.1593 182.501 35.4331 182.817 33.6948C182.87 33.3261 182.975 32.933 183.133 32.5076C183.239 32.1388 183.385 31.7458 183.567 31.3203C183.75 30.8989 184.001 30.4775 184.318 30.0561C184.265 29.1079 184.411 28.1719 184.751 27.2521C185.092 26.3323 185.566 25.4895 186.175 24.7237C186.779 23.9619 187.493 23.3419 188.312 22.8679C189.127 22.3938 190.011 22.1304 190.96 22.0777C192.91 21.9197 194.65 22.5113 196.178 23.8565C197.707 25.2018 198.761 27.1346 199.341 29.6631C199.605 29.189 199.828 28.7676 200.014 28.3988C200.197 28.0301 200.343 27.714 200.448 27.4507C200.448 27.3453 200.489 27.2805 200.566 27.2521C200.655 27.2278 200.744 27.2643 200.85 27.3696ZM195.947 38.2776C196.053 37.9616 196.118 37.6212 196.146 37.2484C196.17 36.8797 196.211 36.5353 196.264 36.2192C196.316 35.8505 196.369 35.4574 196.422 35.032C195.209 35.7168 193.944 36.1138 192.626 36.2192C191.308 36.3246 190.068 36.1665 188.908 35.7451C188.855 36.3772 188.815 37.2079 188.79 38.233C188.762 39.2623 188.843 40.2469 189.025 41.1951C189.208 42.1432 189.553 42.9212 190.055 43.525C190.554 44.1328 191.28 44.3273 192.229 44.1166C192.387 44.0639 192.61 43.9869 192.902 43.8775C193.19 43.7721 193.522 43.5371 193.891 43.1643C194.26 42.7956 194.629 42.2283 194.998 41.4665C195.367 40.7129 195.684 39.6472 195.947 38.2776ZM191.758 24.8412C190.599 24.9465 189.727 25.7367 189.147 27.2116C189.411 27.2116 189.674 27.2116 189.938 27.2116C190.201 27.2116 190.493 27.24 190.81 27.2886C190.968 27.3413 191.085 27.4466 191.166 27.6046C191.243 27.7627 191.231 27.9491 191.126 28.1598C190.862 28.5812 190.57 29.1485 190.254 29.8576C189.938 30.5667 189.646 31.3973 189.382 32.3455C189.646 32.7142 189.938 32.9898 190.254 33.1762C190.57 33.3625 190.858 33.5044 191.126 33.6097C191.442 33.7677 191.783 33.8488 192.156 33.8488C193.052 33.9541 193.855 33.9015 194.569 33.6908C195.282 33.48 195.927 33.164 196.507 32.7426C196.454 29.8981 195.927 27.8437 194.925 26.5795C193.916 25.3153 192.865 24.7358 191.758 24.8412Z" fill="#081E33"/>
<path d="M221.336 34.0877C221.441 35.9841 221.202 37.9615 220.626 40.0158C220.363 41.0693 220.099 41.9122 219.835 42.5443C220.204 42.5443 220.545 42.3336 220.865 41.9122C221.393 41.2801 221.92 40.5669 222.447 39.7768C222.921 39.0393 223.367 38.3018 223.793 37.5644C224.162 36.8796 224.507 36.2191 224.823 35.587C225.087 35.0076 225.298 34.5578 225.456 34.2417C225.561 33.9783 225.719 33.9014 225.93 34.0067H226.088C226.352 34.1121 226.534 34.2701 226.644 34.4808C226.697 34.6915 226.668 34.9306 226.567 35.1939C225.143 38.4072 223.773 40.9356 222.455 42.7793C222.033 43.4641 221.583 43.9139 221.109 44.1246C220.634 44.3879 220.16 44.546 219.685 44.5986C219.211 44.5986 218.842 44.546 218.578 44.4406L218.104 44.9957L217.548 45.5509C216.969 46.0249 216.36 46.3937 215.728 46.6571C215.148 46.9204 214.515 47.0785 213.83 47.1311C213.092 47.1838 212.326 46.9974 211.535 46.576C211.113 46.3653 210.769 46.1019 210.505 45.7859C210.241 45.5225 210.002 45.1538 209.791 44.6797C209.58 44.2583 209.447 43.7599 209.398 43.1764C209.345 42.6496 209.37 42.0702 209.475 41.4381C209.528 40.806 209.791 40.1495 210.266 39.4607C210.846 38.5652 211.531 38.2248 212.322 38.4315C213.112 38.6422 213.956 39.0636 214.852 39.6957L215.168 38.3505C215.221 37.929 215.298 37.5603 215.403 37.2443C215.667 35.8747 215.801 34.7685 215.801 33.9257C215.801 33.6096 215.772 33.2936 215.72 32.9775C215.614 31.7659 215.428 30.8421 215.164 30.21C214.795 29.4198 214.345 28.9458 213.818 28.7877C212.974 28.8404 212.236 29.2213 211.604 29.9344C210.971 30.6476 210.456 31.4256 210.063 32.2643C209.67 33.1072 209.365 33.9378 209.155 34.7523C208.944 35.5708 208.81 36.1097 208.761 36.3731C208.023 38.7435 207.784 41.9851 208.048 46.0938C208.048 46.3045 207.942 46.5031 207.731 46.6854C207.52 46.8718 207.257 46.961 206.941 46.961C205.886 46.9083 205.067 46.6571 204.487 46.2113C203.907 45.7656 203.486 45.328 203.222 44.9066C202.853 44.3272 202.614 43.695 202.509 43.0103C202.192 41.0086 201.953 40.0847 201.799 40.2427C201.641 40.4008 201.588 39.481 201.641 37.4752C200.428 37.6859 199.297 37.6859 198.239 37.4752C197.922 37.4225 197.764 37.1065 197.764 36.5271C197.87 35.7896 198.08 35.4735 198.397 35.5789C198.818 35.6316 199.24 35.6842 199.662 35.7369C200.084 35.6842 200.481 35.6316 200.85 35.5789C201.166 35.5262 201.458 35.5019 201.722 35.5019C201.722 34.3957 201.75 33.4759 201.803 32.7344V28.7837C201.856 26.4133 201.985 24.1482 202.196 21.9885C202.407 19.6707 202.776 17.4583 203.303 15.3513C203.778 13.3496 204.435 11.5586 205.282 9.97834C205.757 8.92482 206.284 8.13468 206.864 7.60792C207.391 7.18651 207.894 6.87045 208.368 6.65975C208.842 6.5544 209.264 6.53008 209.633 6.57871C210.002 6.63138 210.266 6.73674 210.424 6.89476C211.584 7.31617 212.504 8.39806 213.193 10.1364C213.773 11.822 214.065 13.5887 214.065 15.4323C214.013 17.3287 213.802 19.2534 213.433 21.2024C213.116 23.046 212.614 24.7844 211.928 26.4173C211.665 27.0494 211.401 27.6815 211.138 28.3136C211.454 27.9449 211.77 27.6572 212.086 27.4425C213.088 26.705 214.353 26.4133 215.882 26.5713C217.358 26.7293 218.542 27.4141 219.442 28.6257C220.338 29.8372 220.947 31.2878 221.263 32.9734C221.307 33.3503 221.336 33.719 221.336 34.0877ZM210.817 23.8159L211.21 22.2356C211.316 21.8669 211.393 21.3645 211.446 20.7324C211.604 20.2056 211.734 19.6262 211.843 18.994C212.054 17.0977 212.054 15.5458 211.843 14.3302C211.685 13.1713 211.474 12.2515 211.21 11.5627C210.841 10.7199 210.444 10.1404 210.022 9.82436C209.232 9.40295 208.571 9.9054 208.044 11.3277C207.516 12.6972 207.066 14.5166 206.697 16.7816C206.434 19.2574 206.223 21.9196 206.065 24.7641C205.907 27.7666 205.854 30.6111 205.907 33.2976C206.223 33.0342 206.563 32.6412 206.937 32.1104C207.358 31.689 207.752 31.1622 208.125 30.5301C209.288 28.4757 210.185 26.239 210.817 23.8159ZM212.873 43.4155C213.137 43.3101 213.372 43.0751 213.587 42.7023C213.798 42.3336 214.033 41.8878 214.296 41.357C213.769 40.9883 213.242 40.7006 212.715 40.4859C212.188 40.2752 211.819 40.3035 211.608 40.5628C211.45 40.7735 211.373 41.0653 211.373 41.434C211.32 41.8028 211.344 42.1472 211.45 42.4632C211.555 42.832 211.713 43.0953 211.924 43.2534C212.135 43.4681 212.451 43.5208 212.873 43.4155Z" fill="#081E33"/>
<path d="M243.796 27.3696C244.113 27.8437 244.194 28.3988 244.035 29.031C243.614 30.1898 243.139 31.1907 242.612 32.0335C242.665 32.6656 242.689 33.3382 242.689 34.0473C242.689 34.7564 242.636 35.4817 242.531 36.2192C242.267 38.5369 241.752 40.3685 240.99 41.7137C240.224 43.059 239.449 44.0963 238.659 44.8338C237.71 45.7293 236.68 46.3371 235.573 46.6531C233.622 47.0745 231.96 46.9692 230.589 46.3371C229.219 45.7049 228.124 44.7325 227.309 43.4115C226.49 42.0946 225.95 40.5792 225.687 38.8692C225.423 37.1593 225.451 35.4331 225.768 33.6948C225.82 33.3261 225.926 32.933 226.084 32.5076C226.189 32.1388 226.335 31.7458 226.518 31.3203C226.7 30.8989 226.952 30.4775 227.268 30.0561C227.215 29.1079 227.361 28.1719 227.702 27.2521C228.043 26.3323 228.517 25.4895 229.125 24.7237C229.729 23.9619 230.443 23.3419 231.262 22.8679C232.077 22.3938 232.961 22.1304 233.91 22.0777C235.861 21.9197 237.6 22.5113 239.129 23.8565C240.658 25.2018 241.712 27.1346 242.292 29.6631C242.555 29.189 242.778 28.7676 242.965 28.3988C243.147 28.0301 243.293 27.714 243.399 27.4507C243.399 27.3453 243.439 27.2805 243.516 27.2521C243.598 27.2278 243.691 27.2643 243.796 27.3696ZM238.894 38.2776C238.999 37.9616 239.064 37.6212 239.092 37.2484C239.117 36.8797 239.157 36.5353 239.21 36.2192C239.263 35.8505 239.315 35.4574 239.368 35.032C238.156 35.7168 236.891 36.1138 235.573 36.2192C234.255 36.3246 233.014 36.1665 231.854 35.7451C231.802 36.3772 231.761 37.2079 231.737 38.233C231.708 39.2623 231.789 40.2469 231.972 41.1951C232.154 42.1432 232.499 42.9212 233.002 43.525C233.501 44.1328 234.226 44.3273 235.175 44.1166C235.333 44.0639 235.556 43.9869 235.848 43.8775C236.136 43.7721 236.469 43.5371 236.838 43.1643C237.207 42.7956 237.576 42.2283 237.945 41.4665C238.31 40.7129 238.626 39.6472 238.894 38.2776ZM234.701 24.8412C233.541 24.9465 232.669 25.7367 232.089 27.2116C232.353 27.2116 232.617 27.2116 232.88 27.2116C233.144 27.2116 233.436 27.24 233.752 27.2886C233.91 27.3413 234.028 27.4466 234.109 27.6046C234.19 27.7627 234.174 27.9491 234.068 28.1598C233.805 28.5812 233.513 29.1485 233.196 29.8576C232.88 30.5667 232.588 31.3973 232.325 32.3455C232.588 32.7142 232.88 32.9898 233.196 33.1762C233.513 33.3625 233.801 33.5044 234.068 33.6097C234.385 33.7677 234.725 33.8488 235.098 33.8488C235.994 33.9541 236.797 33.9015 237.511 33.6908C238.221 33.48 238.869 33.164 239.449 32.7426C239.397 29.8981 238.869 27.8437 237.868 26.5795C236.862 25.3153 235.808 24.7358 234.701 24.8412Z" fill="#081E33"/>
<path d="M266.176 34.1693C266.44 34.2746 266.61 34.4327 266.691 34.6434C266.768 34.8541 266.756 35.0931 266.651 35.3565C266.071 36.6207 265.515 37.7675 264.988 38.7926C264.461 39.8218 263.958 40.7295 263.484 41.5196C262.587 42.8892 261.557 44.0481 260.398 44.9962C259.396 45.7864 258.184 46.4306 256.76 46.9331C255.337 47.4315 253.703 47.395 251.858 46.8156C250.856 46.4995 249.843 45.8674 248.813 44.9192C247.783 43.9711 246.927 42.7838 246.242 41.3616C245.556 39.9393 245.106 38.3185 244.895 36.5032C244.685 34.6879 244.895 32.7227 245.528 30.6157C246.108 28.5613 246.858 26.9689 247.783 25.8343C248.703 24.7038 249.616 23.8448 250.512 23.2653C251.513 22.6332 252.568 22.2645 253.675 22.1591C254.992 22.0538 256.099 22.1997 256.996 22.5927C257.892 22.9898 258.63 23.476 259.21 24.0555C259.684 24.5822 260.053 25.1374 260.317 25.7168C260.58 26.2436 260.726 26.8514 260.751 27.5362C260.775 28.2209 260.605 29.0111 260.236 29.9066C259.814 30.8547 259.206 31.6449 258.415 32.277C257.73 32.8564 256.805 33.3184 255.645 33.6587C254.486 34.0031 253.01 34.0396 251.217 33.7762C251.217 33.9343 251.205 34.0923 251.177 34.2503C251.148 34.4083 251.136 34.5664 251.136 34.7244C251.031 36.4627 251.083 38.043 251.294 39.4652C251.505 40.6768 251.898 41.8235 252.482 42.9013C253.062 43.9832 253.987 44.5748 255.252 44.6802C256.148 44.7855 257.004 44.6275 257.823 44.2061C258.638 43.7847 259.364 43.2863 259.996 42.7028C260.734 42.0707 261.448 41.3332 262.133 40.4904C262.924 39.2789 263.621 38.0795 264.23 36.8963C264.834 35.709 265.243 34.8824 265.454 34.4084C265.56 34.145 265.742 34.068 266.01 34.1693H266.176ZM258.585 25.3967C258.216 25.028 257.713 24.9226 257.081 25.0806C256.448 25.2387 255.787 25.6196 255.102 26.2274C254.417 26.8352 253.756 27.6253 253.123 28.5978C252.49 29.5743 251.988 30.6927 251.619 31.9569C252.093 32.0622 252.62 32.1149 253.2 32.1149C253.78 32.1149 254.372 32.0379 254.98 31.8799C255.584 31.7219 256.168 31.499 256.72 31.2073C257.275 30.9196 257.762 30.482 258.184 29.9025C258.658 29.2177 258.962 28.5978 259.092 28.0467C259.222 27.4916 259.238 27.0053 259.133 26.5839C259.031 26.1058 258.849 25.7128 258.585 25.3967Z" fill="#081E33"/>
<path d="M190.449 63.9715H183.288V81.0709H176.078V63.9715H168.82V57.0547H190.453V63.9715H190.449Z" fill="#081E33"/>
<path d="M204.82 75.3087C206.791 75.3087 208.474 74.5389 209.435 73.4853L215.201 76.7999C212.845 80.0658 209.289 81.7474 204.723 81.7474C196.503 81.7474 191.406 76.2245 191.406 69.0646C191.406 61.9047 196.597 56.3818 204.192 56.3818C211.211 56.3818 216.401 61.8115 216.401 69.0646C216.401 70.0735 216.304 71.0339 216.113 71.9456H199.05C199.966 74.4457 202.176 75.3087 204.82 75.3087ZM209.244 66.5686C208.474 63.7808 206.312 62.7718 204.147 62.7718C201.406 62.7718 199.581 64.1171 198.908 66.5686H209.244Z" fill="#081E33"/>
<path d="M240.439 81.075H233.229V63.9755H228.039V71.1313C228.039 78.3844 224.385 81.8894 217.366 81.075V74.3486C219.625 75.0213 220.829 73.6274 220.829 70.6492V57.0547H240.443V81.075H240.439Z" fill="#081E33"/>
<path d="M244.522 69.0646C244.522 61.9088 250.195 56.3818 257.259 56.3818C264.323 56.3818 270 61.9047 270 69.0646C270 76.2245 264.327 81.7474 257.259 81.7474C250.191 81.7474 244.522 76.2204 244.522 69.0646ZM262.79 69.0646C262.79 65.6528 260.386 63.3959 257.263 63.3959C254.141 63.3959 251.736 65.6528 251.736 69.0646C251.736 72.4764 254.141 74.7333 257.263 74.7333C260.386 74.7333 262.79 72.4764 262.79 69.0646Z" fill="#081E33"/>
<path d="M36.6847 25.7447C34.1828 19.7234 32.0823 11.6437 36.8469 5.56974C41.1776 0.0509157 49.9283 -1.4929 57.3165 1.56636C53.8657 3.58426 51.9963 10.732 48.4807 15.0352C41.798 23.2162 37.8728 23.2081 36.6847 25.7447Z" fill="#5B8F31"/>
<path d="M45.1753 6.0601C42.9613 7.88755 39.3321 10.8496 37.9128 15.7039C36.6761 19.9342 36.5869 23.5323 36.6396 25.6434C36.6517 25.6758 36.668 25.7123 36.6801 25.7447C37.8682 23.2082 41.7975 23.2163 48.4761 15.0393C51.9918 10.7321 53.8611 3.58838 57.3119 1.57048C57.2754 1.55427 57.2389 1.54212 57.2024 1.52591C52.6365 0.991047 47.2596 4.34205 45.1753 6.0601Z" fill="#55862D"/>
<path d="M37.9166 15.704C39.3359 10.8497 42.9611 7.88766 45.1791 6.06021C47.2634 4.34216 52.6403 0.99115 57.2062 1.52601C49.8424 -1.47247 41.1566 0.0794491 36.8461 5.56991C32.1058 11.6074 34.1577 19.6304 36.6434 25.6435C36.5866 23.5324 36.6799 19.9383 37.9166 15.704Z" fill="#9DDB16"/>
<path d="M36.7936 28.4315C36.4813 25.7328 36.4002 22.9937 36.7449 20.2788C37.0815 17.5681 37.8884 14.8978 39.2184 12.499C40.5647 10.1083 42.43 8.02154 44.5994 6.36022C46.7688 4.69079 49.1937 3.40226 51.7078 2.37305L49.8871 3.29285L49.433 3.51976L48.995 3.77909L48.1192 4.29775C47.8272 4.47198 47.5312 4.63001 47.2473 4.8164L46.412 5.39179L45.5767 5.96717C45.305 6.16572 45.0536 6.39263 44.79 6.60334C42.6895 8.29302 40.8648 10.3352 39.5712 12.6935C38.2371 15.0315 37.4464 17.6531 37.049 20.3194C36.9598 20.9879 36.8949 21.6606 36.8179 22.3332L36.7165 24.3633L36.7125 26.3974L36.7936 28.4315Z" fill="#2C602C"/>
<path d="M36.8058 12.9482C36.7652 13.3291 36.7855 13.71 36.8261 14.0869C36.8707 14.4637 36.9193 14.8405 36.9964 15.2133C37.0653 15.5861 37.1586 15.9548 37.2478 16.3195C37.341 16.6842 37.4505 17.0529 37.5965 17.3811L37.414 17.3082C37.8763 17.1299 38.3386 17.0327 38.809 16.9476C39.2753 16.8625 39.7457 16.7936 40.216 16.7369C40.6864 16.6882 41.1608 16.6558 41.6312 16.6356C42.1057 16.6234 42.5801 16.6194 43.0505 16.7004C42.576 16.6923 42.1097 16.745 41.6434 16.7976C41.1771 16.8463 40.7107 16.9152 40.2485 16.9921C39.7821 17.057 39.3199 17.138 38.8617 17.2312C38.4075 17.3285 37.9452 17.4257 37.5195 17.5716L37.3897 17.6161L37.341 17.4986C37.1829 17.1259 37.0856 16.7571 36.9964 16.3803C36.9031 16.0035 36.8463 15.6226 36.7977 15.2417C36.749 14.8608 36.7085 14.4758 36.7044 14.0909C36.7004 13.71 36.7085 13.321 36.8058 12.9482Z" fill="#2C602C"/>
<path d="M39.3682 7.84668C39.3763 8.46664 39.4614 9.07444 39.6034 9.66603C39.7534 10.2536 39.9683 10.829 40.3008 11.3152L40.1508 11.2544C41.1929 11.0518 42.2391 11.0518 43.2812 11.0964C44.3193 11.1612 45.3574 11.2828 46.3671 11.5299C45.3331 11.4246 44.3031 11.3598 43.2731 11.3517C42.7581 11.3436 42.2432 11.3557 41.7322 11.376C41.2213 11.4043 40.7063 11.4449 40.2116 11.5381L40.1143 11.5583L40.0616 11.4773C39.7047 10.9384 39.5101 10.3225 39.4047 9.70655C39.2911 9.09064 39.2749 8.45853 39.3682 7.84668Z" fill="#2C602C"/>
<path d="M42.8435 3.83984C42.7624 4.4679 42.7705 5.10002 42.8638 5.71592C42.9652 6.32777 43.1557 6.92342 43.4518 7.45828L43.2936 7.38535C44.3398 7.19895 45.386 7.20706 46.4281 7.26784C46.9472 7.30836 47.4662 7.36509 47.9812 7.45018C48.4921 7.54337 49.0071 7.65683 49.4937 7.84322C48.4799 7.62036 47.4459 7.54743 46.416 7.52311C45.901 7.50691 45.386 7.51501 44.871 7.53122C44.3601 7.55553 43.8451 7.58795 43.3463 7.67304L43.2409 7.6933L43.1922 7.6001C42.88 7.02472 42.7056 6.3845 42.657 5.74023C42.6043 5.10002 42.6651 4.44764 42.8435 3.83984Z" fill="#2C602C"/>
<path d="M47.9003 2C47.807 2.4133 47.738 2.83066 47.6934 3.24802C47.661 3.66132 47.6326 4.09083 47.7421 4.47172L47.6245 4.40284C48.253 4.24886 48.9059 4.20429 49.5506 4.2205C50.1954 4.24886 50.8361 4.35421 51.4443 4.56087C50.8117 4.45146 50.1792 4.39068 49.5466 4.39879C48.914 4.39473 48.2855 4.47577 47.6691 4.59733L47.5718 4.61759L47.5515 4.52845C47.442 4.08678 47.4785 3.64917 47.5515 3.22776C47.6205 2.80635 47.7381 2.39304 47.9003 2Z" fill="#2C602C"/>
<path d="M53.9299 18.7432C45.8645 18.7432 39.0643 24.1445 36.9476 31.5272C34.835 24.1445 28.0347 18.7432 19.9694 18.7432C10.213 18.7432 2.30176 26.6486 2.30176 36.3977C2.30176 52.2005 16.1293 64.081 26.3154 70.6898C25.8896 69.4053 25.0949 67.663 24.7015 66.573C22.8849 61.5039 22.2604 58.4528 22.4429 54.8465H22.447L22.601 36.5801C22.6051 36.183 22.9254 35.8629 23.3228 35.8629C23.7243 35.8629 24.0487 36.1911 24.0446 36.5922L24.442 55.122C24.8191 55.2436 25.3544 55.3125 25.9586 55.0734L26.3114 36.5882C26.3114 36.1911 26.6358 35.8669 27.0372 35.8669C27.4386 35.8669 27.763 36.1911 27.763 36.5922L28.0226 55.0734C28.3794 55.2031 28.9714 55.2963 29.7946 55.0329L30.0257 36.5922C30.0257 36.1911 30.3501 35.8669 30.7475 35.8669C31.1449 35.8669 31.4693 36.1911 31.4693 36.5882L31.7937 55.0126C32.1505 55.1018 32.6939 55.1707 33.3387 55.0532L33.732 36.5963C33.7279 36.1951 34.0523 35.8669 34.4538 35.8669C34.8512 35.8669 35.1756 36.187 35.1756 36.5841L35.3378 55.3733H35.3337C35.4837 60.2357 35.4959 62.7236 33.7644 66.1962C32.9372 67.8575 31.4612 71.1031 31.4612 71.9581C31.4612 72.1283 31.4612 72.8131 31.4571 73.7977C34.7498 75.6414 36.9476 76.6057 36.9476 76.6057C36.9476 76.6057 39.2387 75.6657 42.6368 73.8261C40.7755 70.9005 37.7991 68.4531 38.3466 61.7106C39.4779 47.7798 41.0229 36.3086 45.8321 35.5022C46.2051 35.4415 46.5498 35.717 46.5498 36.0938V71.5772C56.8049 65.325 71.5934 53.3716 71.5934 36.4018C71.5975 26.6486 63.6903 18.7432 53.9299 18.7432Z" fill="#446C25"/>
<path d="M47.1742 73.1123C50.7872 70.8918 54.2624 68.4323 57.4901 65.6769C60.7139 62.9256 63.7064 59.8825 66.253 56.491C68.7995 53.1076 70.8959 49.3636 72.2057 45.3318C72.8626 43.318 73.3208 41.2433 73.556 39.1404C73.7872 37.0414 73.8399 34.906 73.5114 32.8192C73.1911 30.7365 72.5342 28.6983 71.5285 26.8385C70.5188 24.9827 69.1969 23.3011 67.6398 21.8788C66.0827 20.4566 64.2904 19.2896 62.348 18.4589C60.3976 17.6445 58.3174 17.1704 56.2128 17.0367C51.9997 16.7368 47.7095 17.9646 44.2709 20.4079C40.8201 22.8351 38.233 26.4535 37.0733 30.5096L36.9516 30.9391L36.83 30.5096C35.6946 26.5143 33.1643 22.9445 29.7946 20.5214C26.437 18.0821 22.2401 16.8138 18.0919 17.0124C13.9274 17.1177 9.86833 18.7952 6.70949 21.4736C3.52227 24.156 1.35285 27.9609 0.513468 32.025L0.278278 33.5648C0.213398 34.0794 0.213398 34.6021 0.180959 35.1208C0.136354 35.6394 0.168794 36.1581 0.180959 36.6808C0.180959 37.2035 0.237728 37.7181 0.278278 38.2368C0.460753 40.3114 0.874362 42.3617 1.48667 44.3512C2.70722 48.3384 4.73066 52.05 7.19204 55.4132C9.64936 58.7845 12.5446 61.8275 15.6629 64.5991C18.7812 67.3747 22.1428 69.8748 25.6382 72.1601C22.1347 69.891 18.7609 67.4071 15.6224 64.6437C12.4879 61.8842 9.57637 58.8533 7.09472 55.4861C4.61712 52.123 2.58557 48.3992 1.3488 44.3958C0.728383 42.3982 0.310718 40.3357 0.124189 38.2489C0.083639 37.7262 0.0268691 37.2075 0.0228141 36.6808C0.0106491 36.1581 -0.0217908 35.6354 0.0228141 35.1127C0.055254 34.59 0.0552539 34.0632 0.120134 33.5445L0.355323 31.9886C1.19471 27.8879 3.37629 24.0385 6.5919 21.3277C9.77912 18.617 13.8787 16.9151 18.0919 16.8017C22.2888 16.595 26.5384 17.8673 29.9405 20.331C33.3548 22.7784 35.9216 26.3928 37.0814 30.4366H36.8381C38.014 26.3239 40.6498 22.6649 44.1452 20.2134C47.6284 17.7458 51.9754 16.5099 56.2331 16.8179C58.362 16.9556 60.4665 17.4419 62.4372 18.2685C64.3998 19.1113 66.2084 20.2945 67.7777 21.7329C69.3469 23.1714 70.677 24.8733 71.6948 26.7453C72.7045 28.6254 73.3654 30.6838 73.6858 32.7868C74.0102 34.8939 73.9575 37.0414 73.7182 39.1485C73.479 41.2595 73.0126 43.3463 72.3517 45.3683C71.0298 49.4122 68.9212 53.1724 66.3584 56.5559C63.7875 59.9433 60.7787 62.9742 57.5388 65.7134C54.2867 68.4687 50.7994 70.908 47.1742 73.1123Z" fill="#9DDB16"/>
<path d="M36.9517 31.5272C34.8349 24.1445 28.0347 18.7432 19.9694 18.7432C10.213 18.7432 2.30176 26.6486 2.30176 36.3977C2.30176 52.2005 16.1293 64.081 26.3154 70.6898C25.8896 69.4053 25.0949 67.663 24.7015 66.573C22.8849 61.5039 22.2604 58.4528 22.4429 54.8465H22.447L22.601 36.5801C22.6051 36.183 22.9254 35.8629 23.3228 35.8629C23.7243 35.8629 24.0487 36.1911 24.0446 36.5922L24.442 55.122C24.8191 55.2436 25.3544 55.3125 25.9586 55.0734L26.3114 36.5882C26.3114 36.1911 26.6358 35.8669 27.0372 35.8669C27.4386 35.8669 27.763 36.1911 27.763 36.5922L28.0226 55.0734C28.3794 55.2031 28.9714 55.2963 29.7946 55.0329L30.0257 36.5922C30.0257 36.1911 30.3501 35.8669 30.7475 35.8669C31.1449 35.8669 31.4693 36.1911 31.4693 36.5882L31.7937 55.0126C32.1505 55.1018 32.6939 55.1707 33.3387 55.0532L33.732 36.5963C33.7279 36.1951 34.0523 35.8669 34.4538 35.8669C34.8512 35.8669 35.1756 36.187 35.1756 36.5841L35.3378 55.3733H35.3337C35.4837 60.2357 35.4959 62.7236 33.7644 66.1962C32.9372 67.8575 31.4612 71.1031 31.4612 71.9581C31.4612 72.1283 31.4612 72.8131 31.4571 73.7977C34.7498 75.6414 36.9476 76.6057 36.9476 76.6057C36.9476 76.6057 36.9517 76.6017 36.9557 76.6017V31.5029C36.9557 31.511 36.9517 31.5191 36.9517 31.5272Z" fill="#9DDB16"/>
<path d="M13.5962 92.2002L9.2968 99.9562C8.8832 100.703 8.38305 101.268 7.79634 101.65C7.21924 102.033 6.58923 102.224 5.90634 102.224C5.37732 102.224 4.82908 102.112 4.26161 101.888L4.82428 100.166C5.22825 100.288 5.56488 100.348 5.8342 100.348C6.12275 100.348 6.38245 100.283 6.61329 100.152C6.84413 100.012 7.05572 99.7975 7.24809 99.5082L7.33466 99.3962L3.35268 92.2002H5.84863L8.53214 97.4642L11.3022 92.2002H13.5962ZM14.5264 94.4682H16.7627V97.4082H20.1387V94.4682H22.3894V102H20.1387V99.1862H16.7627V102H14.5264V94.4682ZM24.8325 94.4682H27.0687V98.9482L30.8487 94.4682H32.9119V102H30.6756V97.5202L26.91 102H24.8325V94.4682ZM38.7833 99.1442H37.6147V102H35.364V94.4682H37.6147V97.3942H38.8266L40.933 94.4682H43.328L40.6156 98.0802L43.5156 102H40.8609L38.7833 99.1442ZM47.7837 94.3562C48.9859 94.3562 49.9093 94.6362 50.5538 95.1962C51.1982 95.7469 51.5204 96.5822 51.5204 97.7022V102H49.414V101.062C48.9908 101.762 48.2021 102.112 47.0479 102.112C46.4515 102.112 45.9322 102.014 45.4897 101.818C45.0569 101.622 44.7251 101.352 44.4943 101.006C44.2634 100.661 44.148 100.269 44.148 99.8302C44.148 99.1302 44.4173 98.5795 44.9559 98.1782C45.5042 97.7769 46.3457 97.5762 47.4807 97.5762H49.2697C49.2697 97.1002 49.1206 96.7362 48.8225 96.4842C48.5243 96.2229 48.077 96.0922 47.4807 96.0922C47.0671 96.0922 46.6584 96.1575 46.2544 96.2882C45.86 96.4095 45.5233 96.5775 45.2445 96.7922L44.4365 95.2662C44.8597 94.9769 45.3646 94.7529 45.9514 94.5942C46.5477 94.4355 47.1585 94.3562 47.7837 94.3562ZM47.6106 100.642C47.9953 100.642 48.3367 100.558 48.6349 100.39C48.9331 100.213 49.1446 99.9562 49.2697 99.6202V98.8502H47.726C46.8026 98.8502 46.341 99.1442 46.341 99.7322C46.341 100.012 46.4515 100.236 46.6728 100.404C46.9036 100.563 47.2162 100.642 47.6106 100.642ZM61.2087 94.4682V102H58.958V96.2602H56.5053L56.4332 97.5902C56.3947 98.5795 56.2985 99.4009 56.1446 100.054C55.9907 100.708 55.7407 101.221 55.3944 101.594C55.0482 101.968 54.5672 102.154 53.9517 102.154C53.6246 102.154 53.235 102.098 52.783 101.986L52.8985 100.194C53.0523 100.213 53.1629 100.222 53.2303 100.222C53.5669 100.222 53.817 100.106 53.9805 99.8722C54.1537 99.6295 54.2691 99.3262 54.3268 98.9622C54.3845 98.5889 54.4278 98.0989 54.4566 97.4922L54.5721 94.4682H61.2087ZM67.86 96.8762C68.8699 96.8855 69.6441 97.1095 70.1828 97.5482C70.7215 97.9775 70.9907 98.5889 70.9907 99.3822C70.9907 100.213 70.6878 100.862 70.0818 101.328C69.4854 101.786 68.6439 102.014 67.557 102.014L63.6616 102V94.4682H65.8978V96.8762H67.86ZM67.355 100.46C67.7878 100.47 68.1197 100.381 68.3505 100.194C68.5813 100.008 68.6968 99.7275 68.6968 99.3542C68.6968 98.9902 68.5813 98.7242 68.3505 98.5562C68.1292 98.3882 67.7974 98.2995 67.355 98.2902L65.8978 98.2762V100.46H67.355ZM72.6855 94.4682H74.9218V97.4082H78.2978V94.4682H80.5485V102H78.2978V99.1862H74.9218V102H72.6855V94.4682ZM86.007 94.3562C87.2092 94.3562 88.1325 94.6362 88.777 95.1962C89.4214 95.7469 89.7437 96.5822 89.7437 97.7022V102H87.6373V101.062C87.214 101.762 86.4254 102.112 85.2712 102.112C84.6748 102.112 84.1554 102.014 83.713 101.818C83.2802 101.622 82.9483 101.352 82.7175 101.006C82.4867 100.661 82.3712 100.269 82.3712 99.8302C82.3712 99.1302 82.6405 98.5795 83.1792 98.1782C83.7274 97.7769 84.5689 97.5762 85.704 97.5762H87.493C87.493 97.1002 87.3439 96.7362 87.0457 96.4842C86.7475 96.2229 86.3002 96.0922 85.704 96.0922C85.2903 96.0922 84.8816 96.1575 84.4776 96.2882C84.0833 96.4095 83.7466 96.5775 83.4677 96.7922L82.6598 95.2662C83.0829 94.9769 83.5879 94.7529 84.1747 94.5942C84.7709 94.4355 85.3817 94.3562 86.007 94.3562ZM85.8338 100.642C86.2185 100.642 86.5599 100.558 86.8582 100.39C87.1563 100.213 87.3679 99.9562 87.493 99.6202V98.8502H85.9492C85.0259 98.8502 84.5642 99.1442 84.5642 99.7322C84.5642 100.012 84.6748 100.236 84.896 100.404C85.1269 100.563 85.4394 100.642 85.8338 100.642ZM98.8837 94.4682V102H96.8783V99.8442H95.2191L93.7475 102H91.3525L93.1271 99.5362C92.5885 99.3309 92.1749 99.0369 91.8864 98.6542C91.6074 98.2622 91.468 97.7909 91.468 97.2402C91.468 96.3535 91.795 95.6722 92.449 95.1962C93.1127 94.7109 94.0216 94.4682 95.1758 94.4682H98.8837ZM95.2191 96.2462C94.7382 96.2462 94.3726 96.3302 94.1226 96.4982C93.8821 96.6662 93.7619 96.9369 93.7619 97.3102C93.7619 97.6835 93.8774 97.9589 94.1082 98.1362C94.3486 98.3042 94.7093 98.3882 95.1903 98.3882H96.8783V96.2462H95.2191ZM113.429 94.4682V102H111.178V96.2602H107.947V102H105.71V94.4682H113.429ZM120.449 94.3562C121.17 94.3562 121.824 94.5195 122.411 94.8462C123.007 95.1635 123.474 95.6162 123.811 96.2042C124.147 96.7829 124.316 97.4595 124.316 98.2342C124.316 99.0089 124.147 99.6902 123.811 100.278C123.474 100.857 123.007 101.31 122.411 101.636C121.824 101.954 121.17 102.112 120.449 102.112C119.458 102.112 118.678 101.809 118.112 101.202V104.716H115.861V94.4682H118.011V95.3362C118.568 94.6829 119.381 94.3562 120.449 94.3562ZM120.059 100.32C120.637 100.32 121.107 100.134 121.473 99.7602C121.848 99.3775 122.036 98.8689 122.036 98.2342C122.036 97.5995 121.848 97.0955 121.473 96.7222C121.107 96.3395 120.637 96.1482 120.059 96.1482C119.482 96.1482 119.006 96.3395 118.631 96.7222C118.265 97.0955 118.083 97.5995 118.083 98.2342C118.083 98.8689 118.265 99.3775 118.631 99.7602C119.006 100.134 119.482 100.32 120.059 100.32ZM129.817 102.112C128.999 102.112 128.264 101.949 127.609 101.622C126.965 101.286 126.46 100.824 126.094 100.236C125.729 99.6482 125.546 98.9809 125.546 98.2342C125.546 97.4875 125.729 96.8202 126.094 96.2322C126.46 95.6442 126.965 95.1869 127.609 94.8602C128.264 94.5242 128.999 94.3562 129.817 94.3562C130.635 94.3562 131.365 94.5242 132.01 94.8602C132.655 95.1869 133.16 95.6442 133.524 96.2322C133.89 96.8202 134.073 97.4875 134.073 98.2342C134.073 98.9809 133.89 99.6482 133.524 100.236C133.16 100.824 132.655 101.286 132.01 101.622C131.365 101.949 130.635 102.112 129.817 102.112ZM129.817 100.32C130.394 100.32 130.866 100.134 131.23 99.7602C131.606 99.3775 131.793 98.8689 131.793 98.2342C131.793 97.5995 131.606 97.0955 131.23 96.7222C130.866 96.3395 130.394 96.1482 129.817 96.1482C129.239 96.1482 128.763 96.3395 128.388 96.7222C128.013 97.0955 127.826 97.5995 127.826 98.2342C127.826 98.8689 128.013 99.3775 128.388 99.7602C128.763 100.134 129.239 100.32 129.817 100.32ZM142.127 96.2602H138.145V102H135.909V94.4682H142.127V96.2602ZM148.183 94.3562C148.904 94.3562 149.557 94.5195 150.145 94.8462C150.74 95.1635 151.207 95.6162 151.544 96.2042C151.88 96.7829 152.049 97.4595 152.049 98.2342C152.049 99.0089 151.88 99.6902 151.544 100.278C151.207 100.857 150.74 101.31 150.145 101.636C149.557 101.954 148.904 102.112 148.183 102.112C147.191 102.112 146.412 101.809 145.845 101.202V104.716H143.595V94.4682H145.744V95.3362C146.302 94.6829 147.115 94.3562 148.183 94.3562ZM147.793 100.32C148.37 100.32 148.841 100.134 149.207 99.7602C149.582 99.3775 149.77 98.8689 149.77 98.2342C149.77 97.5995 149.582 97.0955 149.207 96.7222C148.841 96.3395 148.37 96.1482 147.793 96.1482C147.216 96.1482 146.74 96.3395 146.365 96.7222C145.999 97.0955 145.817 97.5995 145.817 98.2342C145.817 98.8689 145.999 99.3775 146.365 99.7602C146.74 100.134 147.216 100.32 147.793 100.32ZM156.803 94.3562C158.006 94.3562 158.929 94.6362 159.573 95.1962C160.218 95.7469 160.54 96.5822 160.54 97.7022V102H158.433V101.062C158.011 101.762 157.221 102.112 156.067 102.112C155.472 102.112 154.952 102.014 154.509 101.818C154.076 101.622 153.744 101.352 153.514 101.006C153.283 100.661 153.167 100.269 153.167 99.8302C153.167 99.1302 153.437 98.5795 153.975 98.1782C154.524 97.7769 155.366 97.5762 156.5 97.5762H158.289C158.289 97.1002 158.141 96.7362 157.842 96.4842C157.544 96.2229 157.097 96.0922 156.5 96.0922C156.087 96.0922 155.678 96.1575 155.274 96.2882C154.88 96.4095 154.543 96.5775 154.264 96.7922L153.456 95.2662C153.879 94.9769 154.384 94.7529 154.971 94.5942C155.567 94.4355 156.179 94.3562 156.803 94.3562ZM156.63 100.642C157.015 100.642 157.357 100.558 157.654 100.39C157.953 100.213 158.164 99.9562 158.289 99.6202V98.8502H156.745C155.822 98.8502 155.36 99.1442 155.36 99.7322C155.36 100.012 155.472 100.236 155.692 100.404C155.923 100.563 156.236 100.642 156.63 100.642ZM170.359 102V97.4922L168.036 101.272H167.084L164.819 97.4782V102H162.784V94.4682H165.136L167.618 98.8222L170.258 94.4682H172.364L172.393 102H170.359ZM182.412 102V97.4922L180.089 101.272H179.137L176.872 97.4782V102H174.837V94.4682H177.189L179.671 98.8222L182.311 94.4682H184.417L184.446 102H182.412ZM189.906 94.3562C191.108 94.3562 192.031 94.6362 192.676 95.1962C193.32 95.7469 193.643 96.5822 193.643 97.7022V102H191.536V101.062C191.113 101.762 190.324 102.112 189.17 102.112C188.573 102.112 188.054 102.014 187.612 101.818C187.179 101.622 186.847 101.352 186.616 101.006C186.386 100.661 186.27 100.269 186.27 99.8302C186.27 99.1302 186.539 98.5795 187.078 98.1782C187.626 97.7769 188.467 97.5762 189.603 97.5762H191.392C191.392 97.1002 191.243 96.7362 190.945 96.4842C190.646 96.2229 190.199 96.0922 189.603 96.0922C189.189 96.0922 188.781 96.1575 188.377 96.2882C187.982 96.4095 187.645 96.5775 187.367 96.7922L186.559 95.2662C186.981 94.9769 187.486 94.7529 188.074 94.5942C188.669 94.4355 189.28 94.3562 189.906 94.3562ZM189.733 100.642C190.117 100.642 190.458 100.558 190.757 100.39C191.055 100.213 191.266 99.9562 191.392 99.6202V98.8502H189.848C188.925 98.8502 188.463 99.1442 188.463 99.7322C188.463 100.012 188.573 100.236 188.795 100.404C189.026 100.563 189.338 100.642 189.733 100.642ZM207.979 94.4682V102H205.729V96.2602H202.497V102H200.261V94.4682H207.979ZM210.426 94.4682H212.662V98.9482L216.442 94.4682H218.505V102H216.269V97.5202L212.503 102H210.426V94.4682ZM227.478 96.2602H224.852V102H222.616V96.2602H219.99V94.4682H227.478V96.2602ZM231.982 94.3562C233.184 94.3562 234.108 94.6362 234.752 95.1962C235.397 95.7469 235.718 96.5822 235.718 97.7022V102H233.612V101.062C233.189 101.762 232.4 102.112 231.246 102.112C230.65 102.112 230.131 102.014 229.688 101.818C229.255 101.622 228.923 101.352 228.692 101.006C228.461 100.661 228.346 100.269 228.346 99.8302C228.346 99.1302 228.616 98.5795 229.154 98.1782C229.702 97.7769 230.544 97.5762 231.679 97.5762H233.468C233.468 97.1002 233.319 96.7362 233.02 96.4842C232.723 96.2229 232.275 96.0922 231.679 96.0922C231.265 96.0922 230.856 96.1575 230.452 96.2882C230.059 96.4095 229.722 96.5775 229.442 96.7922L228.634 95.2662C229.058 94.9769 229.563 94.7529 230.149 94.5942C230.746 94.4355 231.357 94.3562 231.982 94.3562ZM231.808 100.642C232.194 100.642 232.535 100.558 232.833 100.39C233.132 100.213 233.343 99.9562 233.468 99.6202V98.8502H231.924C231.001 98.8502 230.539 99.1442 230.539 99.7322C230.539 100.012 230.65 100.236 230.871 100.404C231.102 100.563 231.415 100.642 231.808 100.642ZM237.963 94.4682H240.199V97.4082H243.575V94.4682H245.826V102H243.575V99.1862H240.199V102H237.963V94.4682ZM248.268 94.4682H250.504V98.9482L254.284 94.4682H256.348V102H254.111V97.5202L250.346 102H248.268V94.4682ZM265.697 94.4682V102H263.691V99.8442H262.032L260.56 102H258.165L259.94 99.5362C259.401 99.3309 258.988 99.0369 258.699 98.6542C258.42 98.2622 258.281 97.7909 258.281 97.2402C258.281 96.3535 258.608 95.6722 259.262 95.1962C259.926 94.7109 260.835 94.4682 261.989 94.4682H265.697ZM262.032 96.2462C261.551 96.2462 261.185 96.3302 260.935 96.4982C260.694 96.6662 260.575 96.9369 260.575 97.3102C260.575 97.6835 260.69 97.9589 260.921 98.1362C261.161 98.3042 261.522 98.3882 262.003 98.3882H263.691V96.2462H262.032ZM9.10639 116.336V119.508H7.16383V118H2.09978V119.508H0.157227V116.336H0.451959C0.898524 116.327 1.20665 116.072 1.37635 115.569C1.54605 115.066 1.65322 114.351 1.69787 113.424L1.79165 111.006H8.07482V116.336H9.10639ZM3.58684 113.567C3.56005 114.278 3.502 114.858 3.41268 115.309C3.3323 115.76 3.176 116.102 2.94379 116.336H5.9849V112.67H3.62703L3.58684 113.567ZM17.3344 111.006V118H15.2445V112.67H12.967L12.9 113.905C12.8643 114.824 12.775 115.586 12.6321 116.193C12.4892 116.8 12.257 117.276 11.9354 117.623C11.6139 117.97 11.1674 118.143 10.5958 118.143C10.2921 118.143 9.93037 118.091 9.5106 117.987L9.61778 116.323C9.76067 116.34 9.86338 116.349 9.92591 116.349C10.2385 116.349 10.4708 116.241 10.6225 116.024C10.7833 115.799 10.8905 115.517 10.9441 115.179C10.9977 114.832 11.0379 114.377 11.0646 113.814L11.1718 111.006H17.3344ZM25.7479 111.006V118H23.8857V115.998H22.3451L20.9786 118H18.7547L20.4025 115.712C19.9024 115.521 19.5183 115.248 19.2504 114.893C18.9914 114.529 18.8619 114.091 18.8619 113.58C18.8619 112.757 19.1656 112.124 19.7729 111.682C20.3891 111.231 21.2331 111.006 22.3049 111.006H25.7479ZM22.3451 112.657C21.8986 112.657 21.5591 112.735 21.3269 112.891C21.1036 113.047 20.992 113.298 20.992 113.645C20.992 113.992 21.0992 114.247 21.3135 114.412C21.5368 114.568 21.8718 114.646 22.3183 114.646H23.8857V112.657H22.3451ZM37.606 112.67H35.1677V118H33.0912V112.67H30.6529V111.006H37.606V112.67ZM45.4258 114.529C45.4258 114.555 45.4124 114.737 45.3856 115.075H39.933C40.0312 115.508 40.2634 115.851 40.6296 116.102C40.9958 116.353 41.4513 116.479 41.9961 116.479C42.3713 116.479 42.7016 116.427 42.9875 116.323C43.2822 116.21 43.5546 116.037 43.8047 115.803L44.9167 116.973C44.2379 117.727 43.2465 118.104 41.9425 118.104C41.1298 118.104 40.4108 117.952 39.7856 117.649C39.1604 117.337 38.6781 116.908 38.3388 116.362C37.9993 115.816 37.8297 115.196 37.8297 114.503C37.8297 113.818 37.9949 113.203 38.3254 112.657C38.6647 112.102 39.1247 111.673 39.7053 111.37C40.2947 111.058 40.9512 110.902 41.6746 110.902C42.3801 110.902 43.0187 111.049 43.5904 111.344C44.1619 111.639 44.6085 112.063 44.9301 112.618C45.2605 113.164 45.4258 113.801 45.4258 114.529ZM41.688 112.436C41.2146 112.436 40.8172 112.566 40.4957 112.826C40.1741 113.086 39.9776 113.441 39.9062 113.892H43.4564C43.3849 113.45 43.1885 113.099 42.8669 112.839C42.5454 112.57 42.1524 112.436 41.688 112.436ZM51.3597 118L49.7788 115.855L48.1444 118H45.8669L48.6401 114.477L45.9607 111.006H48.3052L49.8324 113.047L51.3999 111.006H53.6238L50.9444 114.425L53.7309 118H51.3597ZM55.5233 115.582C55.8985 115.582 56.2066 115.699 56.4477 115.933C56.6889 116.158 56.8094 116.457 56.8094 116.83C56.8094 117.003 56.7871 117.177 56.7425 117.35C56.6978 117.523 56.5995 117.783 56.4477 118.13L55.6841 120.002H54.3578L54.9473 117.935C54.724 117.848 54.5454 117.71 54.4114 117.519C54.2864 117.32 54.2238 117.09 54.2238 116.83C54.2238 116.457 54.3444 116.158 54.5856 115.933C54.8357 115.699 55.1482 115.582 55.5233 115.582ZM65.2351 115.348H64.1499V118H62.06V111.006H64.1499V113.723H65.2753L67.2312 111.006H69.4551L66.9365 114.36L69.6293 118H67.1643L65.2351 115.348ZM76.6455 112.67H74.2072V118H72.1307V112.67H69.6925V111.006H76.6455V112.67ZM80.8347 118.104C80.0755 118.104 79.3923 117.952 78.785 117.649C78.1865 117.337 77.7177 116.908 77.3783 116.362C77.0388 115.816 76.8692 115.196 76.8692 114.503C76.8692 113.81 77.0388 113.19 77.3783 112.644C77.7177 112.098 78.1865 111.673 78.785 111.37C79.3923 111.058 80.0755 110.902 80.8347 110.902C81.5938 110.902 82.2726 111.058 82.871 111.37C83.4694 111.673 83.9383 112.098 84.2777 112.644C84.6171 113.19 84.7868 113.81 84.7868 114.503C84.7868 115.196 84.6171 115.816 84.2777 116.362C83.9383 116.908 83.4694 117.337 82.871 117.649C82.2726 117.952 81.5938 118.104 80.8347 118.104ZM80.8347 116.44C81.3706 116.44 81.8082 116.267 82.1476 115.92C82.4959 115.565 82.6701 115.092 82.6701 114.503C82.6701 113.914 82.4959 113.446 82.1476 113.099C81.8082 112.744 81.3706 112.566 80.8347 112.566C80.2988 112.566 79.8567 112.744 79.5084 113.099C79.1601 113.446 78.9859 113.914 78.9859 114.503C78.9859 115.092 79.1601 115.565 79.5084 115.92C79.8567 116.267 80.2988 116.44 80.8347 116.44ZM94.5465 118L92.9656 115.855L91.3312 118H89.0537L91.8269 114.477L89.1475 111.006H91.492L93.0192 113.047L94.5867 111.006H96.8106L94.1312 114.425L96.9177 118H94.5465ZM101.1 118.104C100.341 118.104 99.6577 117.952 99.0504 117.649C98.452 117.337 97.9831 116.908 97.6438 116.362C97.3044 115.816 97.1347 115.196 97.1347 114.503C97.1347 113.81 97.3044 113.19 97.6438 112.644C97.9831 112.098 98.452 111.673 99.0504 111.37C99.6577 111.058 100.341 110.902 101.1 110.902C101.859 110.902 102.538 111.058 103.137 111.37C103.735 111.673 104.204 112.098 104.544 112.644C104.883 113.19 105.053 113.81 105.053 114.503C105.053 115.196 104.883 115.816 104.544 116.362C104.204 116.908 103.735 117.337 103.137 117.649C102.538 117.952 101.859 118.104 101.1 118.104ZM101.1 116.44C101.636 116.44 102.074 116.267 102.413 115.92C102.761 115.565 102.936 115.092 102.936 114.503C102.936 113.914 102.761 113.446 102.413 113.099C102.074 112.744 101.636 112.566 101.1 112.566C100.564 112.566 100.122 112.744 99.7739 113.099C99.4255 113.446 99.2514 113.914 99.2514 114.503C99.2514 115.092 99.4255 115.565 99.7739 115.92C100.122 116.267 100.564 116.44 101.1 116.44ZM112.973 111.006V118H110.884V115.4C110.277 115.695 109.607 115.842 108.874 115.842C107.901 115.842 107.164 115.63 106.663 115.205C106.173 114.772 105.927 114.104 105.927 113.203V111.006H108.017V113.073C108.017 113.498 108.129 113.805 108.352 113.996C108.584 114.187 108.914 114.282 109.343 114.282C109.888 114.282 110.401 114.169 110.884 113.944V111.006H112.973ZM121.988 114.529C121.988 114.555 121.974 114.737 121.947 115.075H116.495C116.593 115.508 116.825 115.851 117.191 116.102C117.557 116.353 118.013 116.479 118.558 116.479C118.933 116.479 119.263 116.427 119.549 116.323C119.844 116.21 120.116 116.037 120.367 115.803L121.478 116.973C120.799 117.727 119.808 118.104 118.504 118.104C117.691 118.104 116.972 117.952 116.347 117.649C115.722 117.337 115.24 116.908 114.901 116.362C114.56 115.816 114.391 115.196 114.391 114.503C114.391 113.818 114.556 113.203 114.887 112.657C115.226 112.102 115.686 111.673 116.267 111.37C116.857 111.058 117.513 110.902 118.236 110.902C118.941 110.902 119.58 111.049 120.152 111.344C120.723 111.639 121.17 112.063 121.492 112.618C121.822 113.164 121.988 113.801 121.988 114.529ZM118.25 112.436C117.776 112.436 117.379 112.566 117.057 112.826C116.736 113.086 116.539 113.441 116.468 113.892H120.018C119.946 113.45 119.75 113.099 119.429 112.839C119.107 112.57 118.714 112.436 118.25 112.436ZM129.396 112.67H126.958V118H124.881V112.67H122.443V111.006H129.396V112.67ZM138.833 118L137.252 115.855L135.617 118H133.34L136.113 114.477L133.434 111.006H135.778L137.305 113.047L138.873 111.006H141.097L138.417 114.425L141.204 118H138.833ZM145.386 118.104C144.626 118.104 143.943 117.952 143.336 117.649C142.737 117.337 142.268 116.908 141.929 116.362C141.59 115.816 141.42 115.196 141.42 114.503C141.42 113.81 141.59 113.19 141.929 112.644C142.268 112.098 142.737 111.673 143.336 111.37C143.943 111.058 144.626 110.902 145.386 110.902C146.145 110.902 146.823 111.058 147.422 111.37C148.021 111.673 148.49 112.098 148.829 112.644C149.168 113.19 149.338 113.81 149.338 114.503C149.338 115.196 149.168 115.816 148.829 116.362C148.49 116.908 148.021 117.337 147.422 117.649C146.823 117.952 146.145 118.104 145.386 118.104ZM145.386 116.44C145.922 116.44 146.36 116.267 146.699 115.92C147.047 115.565 147.221 115.092 147.221 114.503C147.221 113.914 147.047 113.446 146.699 113.099C146.36 112.744 145.922 112.566 145.386 112.566C144.85 112.566 144.408 112.744 144.06 113.099C143.711 113.446 143.537 113.914 143.537 114.503C143.537 115.092 143.711 115.565 144.06 115.92C144.408 116.267 144.85 116.44 145.386 116.44ZM155.022 110.902C155.692 110.902 156.299 111.054 156.844 111.357C157.398 111.652 157.832 112.072 158.144 112.618C158.456 113.155 158.613 113.784 158.613 114.503C158.613 115.222 158.456 115.855 158.144 116.401C157.832 116.938 157.398 117.359 156.844 117.662C156.299 117.957 155.692 118.104 155.022 118.104C154.102 118.104 153.379 117.822 152.852 117.259V120.522H150.762V111.006H152.758V111.812C153.277 111.205 154.031 110.902 155.022 110.902ZM154.661 116.44C155.197 116.44 155.634 116.267 155.974 115.92C156.322 115.565 156.496 115.092 156.496 114.503C156.496 113.914 156.322 113.446 155.974 113.099C155.634 112.744 155.197 112.566 154.661 112.566C154.125 112.566 153.683 112.744 153.334 113.099C152.995 113.446 152.825 113.914 152.825 114.503C152.825 115.092 152.995 115.565 153.334 115.92C153.683 116.267 154.125 116.44 154.661 116.44ZM163.453 118.104C162.695 118.104 162.011 117.952 161.403 117.649C160.806 117.337 160.337 116.908 159.997 116.362C159.658 115.816 159.488 115.196 159.488 114.503C159.488 113.81 159.658 113.19 159.997 112.644C160.337 112.098 160.806 111.673 161.403 111.37C162.011 111.058 162.695 110.902 163.453 110.902C164.213 110.902 164.892 111.058 165.489 111.37C166.088 111.673 166.557 112.098 166.896 112.644C167.236 113.19 167.405 113.81 167.405 114.503C167.405 115.196 167.236 115.816 166.896 116.362C166.557 116.908 166.088 117.337 165.489 117.649C164.892 117.952 164.213 118.104 163.453 118.104ZM163.453 116.44C163.989 116.44 164.427 116.267 164.766 115.92C165.114 115.565 165.289 115.092 165.289 114.503C165.289 113.914 165.114 113.446 164.766 113.099C164.427 112.744 163.989 112.566 163.453 112.566C162.917 112.566 162.475 112.744 162.127 113.099C161.779 113.446 161.604 113.914 161.604 114.503C161.604 115.092 161.779 115.565 162.127 115.92C162.475 116.267 162.917 116.44 163.453 116.44ZM179.842 111.006V118H168.843V111.006H170.919V116.336H173.317V111.006H175.394V116.336H177.765V111.006H179.842ZM185.223 118.104C184.465 118.104 183.781 117.952 183.173 117.649C182.576 117.337 182.107 116.908 181.767 116.362C181.428 115.816 181.258 115.196 181.258 114.503C181.258 113.81 181.428 113.19 181.767 112.644C182.107 112.098 182.576 111.673 183.173 111.37C183.781 111.058 184.465 110.902 185.223 110.902C185.983 110.902 186.662 111.058 187.26 111.37C187.858 111.673 188.327 112.098 188.666 112.644C189.006 113.19 189.175 113.81 189.175 114.503C189.175 115.196 189.006 115.816 188.666 116.362C188.327 116.908 187.858 117.337 187.26 117.649C186.662 117.952 185.983 118.104 185.223 118.104ZM185.223 116.44C185.759 116.44 186.197 116.267 186.536 115.92C186.884 115.565 187.059 115.092 187.059 114.503C187.059 113.914 186.884 113.446 186.536 113.099C186.197 112.744 185.759 112.566 185.223 112.566C184.687 112.566 184.245 112.744 183.897 113.099C183.549 113.446 183.374 113.914 183.374 114.503C183.374 115.092 183.549 115.565 183.897 115.92C184.245 116.267 184.687 116.44 185.223 116.44ZM199.913 114.347C200.762 114.624 201.186 115.179 201.186 116.011C201.186 116.644 200.941 117.133 200.449 117.48C199.958 117.827 199.226 118 198.252 118H194.407V111.006H198.091C198.993 111.006 199.699 111.166 200.208 111.487C200.717 111.799 200.972 112.241 200.972 112.813C200.972 113.16 200.878 113.467 200.69 113.736C200.512 113.996 200.253 114.2 199.913 114.347ZM196.323 113.879H197.904C198.637 113.879 199.002 113.628 199.002 113.125C199.002 112.631 198.637 112.384 197.904 112.384H196.323V113.879ZM198.078 116.622C198.846 116.622 199.23 116.366 199.23 115.855C199.23 115.586 199.141 115.391 198.962 115.27C198.784 115.14 198.503 115.075 198.118 115.075H196.323V116.622H198.078ZM206.533 113.242C207.47 113.251 208.18 113.454 208.663 113.853C209.145 114.252 209.386 114.824 209.386 115.569C209.386 116.349 209.113 116.951 208.569 117.376C208.024 117.801 207.251 118.013 206.251 118.013L202.741 118V111.006H204.818V113.242H206.533ZM210.163 111.006H212.24V118H210.163V111.006ZM206.064 116.57C206.466 116.579 206.774 116.496 206.988 116.323C207.202 116.15 207.31 115.89 207.31 115.543C207.31 115.205 207.202 114.958 206.988 114.802C206.782 114.646 206.474 114.564 206.064 114.555L204.818 114.542V116.57H206.064ZM220.028 112.67H216.331V118H214.254V111.006H220.028V112.67ZM227.526 111.006V118H225.436V112.67H223.158L223.091 113.905C223.055 114.824 222.965 115.586 222.823 116.193C222.68 116.8 222.448 117.276 222.127 117.623C221.805 117.97 221.358 118.143 220.787 118.143C220.483 118.143 220.121 118.091 219.702 117.987L219.809 116.323C219.951 116.34 220.054 116.349 220.117 116.349C220.429 116.349 220.661 116.241 220.814 116.024C220.974 115.799 221.082 115.517 221.135 115.179C221.189 114.832 221.229 114.377 221.256 113.814L221.363 111.006H227.526ZM235.939 111.006V118H234.077V115.998H232.536L231.17 118H228.946L230.593 115.712C230.093 115.521 229.709 115.248 229.441 114.893C229.182 114.529 229.053 114.091 229.053 113.58C229.053 112.757 229.356 112.124 229.964 111.682C230.58 111.231 231.424 111.006 232.496 111.006H235.939ZM232.536 112.657C232.089 112.657 231.75 112.735 231.518 112.891C231.294 113.047 231.183 113.298 231.183 113.645C231.183 113.992 231.29 114.247 231.504 114.412C231.727 114.568 232.062 114.646 232.509 114.646H234.077V112.657H232.536ZM246.026 116.336V119.508H244.083V118H239.019V119.508H237.077V116.336H237.371C237.818 116.327 238.126 116.072 238.296 115.569C238.466 115.066 238.573 114.351 238.617 113.424L238.711 111.006H244.994V116.336H246.026ZM240.506 113.567C240.479 114.278 240.422 114.858 240.332 115.309C240.252 115.76 240.095 116.102 239.863 116.336H242.904V112.67H240.546L240.506 113.567ZM254.347 114.529C254.347 114.555 254.334 114.737 254.307 115.075H248.855C248.952 115.508 249.185 115.851 249.551 116.102C249.917 116.353 250.373 116.479 250.918 116.479C251.293 116.479 251.624 116.427 251.909 116.323C252.204 116.21 252.476 116.037 252.726 115.803L253.838 116.973C253.159 117.727 252.168 118.104 250.864 118.104C250.051 118.104 249.333 117.952 248.707 117.649C248.082 117.337 247.599 116.908 247.26 116.362C246.921 115.816 246.751 115.196 246.751 114.503C246.751 113.818 246.916 113.203 247.247 112.657C247.586 112.102 248.047 111.673 248.627 111.37C249.216 111.058 249.873 110.902 250.596 110.902C251.302 110.902 251.94 111.049 252.512 111.344C253.084 111.639 253.53 112.063 253.852 112.618C254.182 113.164 254.347 113.801 254.347 114.529ZM250.61 112.436C250.137 112.436 249.739 112.566 249.417 112.826C249.096 113.086 248.899 113.441 248.828 113.892H252.378C252.307 113.45 252.11 113.099 251.788 112.839C251.467 112.57 251.074 112.436 250.61 112.436ZM261.756 112.67H259.318V118H257.241V112.67H254.803V111.006H261.756V112.67ZM266.768 113.242C267.706 113.251 268.425 113.459 268.925 113.866C269.426 114.265 269.675 114.832 269.675 115.569C269.675 116.34 269.394 116.943 268.831 117.376C268.278 117.801 267.497 118.013 266.487 118.013L262.87 118V111.006H264.946V113.242H266.768ZM266.299 116.57C266.701 116.579 267.009 116.496 267.224 116.323C267.438 116.15 267.545 115.89 267.545 115.543C267.545 115.205 267.438 114.958 267.224 114.802C267.019 114.646 266.711 114.564 266.299 114.555L264.946 114.542V116.57H266.299Z" fill="#081E33"/>
</svg>
