<svg width="38" height="38" viewBox="0 0 38 38" fill="none" xmlns="http://www.w3.org/2000/svg">
<path d="M34.8337 14.6303L23.4495 13.6487L19.0003 3.16699L14.5512 13.6645L3.16699 14.6303L11.812 22.1195L9.21533 33.2503L19.0003 27.3445L28.7853 33.2503L26.2045 22.1195L34.8337 14.6303ZM19.0003 24.3837L13.047 27.9778L14.6303 21.2012L9.37366 16.6412L16.3087 16.0395L19.0003 9.65866L21.7078 16.0553L28.6428 16.657L23.3862 21.217L24.9695 27.9937L19.0003 24.3837Z" fill="#54FB9D"/>
<path d="M19.0003 24.3837L13.047 27.9778L14.6303 21.2012L9.37366 16.6412L16.3087 16.0395L19.0003 9.65866L21.7078 16.0553L28.6428 16.657L23.3862 21.217L24.9695 27.9937L19.0003 24.3837Z" fill="#54FB9D"/>
</svg>
