<?xml version="1.0" encoding="utf-8"?><svg viewBox="0 0 270 121" xmlns="http://www.w3.org/2000/svg" xmlns:xlink="http://www.w3.org/1999/xlink"><style>:root>svg{display:none}:root>svg:target{display:block}</style><svg fill="none" viewBox="0 0 48 48" id="app" xmlns="http://www.w3.org/2000/svg"><path d="M38.156 0H9.844C4.416 0 0 4.416 0 9.844v28.312C0 43.584 4.416 48 9.844 48h28.312C43.584 48 48 43.584 48 38.156V9.844C48 4.416 43.584 0 38.156 0zm-12.78 9.495C27.52 6.67 30.5 6.656 30.5 6.656s.444 2.656-1.686 5.215c-2.274 2.733-4.858 2.285-4.858 2.285s-.486-2.148 1.42-4.66zm4.7 29.738c-1.906 0-3.388-1.284-5.397-1.284-2.046 0-4.077 1.332-5.4 1.332-3.79 0-8.577-8.203-8.577-14.797 0-6.488 4.052-9.892 7.853-9.892 2.471 0 4.389 1.425 5.673 1.425 1.103 0 3.15-1.516 5.814-1.516 4.586 0 6.39 3.264 6.39 3.264s-3.529 1.803-3.529 6.18c0 4.939 4.395 6.64 4.395 6.64s-3.072 8.648-7.222 8.648z" fill="#000"/></svg><svg fill="none" viewBox="0 0 24 24" id="arrow-down" xmlns="http://www.w3.org/2000/svg"><path d="M6 9l6 6 6-6" stroke="#226C17" stroke-width="2" stroke-linecap="round" stroke-linejoin="round"/></svg><svg fill="none" viewBox="0 0 24 24" id="arrow-up" xmlns="http://www.w3.org/2000/svg"><path d="M18 15l-6-6-6 6" stroke="#226C17" stroke-width="2" stroke-linecap="round" stroke-linejoin="round"/></svg><svg fill="none" viewBox="0 0 48 48" id="blood-drop" xmlns="http://www.w3.org/2000/svg"><g clip-path="url(#adclip0)" fill="#38A428"><path d="M20.473 12.477c-.66-.855-1.235-1.54-1.71-2.035-.673-.705-1.23-1.141-1.927-1.141-.696 0-1.253.436-1.927 1.14-.474.496-1.049 1.181-1.709 2.036-1.394 1.803-2.957 4.088-4.402 6.433-2.278 3.698-6.1 10.558-6.1 14.952 0 7.796 6.343 14.139 14.138 14.139 7.796 0 14.139-6.343 14.139-14.139 0-4.393-3.822-11.254-6.1-14.952-1.445-2.345-3.009-4.63-4.402-6.433zm-3.636 32.71c-6.245 0-11.325-5.08-11.325-11.325 0-2.576 1.919-7.239 5.265-12.792 2.513-4.17 4.928-7.345 6.06-8.575 1.131 1.23 3.546 4.405 6.059 8.575 3.346 5.554 5.265 10.216 5.265 12.792 0 6.245-5.08 11.325-11.325 11.325zM41.962 5.42a41.463 41.463 0 00-2.378-3.476C38.42.436 37.87 0 37.13 0c-.738 0-1.289.436-2.454 1.944a41.448 41.448 0 00-2.378 3.475c-1.523 2.473-3.339 5.919-3.339 8.29 0 4.506 3.666 8.172 8.171 8.172 4.506 0 8.171-3.666 8.171-8.171 0-2.373-1.815-5.818-3.339-8.29zM37.13 19.066a5.364 5.364 0 01-5.357-5.357c0-1.21.978-3.57 2.617-6.314 1.042-1.745 2.07-3.184 2.74-4.023.671.84 1.699 2.278 2.74 4.023 1.64 2.744 2.618 5.105 2.618 6.314a5.364 5.364 0 01-5.358 5.357z"/></g><defs><clipPath id="adclip0"><path fill="#fff" d="M0 0h48v48H0z"/></clipPath></defs></svg><svg fill="none" viewBox="0 0 48 48" id="bowl" xmlns="http://www.w3.org/2000/svg"><g clip-path="url(#aeclip0)"><path d="M48 22.15c0-1.74-1.295-4.224-7.466-6.188-2.976-.947-6.6-1.607-10.546-1.94a5.28 5.28 0 01.885-1.868 7.378 7.378 0 00.005-8.825 1.081 1.081 0 10-1.744 1.28 5.226 5.226 0 010 6.257 7.442 7.442 0 00-1.33 3.008 73.184 73.184 0 00-3.75-.099c.172-.57.443-1.119.815-1.621a7.378 7.378 0 00.006-8.825 1.081 1.081 0 10-1.744 1.28 5.226 5.226 0 010 6.257 7.445 7.445 0 00-1.318 2.941 69.903 69.903 0 00-3.832.218c.164-.66.459-1.296.885-1.871a7.378 7.378 0 00-.018-8.856 1.081 1.081 0 00-1.718 1.314 5.226 5.226 0 01-.003 6.254 7.43 7.43 0 00-1.394 3.389c-3.061.37-5.874.946-8.267 1.707C1.296 17.926 0 20.41 0 22.15l.001.085c.023 6.112 2.523 11.853 7.046 16.172 4.531 4.327 10.552 6.71 16.953 6.71s12.422-2.383 16.953-6.71c4.523-4.32 7.023-10.06 7.046-16.172L48 22.15zM8.122 18.024c2.207-.703 4.8-1.24 7.628-1.593a7.435 7.435 0 001.377 3.267 1.08 1.08 0 001.513.226c.48-.356.581-1.034.226-1.514a5.267 5.267 0 01-.957-2.209 67.305 67.305 0 013.788-.226 7.418 7.418 0 001.434 3.723 1.08 1.08 0 001.513.226c.48-.356.58-1.034.225-1.514a5.26 5.26 0 01-.997-2.47l.128-.002c1.255 0 2.494.033 3.706.097a7.42 7.42 0 001.428 3.663 1.08 1.08 0 001.513.226c.48-.356.581-1.034.225-1.514a5.268 5.268 0 01-.959-2.224c3.74.32 7.163.946 9.964 1.838 3.676 1.17 5.96 2.75 5.96 4.126 0 1.21-1.771 2.581-4.704 3.69-4.44-1.518-10.653-2.386-17.133-2.386-6.48 0-12.692.868-17.134 2.386-2.932-1.109-4.703-2.48-4.703-3.69 0-1.376 2.284-2.957 5.96-4.126zM37.26 26.99c-3.815.89-8.415 1.37-13.259 1.37-4.844 0-9.444-.48-13.26-1.37 3.807-.883 8.446-1.372 13.26-1.372 4.813 0 9.452.489 13.259 1.372zM24 42.953c-10.625 0-19.502-7.269-21.441-16.861 1.123.777 2.705 1.544 4.908 2.245 4.432 1.41 10.304 2.188 16.534 2.188 6.23 0 12.102-.777 16.534-2.188 2.203-.7 3.785-1.468 4.908-2.245C43.502 35.684 34.626 42.953 24 42.953z" fill="#D03535"/></g><defs><clipPath id="aeclip0"><path fill="#fff" d="M0 0h48v48H0z"/></clipPath></defs></svg><svg fill="none" viewBox="0 0 40 40" id="burger" xmlns="http://www.w3.org/2000/svg"><path d="M38.333 21.632H1.667a1.667 1.667 0 010-3.333h36.666a1.667 1.667 0 010 3.333zm0-12.778H1.667a1.667 1.667 0 010-3.333h36.666a1.667 1.667 0 010 3.333zm.417 25.312h-27.5c-.69 0-1.25-.746-1.25-1.666 0-.92.56-1.667 1.25-1.667h27.5c.69 0 1.25.747 1.25 1.667s-.56 1.666-1.25 1.666z" fill="#000"/></svg><svg fill="none" viewBox="0 0 48 48" id="cake" xmlns="http://www.w3.org/2000/svg"><g clip-path="url(#agclip0)" fill="#D03535"><path d="M39.808 4.132a1.406 1.406 0 00-1.179-.116c-4.01 1.404-8.009 2.796-11.212 3.91a7.029 7.029 0 00-3.902-2.18 7.426 7.426 0 00-4.021-5.4L19.098.15a1.406 1.406 0 00-1.258 2.515l.396.198a4.634 4.634 0 012.414 2.942 7.044 7.044 0 00-5.444 6.366 6890.8 6890.8 0 00-14.264 4.97C.378 17.34 0 17.871 0 18.47v15h.001c0 .581.362 1.125.943 1.328L38.63 47.922a1.402 1.402 0 00.957-.012c.038-.01.085-.02.142-.033.777-.18 2.842-.657 4.71-2.193 2.362-1.941 3.56-4.79 3.56-8.465v-18.75c0-.389-.093-9.564-8.192-14.337zm-17.59 4.305a4.224 4.224 0 014.22 4.22 4.224 4.224 0 01-4.22 4.218A4.224 4.224 0 0118 12.656a4.224 4.224 0 014.219-4.219zm-6.623 6.575a7.04 7.04 0 006.624 4.675 7.04 7.04 0 007.031-7.03c0-.791-.133-1.55-.375-2.26 2.936-1.021 6.47-2.252 10.048-3.504 6.191 4.057 6.264 11.499 6.264 11.576 0 6.522-4.699 10.43-6.29 11.566l-7.776-2.722a1.406 1.406 0 00-1.871 1.328v5.765a1.407 1.407 0 01-2.813 0v-7.734c0-.6-.379-1.132-.945-1.329L5.681 18.464c3.362-1.173 6.703-2.336 9.914-3.452zm8.03 17.183L2.812 24.968v-4.523l20.813 7.227v4.523zm-20.813-4.25l20.889 7.253a4.225 4.225 0 004.143 3.427 4.2 4.2 0 002.744-1.019l7.1 2.485v4.524L2.812 32.469v-4.524zm34.876 9.166L32 35.121c.04-.232.062-.471.062-.715v-3.783l5.624 1.969v4.52zm7.5.108c0 3.846-1.538 6.312-4.688 7.497V32.35a19.12 19.12 0 004.688-4.793v9.663z"/><path d="M38.625 13.781a1.406 1.406 0 100-2.812 1.406 1.406 0 000 2.812zm1.875 6.563a1.406 1.406 0 100-2.813 1.406 1.406 0 000 2.813zm-4.687 5.625a1.406 1.406 0 100-2.813 1.406 1.406 0 000 2.813zM33 19.406a1.406 1.406 0 100-2.812 1.406 1.406 0 000 2.812z"/></g><defs><clipPath id="agclip0"><path fill="#fff" d="M0 0h48v48H0z"/></clipPath></defs></svg><svg fill="none" viewBox="0 0 48 48" id="carrot" xmlns="http://www.w3.org/2000/svg"><path d="M44.535 15.81c-1.327-.511-2.97-.897-4.688-1.113 1.33-1.519 2.379-3.109 3.01-4.583.914-2.131.867-3.855-.13-4.853-1-.999-2.723-1.046-4.854-.133-1.474.632-3.065 1.681-4.584 3.011-.216-1.717-.602-3.357-1.114-4.682C31.072.6 29.727 0 28.793 0c-.998 0-2.422.664-3.54 3.83-.916 2.6-1.38 6.271-1.04 9.742-2.694-.412-5.159.526-7.048 2.717-6.5 7.54-11.469 14.412-14.369 19.877C-.116 41.653-.757 45.32.89 47.07a.847.847 0 00.04.04c2.41 2.27 7.959-.343 10.905-1.906 5.464-2.9 12.337-7.87 19.876-14.369 2.195-1.893 3.132-4.362 2.715-7.062 3.48.341 7.149-.129 9.737-1.04C47.334 21.616 48 20.193 48 19.194c0-.934-.601-2.28-3.465-3.383zm-5.923-8.957c1.298-.556 2.392-.66 2.787-.265s.29 1.489-.266 2.787c-1.547 3.61-5.872 7.765-9.256 9.037a15.88 15.88 0 00-1.086-1.2 15.976 15.976 0 00-1.217-1.101c1.271-3.381 5.422-7.708 9.038-9.258zM26.95 4.691c.568-1.729 1.281-2.814 1.843-2.814.263 0 .942.471 1.632 2.256.598 1.55 1.007 3.598 1.137 5.674-1.604 1.71-2.852 3.534-3.562 5.19a11.421 11.421 0 00-1.836-.903c-.481-3.583.021-7.076.786-9.403zm3.535 24.723c-7.434 6.41-14.187 11.297-19.53 14.132-3.575 1.898-5.976 2.58-7.391 2.58-.634 0-1.071-.137-1.327-.363-.732-.826-.53-3.54 2.217-8.718 2.835-5.342 7.722-12.096 14.132-19.53 3.094-3.59 7.54-2.319 10.878 1.024 3.37 3.365 4.584 7.803 1.021 10.875zm13.055-8.451c-2.524.889-6.222 1.317-9.639.86a11.427 11.427 0 00-.907-1.838c1.655-.71 3.477-1.958 5.186-3.562 2.078.13 4.128.54 5.68 1.139 1.79.69 2.264 1.37 2.264 1.632 0 .297-.54 1.05-2.584 1.769z" fill="#D03535"/></svg><svg fill="none" viewBox="0 0 72 72" id="check-mark" xmlns="http://www.w3.org/2000/svg"><path d="M72 36c0 19.899-16.104 36-36 36C16.101 72 0 55.896 0 36 0 16.101 16.104 0 36 0c19.899 0 36 16.104 36 36zm-5.625 0C66.375 19.21 52.788 5.625 36 5.625 19.21 5.625 5.625 19.212 5.625 36c0 16.79 13.587 30.375 30.375 30.375 16.79 0 30.375-13.587 30.375-30.375z" fill="#000"/><rect x="33" y="20" width="6" height="22.857" rx="3" fill="#000"/><circle cx="36" cy="49" r="3" fill="#000"/></svg><svg fill="none" viewBox="0 0 48 48" id="clock" xmlns="http://www.w3.org/2000/svg"><path d="M32.551 28.24l-6.692-5.02V12.996a1.858 1.858 0 10-3.718 0V24.15c0 .585.275 1.138.743 1.487l7.436 5.577a1.85 1.85 0 001.114.372c.567 0 1.125-.255 1.489-.745.617-.82.45-1.986-.372-2.601z" fill="#D03535"/><path d="M24 0C10.766 0 0 10.766 0 24s10.766 24 24 24 24-10.766 24-24S37.234 0 24 0zm0 44.282c-11.182 0-20.282-9.1-20.282-20.282S12.818 3.718 24 3.718c11.184 0 20.282 9.1 20.282 20.282S35.182 44.282 24 44.282z" fill="#D03535"/></svg><svg fill="none" viewBox="0 0 48 48" id="coffee-cup" xmlns="http://www.w3.org/2000/svg"><g clip-path="url(#akclip0)" fill="#38A428"><path d="M37 19H9a3.004 3.004 0 00-3.001 3v2a18.954 18.954 0 0010.286 16.89 1.001 1.001 0 00.918-1.778A16.958 16.958 0 018 24v-2a1 1 0 011-1h28a1 1 0 011 1v2a16.95 16.95 0 01-9.205 15.11 1.001 1.001 0 00.918 1.778A18.944 18.944 0 0040 24v-2c0-1.654-1.346-3-3-3z"/><path d="M45.926 39.616a1.002 1.002 0 00-.924-.618H1a1.002 1.002 0 00-.708 1.708l2.242 2.244A6.958 6.958 0 007.485 45h31.029a6.97 6.97 0 004.954-2.05l2.242-2.244a.998.998 0 00.216-1.09zm-3.874 1.92A4.971 4.971 0 0138.516 43H7.486a4.972 4.972 0 01-3.537-1.464L3.413 41h39.175l-.536.536zm4.014-17.816c-2.694-1.731-6.998.149-7.48.367a1.001 1.001 0 00.83 1.822c.964-.438 4.056-1.476 5.568-.502.682.438 1.016 1.288 1.016 2.592 0 4.004-8.076 6.424-11.194 7.02l-.708.14a1 1 0 10.386 1.96l.702-.138c.524-.1 12.814-2.51 12.814-8.982 0-2.012-.652-3.45-1.934-4.278zm-15.28-13.097c1.626-2.032 1.626-5.214 0-7.246a.997.997 0 00-1.406-.156.999.999 0 00-.156 1.406c1.03 1.286 1.03 3.46-.002 4.75-1.628 2.032-1.628 5.214 0 7.246a.996.996 0 001.406.156 1 1 0 00.156-1.406c-1.032-1.286-1.032-3.46.002-4.75zm-6.008.001c1.628-2.032 1.628-5.214 0-7.246a.999.999 0 00-1.406-.156 1 1 0 00-.156 1.406c1.032 1.286 1.032 3.46-.002 4.75-1.626 2.032-1.626 5.214 0 7.246a.996.996 0 001.406.156.999.999 0 00.156-1.406c-1.03-1.286-1.03-3.46.002-4.75zm-5.992.001c1.626-2.032 1.626-5.214 0-7.246a1 1 0 00-1.562 1.248c1.03 1.286 1.03 3.46-.002 4.75-1.628 2.032-1.628 5.214 0 7.246a1.005 1.005 0 001.406.158 1 1 0 00.156-1.406c-1.032-1.288-1.032-3.46.002-4.75z"/></g><defs><clipPath id="akclip0"><path fill="#fff" d="M0 0h48v48H0z"/></clipPath></defs></svg><svg fill="none" viewBox="0 0 30 30" id="diet2" xmlns="http://www.w3.org/2000/svg"><mask id="ala" maskUnits="userSpaceOnUse" x="0" y="0" width="30" height="30" fill="#000"><path fill="#fff" d="M0 0h30v30H0z"/><path d="M22.057 7.477a6.904 6.904 0 00-4.136 1.37V5.786h1.538a4.407 4.407 0 004.402-4.402.383.383 0 00-.383-.383h-1.921a4.408 4.408 0 00-4.061 2.706A4.635 4.635 0 0013.287 1a.382.382 0 100 .766 3.872 3.872 0 013.867 3.867v3.215a6.938 6.938 0 00-11.01 4.594H2.669A1.67 1.67 0 001 15.11v6.426a1.67 1.67 0 001.668 1.668h7.06l3.197 4.233A3.96 3.96 0 0016.067 29c.504 0 1.004-.097 1.47-.286.468.19.967.287 1.47.286a3.96 3.96 0 003.143-1.564l4.471-5.92A11.844 11.844 0 0029 14.42a6.95 6.95 0 00-6.943-6.943zm-.5-5.711h1.518a3.641 3.641 0 01-3.616 3.253H17.94a3.642 3.642 0 013.617-3.253zM2.668 14.207h3.411c-.015.603.02 1.207.106 1.805H2.668a.902.902 0 010-1.805zm-.902 7.328v-5.023c.27.172.582.264.902.265h18.074v5.66h-1.777v-2.46a.383.383 0 10-.766 0v2.46h-1.094v-1.23a.383.383 0 00-.765 0v1.23h-1.094v-2.46a.383.383 0 10-.766 0v2.46h-1.093v-1.23a.383.383 0 10-.766 0v1.23h-1.094v-2.46a.383.383 0 10-.765 0v2.46H9.668v-1.23a.383.383 0 00-.766 0v1.23H7.81v-2.46a.383.383 0 10-.766 0v2.46H5.949v-1.23a.383.383 0 00-.765 0v1.23H4.09v-2.46a.383.383 0 10-.766 0v2.46h-.656a.904.904 0 01-.902-.902zm24.244-.481l-4.47 5.92a3.188 3.188 0 01-2.532 1.26 3.15 3.15 0 01-1.313-.284.381.381 0 00-.316 0 3.152 3.152 0 01-2.726-.05 3.19 3.19 0 01-1.118-.926l-2.847-3.77h10.437a.383.383 0 00.383-.384v-6.425a.383.383 0 00-.383-.383H6.961a9.25 9.25 0 01-.094-2.141 6.174 6.174 0 0110.408-3.926.388.388 0 00.528 0 6.175 6.175 0 0110.431 4.475 11.073 11.073 0 01-2.224 6.635v-.001z"/></mask><path d="M22.057 7.477a6.904 6.904 0 00-4.136 1.37V5.786h1.538a4.407 4.407 0 004.402-4.402.383.383 0 00-.383-.383h-1.921a4.408 4.408 0 00-4.061 2.706A4.635 4.635 0 0013.287 1a.382.382 0 100 .766 3.872 3.872 0 013.867 3.867v3.215a6.938 6.938 0 00-11.01 4.594H2.669A1.67 1.67 0 001 15.11v6.426a1.67 1.67 0 001.668 1.668h7.06l3.197 4.233A3.96 3.96 0 0016.067 29c.504 0 1.004-.097 1.47-.286.468.19.967.287 1.47.286a3.96 3.96 0 003.143-1.564l4.471-5.92A11.844 11.844 0 0029 14.42a6.95 6.95 0 00-6.943-6.943zm-.5-5.711h1.518a3.641 3.641 0 01-3.616 3.253H17.94a3.642 3.642 0 013.617-3.253zM2.668 14.207h3.411c-.015.603.02 1.207.106 1.805H2.668a.902.902 0 010-1.805zm-.902 7.328v-5.023c.27.172.582.264.902.265h18.074v5.66h-1.777v-2.46a.383.383 0 10-.766 0v2.46h-1.094v-1.23a.383.383 0 00-.765 0v1.23h-1.094v-2.46a.383.383 0 10-.766 0v2.46h-1.093v-1.23a.383.383 0 10-.766 0v1.23h-1.094v-2.46a.383.383 0 10-.765 0v2.46H9.668v-1.23a.383.383 0 00-.766 0v1.23H7.81v-2.46a.383.383 0 10-.766 0v2.46H5.949v-1.23a.383.383 0 00-.765 0v1.23H4.09v-2.46a.383.383 0 10-.766 0v2.46h-.656a.904.904 0 01-.902-.902zm24.244-.481l-4.47 5.92a3.188 3.188 0 01-2.532 1.26 3.15 3.15 0 01-1.313-.284.381.381 0 00-.316 0 3.152 3.152 0 01-2.726-.05 3.19 3.19 0 01-1.118-.926l-2.847-3.77h10.437a.383.383 0 00.383-.384v-6.425a.383.383 0 00-.383-.383H6.961a9.25 9.25 0 01-.094-2.141 6.174 6.174 0 0110.408-3.926.388.388 0 00.528 0 6.175 6.175 0 0110.431 4.475 11.073 11.073 0 01-2.224 6.635v-.001z" fill="#A5FF01"/><path d="M22.057 7.477a6.904 6.904 0 00-4.136 1.37V5.786h1.538a4.407 4.407 0 004.402-4.402.383.383 0 00-.383-.383h-1.921a4.408 4.408 0 00-4.061 2.706A4.635 4.635 0 0013.287 1a.382.382 0 100 .766 3.872 3.872 0 013.867 3.867v3.215a6.938 6.938 0 00-11.01 4.594H2.669A1.67 1.67 0 001 15.11v6.426a1.67 1.67 0 001.668 1.668h7.06l3.197 4.233A3.96 3.96 0 0016.067 29c.504 0 1.004-.097 1.47-.286.468.19.967.287 1.47.286a3.96 3.96 0 003.143-1.564l4.471-5.92A11.844 11.844 0 0029 14.42a6.95 6.95 0 00-6.943-6.943zm-.5-5.711h1.518a3.641 3.641 0 01-3.616 3.253H17.94a3.642 3.642 0 013.617-3.253v0zM2.668 14.207h3.411c-.015.603.02 1.207.106 1.805H2.668a.902.902 0 010-1.805v0zm-.902 7.328v-5.023c.27.172.582.264.902.265h18.074v5.66h-1.777v-2.46a.383.383 0 10-.766 0v2.46h-1.094v-1.23a.383.383 0 00-.765 0v1.23h-1.094v-2.46a.383.383 0 10-.766 0v2.46h-1.093v-1.23a.383.383 0 10-.766 0v1.23h-1.094v-2.46a.383.383 0 10-.765 0v2.46H9.668v-1.23a.383.383 0 00-.766 0v1.23H7.81v-2.46a.383.383 0 10-.766 0v2.46H5.949v-1.23a.383.383 0 00-.765 0v1.23H4.09v-2.46a.383.383 0 10-.766 0v2.46h-.656a.904.904 0 01-.902-.902v0zm24.244-.481l-4.47 5.92a3.188 3.188 0 01-2.532 1.26 3.15 3.15 0 01-1.313-.284.381.381 0 00-.316 0 3.152 3.152 0 01-2.726-.05 3.19 3.19 0 01-1.118-.926l-2.847-3.77h10.437a.383.383 0 00.383-.384v-6.425a.383.383 0 00-.383-.383H6.961a9.25 9.25 0 01-.094-2.141 6.174 6.174 0 0110.408-3.926.388.388 0 00.528 0 6.175 6.175 0 0110.431 4.475 11.073 11.073 0 01-2.224 6.635v-.001z" stroke="#A5FF01" mask="url(#ala)"/></svg><svg fill="none" viewBox="0 0 24 24" id="drop-down" xmlns="http://www.w3.org/2000/svg"><path d="M5 9l7 7 7-7" stroke="#A2A2A2" stroke-width="1.5" stroke-linecap="round" stroke-linejoin="round"/></svg><svg fill="none" viewBox="0 0 24 24" id="drop-up" xmlns="http://www.w3.org/2000/svg"><path d="M19 15l-7-7-7 7" stroke="#A2A2A2" stroke-width="1.5" stroke-linecap="round" stroke-linejoin="round"/></svg><svg fill="none" viewBox="0 0 48 48" id="facebook" xmlns="http://www.w3.org/2000/svg"><path d="M24 48c13.255 0 24-10.745 24-24S37.255 0 24 0 0 10.745 0 24s10.745 24 24 24z" fill="#3B5998"/><path d="M30.032 24.94H25.75v15.689h-6.488v-15.69h-3.086v-5.513h3.086v-3.568c0-2.552 1.212-6.547 6.546-6.547l4.806.02v5.352h-3.487c-.572 0-1.377.286-1.377 1.503v3.245h4.85l-.568 5.508z" fill="#fff"/></svg><svg fill="none" viewBox="0 0 48 48" id="goo" xmlns="http://www.w3.org/2000/svg"><path d="M47 24c0 12.703-10.297 23-23 23S1 36.703 1 24 11.297 1 24 1s23 10.297 23 23z" stroke="#DADADA" stroke-width="2"/><g clip-path="url(#apclip0)"><path d="M16.762 26.713l-.905 3.379-3.308.07A12.941 12.941 0 0111 24c0-2.156.524-4.189 1.454-5.979l2.945.54 1.29 2.928A7.728 7.728 0 0016.272 24c0 .954.173 1.869.49 2.712z" fill="#FBBB00"/><path d="M36.772 21.571a13.057 13.057 0 01-.057 5.143 12.997 12.997 0 01-4.577 7.424v-.001l-3.71-.19-.525-3.276a7.748 7.748 0 003.334-3.957h-6.952v-5.143h12.487z" fill="#518EF8"/><path d="M32.14 34.138a12.945 12.945 0 01-8.139 2.863c-4.95 0-9.255-2.767-11.45-6.84l4.213-3.448a7.73 7.73 0 0011.141 3.958l4.234 3.467z" fill="#28B446"/><path d="M32.297 13.993l-4.211 3.448a7.732 7.732 0 00-11.397 4.048l-4.235-3.468A12.998 12.998 0 0124 11c3.154 0 6.046 1.124 8.297 2.993z" fill="#F14336"/></g><defs><clipPath id="apclip0"><path fill="#fff" transform="translate(11 11)" d="M0 0h26v26H0z"/></clipPath></defs></svg><svg fill="none" viewBox="0 0 48 48" id="ketchup" xmlns="http://www.w3.org/2000/svg"><g clip-path="url(#aqclip0)" fill="#38A428"><path d="M25.117 43.62l-.64-12.493a16.446 16.446 0 00-1.335-5.887l-3.162-7.335a14.8 14.8 0 01-1.178-5.105h.8a.8.8 0 00.8-.8V7.2a.8.8 0 00-.8-.8h-2.535L16.355.7a.8.8 0 00-.793-.7h-3.2a.8.8 0 00-.794.7l-.713 5.7H8.403a.8.8 0 00-.8.8V12a.8.8 0 00.8.8h.72a14.79 14.79 0 01-1.177 5.106L4.783 25.24a16.406 16.406 0 00-1.335 5.88l-.645 12.508a4.211 4.211 0 00.692 2.495A4.13 4.13 0 006.957 48h14.01a4.134 4.134 0 003.46-1.877 4.222 4.222 0 00.69-2.504zM13.068 1.6h1.787l.6 4.8h-2.988l.601-4.8zM9.203 8h9.6v3.2h-9.6V8zm13.884 37.246a2.54 2.54 0 01-2.12 1.154H6.957a2.538 2.538 0 01-2.122-1.154 2.62 2.62 0 01-.432-1.545l.64-12.511a14.86 14.86 0 011.206-5.317l3.165-7.335a16.393 16.393 0 001.329-5.738h6.438a16.373 16.373 0 001.329 5.738l3.161 7.335a14.867 14.867 0 011.207 5.327l.64 12.492a2.635 2.635 0 01-.43 1.554z"/><path d="M21.162 43.16l-.52-10.407a6.686 6.686 0 00-13.36 0l-.52 10.408a.8.8 0 00.8.84h12.8a.8.8 0 00.8-.84zm-12.76-.76l.48-9.567a5.087 5.087 0 0110.16 0l.48 9.568H8.403zm33.6-28.8v-.8a.8.8 0 00.8-.8V8a.8.8 0 00-.8-.8H39.51l-.713-5.698A.8.8 0 0038.002.8h-2.4a.8.8 0 00-.793.7l-.713 5.7h-2.494a.8.8 0 00-.8.8v4a.8.8 0 00.8.8v.8a3.2 3.2 0 00-3.2 3.2v29.6a1.6 1.6 0 001.6 1.6h13.6a1.6 1.6 0 001.6-1.6V16.8a3.2 3.2 0 00-3.2-3.2zM36.31 2.4h.987l.6 4.8H35.71l.6-4.8zm-3.907 6.4h8.8v2.4h-8.8V8.8zm8 4v.8h-7.2v-.8h7.2zm3.2 33.6h-13.6v-4h13.6v4zm0-5.6h-13.6V22.4h13.6v18.4zm0-20h-13.6v-4a1.6 1.6 0 011.6-1.6h10.4a1.6 1.6 0 011.6 1.6v4z"/></g><defs><clipPath id="aqclip0"><path fill="#fff" d="M0 0h48v48H0z"/></clipPath></defs></svg><svg fill="none" viewBox="0 0 270 121" id="logo-dark" xmlns="http://www.w3.org/2000/svg"><path d="M96.142 26.344a15.149 15.149 0 00-1.504-1.106c-.791-.526-1.16-1.264-1.107-2.212l.077-1.187c0-.264.13-.446.397-.555.422-.053.961-.252 1.622-.592.657-.34 1.265-.855 1.82-1.54.556-.685 1.043-1.568 1.465-2.646.421-1.078.656-2.41.713-3.991 0-1.791-.17-3.173-.515-4.15-.344-.972-.701-1.697-1.066-2.171-.475-.58-1.03-.896-1.663-.948-.949.052-1.674.356-2.173.907a5.627 5.627 0 00-1.148 1.978 7.235 7.235 0 00-.397 2.37v1.937a.646.646 0 01-.276.356c-.134.082-.276.065-.434-.04a6.416 6.416 0 01-1.54-1.62c-.45-.657-.75-1.147-.909-1.464-.105-.158-.134-.397-.077-.713.21-2.001.762-3.476 1.662-4.424.897-.949 1.793-1.605 2.689-1.978 1.16-.369 2.425-.474 3.795-.316 1.424.21 2.689.713 3.796 1.503 1.002.685 1.869 1.727 2.611 3.12.738 1.398 1.079 3.335 1.03 5.807.053 2.423-.292 4.295-1.03 5.612-.738 1.317-1.609 2.293-2.611 2.925-1.054.738-2.267 1.16-3.637 1.265 1.001.369 1.922.79 2.769 1.264l4.667-2.293c.949-.317 1.927-.633 2.928-.949a31.618 31.618 0 013.005-.79c.527-.105.949.053 1.265.474.158.211.183.45.077.713-.211.264-.422.45-.632.556-.633.105-1.476.316-2.531.632-2.477.843-4.744 1.819-6.8 2.925 1.74 1.317 3.005 2.634 3.795 3.95a12.586 12.586 0 011.505 3.952c.316 1.158.58 2.82.791 4.98a38.1 38.1 0 01.077 6.479 43.789 43.789 0 01-.949 6.402 18.792 18.792 0 01-2.689 5.689 15.592 15.592 0 01-3.321 3.874c-1.159.948-2.558 1.843-4.193 2.686-1.686.843-3.69 1.317-6.01 1.422-2.055.106-3.847-.45-5.376-1.661-1.529-1.264-2.689-2.897-3.48-4.899-.895-2.002-1.37-4.242-1.422-6.718a20.03 20.03 0 011.265-7.427c.527-1.423 1.236-2.95 2.137-4.583a39.143 39.143 0 013.402-4.9c1.265-1.737 2.77-3.399 4.509-4.979a35.7 35.7 0 013.621-2.926zm4.193 28.924c1.107-2.055 1.764-4.425 1.979-7.112a44.051 44.051 0 00-.235-7.901c-.317-2.687-.791-4.899-1.424-6.637-.632-2.055-1.634-4.056-3.005-6.005-1.317.843-3.057 2.293-5.218 4.348-2.214 2.107-4.193 4.635-5.933 7.585a24.688 24.688 0 00-2.056 4.98c-.527 1.527-.843 3.266-.948 5.215-.106 1.949.158 3.979.79 6.086.422 1.422.95 2.528 1.582 3.318.58.738 1.188 1.289 1.82 1.662a6.738 6.738 0 002.137.87c1.74.264 3.244.078 4.51-.554a11.329 11.329 0 003.32-2.294c1.043-.952 1.939-2.14 2.681-3.561zm32.505-15.175c0 .368.024.737.077 1.106.053.316.093.632.117.948.025.316.094.527.199.632.58-.58 1.16-1.289 1.74-2.135a39.016 39.016 0 001.581-2.488c.475-.815.872-1.568 1.188-2.253.317-.685.556-1.188.714-1.503.105-.264.288-.34.555-.24h.082c.579.211.762.608.555 1.188-1.37 2.95-2.611 5.255-3.718 6.916-1.107 1.662-2.137 2.857-3.086 3.594a35.34 35.34 0 00-.118 1.82 18.555 18.555 0 01-.198 1.977c.738.053 1.463.118 2.173.199.714.077 1.464.198 2.255.356.896.211 1.686.499 2.372.872.58.316 1.078.737 1.504 1.264.422.527.58 1.187.475 1.977 0 .316-.081.632-.236.948-.105.264-.292.54-.555.831a2.62 2.62 0 01-1.03.673c-.685.263-1.399.287-2.137.077-.738-.211-1.371-.503-1.898-.872-.422-.316-.937-.66-1.541-1.029a27.573 27.573 0 00-2.023-1.106 27.71 27.71 0 01-1.241 4.068c-.507 1.289-1.119 2.399-1.841 3.319-.722.92-1.573 1.62-2.555 2.095-.985.474-2.108.632-3.373.474-2.003-.21-3.427-.924-4.27-2.136-.844-1.211-1.148-2.556-.909-4.031.236-1.475 1.03-2.914 2.373-4.308 1.346-1.398 3.256-2.439 5.733-3.12.106-2.16.106-4.214 0-6.163-.579.896-1.399 1.609-2.453 2.136-1.054.526-2.295.737-3.718.632-1.107-.053-2.243-.486-3.402-1.305-1.16-.814-2.174-1.925-3.046-3.319-.872-1.393-1.516-3.014-1.938-4.858-.422-1.844-.422-3.845 0-6.005.422-2.16 1.042-3.858 1.857-5.097.815-1.236 1.646-2.172 2.49-2.804a8.032 8.032 0 013.163-1.504c1.476-.21 2.729-.117 3.755.276 1.03.397 1.885.895 2.571 1.503.685.608 1.204 1.224 1.549 1.856.344.632.571 1.054.681 1.264.584-.474 1.346-.895 2.279-1.264.932-.369 2.068-.58 3.398-.632.369 0 .555.21.555.632-.052.632-.117 1.556-.198 2.768a511.374 511.374 0 00-.236 3.91 234.837 234.837 0 00-.198 4.19 105.929 105.929 0 00-.073 3.67zm-10.677 4.428c1.16-.474 1.979-1.078 2.453-1.819.475-.737.791-1.345.949-1.82a35.574 35.574 0 01-.316-3.435 76.34 76.34 0 01-.081-3.4c0-1.078.024-2.042.081-2.885.053-.843.077-1.475.077-1.896v-.75c0-.34-.065-.725-.199-1.147a4.785 4.785 0 00-.592-1.224c-.263-.397-.632-.725-1.107-.988-.58-.264-1.224-.235-1.938.08-.714.317-1.371.896-1.979 1.74-.608.842-1.107 1.924-1.504 3.24-.398 1.318-.568 2.845-.515 4.584.105 2.001.304 3.594.592 4.781.288 1.187.592 2.172.908 2.962a3.726 3.726 0 001.306 1.698c.608.45 1.228.543 1.865.28zm-1.111 16.674c.738.211 1.411.081 2.015-.397a3.97 3.97 0 001.306-1.82c.316-.79.58-1.697.791-2.726a29.76 29.76 0 00.474-3.278.81.81 0 00-.276.04.917.917 0 01-.275.04 9.983 9.983 0 00-2.214.872c-.58.369-1.176.843-1.781 1.422-.608.58-1.042 1.37-1.305 2.37a3.76 3.76 0 00-.158 1.504c.052.421.17.814.356 1.187.187.365.54.628 1.067.786z" fill="#081E33"/><path d="M156.8 27.37c.317.474.398 1.029.236 1.661-.422 1.159-.897 2.16-1.424 3.002.053.633.081 1.305.081 2.014 0 .71-.052 1.435-.158 2.172-.263 2.318-.778 4.15-1.541 5.495-.766 1.345-1.54 2.382-2.331 3.12-.949.895-1.979 1.503-3.086 1.82-1.951.42-3.613.315-4.984-.317-1.37-.632-2.465-1.605-3.28-2.926-.819-1.316-1.359-2.832-1.622-4.542a15.512 15.512 0 01.077-5.174 5.78 5.78 0 01.316-1.187c.106-.37.252-.762.434-1.188a6.31 6.31 0 01.75-1.264 6.924 6.924 0 01.434-2.804 9.162 9.162 0 011.423-2.528 7.534 7.534 0 012.137-1.856 5.84 5.84 0 012.648-.79c1.951-.158 3.69.433 5.219 1.779 1.529 1.345 2.583 3.278 3.163 5.806.264-.474.487-.895.673-1.264.183-.369.329-.685.434-.948 0-.106.041-.17.118-.199.085-.024.178.012.283.118zm-4.902 10.908c.105-.316.17-.657.199-1.03.024-.368.065-.713.117-1.029.053-.369.106-.762.158-1.187-1.212.685-2.477 1.082-3.795 1.187-1.318.106-2.559-.053-3.719-.474a43.926 43.926 0 00-.117 2.488c-.028 1.03.053 2.014.235 2.962.183.948.527 1.726 1.03 2.33.499.608 1.225.802 2.174.592.158-.053.381-.13.673-.24.288-.105.62-.34.989-.713.369-.368.738-.936 1.107-1.697.369-.754.685-1.82.949-3.19zm-4.193-13.437c-1.16.105-2.031.896-2.611 2.37h.79c.264 0 .556.029.872.078a.608.608 0 01.357.316c.077.158.065.344-.04.555-.264.421-.556.988-.872 1.698-.317.709-.609 1.54-.872 2.488.263.368.555.644.872.83.316.186.604.328.872.434.316.158.656.239 1.029.239.897.105 1.7.053 2.413-.158a6.306 6.306 0 001.939-.948c-.053-2.845-.58-4.9-1.582-6.164-1.006-1.264-2.06-1.843-3.167-1.738zm35.275 9.328c.263.105.433.263.515.474.081.21.064.45-.041.713-1.423 3.213-2.794 5.742-4.112 7.585-.421.685-.872 1.147-1.346 1.382a4.17 4.17 0 01-1.423.434c-.527 0-.896-.053-1.107-.158a5.55 5.55 0 01-1.107 1.106 7.325 7.325 0 01-1.821 1.106 5.655 5.655 0 01-1.938.474c-.714.053-1.464-.134-2.255-.555a3.458 3.458 0 01-.949-.79c-.263-.264-.503-.62-.713-1.066a4.549 4.549 0 01-.398-1.54 7.673 7.673 0 01.041-1.738c.081-.632.357-1.288.831-1.977.58-.896 1.265-1.236 2.056-1.03.791.211 1.606.633 2.453 1.265.106-.422.211-.855.316-1.305.106-.446.211-.83.317-1.147.105-.369.158-.737.158-1.106.422-2.686.58-4.793.474-6.321-.105-1.528-.316-2.687-.632-3.477-.369-.948-.844-1.552-1.424-1.819-.896.158-1.674.66-2.331 1.503a11.51 11.51 0 00-1.622 2.845 22.877 22.877 0 00-.99 3.043c-.235.976-.381 1.649-.434 2.014a345.681 345.681 0 00-.908 15.567 170.05 170.05 0 00.118 15.175.821.821 0 01-.276.79 1.215 1.215 0 01-.831.316c-1.16-.105-2.044-.421-2.648-.948-.608-.526-1.067-1.082-1.383-1.661a6.504 6.504 0 01-.714-2.294c-.316-2.37-.555-5.097-.713-8.18a213 213 0 01-.276-9.247 316.18 316.18 0 01.041-8.655c.052-2.687.129-4.77.235-6.244.105-1.107.34-2.002.713-2.687.369-.685.921-1.288 1.663-1.82.896-.684 1.804-1.187 2.729-1.503.92-.316 1.699-.526 2.332-.632.263-.052.515.029.75.24.235.21.328.45.276.713a10.94 10.94 0 00-.199 1.58 13.301 13.301 0 01-.199 1.661 13.429 13.429 0 012.77-3.12c1.107-.92 2.477-1.276 4.111-1.066 1.582.159 2.847.99 3.796 2.488.949 1.504 1.581 3.307 1.898 5.414.316 2.107.304 4.307-.041 6.6-.345 2.294-1.014 4.336-2.015 6.127.369 0 .713-.21 1.03-.632a22.154 22.154 0 001.541-2.095c.498-.762.948-1.503 1.346-2.212.397-.713.738-1.37 1.03-1.978.288-.603.486-1.065.592-1.381.105-.264.288-.34.555-.24h.159v.009zm-13.208 9.404c.264-.105.499-.34.714-.713.211-.368.422-.814.633-1.345a6.359 6.359 0 00-1.505-.871c-.527-.21-.896-.182-1.107.08-.158.212-.251.503-.275.872-.029.369 0 .725.077 1.066.081.344.235.608.474.79.235.186.564.227.989.121z" fill="#081E33"/><path d="M200.85 27.37c.316.474.397 1.029.235 1.661-.422 1.159-.896 2.16-1.423 3.002.052.633.081 1.305.081 2.014a15.4 15.4 0 01-.158 2.172c-.264 2.318-.779 4.15-1.541 5.495-.767 1.345-1.541 2.382-2.332 3.12-.949.895-1.979 1.503-3.086 1.82-1.95.42-3.613.315-4.983-.317-1.371-.632-2.466-1.605-3.281-2.926-.819-1.316-1.358-2.832-1.622-4.542a15.539 15.539 0 01.077-5.174 5.78 5.78 0 01.316-1.187c.106-.37.252-.762.434-1.188a6.27 6.27 0 01.751-1.264 6.906 6.906 0 01.433-2.804 9.14 9.14 0 011.424-2.528 7.52 7.52 0 012.137-1.856 5.84 5.84 0 012.648-.79c1.95-.158 3.69.433 5.218 1.779 1.529 1.345 2.583 3.278 3.163 5.806.264-.474.487-.895.673-1.264.183-.369.329-.685.434-.948 0-.106.041-.17.118-.199.089-.024.178.012.284.118zm-4.903 10.908a4.21 4.21 0 00.199-1.03c.024-.368.065-.713.118-1.029.052-.369.105-.762.158-1.187-1.213.685-2.478 1.082-3.796 1.187-1.318.106-2.558-.053-3.718-.474a43.78 43.78 0 00-.118 2.488c-.028 1.03.053 2.014.235 2.962.183.948.528 1.726 1.03 2.33.499.608 1.225.802 2.174.592.158-.053.381-.13.673-.24.288-.105.62-.34.989-.713.369-.368.738-.936 1.107-1.697.369-.754.686-1.82.949-3.19zm-4.189-13.437c-1.159.105-2.031.896-2.611 2.37h.791c.263 0 .555.029.872.078a.606.606 0 01.356.316c.077.158.065.344-.04.555-.264.421-.556.988-.872 1.698-.316.709-.608 1.54-.872 2.488.264.368.556.644.872.83.316.186.604.328.872.434.316.158.657.239 1.03.239.896.105 1.699.053 2.413-.158a6.312 6.312 0 001.938-.948c-.053-2.845-.58-4.9-1.582-6.164-1.009-1.264-2.06-1.843-3.167-1.738z" fill="#081E33"/><path d="M221.336 34.088c.105 1.896-.134 3.873-.71 5.928-.263 1.053-.527 1.896-.791 2.528.369 0 .71-.21 1.03-.632a24.805 24.805 0 001.582-2.135c.474-.738.92-1.475 1.346-2.213.369-.684.714-1.345 1.03-1.977.264-.58.475-1.03.633-1.345.105-.264.263-.34.474-.235h.158c.264.105.446.263.556.474.053.21.024.45-.077.713-1.424 3.213-2.794 5.742-4.112 7.585-.422.685-.872 1.135-1.346 1.346a3.79 3.79 0 01-1.424.474c-.474 0-.843-.053-1.107-.158l-.474.555-.556.555a7.322 7.322 0 01-1.82 1.106 5.59 5.59 0 01-1.898.474c-.738.053-1.504-.134-2.295-.555a3.155 3.155 0 01-1.03-.79c-.264-.264-.503-.632-.714-1.106-.211-.422-.344-.92-.393-1.504a6.602 6.602 0 01.077-1.738c.053-.632.316-1.288.791-1.977.58-.896 1.265-1.236 2.056-1.03.79.211 1.634.633 2.53 1.265l.316-1.346c.053-.421.13-.79.235-1.106.264-1.37.398-2.475.398-3.318 0-.316-.029-.632-.081-.949-.106-1.211-.292-2.135-.556-2.767-.369-.79-.819-1.264-1.346-1.422-.844.052-1.582.433-2.214 1.146a9.705 9.705 0 00-1.541 2.33 14.44 14.44 0 00-.908 2.488c-.211.819-.345 1.358-.394 1.621-.738 2.37-.977 5.612-.713 9.72 0 .211-.106.41-.317.592-.211.187-.474.276-.79.276-1.055-.053-1.874-.304-2.454-.75-.58-.445-1.001-.883-1.265-1.304a4.868 4.868 0 01-.713-1.897c-.317-2.001-.556-2.925-.71-2.767-.158.158-.211-.762-.158-2.768-1.213.21-2.344.21-3.402 0-.317-.053-.475-.369-.475-.948.106-.737.316-1.053.633-.948l1.265.158c.422-.053.819-.105 1.188-.158.316-.053.608-.077.872-.077a39.8 39.8 0 01.081-2.768v-3.95c.053-2.37.182-4.636.393-6.796.211-2.317.58-4.53 1.107-6.637.475-2.001 1.132-3.792 1.979-5.373.475-1.053 1.002-1.843 1.582-2.37.527-.421 1.03-.738 1.504-.948.474-.106.896-.13 1.265-.081.369.052.633.158.791.316 1.16.421 2.08 1.503 2.769 3.241a16.17 16.17 0 01.872 5.296 36.355 36.355 0 01-.632 5.77 23.853 23.853 0 01-1.505 5.215l-.79 1.897c.316-.37.632-.657.948-.872 1.002-.737 2.267-1.029 3.796-.87 1.476.157 2.66.842 3.56 2.054.896 1.211 1.505 2.662 1.821 4.347a9.6 9.6 0 01.073 1.115zm-10.519-10.272l.393-1.58c.106-.37.183-.872.236-1.504a14.87 14.87 0 00.397-1.738c.211-1.896.211-3.448 0-4.664-.158-1.159-.369-2.079-.633-2.767-.369-.843-.766-1.423-1.188-1.739-.79-.421-1.451.081-1.978 1.504-.528 1.37-.978 3.189-1.347 5.454a159.617 159.617 0 00-.632 7.982 118.34 118.34 0 00-.158 8.534c.316-.264.656-.657 1.03-1.188.421-.421.815-.948 1.188-1.58 1.163-2.054 2.06-4.291 2.692-6.714zm2.056 19.6c.264-.106.499-.34.714-.714.211-.368.446-.814.709-1.345a8.07 8.07 0 00-1.581-.871c-.527-.21-.896-.182-1.107.077-.158.21-.235.502-.235.871-.053.369-.029.713.077 1.03.105.368.263.631.474.79.211.214.527.267.949.162z" fill="#081E33"/><path d="M243.796 27.37c.317.474.398 1.029.239 1.661-.421 1.159-.896 2.16-1.423 3.002.053.633.077 1.305.077 2.014a15.4 15.4 0 01-.158 2.172c-.264 2.318-.779 4.15-1.541 5.495-.766 1.345-1.541 2.382-2.331 3.12-.949.895-1.979 1.503-3.086 1.82-1.951.42-3.613.315-4.984-.317-1.37-.632-2.465-1.605-3.28-2.926-.819-1.316-1.359-2.832-1.622-4.542a15.487 15.487 0 01.081-5.174c.052-.369.158-.762.316-1.187a9.89 9.89 0 01.434-1.188c.182-.421.434-.843.75-1.264a6.89 6.89 0 01.434-2.804 9.162 9.162 0 011.423-2.528 7.52 7.52 0 012.137-1.856 5.84 5.84 0 012.648-.79c1.951-.158 3.69.433 5.219 1.779 1.529 1.345 2.583 3.278 3.163 5.806.263-.474.486-.895.673-1.264.182-.369.328-.685.434-.948 0-.106.04-.17.117-.199.082-.024.175.012.28.118zm-4.902 10.908c.105-.316.17-.657.198-1.03.025-.368.065-.713.118-1.029.053-.369.105-.762.158-1.187-1.212.685-2.477 1.082-3.795 1.187-1.318.106-2.559-.053-3.719-.474a43.926 43.926 0 00-.117 2.488c-.029 1.03.052 2.014.235 2.962.182.948.527 1.726 1.03 2.33.499.608 1.224.802 2.173.592.158-.053.381-.13.673-.24.288-.105.621-.34.99-.713.369-.368.738-.936 1.107-1.697.365-.754.681-1.82.949-3.19zm-4.193-13.437c-1.16.105-2.032.896-2.612 2.37h.791c.264 0 .556.029.872.078a.608.608 0 01.357.316c.081.158.065.344-.041.555-.263.421-.555.988-.872 1.698-.316.709-.608 1.54-.871 2.488.263.368.555.644.871.83.317.186.605.328.872.434.317.158.657.239 1.03.239.896.105 1.699.053 2.413-.158a6.345 6.345 0 001.938-.948c-.052-2.845-.58-4.9-1.581-6.164-1.006-1.264-2.06-1.843-3.167-1.738zm31.475 9.329c.264.105.434.263.515.473.077.211.065.45-.04.713a85.863 85.863 0 01-1.663 3.437 46.674 46.674 0 01-1.504 2.727c-.897 1.37-1.927 2.528-3.086 3.476-1.002.79-2.214 1.435-3.638 1.937-1.423.498-3.057.462-4.902-.117-1.002-.317-2.015-.949-3.045-1.897-1.03-.948-1.886-2.135-2.571-3.557-.686-1.423-1.136-3.044-1.347-4.859-.21-1.815 0-3.78.633-5.887.58-2.055 1.33-3.647 2.255-4.782.92-1.13 1.833-1.99 2.729-2.569 1.001-.632 2.056-1 3.163-1.106 1.317-.105 2.424.04 3.321.434.896.397 1.634.883 2.214 1.462a6.546 6.546 0 011.107 1.662c.263.527.409 1.134.434 1.82.024.684-.146 1.474-.515 2.37a6.23 6.23 0 01-1.821 2.37c-.685.58-1.61 1.041-2.77 1.382-1.159.344-2.635.38-4.428.117 0 .158-.012.316-.04.474a2.618 2.618 0 00-.041.474c-.105 1.739-.053 3.319.158 4.741a11.194 11.194 0 001.188 3.436c.58 1.082 1.505 1.674 2.77 1.78a4.383 4.383 0 002.571-.475 9.844 9.844 0 002.173-1.503 17.115 17.115 0 002.137-2.213 40.388 40.388 0 002.097-3.594c.604-1.187 1.013-2.014 1.224-2.488.106-.263.288-.34.556-.239h.166zm-7.591-8.773c-.369-.369-.872-.474-1.504-.316-.633.158-1.294.539-1.979 1.146-.685.608-1.346 1.398-1.979 2.37-.633.977-1.135 2.096-1.504 3.36a7.304 7.304 0 001.581.158 7.05 7.05 0 001.78-.235 8.113 8.113 0 001.74-.673c.555-.287 1.042-.725 1.464-1.305.474-.684.778-1.304.908-1.855.13-.555.146-1.042.041-1.463-.102-.478-.284-.871-.548-1.187zm-68.136 38.574h-7.161v17.1h-7.21v-17.1h-7.258v-6.916h21.633v6.916h-.004zm14.371 11.338c1.971 0 3.654-.77 4.615-1.824l5.766 3.315c-2.356 3.266-5.912 4.947-10.478 4.947-8.22 0-13.317-5.522-13.317-12.682s5.191-12.683 12.786-12.683c7.019 0 12.209 5.43 12.209 12.683 0 1.008-.097 1.969-.288 2.88H199.05c.916 2.5 3.126 3.364 5.77 3.364zm4.424-8.74c-.77-2.788-2.932-3.797-5.097-3.797-2.741 0-4.566 1.345-5.239 3.797h10.336zm31.195 14.506h-7.21v-17.1h-5.19v7.156c0 7.253-3.654 10.758-10.673 9.944v-6.726c2.259.672 3.463-.722 3.463-3.7V57.055h19.614v24.02h-.004zm4.083-12.01c0-7.156 5.673-12.683 12.737-12.683S270 61.905 270 69.065s-5.673 12.682-12.741 12.682-12.737-5.527-12.737-12.682zm18.268 0c0-3.412-2.404-5.67-5.527-5.67-3.122 0-5.527 2.258-5.527 5.67 0 3.411 2.405 5.668 5.527 5.668 3.123 0 5.527-2.257 5.527-5.668z" fill="#081E33"/><path d="M36.685 25.745c-2.502-6.022-4.603-14.101.162-20.175 4.33-5.52 13.081-7.063 20.47-4.004-3.451 2.018-5.32 9.166-8.836 13.47-6.683 8.18-10.608 8.172-11.796 10.709z" fill="#5B8F31"/><path d="M45.175 6.06c-2.214 1.828-5.843 4.79-7.262 9.644a32.397 32.397 0 00-1.273 9.94l.04.1c1.188-2.536 5.117-2.528 11.796-10.705 3.516-4.307 5.385-11.45 8.836-13.469-.037-.016-.073-.028-.11-.044C52.636.99 47.26 4.342 45.175 6.06z" fill="#55862D"/><path d="M37.917 15.704c1.419-4.854 5.044-7.816 7.262-9.644C47.263 4.342 52.64.991 57.206 1.526 49.842-1.472 41.156.079 36.846 5.57c-4.74 6.037-2.688 14.06-.203 20.073a32.281 32.281 0 011.274-9.939z" fill="#9DDB16"/><path d="M36.794 28.431c-.313-2.698-.394-5.437-.05-8.152.337-2.71 1.144-5.381 2.474-7.78 1.347-2.39 3.212-4.477 5.381-6.139 2.17-1.67 4.595-2.958 7.109-3.987l-1.82.92-.455.227-.438.26-.876.518c-.292.174-.588.332-.872.518l-.835.576-.835.575c-.272.199-.523.426-.787.636-2.1 1.69-3.925 3.732-5.219 6.09-1.334 2.338-2.125 4.96-2.522 7.626-.09.669-.154 1.342-.231 2.014l-.101 2.03-.005 2.034.082 2.035z" fill="#2C602C"/><path d="M36.806 12.948c-.04.381-.02.762.02 1.139.045.377.093.754.17 1.126.07.373.163.742.252 1.107.093.364.203.733.349 1.061l-.183-.073c.462-.178.925-.275 1.395-.36a23.53 23.53 0 011.407-.211c.47-.049.945-.081 1.415-.101.475-.013.95-.017 1.42.064-.475-.008-.941.045-1.408.098a22.7 22.7 0 00-1.395.194 22.55 22.55 0 00-1.386.24c-.455.096-.917.194-1.343.34l-.13.044-.048-.117a6.82 6.82 0 01-.345-1.119 9.961 9.961 0 01-.198-1.138 9.932 9.932 0 01-.094-1.151c-.004-.381.005-.77.102-1.143zm2.562-5.101c.008.62.093 1.227.235 1.819.15.588.365 1.163.698 1.65l-.15-.062c1.042-.202 2.088-.202 3.13-.158 1.038.065 2.076.187 3.086.434a33.088 33.088 0 00-3.094-.178 28.17 28.17 0 00-1.54.024c-.512.028-1.027.069-1.521.162l-.098.02-.052-.08c-.357-.54-.552-1.155-.657-1.771a5.617 5.617 0 01-.037-1.86zm3.475-4.007a6.756 6.756 0 00.02 1.876 5.43 5.43 0 00.589 1.742l-.158-.073c1.046-.186 2.092-.178 3.134-.117.52.04 1.038.097 1.553.182.511.093 1.026.207 1.513.393-1.014-.223-2.048-.296-3.078-.32a24.557 24.557 0 00-1.545.008 12.88 12.88 0 00-1.525.142l-.105.02-.049-.093a4.635 4.635 0 01-.535-1.86 5.256 5.256 0 01.187-1.9zM47.9 2c-.093.413-.162.83-.207 1.248-.032.413-.06.843.05 1.224l-.119-.07a7.33 7.33 0 011.927-.181 6.816 6.816 0 011.893.34c-.632-.11-1.265-.17-1.897-.162a9.407 9.407 0 00-1.878.198l-.097.02-.02-.089c-.11-.441-.074-.879 0-1.3.069-.422.186-.835.348-1.228z" fill="#2C602C"/><path d="M53.93 18.743c-8.066 0-14.866 5.402-16.982 12.784-2.113-7.383-8.913-12.784-16.979-12.784-9.756 0-17.667 7.906-17.667 17.655 0 15.802 13.827 27.683 24.013 34.292-.425-1.285-1.22-3.027-1.614-4.117-1.816-5.07-2.44-8.12-2.258-11.726h.004l.154-18.267a.722.722 0 111.444.012l.397 18.53c.377.122.912.19 1.517-.049l.352-18.485c0-.397.325-.721.726-.721.402 0 .726.324.726.725l.26 18.481c.356.13.948.223 1.772-.04l.23-18.44a.723.723 0 111.444-.004l.325 18.424c.357.089.9.158 1.545.04l.393-18.457a.722.722 0 111.444-.012l.162 18.79h-.004c.15 4.862.162 7.35-1.57 10.822-.827 1.662-2.303 4.907-2.303 5.762 0 .17 0 .855-.004 1.84 3.293 1.843 5.49 2.808 5.49 2.808s2.292-.94 5.69-2.78c-1.861-2.925-4.838-5.373-4.29-12.115 1.13-13.931 2.676-25.402 7.485-26.209a.61.61 0 01.718.592v35.483c10.255-6.252 25.043-18.205 25.043-35.175.004-9.753-7.903-17.659-17.663-17.659z" fill="#446C25"/><path d="M47.174 73.112c3.613-2.22 7.088-4.68 10.316-7.435 3.224-2.751 6.216-5.795 8.763-9.186 2.546-3.383 4.643-7.127 5.953-11.16a31.138 31.138 0 001.35-6.19c.231-2.1.284-4.235-.045-6.322a18.478 18.478 0 00-1.983-5.98 19.093 19.093 0 00-3.888-4.96 18.878 18.878 0 00-5.292-3.42 19.074 19.074 0 00-6.135-1.422c-4.213-.3-8.504.928-11.942 3.37-3.45 2.428-6.038 6.046-7.198 10.103l-.121.43-.122-.43c-1.135-3.996-3.666-7.566-7.035-9.989-3.358-2.439-7.555-3.707-11.703-3.509-4.165.106-8.224 1.783-11.383 4.462C3.522 24.156 1.353 27.96.513 32.025l-.235 1.54c-.065.514-.065 1.037-.097 1.556-.045.518-.012 1.037 0 1.56 0 .523.057 1.037.097 1.556a29.634 29.634 0 001.209 6.114c1.22 3.987 3.244 7.699 5.705 11.062 2.457 3.372 5.353 6.415 8.47 9.186 3.12 2.776 6.48 5.276 9.976 7.561-3.503-2.269-6.877-4.753-10.016-7.516-3.134-2.76-6.046-5.79-8.527-9.158-2.478-3.363-4.51-7.087-5.746-11.09a29.645 29.645 0 01-1.225-6.147c-.04-.523-.097-1.041-.101-1.568-.012-.523-.045-1.046 0-1.568.032-.523.032-1.05.097-1.569l.235-1.555c.84-4.101 3.021-7.95 6.237-10.661 3.187-2.711 7.287-4.413 11.5-4.526 4.197-.207 8.446 1.065 11.849 3.529 3.414 2.447 5.98 6.062 7.14 10.106h-.243c1.176-4.113 3.812-7.772 7.307-10.224 3.483-2.467 7.83-3.703 12.088-3.395 2.129.138 4.234.624 6.204 1.45a19.06 19.06 0 015.34 3.465c1.57 1.438 2.9 3.14 3.918 5.012a18.754 18.754 0 011.99 6.042c.325 2.107.272 4.254.033 6.361a31.446 31.446 0 01-1.366 6.22c-1.322 4.044-3.43 7.804-5.994 11.188-2.57 3.387-5.58 6.418-8.82 9.157-3.251 2.756-6.739 5.195-10.364 7.4z" fill="#9DDB16"/><path d="M36.952 31.527c-2.117-7.383-8.917-12.784-16.983-12.784-9.756 0-17.667 7.906-17.667 17.655 0 15.802 13.827 27.683 24.013 34.292-.425-1.285-1.22-3.027-1.614-4.117-1.816-5.07-2.44-8.12-2.258-11.726h.004l.154-18.267a.722.722 0 111.444.012l.397 18.53c.377.122.912.19 1.517-.049l.352-18.485c0-.397.325-.721.726-.721.402 0 .726.324.726.725l.26 18.481c.356.13.948.223 1.772-.04l.23-18.44a.723.723 0 111.444-.004l.325 18.424c.357.089.9.158 1.545.04l.393-18.457a.722.722 0 111.444-.012l.162 18.79h-.004c.15 4.862.162 7.35-1.57 10.822-.827 1.662-2.303 4.907-2.303 5.762 0 .17 0 .855-.004 1.84 3.293 1.843 5.49 2.808 5.49 2.808s.005-.004.009-.004v-45.1c0 .009-.004.017-.004.025z" fill="#9DDB16"/><path d="M13.596 92.2l-4.3 7.756c-.413.747-.913 1.312-1.5 1.694a3.349 3.349 0 01-1.89.574 4.47 4.47 0 01-1.644-.336l.562-1.722c.404.122.74.182 1.01.182.289 0 .548-.065.78-.196.23-.14.442-.355.634-.644l.087-.112L3.353 92.2h2.496l2.683 5.264 2.77-5.264h2.294zm.93 2.268h2.237v2.94h3.376v-2.94h2.25V102h-2.25v-2.814h-3.376V102h-2.237v-7.532zm10.306 0h2.237v4.48l3.78-4.48h2.063V102h-2.236v-4.48L26.91 102h-2.078v-7.532zm13.951 4.676h-1.168V102h-2.251v-7.532h2.25v2.926h1.213l2.106-2.926h2.395l-2.712 3.612 2.9 3.92H40.86l-2.078-2.856zm9-4.788c1.203 0 2.126.28 2.77.84.645.55.967 1.386.967 2.506V102h-2.106v-.938c-.423.7-1.212 1.05-2.366 1.05-.596 0-1.116-.098-1.558-.294-.433-.196-.765-.466-.996-.812a2.066 2.066 0 01-.346-1.176c0-.7.27-1.25.808-1.652.548-.401 1.39-.602 2.525-.602h1.789c0-.476-.15-.84-.448-1.092-.298-.261-.745-.392-1.341-.392-.414 0-.823.066-1.227.196-.394.121-.73.29-1.01.504l-.807-1.526c.423-.29.928-.513 1.514-.672a7.094 7.094 0 011.833-.238zm-.172 6.286a2.05 2.05 0 001.024-.252c.298-.177.51-.434.635-.77v-.77h-1.544c-.923 0-1.385.294-1.385.882a.8.8 0 00.332.672c.23.159.543.238.938.238zm13.598-6.174V102h-2.251v-5.74h-2.453l-.072 1.33c-.038.99-.135 1.81-.288 2.464-.154.654-.404 1.167-.75 1.54-.347.374-.828.56-1.443.56a4.97 4.97 0 01-1.169-.168l.115-1.792c.154.019.265.028.332.028.337 0 .587-.116.75-.35.174-.243.29-.546.347-.91.058-.373.1-.863.13-1.47l.115-3.024h6.637zm6.651 2.408c1.01.01 1.784.233 2.323.672.538.43.808 1.04.808 1.834 0 .831-.303 1.48-.91 1.946-.596.458-1.437.686-2.524.686L63.662 102v-7.532h2.236v2.408h1.962zm-.505 3.584c.433.01.765-.079.995-.266.231-.186.347-.466.347-.84 0-.364-.116-.63-.347-.798-.22-.168-.553-.257-.995-.266l-1.457-.014v2.184h1.457zm5.33-5.992h2.237v2.94h3.376v-2.94h2.25V102h-2.25v-2.814h-3.376V102h-2.236v-7.532zm13.322-.112c1.202 0 2.125.28 2.77.84.644.55.967 1.386.967 2.506V102h-2.107v-.938c-.423.7-1.212 1.05-2.366 1.05-.596 0-1.116-.098-1.558-.294-.433-.196-.765-.466-.995-.812a2.066 2.066 0 01-.347-1.176c0-.7.27-1.25.808-1.652.548-.401 1.39-.602 2.525-.602h1.789c0-.476-.15-.84-.447-1.092-.299-.261-.746-.392-1.342-.392-.414 0-.822.066-1.226.196-.395.121-.731.29-1.01.504l-.808-1.526c.423-.29.928-.513 1.515-.672a7.093 7.093 0 011.832-.238zm-.173 6.286c.385 0 .726-.084 1.024-.252.298-.177.51-.434.635-.77v-.77h-1.544c-.923 0-1.385.294-1.385.882a.8.8 0 00.332.672c.23.159.543.238.938.238zm13.05-6.174V102h-2.006v-2.156H95.22L93.748 102h-2.395l1.774-2.464c-.538-.205-.952-.5-1.24-.882-.28-.392-.419-.863-.419-1.414 0-.886.327-1.568.981-2.044.664-.485 1.573-.728 2.727-.728h3.708zm-3.665 1.778c-.48 0-.846.084-1.096.252-.24.168-.361.439-.361.812 0 .373.115.649.346.826.24.168.601.252 1.082.252h1.688v-2.142H95.22zm18.21-1.778V102h-2.251v-5.74h-3.231V102h-2.237v-7.532h7.719zm7.02-.112c.721 0 1.375.163 1.962.49.596.317 1.063.77 1.4 1.358.336.579.505 1.256.505 2.03 0 .775-.169 1.456-.505 2.044a3.571 3.571 0 01-1.4 1.358 4.051 4.051 0 01-1.962.476c-.991 0-1.771-.303-2.337-.91v3.514h-2.251V94.468h2.15v.868c.557-.653 1.37-.98 2.438-.98zm-.39 5.964c.578 0 1.048-.186 1.414-.56.375-.383.563-.891.563-1.526 0-.634-.188-1.138-.563-1.512-.366-.382-.836-.574-1.414-.574-.577 0-1.053.192-1.428.574-.366.374-.548.878-.548 1.512 0 .635.182 1.144.548 1.526.375.374.851.56 1.428.56zm9.758 1.792c-.818 0-1.553-.163-2.208-.49a3.831 3.831 0 01-1.515-1.386c-.365-.588-.548-1.255-.548-2.002 0-.746.183-1.414.548-2.002a3.733 3.733 0 011.515-1.372c.655-.336 1.39-.504 2.208-.504.818 0 1.548.168 2.193.504a3.71 3.71 0 011.514 1.372c.366.588.549 1.255.549 2.002 0 .747-.183 1.414-.549 2.002a3.809 3.809 0 01-1.514 1.386c-.645.327-1.375.49-2.193.49zm0-1.792c.577 0 1.049-.186 1.413-.56.376-.383.563-.891.563-1.526 0-.634-.187-1.138-.563-1.512-.364-.382-.836-.574-1.413-.574-.578 0-1.054.192-1.429.574-.375.374-.562.878-.562 1.512 0 .635.187 1.144.562 1.526.375.374.851.56 1.429.56zm12.31-4.06h-3.982V102h-2.236v-7.532h6.218v1.792zm6.056-1.904c.721 0 1.374.163 1.962.49.595.317 1.062.77 1.399 1.358.336.579.505 1.256.505 2.03 0 .775-.169 1.456-.505 2.044a3.575 3.575 0 01-1.399 1.358 4.054 4.054 0 01-1.962.476c-.992 0-1.771-.303-2.338-.91v3.514h-2.25V94.468h2.149v.868c.558-.653 1.371-.98 2.439-.98zm-.39 5.964c.577 0 1.048-.186 1.414-.56.375-.383.563-.891.563-1.526 0-.634-.188-1.138-.563-1.512-.366-.382-.837-.574-1.414-.574s-1.053.192-1.428.574c-.366.374-.548.878-.548 1.512 0 .635.182 1.144.548 1.526.375.374.851.56 1.428.56zm9.01-5.964c1.203 0 2.126.28 2.77.84.645.55.967 1.386.967 2.506V102h-2.107v-.938c-.422.7-1.212 1.05-2.366 1.05-.595 0-1.115-.098-1.558-.294-.433-.196-.765-.466-.995-.812a2.065 2.065 0 01-.347-1.176c0-.7.27-1.25.808-1.652.549-.401 1.391-.602 2.525-.602h1.789c0-.476-.148-.84-.447-1.092-.298-.261-.745-.392-1.342-.392-.413 0-.822.066-1.226.196-.394.121-.731.29-1.01.504l-.808-1.526c.423-.29.928-.513 1.515-.672a7.097 7.097 0 011.832-.238zm-.173 6.286c.385 0 .727-.084 1.024-.252.299-.177.51-.434.635-.77v-.77h-1.544c-.923 0-1.385.294-1.385.882 0 .28.112.504.332.672.231.159.544.238.938.238zM170.359 102v-4.508l-2.323 3.78h-.952l-2.265-3.794V102h-2.035v-7.532h2.352l2.482 4.354 2.64-4.354h2.106l.029 7.532h-2.034zm12.053 0v-4.508l-2.323 3.78h-.952l-2.265-3.794V102h-2.035v-7.532h2.352l2.482 4.354 2.64-4.354h2.106l.029 7.532h-2.034zm7.494-7.644c1.202 0 2.125.28 2.77.84.644.55.967 1.386.967 2.506V102h-2.107v-.938c-.423.7-1.212 1.05-2.366 1.05-.597 0-1.116-.098-1.558-.294-.433-.196-.765-.466-.996-.812a2.072 2.072 0 01-.346-1.176c0-.7.269-1.25.808-1.652.548-.401 1.389-.602 2.525-.602h1.789c0-.476-.149-.84-.447-1.092-.299-.261-.746-.392-1.342-.392-.414 0-.822.066-1.226.196-.395.121-.732.29-1.01.504l-.808-1.526a4.93 4.93 0 011.515-.672 7.08 7.08 0 011.832-.238zm-.173 6.286c.384 0 .725-.084 1.024-.252.298-.177.509-.434.635-.77v-.77h-1.544c-.923 0-1.385.294-1.385.882a.8.8 0 00.332.672c.231.159.543.238.938.238zm18.246-6.174V102h-2.25v-5.74h-3.232V102h-2.236v-7.532h7.718zm2.447 0h2.236v4.48l3.78-4.48h2.063V102h-2.236v-4.48l-3.766 4.48h-2.077v-7.532zm17.052 1.792h-2.626V102h-2.236v-5.74h-2.626v-1.792h7.488v1.792zm4.504-1.904c1.202 0 2.126.28 2.77.84.645.55.966 1.386.966 2.506V102h-2.106v-.938c-.423.7-1.212 1.05-2.366 1.05-.596 0-1.115-.098-1.558-.294-.433-.196-.765-.466-.996-.812a2.065 2.065 0 01-.346-1.176c0-.7.27-1.25.808-1.652.548-.401 1.39-.602 2.525-.602h1.789c0-.476-.149-.84-.448-1.092-.297-.261-.745-.392-1.341-.392-.414 0-.823.066-1.227.196a3.19 3.19 0 00-1.01.504l-.808-1.526c.424-.29.929-.513 1.515-.672a7.104 7.104 0 011.833-.238zm-.174 6.286a2.05 2.05 0 001.025-.252c.299-.177.51-.434.635-.77v-.77h-1.544c-.923 0-1.385.294-1.385.882 0 .28.111.504.332.672.231.159.544.238.937.238zm6.155-6.174h2.236v2.94h3.376v-2.94h2.251V102h-2.251v-2.814h-3.376V102h-2.236v-7.532zm10.305 0h2.236v4.48l3.78-4.48h2.064V102h-2.237v-4.48l-3.765 4.48h-2.078v-7.532zm17.429 0V102h-2.006v-2.156h-1.659L260.56 102h-2.395l1.775-2.464c-.539-.205-.952-.5-1.241-.882-.279-.392-.418-.863-.418-1.414 0-.886.327-1.568.981-2.044.664-.485 1.573-.728 2.727-.728h3.708zm-3.665 1.778c-.481 0-.847.084-1.097.252-.241.168-.36.439-.36.812 0 .373.115.649.346.826.24.168.601.252 1.082.252h1.688v-2.142h-1.659zM9.106 116.336v3.172H7.164V118H2.1v1.508H.157v-3.172h.295c.447-.009.755-.264.924-.767.17-.503.277-1.218.322-2.145l.094-2.418h6.283v5.33h1.031zm-5.52-2.769c-.026.711-.084 1.291-.173 1.742-.08.451-.237.793-.47 1.027h3.042v-3.666H3.627l-.04.897zm13.748-2.561V118h-2.09v-5.33h-2.277l-.067 1.235c-.036.919-.125 1.681-.268 2.288-.143.607-.375 1.083-.697 1.43-.321.347-.768.52-1.34.52-.303 0-.665-.052-1.084-.156l.107-1.664a3 3 0 00.308.026c.313 0 .545-.108.697-.325.16-.225.268-.507.321-.845.054-.347.094-.802.12-1.365l.108-2.808h6.162zm8.414 0V118h-1.862v-2.002h-1.54L20.978 118h-2.224l1.648-2.288c-.5-.191-.885-.464-1.153-.819-.259-.364-.388-.802-.388-1.313 0-.823.304-1.456.91-1.898.617-.451 1.461-.676 2.533-.676h3.443zm-3.403 1.651c-.446 0-.786.078-1.018.234-.223.156-.335.407-.335.754 0 .347.107.602.322.767.223.156.558.234 1.004.234h1.568v-1.989h-1.54zm15.261.013h-2.438V118H33.09v-5.33h-2.438v-1.664h6.953v1.664zm7.82 1.859c0 .026-.014.208-.04.546h-5.453c.098.433.33.776.697 1.027.366.251.821.377 1.366.377.375 0 .706-.052.991-.156.295-.113.568-.286.818-.52l1.112 1.17c-.68.754-1.67 1.131-2.974 1.131-.813 0-1.532-.152-2.157-.455-.626-.312-1.108-.741-1.447-1.287-.34-.546-.51-1.166-.51-1.859 0-.685.166-1.3.496-1.846.34-.555.8-.984 1.38-1.287a4.143 4.143 0 011.97-.468c.705 0 1.344.147 1.915.442a3.227 3.227 0 011.34 1.274c.33.546.496 1.183.496 1.911zm-3.738-2.093c-.473 0-.87.13-1.192.39-.322.26-.518.615-.59 1.066h3.55c-.071-.442-.268-.793-.59-1.053-.32-.269-.714-.403-1.178-.403zM51.36 118l-1.581-2.145L48.144 118h-2.277l2.773-3.523-2.68-3.471h2.345l1.527 2.041 1.568-2.041h2.224l-2.68 3.419L53.731 118H51.36zm4.163-2.418c.375 0 .684.117.925.351.24.225.361.524.361.897 0 .173-.022.347-.066.52a5.806 5.806 0 01-.295.78l-.764 1.872h-1.326l.59-2.067a1.146 1.146 0 01-.537-.416 1.269 1.269 0 01-.187-.689c0-.373.12-.672.362-.897.25-.234.562-.351.937-.351zm9.712-.234H64.15V118h-2.09v-6.994h2.09v2.717h1.125l1.956-2.717h2.224l-2.519 3.354L69.63 118h-2.465l-1.929-2.652zm11.41-2.678h-2.438V118h-2.076v-5.33h-2.439v-1.664h6.954v1.664zm4.19 5.434c-.76 0-1.443-.152-2.05-.455a3.551 3.551 0 01-1.407-1.287c-.34-.546-.509-1.166-.509-1.859 0-.693.17-1.313.51-1.859a3.45 3.45 0 011.406-1.274c.607-.312 1.29-.468 2.05-.468.759 0 1.438.156 2.036.468a3.458 3.458 0 011.407 1.274c.34.546.509 1.166.509 1.859 0 .693-.17 1.313-.51 1.859a3.55 3.55 0 01-1.406 1.287c-.598.303-1.277.455-2.036.455zm0-1.664c.536 0 .973-.173 1.313-.52.348-.355.522-.828.522-1.417 0-.589-.174-1.057-.522-1.404-.34-.355-.777-.533-1.313-.533-.536 0-.978.178-1.327.533-.348.347-.522.815-.522 1.404s.174 1.062.522 1.417c.349.347.79.52 1.327.52zM94.547 118l-1.581-2.145L91.33 118h-2.277l2.773-3.523-2.68-3.471h2.345l1.527 2.041 1.568-2.041h2.224l-2.68 3.419L96.918 118h-2.372zm6.553.104c-.759 0-1.442-.152-2.05-.455a3.55 3.55 0 01-1.406-1.287c-.34-.546-.51-1.166-.51-1.859 0-.693.17-1.313.51-1.859.34-.546.808-.971 1.406-1.274.608-.312 1.291-.468 2.05-.468.759 0 1.438.156 2.037.468a3.465 3.465 0 011.407 1.274c.339.546.509 1.166.509 1.859 0 .693-.17 1.313-.509 1.859a3.56 3.56 0 01-1.407 1.287c-.599.303-1.278.455-2.037.455zm0-1.664c.536 0 .974-.173 1.313-.52.348-.355.523-.828.523-1.417 0-.589-.175-1.057-.523-1.404-.339-.355-.777-.533-1.313-.533-.536 0-.978.178-1.326.533-.349.347-.523.815-.523 1.404s.174 1.062.523 1.417c.348.347.79.52 1.326.52zm11.873-5.434V118h-2.089v-2.6a4.536 4.536 0 01-2.01.442c-.973 0-1.71-.212-2.211-.637-.49-.433-.736-1.101-.736-2.002v-2.197h2.09v2.067c0 .425.112.732.335.923.232.191.562.286.991.286.545 0 1.058-.113 1.541-.338v-2.938h2.089zm9.015 3.523c0 .026-.014.208-.041.546h-5.452c.098.433.33.776.696 1.027.366.251.822.377 1.367.377.375 0 .705-.052.991-.156.295-.113.567-.286.818-.52l1.111 1.17c-.679.754-1.67 1.131-2.974 1.131-.813 0-1.532-.152-2.157-.455-.625-.312-1.107-.741-1.446-1.287-.341-.546-.51-1.166-.51-1.859 0-.685.165-1.3.496-1.846a3.463 3.463 0 011.38-1.287 4.145 4.145 0 011.969-.468c.705 0 1.344.147 1.916.442a3.233 3.233 0 011.34 1.274c.33.546.496 1.183.496 1.911zm-3.738-2.093c-.474 0-.871.13-1.193.39-.321.26-.518.615-.589 1.066h3.55c-.072-.442-.268-.793-.589-1.053-.322-.269-.715-.403-1.179-.403zm11.146.234h-2.438V118h-2.077v-5.33h-2.438v-1.664h6.953v1.664zm9.437 5.33l-1.581-2.145-1.635 2.145h-2.277l2.773-3.523-2.679-3.471h2.344l1.527 2.041 1.568-2.041h2.224l-2.68 3.419 2.787 3.575h-2.371zm6.553.104c-.76 0-1.443-.152-2.05-.455a3.546 3.546 0 01-1.407-1.287c-.339-.546-.509-1.166-.509-1.859 0-.693.17-1.313.509-1.859a3.452 3.452 0 011.407-1.274c.607-.312 1.29-.468 2.05-.468.759 0 1.437.156 2.036.468a3.452 3.452 0 011.407 1.274c.339.546.509 1.166.509 1.859 0 .693-.17 1.313-.509 1.859a3.546 3.546 0 01-1.407 1.287c-.599.303-1.277.455-2.036.455zm0-1.664c.536 0 .974-.173 1.313-.52.348-.355.522-.828.522-1.417 0-.589-.174-1.057-.522-1.404-.339-.355-.777-.533-1.313-.533-.536 0-.978.178-1.326.533-.349.347-.523.815-.523 1.404s.174 1.062.523 1.417c.348.347.79.52 1.326.52zm9.636-5.538c.67 0 1.277.152 1.822.455.554.295.988.715 1.3 1.261.312.537.469 1.166.469 1.885 0 .719-.157 1.352-.469 1.898a3.313 3.313 0 01-1.3 1.261 3.764 3.764 0 01-1.822.442c-.92 0-1.643-.282-2.17-.845v3.263h-2.09v-9.516h1.996v.806c.519-.607 1.273-.91 2.264-.91zm-.361 5.538c.536 0 .973-.173 1.313-.52.348-.355.522-.828.522-1.417 0-.589-.174-1.057-.522-1.404-.34-.355-.777-.533-1.313-.533-.536 0-.978.178-1.327.533-.339.347-.509.815-.509 1.404s.17 1.062.509 1.417c.349.347.791.52 1.327.52zm8.792 1.664c-.758 0-1.442-.152-2.05-.455a3.563 3.563 0 01-1.406-1.287c-.339-.546-.509-1.166-.509-1.859 0-.693.17-1.313.509-1.859.34-.546.809-.971 1.406-1.274.608-.312 1.292-.468 2.05-.468.76 0 1.439.156 2.036.468a3.452 3.452 0 011.407 1.274c.34.546.509 1.166.509 1.859 0 .693-.169 1.313-.509 1.859a3.546 3.546 0 01-1.407 1.287c-.597.303-1.276.455-2.036.455zm0-1.664c.536 0 .974-.173 1.313-.52.348-.355.523-.828.523-1.417 0-.589-.175-1.057-.523-1.404-.339-.355-.777-.533-1.313-.533-.536 0-.978.178-1.326.533-.348.347-.523.815-.523 1.404s.175 1.062.523 1.417c.348.347.79.52 1.326.52zm16.389-5.434V118h-10.999v-6.994h2.076v5.33h2.398v-5.33h2.077v5.33h2.371v-5.33h2.077zm5.381 7.098c-.758 0-1.442-.152-2.05-.455a3.563 3.563 0 01-1.406-1.287c-.339-.546-.509-1.166-.509-1.859 0-.693.17-1.313.509-1.859.34-.546.809-.971 1.406-1.274.608-.312 1.292-.468 2.05-.468.76 0 1.439.156 2.037.468a3.456 3.456 0 011.406 1.274c.34.546.509 1.166.509 1.859 0 .693-.169 1.313-.509 1.859a3.55 3.55 0 01-1.406 1.287c-.598.303-1.277.455-2.037.455zm0-1.664c.536 0 .974-.173 1.313-.52.348-.355.523-.828.523-1.417 0-.589-.175-1.057-.523-1.404-.339-.355-.777-.533-1.313-.533-.536 0-.978.178-1.326.533-.348.347-.523.815-.523 1.404s.175 1.062.523 1.417c.348.347.79.52 1.326.52zm14.69-2.093c.849.277 1.273.832 1.273 1.664 0 .633-.245 1.122-.737 1.469-.491.347-1.223.52-2.197.52h-3.845v-6.994h3.684c.902 0 1.608.16 2.117.481.509.312.764.754.764 1.326 0 .347-.094.654-.282.923-.178.26-.437.464-.777.611zm-3.59-.468h1.581c.733 0 1.098-.251 1.098-.754 0-.494-.365-.741-1.098-.741h-1.581v1.495zm1.755 2.743c.768 0 1.152-.256 1.152-.767 0-.269-.089-.464-.268-.585-.178-.13-.459-.195-.844-.195h-1.795v1.547h1.755zm8.455-3.38c.937.009 1.647.212 2.13.611.482.399.723.971.723 1.716 0 .78-.273 1.382-.817 1.807-.545.425-1.318.637-2.318.637l-3.51-.013v-6.994h2.077v2.236h1.715zm3.63-2.236h2.077V118h-2.077v-6.994zm-4.099 5.564c.402.009.71-.074.924-.247.214-.173.322-.433.322-.78 0-.338-.108-.585-.322-.741-.206-.156-.514-.238-.924-.247l-1.246-.013v2.028h1.246zm13.964-3.9h-3.697V118h-2.077v-6.994h5.774v1.664zm7.498-1.664V118h-2.09v-5.33h-2.278l-.067 1.235c-.036.919-.126 1.681-.268 2.288-.143.607-.375 1.083-.696 1.43-.322.347-.769.52-1.34.52-.304 0-.666-.052-1.085-.156l.107-1.664c.142.017.245.026.308.026.312 0 .544-.108.697-.325.16-.225.268-.507.321-.845.054-.347.094-.802.121-1.365l.107-2.808h6.163zm8.413 0V118h-1.862v-2.002h-1.541L231.17 118h-2.224l1.647-2.288c-.5-.191-.884-.464-1.152-.819-.259-.364-.388-.802-.388-1.313 0-.823.303-1.456.911-1.898.616-.451 1.46-.676 2.532-.676h3.443zm-3.403 1.651c-.447 0-.786.078-1.018.234-.224.156-.335.407-.335.754 0 .347.107.602.321.767.223.156.558.234 1.005.234h1.568v-1.989h-1.541zm13.49 3.679v3.172h-1.943V118h-5.064v1.508h-1.942v-3.172h.294c.447-.009.755-.264.925-.767.17-.503.277-1.218.321-2.145l.094-2.418h6.283v5.33h1.032zm-5.52-2.769c-.027.711-.084 1.291-.174 1.742-.08.451-.237.793-.469 1.027h3.041v-3.666h-2.358l-.04.897zm13.841.962c0 .026-.013.208-.04.546h-5.452c.097.433.33.776.696 1.027.366.251.822.377 1.367.377.375 0 .706-.052.991-.156a2.5 2.5 0 00.817-.52l1.112 1.17c-.679.754-1.67 1.131-2.974 1.131-.813 0-1.531-.152-2.157-.455-.625-.312-1.108-.741-1.447-1.287-.339-.546-.509-1.166-.509-1.859 0-.685.165-1.3.496-1.846a3.47 3.47 0 011.38-1.287 4.142 4.142 0 011.969-.468c.706 0 1.344.147 1.916.442a3.227 3.227 0 011.34 1.274c.33.546.495 1.183.495 1.911zm-3.737-2.093c-.473 0-.871.13-1.193.39-.321.26-.518.615-.589 1.066h3.55c-.071-.442-.268-.793-.59-1.053-.321-.269-.714-.403-1.178-.403zm11.146.234h-2.438V118h-2.077v-5.33h-2.438v-1.664h6.953v1.664zm5.012.572c.938.009 1.657.217 2.157.624.501.399.75.966.75 1.703 0 .771-.281 1.374-.844 1.807-.553.425-1.334.637-2.344.637L262.87 118v-6.994h2.076v2.236h1.822zm-.469 3.328c.402.009.71-.074.925-.247.214-.173.321-.433.321-.78 0-.338-.107-.585-.321-.741-.205-.156-.513-.238-.925-.247l-1.353-.013v2.028h1.353z" fill="#081E33"/></svg><svg fill="none" viewBox="0 0 270 82" id="logo-simp" xmlns="http://www.w3.org/2000/svg"><path d="M96.142 26.327a15.117 15.117 0 00-1.504-1.106c-.791-.527-1.16-1.265-1.107-2.213l.077-1.187c0-.263.13-.446.397-.555.422-.053.961-.251 1.622-.592.657-.34 1.265-.855 1.82-1.54.556-.684 1.043-1.568 1.465-2.645.421-1.078.656-2.411.713-3.992 0-1.79-.17-3.172-.515-4.149-.344-.972-.701-1.698-1.066-2.172-.475-.58-1.03-.895-1.663-.948-.949.053-1.674.357-2.173.908a5.627 5.627 0 00-1.148 1.977 7.235 7.235 0 00-.397 2.37v1.937a.647.647 0 01-.276.357c-.134.081-.276.065-.434-.04a6.416 6.416 0 01-1.54-1.621c-.45-.657-.75-1.147-.909-1.463-.105-.158-.134-.397-.077-.713.21-2.002.762-3.477 1.662-4.425.897-.948 1.793-1.605 2.689-1.977 1.16-.37 2.425-.475 3.795-.317 1.424.211 2.689.714 3.796 1.504 1.002.685 1.869 1.726 2.611 3.12.738 1.398 1.079 3.335 1.03 5.806.053 2.424-.292 4.296-1.03 5.612-.738 1.317-1.609 2.294-2.611 2.926-1.054.737-2.267 1.159-3.637 1.264 1.001.369 1.922.79 2.769 1.264l4.667-2.293a197.09 197.09 0 012.928-.948 31.589 31.589 0 013.005-.79c.527-.106.949.052 1.265.474.158.21.183.45.077.713-.211.263-.422.45-.632.555-.633.105-1.476.316-2.531.632-2.477.843-4.744 1.82-6.8 2.926 1.74 1.316 3.005 2.633 3.795 3.95a12.584 12.584 0 011.505 3.951c.316 1.159.58 2.82.791 4.98.21 2.16.235 4.32.077 6.48a43.789 43.789 0 01-.949 6.401 18.792 18.792 0 01-2.689 5.69 15.592 15.592 0 01-3.321 3.873c-1.159.948-2.558 1.844-4.193 2.687-1.686.842-3.69 1.316-6.01 1.422-2.055.105-3.847-.45-5.376-1.662-1.529-1.264-2.689-2.897-3.48-4.899-.895-2.001-1.37-4.242-1.422-6.718a20.03 20.03 0 011.265-7.427c.527-1.422 1.236-2.95 2.137-4.583a39.143 39.143 0 013.402-4.899c1.265-1.738 2.77-3.4 4.509-4.98a35.699 35.699 0 013.621-2.925zm4.193 28.923c1.107-2.054 1.764-4.425 1.979-7.111a44.051 44.051 0 00-.235-7.902c-.317-2.686-.791-4.898-1.424-6.637-.632-2.054-1.634-4.056-3.005-6.005-1.317.843-3.057 2.294-5.218 4.348-2.214 2.107-4.193 4.635-5.933 7.585a24.688 24.688 0 00-2.056 4.98c-.527 1.528-.843 3.266-.948 5.215-.106 1.95.158 3.98.79 6.086.422 1.422.95 2.529 1.582 3.319.58.737 1.188 1.288 1.82 1.661a6.738 6.738 0 002.137.871c1.74.264 3.244.077 4.51-.555a11.329 11.329 0 003.32-2.293c1.043-.953 1.939-2.14 2.681-3.562zm32.505-15.175c0 .369.024.737.077 1.106.053.316.093.632.117.948.025.316.094.527.199.632.58-.579 1.16-1.288 1.74-2.135a38.988 38.988 0 001.581-2.488c.475-.814.872-1.568 1.188-2.253a60.66 60.66 0 01.714-1.503c.105-.264.288-.34.555-.24h.082c.579.211.762.609.555 1.188-1.37 2.95-2.611 5.256-3.718 6.917-1.107 1.661-2.137 2.856-3.086 3.594-.053.58-.093 1.187-.118 1.82a18.555 18.555 0 01-.198 1.977 51.65 51.65 0 012.173.198c.714.077 1.464.199 2.255.357.896.21 1.686.498 2.372.871.58.316 1.078.737 1.504 1.264.422.527.58 1.187.475 1.978 0 .316-.081.632-.236.948-.105.263-.292.539-.555.83a2.62 2.62 0 01-1.03.673c-.685.263-1.399.288-2.137.077-.738-.21-1.371-.502-1.898-.871-.422-.316-.937-.66-1.541-1.03a27.573 27.573 0 00-2.023-1.106 27.715 27.715 0 01-1.241 4.069c-.507 1.288-1.119 2.398-1.841 3.318-.722.92-1.573 1.621-2.555 2.095-.985.474-2.108.632-3.373.474-2.003-.21-3.427-.924-4.27-2.135-.844-1.212-1.148-2.557-.909-4.032.236-1.475 1.03-2.913 2.373-4.307 1.346-1.398 3.256-2.44 5.733-3.12.106-2.16.106-4.214 0-6.163-.579.895-1.399 1.608-2.453 2.135-1.054.527-2.295.737-3.718.632-1.107-.053-2.243-.486-3.402-1.305-1.16-.814-2.174-1.924-3.046-3.318-.872-1.394-1.516-3.015-1.938-4.858-.422-1.844-.422-3.846 0-6.006s1.042-3.857 1.857-5.097c.815-1.236 1.646-2.172 2.49-2.804a8.035 8.035 0 013.163-1.503c1.476-.211 2.729-.118 3.755.275 1.03.397 1.885.896 2.571 1.504.685.607 1.204 1.223 1.549 1.855.344.633.571 1.054.681 1.265.584-.474 1.346-.896 2.279-1.265.932-.368 2.068-.58 3.398-.632.369 0 .555.211.555.632a202.18 202.18 0 00-.198 2.768 511.374 511.374 0 00-.236 3.91 234.837 234.837 0 00-.198 4.19 105.93 105.93 0 00-.073 3.671zm-10.677 4.429c1.16-.474 1.979-1.078 2.453-1.82.475-.737.791-1.345.949-1.819a35.574 35.574 0 01-.316-3.436 76.331 76.331 0 01-.081-3.4c0-1.078.024-2.042.081-2.885.053-.842.077-1.475.077-1.896v-.75c0-.34-.065-.725-.199-1.146a4.783 4.783 0 00-.592-1.224c-.263-.397-.632-.725-1.107-.989-.58-.263-1.224-.235-1.938.081s-1.371.896-1.979 1.739c-.608.842-1.107 1.924-1.504 3.241-.398 1.317-.568 2.845-.515 4.583.105 2.002.304 3.594.592 4.781.288 1.188.592 2.172.908 2.962a3.726 3.726 0 001.306 1.698c.608.45 1.228.543 1.865.28zm-1.111 16.674c.738.21 1.411.08 2.015-.397a3.97 3.97 0 001.306-1.82c.316-.79.58-1.697.791-2.727.211-1.029.369-2.123.474-3.278a.81.81 0 00-.276.04.917.917 0 01-.275.041 9.983 9.983 0 00-2.214.871c-.58.37-1.176.843-1.781 1.423-.608.58-1.042 1.37-1.305 2.37a3.76 3.76 0 00-.158 1.504c.052.42.17.814.356 1.187.187.364.54.628 1.067.786z" fill="#081E33"/><path d="M156.801 27.352c.316.474.397 1.03.235 1.661-.422 1.16-.896 2.16-1.423 3.003.053.632.081 1.305.081 2.014 0 .709-.053 1.434-.158 2.172-.264 2.317-.779 4.149-1.541 5.494-.766 1.345-1.541 2.383-2.332 3.12-.949.896-1.979 1.503-3.086 1.82-1.95.42-3.613.316-4.983-.317-1.371-.632-2.466-1.604-3.281-2.925-.819-1.317-1.358-2.832-1.622-4.542a15.539 15.539 0 01.077-5.175 5.8 5.8 0 01.317-1.187 9.89 9.89 0 01.434-1.187c.182-.422.433-.843.75-1.265a6.89 6.89 0 01.434-2.803 9.14 9.14 0 011.423-2.529 7.522 7.522 0 012.137-1.856 5.84 5.84 0 012.648-.79c1.95-.158 3.69.434 5.219 1.779 1.528 1.345 2.583 3.278 3.162 5.806.264-.474.487-.895.674-1.264.182-.369.328-.684.434-.948 0-.105.04-.17.117-.198.085-.025.179.012.284.117zm-4.903 10.908a4.2 4.2 0 00.199-1.03c.024-.368.065-.712.118-1.028.052-.37.105-.762.158-1.188-1.213.685-2.478 1.082-3.796 1.188-1.317.105-2.558-.053-3.718-.474a43.784 43.784 0 00-.118 2.487 13.61 13.61 0 00.236 2.962c.182.949.527 1.727 1.03 2.33.498.608 1.224.803 2.173.592.158-.053.381-.13.673-.24.288-.104.621-.34.99-.712.369-.369.738-.936 1.107-1.698.369-.754.685-1.82.948-3.189zm-4.192-13.436c-1.16.105-2.032.895-2.612 2.37h.791c.263 0 .555.028.872.077a.61.61 0 01.357.316c.077.158.064.345-.041.555-.264.422-.556.989-.872 1.698a18.09 18.09 0 00-.872 2.488c.264.369.556.644.872.83.316.187.604.329.872.434.316.158.657.24 1.03.24.896.105 1.699.052 2.413-.159a6.31 6.31 0 001.938-.948c-.053-2.845-.58-4.899-1.581-6.163-1.006-1.264-2.06-1.844-3.167-1.738zm35.274 9.327c.264.105.434.263.515.474.081.211.065.45-.041.713-1.423 3.214-2.793 5.742-4.111 7.586-.422.684-.872 1.147-1.347 1.382a4.16 4.16 0 01-1.423.433c-.527 0-.896-.053-1.107-.158a5.49 5.49 0 01-1.107 1.106 7.325 7.325 0 01-1.821 1.106 5.644 5.644 0 01-1.938.474c-.714.053-1.464-.133-2.254-.555a3.443 3.443 0 01-.949-.79c-.264-.263-.503-.62-.714-1.065a4.527 4.527 0 01-.397-1.54 7.67 7.67 0 01.04-1.739c.081-.632.357-1.288.831-1.977.58-.895 1.266-1.236 2.056-1.03.791.212 1.606.633 2.454 1.265.105-.421.21-.855.316-1.305.105-.445.211-.83.316-1.146.106-.37.158-.738.158-1.106.422-2.687.58-4.794.475-6.322-.106-1.527-.317-2.686-.633-3.476-.369-.948-.843-1.552-1.423-1.82-.896.158-1.675.66-2.332 1.504-.661.843-1.2 1.79-1.622 2.844a22.867 22.867 0 00-.989 3.043c-.235.977-.381 1.65-.434 2.014a342.747 342.747 0 00-.908 15.568 170.061 170.061 0 00.117 15.175.819.819 0 01-.275.79 1.22 1.22 0 01-.832.316c-1.159-.106-2.043-.422-2.648-.948-.608-.527-1.066-1.082-1.382-1.662a6.484 6.484 0 01-.714-2.293c-.316-2.37-.556-5.098-.714-8.181a214.6 214.6 0 01-.276-9.247c-.024-3.083-.012-5.968.041-8.655.053-2.686.13-4.77.235-6.244.106-1.106.341-2.002.714-2.686.369-.685.92-1.289 1.662-1.82.897-.685 1.805-1.187 2.729-1.503.921-.316 1.7-.527 2.332-.632.264-.053.515.028.75.239.235.21.329.45.276.713-.105.527-.17 1.053-.199 1.58a13.29 13.29 0 01-.198 1.662 13.424 13.424 0 012.769-3.12c1.107-.92 2.478-1.277 4.112-1.066 1.581.158 2.847.989 3.795 2.488.949 1.503 1.582 3.306 1.898 5.413.316 2.107.304 4.308-.04 6.601-.345 2.293-1.014 4.336-2.016 6.127.369 0 .714-.211 1.03-.633a22.141 22.141 0 001.541-2.094 36.45 36.45 0 002.376-4.19c.288-.604.487-1.066.592-1.382.106-.263.288-.34.556-.239h.158v.008zm-13.207 9.405c.264-.105.499-.34.714-.713a10.8 10.8 0 00.632-1.346 6.33 6.33 0 00-1.504-.87c-.527-.211-.896-.183-1.107.08-.158.211-.252.503-.276.871-.028.37 0 .726.077 1.066.081.345.235.608.475.79.235.187.563.227.989.122z" fill="#081E33"/><path d="M200.85 27.352c.316.474.397 1.03.235 1.661-.422 1.16-.896 2.16-1.423 3.003.052.632.081 1.305.081 2.014 0 .709-.053 1.434-.158 2.172-.264 2.317-.779 4.149-1.541 5.494-.767 1.345-1.541 2.383-2.332 3.12-.949.896-1.979 1.503-3.086 1.82-1.95.42-3.613.316-4.983-.317-1.371-.632-2.466-1.604-3.281-2.925-.819-1.317-1.358-2.832-1.622-4.542a15.539 15.539 0 01.077-5.175c.053-.368.158-.761.316-1.187.106-.369.252-.762.434-1.187.183-.422.434-.843.751-1.265a6.906 6.906 0 01.433-2.803 9.14 9.14 0 011.424-2.529 7.522 7.522 0 012.137-1.856 5.84 5.84 0 012.648-.79c1.95-.158 3.69.434 5.218 1.779 1.529 1.345 2.583 3.278 3.163 5.806.264-.474.487-.895.673-1.264.183-.369.329-.684.434-.948 0-.105.041-.17.118-.198.089-.025.178.012.284.117zm-4.903 10.908a4.2 4.2 0 00.199-1.03c.024-.368.065-.712.118-1.028.052-.37.105-.762.158-1.188-1.213.685-2.478 1.082-3.796 1.188-1.318.105-2.558-.053-3.718-.474a43.784 43.784 0 00-.118 2.487c-.028 1.03.053 2.014.235 2.962.183.949.528 1.727 1.03 2.33.499.608 1.225.803 2.174.592.158-.053.381-.13.673-.24.288-.104.62-.34.989-.712.369-.369.738-.936 1.107-1.698.369-.754.686-1.82.949-3.189zm-4.189-13.436c-1.159.105-2.031.895-2.611 2.37h.791c.263 0 .555.028.872.077a.606.606 0 01.356.316c.077.158.065.345-.04.555-.264.422-.556.989-.872 1.698a18.09 18.09 0 00-.872 2.488c.264.369.556.644.872.83.316.187.604.329.872.434.316.158.657.24 1.03.24.896.105 1.699.052 2.413-.159a6.31 6.31 0 001.938-.948c-.053-2.845-.58-4.899-1.582-6.163-1.009-1.264-2.06-1.844-3.167-1.738z" fill="#081E33"/><path d="M221.336 34.07c.106 1.897-.134 3.874-.709 5.928-.264 1.054-.527 1.897-.791 2.529.369 0 .71-.211 1.03-.632a25.015 25.015 0 001.581-2.136c.475-.737.921-1.475 1.347-2.212a74.96 74.96 0 001.03-1.978c.263-.579.474-1.029.632-1.345.106-.263.264-.34.475-.235h.158c.263.105.446.264.555.474.053.21.025.45-.077.713-1.423 3.214-2.794 5.742-4.112 7.586-.421.684-.871 1.134-1.346 1.345a3.785 3.785 0 01-1.423.474c-.475 0-.844-.053-1.107-.158l-.475.555-.555.555a7.325 7.325 0 01-1.821 1.106 5.585 5.585 0 01-1.897.475c-.738.052-1.505-.134-2.296-.556a3.165 3.165 0 01-1.03-.79c-.263-.263-.502-.632-.713-1.106-.211-.421-.345-.92-.394-1.503a6.645 6.645 0 01.077-1.739c.053-.632.317-1.288.791-1.977.58-.895 1.265-1.236 2.056-1.03.791.212 1.634.633 2.53 1.265l.317-1.345c.052-.422.129-.79.235-1.106.263-1.37.397-2.476.397-3.319 0-.316-.028-.632-.081-.948-.105-1.212-.292-2.136-.555-2.768-.369-.79-.82-1.264-1.347-1.422-.843.053-1.581.434-2.214 1.147a9.76 9.76 0 00-1.541 2.33 14.519 14.519 0 00-.908 2.488c-.211.818-.345 1.357-.393 1.62-.738 2.37-.977 5.613-.714 9.721 0 .211-.105.41-.316.592-.211.186-.475.275-.791.275-1.054-.052-1.873-.303-2.453-.75-.58-.445-1.002-.883-1.265-1.304a4.869 4.869 0 01-.714-1.896c-.316-2.002-.556-2.926-.71-2.768-.158.158-.21-.762-.158-2.767-1.212.21-2.344.21-3.402 0-.316-.053-.474-.37-.474-.948.105-.738.316-1.054.632-.949l1.265.158a67.49 67.49 0 001.188-.158c.317-.052.609-.077.872-.077 0-1.106.029-2.026.081-2.767v-3.95a90.88 90.88 0 01.394-6.796c.211-2.318.58-4.53 1.107-6.637.474-2.002 1.131-3.793 1.979-5.373.474-1.054 1.001-1.844 1.581-2.37.527-.422 1.03-.738 1.504-.949.475-.105.897-.13 1.266-.08.369.052.632.157.79.315 1.16.422 2.081 1.503 2.77 3.242a16.17 16.17 0 01.872 5.296 36.475 36.475 0 01-.633 5.77 23.85 23.85 0 01-1.504 5.215l-.791 1.896c.316-.369.633-.656.949-.871 1.001-.738 2.267-1.03 3.795-.871 1.476.158 2.66.843 3.561 2.054.896 1.212 1.504 2.662 1.82 4.348.045.377.073.745.073 1.114zm-10.518-10.272l.393-1.58c.105-.369.182-.871.235-1.503a15.08 15.08 0 00.398-1.738c.21-1.897.21-3.449 0-4.664-.159-1.16-.369-2.08-.633-2.768-.369-.843-.766-1.422-1.188-1.738-.791-.422-1.452.08-1.979 1.503-.527 1.37-.977 3.189-1.346 5.454a158.374 158.374 0 00-.633 7.983 118.314 118.314 0 00-.158 8.533c.316-.263.657-.656 1.03-1.187.422-.422.815-.948 1.188-1.58 1.164-2.055 2.06-4.292 2.693-6.715zm2.056 19.6c.263-.106.498-.34.713-.713.211-.369.446-.815.71-1.346a8.044 8.044 0 00-1.582-.87c-.527-.211-.896-.183-1.107.076-.158.211-.235.503-.235.871-.053.37-.028.714.077 1.03.106.368.264.632.475.79.211.215.527.267.949.162z" fill="#081E33"/><path d="M243.796 27.352c.317.474.398 1.03.239 1.661-.421 1.16-.896 2.16-1.423 3.003.053.632.077 1.305.077 2.014 0 .709-.053 1.434-.158 2.172-.264 2.317-.779 4.149-1.541 5.494-.766 1.345-1.541 2.383-2.331 3.12-.949.896-1.979 1.503-3.086 1.82-1.951.42-3.613.316-4.984-.317-1.37-.632-2.465-1.604-3.28-2.925-.819-1.317-1.359-2.832-1.622-4.542a15.487 15.487 0 01.081-5.175 5.73 5.73 0 01.316-1.187 9.89 9.89 0 01.434-1.187c.182-.422.434-.843.75-1.265a6.89 6.89 0 01.434-2.803 9.162 9.162 0 011.423-2.529 7.522 7.522 0 012.137-1.856 5.84 5.84 0 012.648-.79c1.951-.158 3.69.434 5.219 1.779 1.529 1.345 2.583 3.278 3.163 5.806.263-.474.486-.895.673-1.264.182-.369.328-.684.434-.948 0-.105.04-.17.117-.198.082-.025.175.012.28.117zm-4.902 10.908c.105-.316.17-.656.198-1.03.025-.368.065-.712.118-1.028.053-.37.105-.762.158-1.188-1.212.685-2.477 1.082-3.795 1.188-1.318.105-2.559-.053-3.719-.474a43.93 43.93 0 00-.117 2.487c-.029 1.03.052 2.014.235 2.962.182.949.527 1.727 1.03 2.33.499.608 1.224.803 2.173.592.158-.053.381-.13.673-.24.288-.104.621-.34.99-.712.369-.369.738-.936 1.107-1.698.365-.754.681-1.82.949-3.189zm-4.193-13.436c-1.16.105-2.032.895-2.612 2.37h.791c.264 0 .556.028.872.077a.607.607 0 01.357.316c.081.158.065.345-.041.555-.263.422-.555.989-.872 1.698-.316.71-.608 1.54-.871 2.488.263.369.555.644.871.83.317.187.605.329.872.434.317.158.657.24 1.03.24.896.105 1.699.052 2.413-.159a6.343 6.343 0 001.938-.948c-.052-2.845-.58-4.899-1.581-6.163-1.006-1.264-2.06-1.844-3.167-1.738zm31.475 9.328c.264.105.434.263.515.474.077.21.065.45-.04.713a85.797 85.797 0 01-1.663 3.436 46.674 46.674 0 01-1.504 2.727c-.897 1.37-1.927 2.529-3.086 3.477-1.002.79-2.214 1.434-3.638 1.937-1.423.498-3.057.461-4.902-.118-1.002-.316-2.015-.948-3.045-1.896-1.03-.949-1.886-2.136-2.571-3.558-.686-1.422-1.136-3.043-1.347-4.858-.21-1.816 0-3.78.633-5.888.58-2.054 1.33-3.647 2.255-4.781.92-1.13 1.833-1.99 2.729-2.57 1.001-.631 2.056-1 3.163-1.105 1.317-.106 2.424.04 3.321.433.896.397 1.634.884 2.214 1.463a6.548 6.548 0 011.107 1.661c.263.527.409 1.135.434 1.82.024.684-.146 1.475-.515 2.37a6.23 6.23 0 01-1.821 2.37c-.685.58-1.61 1.042-2.77 1.382-1.159.345-2.635.381-4.428.118 0 .158-.012.316-.04.474a2.619 2.619 0 00-.041.474c-.105 1.738-.053 3.318.158 4.74a11.196 11.196 0 001.188 3.437c.58 1.082 1.505 1.673 2.77 1.779a4.383 4.383 0 002.571-.474 9.844 9.844 0 002.173-1.504 17.115 17.115 0 002.137-2.212 40.388 40.388 0 002.097-3.594c.604-1.188 1.013-2.014 1.224-2.488.106-.264.288-.34.556-.24h.166zm-7.591-8.773c-.369-.369-.872-.474-1.504-.316-.633.158-1.294.539-1.979 1.147s-1.346 1.398-1.979 2.37c-.633.977-1.135 2.095-1.504 3.36a7.298 7.298 0 001.581.157 7.05 7.05 0 001.78-.235 8.113 8.113 0 001.74-.672c.555-.288 1.042-.726 1.464-1.305.474-.685.778-1.305.908-1.856.13-.555.146-1.041.041-1.463-.102-.478-.284-.87-.548-1.187zm-68.136 38.575h-7.161v17.1h-7.21v-17.1h-7.259v-6.917h21.634v6.917h-.004zm14.37 11.337c1.971 0 3.654-.77 4.615-1.823l5.766 3.314c-2.356 3.266-5.912 4.948-10.478 4.948-8.22 0-13.317-5.523-13.317-12.683s5.191-12.683 12.786-12.683c7.019 0 12.209 5.43 12.209 12.683 0 1.009-.097 1.97-.288 2.881h-17.063c.916 2.5 3.126 3.363 5.77 3.363zm4.424-8.74c-.77-2.788-2.932-3.797-5.097-3.797-2.741 0-4.566 1.346-5.239 3.797h10.336zm31.195 14.506h-7.21v-17.1h-5.19v7.157c0 7.253-3.654 10.758-10.673 9.943v-6.726c2.259.673 3.463-.721 3.463-3.7V57.038h19.614v24.02h-.004zm4.084-12.01c0-7.156 5.673-12.683 12.737-12.683S270 61.887 270 69.047s-5.673 12.683-12.741 12.683-12.737-5.527-12.737-12.683zm18.268 0c0-3.412-2.404-5.669-5.527-5.669-3.122 0-5.527 2.257-5.527 5.669 0 3.412 2.405 5.669 5.527 5.669 3.123 0 5.527-2.257 5.527-5.669z" fill="#081E33"/><path d="M36.685 25.727c-2.502-6.021-4.603-14.1.162-20.175C41.177.033 49.928-1.51 57.317 1.55c-3.451 2.018-5.32 9.165-8.836 13.469-6.683 8.18-10.608 8.172-11.796 10.71z" fill="#5B8F31"/><path d="M45.175 6.043c-2.214 1.827-5.843 4.789-7.263 9.643a32.395 32.395 0 00-1.273 9.94l.04.101c1.189-2.536 5.118-2.528 11.797-10.705C51.99 10.714 53.86 3.57 57.31 1.552c-.036-.015-.073-.027-.11-.044-4.565-.535-9.942 2.816-12.026 4.535z" fill="#55862D"/><path d="M37.917 15.686c1.419-4.854 5.044-7.816 7.262-9.643 2.084-1.718 7.461-5.07 12.027-4.535-7.364-2.998-16.05-1.446-20.36 4.044-4.74 6.038-2.688 14.06-.203 20.074a32.282 32.282 0 011.274-9.94z" fill="#9DDB16"/><path d="M36.794 28.414c-.313-2.699-.394-5.438-.05-8.153.337-2.71 1.144-5.38 2.474-7.78 1.347-2.39 3.212-4.477 5.381-6.138 2.17-1.67 4.595-2.958 7.109-3.988l-1.82.92-.455.227-.438.26-.876.518c-.292.174-.588.332-.872.519l-.835.575-.835.576c-.272.198-.523.425-.787.636-2.1 1.69-3.925 3.732-5.219 6.09-1.334 2.338-2.125 4.96-2.522 7.626-.09.668-.154 1.341-.231 2.014l-.101 2.03-.005 2.034.082 2.034z" fill="#2C602C"/><path d="M36.805 12.93c-.04.382-.02.762.02 1.14.045.376.094.753.17 1.126.07.373.163.741.252 1.106.094.365.203.733.349 1.062l-.182-.073c.462-.179.924-.276 1.395-.361a23.53 23.53 0 011.407-.21 23.7 23.7 0 011.415-.102c.474-.012.949-.016 1.419.065-.474-.008-.94.044-1.407.097a23.06 23.06 0 00-1.395.195c-.466.064-.929.145-1.387.239-.454.097-.916.194-1.342.34l-.13.045-.048-.118a6.814 6.814 0 01-.345-1.118 9.983 9.983 0 01-.199-1.139 9.93 9.93 0 01-.093-1.15c-.004-.382.004-.77.101-1.143zm2.563-5.1c.008.62.093 1.227.235 1.818.15.588.365 1.163.698 1.65l-.15-.061c1.042-.203 2.088-.203 3.13-.158 1.038.065 2.076.186 3.086.433a33.055 33.055 0 00-3.094-.178 28.17 28.17 0 00-1.54.024c-.512.029-1.027.07-1.521.162l-.098.02-.052-.08c-.357-.54-.552-1.155-.657-1.771a5.617 5.617 0 01-.037-1.86zm3.475-4.008a6.756 6.756 0 00.02 1.876 5.43 5.43 0 00.589 1.743l-.158-.073c1.046-.187 2.092-.179 3.134-.118.52.04 1.038.098 1.553.183.511.093 1.026.206 1.513.393-1.014-.223-2.048-.296-3.078-.32a24.55 24.55 0 00-1.545.008c-.51.024-1.026.056-1.525.141l-.105.02-.049-.092a4.635 4.635 0 01-.535-1.86 5.256 5.256 0 01.187-1.9zm5.057-1.84c-.093.414-.162.831-.207 1.248-.032.414-.06.843.05 1.224l-.119-.069a7.33 7.33 0 011.927-.182 6.816 6.816 0 011.893.34c-.632-.11-1.265-.17-1.897-.162a9.407 9.407 0 00-1.878.199l-.097.02-.02-.09c-.11-.44-.074-.878 0-1.3a5.61 5.61 0 01.348-1.228z" fill="#2C602C"/><path d="M53.93 18.726c-8.066 0-14.866 5.4-16.982 12.784-2.113-7.383-8.913-12.784-16.979-12.784-9.756 0-17.667 7.905-17.667 17.654 0 15.803 13.827 27.683 24.013 34.292-.425-1.284-1.22-3.027-1.614-4.117-1.816-5.069-2.44-8.12-2.258-11.726h.004l.154-18.267a.722.722 0 111.444.013l.397 18.53c.377.121.912.19 1.517-.05l.352-18.484a.725.725 0 011.452.004l.26 18.48c.356.13.948.224 1.772-.04l.23-18.44a.723.723 0 111.444-.004l.325 18.424c.357.09.9.158 1.545.04l.393-18.456a.722.722 0 111.444-.013l.162 18.79h-.004c.15 4.862.162 7.35-1.57 10.823-.827 1.66-2.303 4.906-2.303 5.761 0 .17 0 .856-.004 1.84 3.293 1.844 5.49 2.808 5.49 2.808s2.292-.94 5.69-2.78c-1.861-2.925-4.838-5.373-4.29-12.115 1.13-13.93 2.676-25.402 7.485-26.208a.61.61 0 01.718.591V71.56c10.255-6.253 25.043-18.206 25.043-35.176.004-9.753-7.903-17.658-17.663-17.658z" fill="#446C25"/><path d="M47.174 73.095c3.613-2.22 7.088-4.68 10.316-7.436 3.224-2.751 6.216-5.794 8.763-9.186 2.546-3.383 4.643-7.127 5.953-11.159a31.136 31.136 0 001.35-6.191c.231-2.1.284-4.235-.045-6.321-.32-2.083-.977-4.121-1.983-5.981a19.093 19.093 0 00-3.888-4.96 18.876 18.876 0 00-5.292-3.42 19.071 19.071 0 00-6.135-1.422c-4.213-.3-8.504.928-11.942 3.371-3.45 2.427-6.038 6.046-7.198 10.102l-.121.43-.122-.43c-1.135-3.995-3.666-7.565-7.035-9.988-3.358-2.44-7.555-3.708-11.703-3.51-4.165.106-8.224 1.784-11.383 4.462-3.187 2.683-5.356 6.487-6.196 10.552l-.235 1.54c-.065.514-.065 1.036-.097 1.555-.045.519-.012 1.038 0 1.56 0 .523.057 1.038.097 1.556a29.634 29.634 0 001.209 6.115c1.22 3.987 3.244 7.698 5.705 11.062 2.457 3.37 5.353 6.414 8.47 9.186 3.12 2.775 6.48 5.275 9.976 7.56-3.503-2.269-6.877-4.752-10.016-7.516-3.134-2.76-6.046-5.79-8.527-9.158-2.478-3.363-4.51-7.086-5.746-11.09a29.645 29.645 0 01-1.225-6.147c-.04-.522-.097-1.041-.101-1.568-.012-.522-.045-1.045 0-1.568.032-.523.032-1.05.097-1.568l.235-1.556c.84-4.1 3.021-7.95 6.237-10.66 3.187-2.712 7.287-4.413 11.5-4.527 4.197-.207 8.446 1.066 11.849 3.53 3.414 2.447 5.98 6.061 7.14 10.105h-.243c1.176-4.113 3.812-7.772 7.307-10.223 3.483-2.468 7.83-3.704 12.088-3.396a19.28 19.28 0 016.204 1.45 19.058 19.058 0 015.34 3.465c1.57 1.439 2.9 3.14 3.918 5.013a18.754 18.754 0 011.99 6.041c.325 2.107.272 4.255.033 6.362a31.443 31.443 0 01-1.366 6.22c-1.322 4.044-3.43 7.804-5.994 11.187-2.57 3.388-5.58 6.419-8.82 9.158-3.251 2.755-6.739 5.195-10.364 7.399z" fill="#9DDB16"/><path d="M36.952 31.51c-2.117-7.383-8.917-12.784-16.983-12.784-9.756 0-17.667 7.905-17.667 17.654 0 15.803 13.827 27.683 24.013 34.292-.425-1.284-1.22-3.027-1.614-4.117-1.816-5.069-2.44-8.12-2.258-11.726h.004l.154-18.267a.722.722 0 111.444.013l.397 18.53c.377.121.912.19 1.517-.05l.352-18.484a.725.725 0 011.452.004l.26 18.48c.356.13.948.224 1.772-.04l.23-18.44a.723.723 0 111.444-.004l.325 18.424c.357.09.9.158 1.545.04l.393-18.456a.722.722 0 111.444-.013l.162 18.79h-.004c.15 4.862.162 7.35-1.57 10.823-.827 1.66-2.303 4.906-2.303 5.761 0 .17 0 .856-.004 1.84 3.293 1.844 5.49 2.808 5.49 2.808s.005-.004.009-.004V31.485c0 .008-.004.017-.004.025z" fill="#9DDB16"/></svg><svg fill="none" viewBox="0 0 48 48" id="mail" xmlns="http://www.w3.org/2000/svg"><path d="M0 24C0 10.745 10.745 0 24 0s24 10.745 24 24-10.745 24-24 24S0 37.255 0 24z" fill="#005FF9"/><path fill-rule="evenodd" clip-rule="evenodd" d="M10 23.96C10 16.262 16.28 10 24 10s14 6.262 14 13.96c0 1.09-.091 1.974-.295 2.86l-.003.014c0 .003-.102.412-.158.59-.346 1.103-.972 2.022-1.811 2.657a4.736 4.736 0 01-3.219.941 4.554 4.554 0 01-3.497-2.085A7.035 7.035 0 0124 31.022c-3.905 0-7.082-3.168-7.082-7.062 0-3.893 3.177-7.061 7.082-7.061 3.904 0 7.081 3.168 7.081 7.061v2.277c.006 1.328.9 1.87 1.663 1.932.76.059 1.771-.383 2.123-1.823.174-.79.262-1.593.262-2.386 0-6.12-4.992-11.098-11.13-11.098-6.136 0-11.129 4.979-11.129 11.098 0 6.12 4.993 11.099 11.13 11.099 2.136 0 4.214-.609 6.008-1.76l.032-.02 1.886 2.186-.04.028A13.946 13.946 0 0124 37.92c-7.72 0-14-6.263-14-13.96zm14 4.2a4.21 4.21 0 004.21-4.2A4.21 4.21 0 0024 19.761a4.21 4.21 0 00-4.211 4.2 4.21 4.21 0 004.21 4.199z" fill="#FF9E00"/></svg><svg fill="none" viewBox="0 0 24 24" id="mdi_clear" xmlns="http://www.w3.org/2000/svg"><path d="M19 6.41L17.59 5 12 10.59 6.41 5 5 6.41 10.59 12 5 17.59 6.41 19 12 13.41 17.59 19 19 17.59 13.41 12 19 6.41z" fill="#000"/></svg><svg fill="none" viewBox="0 0 24 24" id="menu-down-arrow" xmlns="http://www.w3.org/2000/svg"><path d="M6 9l6 6 6-6" stroke="#A2A0A0" stroke-width="2" stroke-linecap="round" stroke-linejoin="round"/></svg><svg fill="none" viewBox="0 0 48 48" id="milk" xmlns="http://www.w3.org/2000/svg"><g clip-path="url(#awclip0)" fill="#D03535"><path d="M36.135 42.441V21.897h-.097c0-3.335-1.933-7.25-2.03-7.395l-3.722-7.783c1.305-.483 2.272-1.74 2.272-3.239A3.466 3.466 0 0029.078 0h-10.2a3.466 3.466 0 00-3.48 3.48 3.4 3.4 0 002.272 3.239l-3.722 7.782c-.145.194-2.079 4.11-2.079 7.396v20.496c0 .096-.193 2.803 1.354 4.398.773.822 1.788 1.209 3.045 1.209h15.468c1.257 0 2.272-.435 3.045-1.209 1.499-1.643 1.354-4.302 1.354-4.35zM17.09 3.481c0-.967.821-1.79 1.788-1.79h10.2c.966 0 1.788.823 1.788 1.79 0 .966-.822 1.788-1.788 1.788h-10.2A1.784 1.784 0 0117.09 3.48zm-3.53 18.416c0-2.9 1.838-6.574 1.838-6.622L19.36 6.96h9.136l4.013 8.314c0 .048 1.836 3.722 1.836 6.622v.725H13.561v-.725zm0 2.466h20.786v8.652H13.561v-8.652zM33.477 45.68c-.435.483-1.015.676-1.788.676H16.22c-.774 0-1.354-.241-1.789-.676-1.015-1.112-.87-3.142-.87-3.19v-7.735h20.785v7.831c0-.048.145 1.982-.87 3.094z"/><path d="M20.666 25.957h-1.643l-.58 1.837a30.096 30.096 0 00-.532 1.982h-.048c-.145-.677-.29-1.354-.484-1.982l-.531-1.837h-1.692l-.339 5.559h1.16l.097-2.127c.048-.677.048-1.547.097-2.32.145.725.338 1.498.483 2.175l.58 2.175h.967l.677-2.175c.193-.628.435-1.45.628-2.175h.097c0 .822.048 1.595.048 2.272l.097 2.127h1.208l-.29-5.511zm2.514 0h-1.256v5.559h1.257v-5.559zm2.369 4.496v-4.496h-1.257v5.559h3.48v-1.063H25.55zm5.607-2.127l1.837-2.369h-1.547l-1.257 1.837c-.145.193-.242.387-.387.628h-.048v-2.465h-1.257v5.559h1.257v-1.837l.483-.58 1.354 2.417h1.45l-1.885-3.19z"/></g><defs><clipPath id="awclip0"><path fill="#fff" d="M0 0h48v48H0z"/></clipPath></defs></svg><svg fill="none" viewBox="0 0 48 48" id="ok" xmlns="http://www.w3.org/2000/svg"><path d="M48 40.976C48 44.856 44.871 48 41.012 48H6.988C3.128 48 0 44.855 0 40.976V7.024C0 3.144 3.129 0 6.988 0h34.024C44.872 0 48 3.145 48 7.024v33.952z" fill="#FAAB62"/><path d="M47.753 40.801c0 3.84-3.097 6.952-6.916 6.952H7.163c-3.82 0-6.917-3.112-6.917-6.952V7.198c0-3.84 3.097-6.952 6.917-6.952h33.674c3.82 0 6.916 3.113 6.916 6.952v33.603z" fill="#F7931E"/><path d="M23.878 10c-3.846 0-6.964 3.134-6.964 7s3.118 7 6.964 7c3.847 0 6.965-3.134 6.965-7s-3.118-7-6.965-7zm0 9.894A2.886 2.886 0 0121 17a2.886 2.886 0 012.878-2.894A2.886 2.886 0 0126.758 17a2.886 2.886 0 01-2.88 2.894zm2.614 10.548c2.835-.58 4.534-1.927 4.623-2 .83-.668.963-1.884.298-2.717a1.92 1.92 0 00-2.706-.299c-.018.014-1.83 1.41-4.81 1.412-2.982-.002-4.832-1.398-4.85-1.412a1.92 1.92 0 00-2.706.299 1.938 1.938 0 00.298 2.717c.09.073 1.86 1.456 4.774 2.023l-4.061 4.261a1.939 1.939 0 00.049 2.733 1.916 1.916 0 002.722-.05l3.773-4.035 4.154 4.062a1.92 1.92 0 002.723-.002 1.94 1.94 0 00-.002-2.734l-4.279-4.258z" fill="#fff"/></svg><svg fill="none" viewBox="0 0 48 48" id="other-social" xmlns="http://www.w3.org/2000/svg"><path d="M24 48c13.255 0 24-10.745 24-24S37.255 0 24 0 0 10.745 0 24s10.745 24 24 24z" fill="#AEAEAE"/><circle cx="12.5" cy="23.5" r="3.5" fill="#fff"/><circle cx="36.5" cy="23.5" r="3.5" fill="#fff"/><circle cx="24.5" cy="23.5" r="3.5" fill="#fff"/></svg><svg fill="none" viewBox="0 0 48 48" id="pan" xmlns="http://www.w3.org/2000/svg"><path d="M27.112 8.824a3.471 3.471 0 00.394-1.574 3.532 3.532 0 00-7.064 0c.005.549.14 1.088.394 1.574-8.435.424-16.145 2.584-16.145 6.347a1.009 1.009 0 001.11 1.01h36.447a1.01 1.01 0 001.009-1.01c0-3.763-7.679-5.923-16.145-6.347zm-3.087-3.077a1.493 1.493 0 110 2.987 1.493 1.493 0 010-2.987zm-16.6 8.456c1.868-1.675 7.942-3.451 16.6-3.451v.04c8.657 0 14.732 1.776 16.598 3.41H7.426zm1.908 6.84a1.01 1.01 0 00-1.009 1.009v10.847a1.01 1.01 0 002.018 0V22.052a1.01 1.01 0 00-1.009-1.009z" fill="#38A428"/><path d="M46.991 21.317h-3.733V18.43a1.01 1.01 0 00-1.01-1.01H5.803a1.01 1.01 0 00-1.01 1.01v2.886H1.01a1.01 1.01 0 000 2.018h3.794v14.893c0 4.47 3.199 6.054 6.206 6.054h26.134c4.47 0 6.054-3.127 6.054-6.054V23.335h3.794a1.01 1.01 0 000-2.018zm-5.752 16.911c0 1.847-.706 4.036-4.036 4.036H10.968c-1.564 0-4.187-.524-4.187-4.036V19.44h34.458v18.788z" fill="#38A428"/></svg><svg fill="none" viewBox="0 0 48 48" id="pepper" xmlns="http://www.w3.org/2000/svg"><g clip-path="url(#baclip0)" fill="#38A428"><path d="M47.11 5.2a3.05 3.05 0 000-4.31 3.05 3.05 0 00-4.31 0l-1.164 1.165a5.63 5.63 0 00-7.785.162 5.607 5.607 0 00-1.644 4.003 2.82 2.82 0 00-1.007-.185c-.753 0-1.46.292-1.989.822a2.793 2.793 0 00-.821 1.989c0 .423.092.832.267 1.203-3.004 2.861-5.648 4.24-7.798 5.359-3.154 1.642-5.513 2.871-5.915 7.368a2.792 2.792 0 00-2.438.786 2.789 2.789 0 00-.817 1.834 2.801 2.801 0 00-1.835.817l-4.64 4.641a1.862 1.862 0 00-.548 1.326c0 .501.195.972.548 1.325l9.28 9.281c.354.353.825.548 1.326.548.502 0 .973-.195 1.326-.548l4.64-4.64a2.8 2.8 0 00.819-1.835 2.79 2.79 0 001.833-.817 2.793 2.793 0 00.786-2.438c4.497-.402 5.726-2.76 7.369-5.915 1.12-2.15 2.497-4.794 5.359-7.798a2.82 2.82 0 003.191-.554 2.823 2.823 0 00.637-2.996h.026c1.44 0 2.881-.547 3.978-1.644a5.586 5.586 0 001.642-3.977c0-1.428-.525-2.77-1.48-3.808L47.108 5.2zm-1.327-2.983c.457.457.457 1.2 0 1.657l-1.16 1.16-1.657-1.657 1.16-1.16a1.174 1.174 0 011.657 0zM20.461 36.82l-4.64 4.64-9.281-9.28 4.64-4.64a.935.935 0 011.326 0l7.955 7.954a.939.939 0 010 1.326zm2.651-2.652a.93.93 0 01-.662.273.93.93 0 01-.663-.273l-7.955-7.954a.93.93 0 01-.272-.663.93.93 0 01.935-.935.93.93 0 01.663.272l7.955 7.955a.93.93 0 01.272.662.932.932 0 01-.273.663zm16.705-16.705a.939.939 0 01-1.325 0h-.001l-.994-.994a.938.938 0 00-1.326 1.326l.341.34c-2.986 3.155-4.417 5.903-5.582 8.14-1.673 3.212-2.537 4.87-6.77 4.963l-7.398-7.397c.093-4.233 1.751-5.097 4.963-6.77 2.237-1.165 4.985-2.597 8.14-5.583l.34.341a.938.938 0 001.326-1.326l-.994-.994a.939.939 0 011.326-1.326l7.954 7.955a.93.93 0 01.273.663.931.931 0 01-.273.662zm4.64-4.64a3.722 3.722 0 01-2.65 1.093 3.723 3.723 0 01-2.653-1.094l-3.977-3.976a3.754 3.754 0 010-5.303 3.754 3.754 0 015.303 0l3.978 3.977a3.722 3.722 0 011.092 2.652 3.722 3.722 0 01-1.092 2.651zM.938 46.125A.937.937 0 10.935 48a.937.937 0 00.002-1.875zm5.625 0A.937.937 0 106.56 48a.937.937 0 00.002-1.875zM.938 40.5a.937.937 0 10-.002 1.875.937.937 0 00.002-1.875zm5.625 0a.937.937 0 10-.002 1.875.937.937 0 00.002-1.875z"/><path d="M33.851 13.21a.937.937 0 10-.002 1.876.937.937 0 00.002-1.875z"/></g><defs><clipPath id="baclip0"><path fill="#fff" d="M0 0h48v48H0z"/></clipPath></defs></svg><svg fill="none" viewBox="0 0 48 48" id="soda" xmlns="http://www.w3.org/2000/svg"><g clip-path="url(#bbclip0)" fill="#D03535"><path d="M23.223 28.393c.027-.169.045-.34.053-.51v-.006c.004-.069.006-.137.006-.206v-8.96c0-.294-.015-.588-.042-.88l-.001-.008a9.295 9.295 0 00-1.17-3.697l-3.099-5.45v-.001l-.568-1a10.022 10.022 0 01-1.025-2.582c.578-.205.993-.754.993-1.4V1.486C18.37.666 17.703 0 16.884 0h-4.379c-.819 0-1.486.667-1.486 1.486v2.207c0 .646.416 1.195.993 1.4-.22.904-.562 1.77-1.024 2.583l-.569 1-3.099 5.45a9.297 9.297 0 00-1.17 3.697v.008a9.244 9.244 0 00-.043.88v8.96c0 .068.002.137.006.205v.007c.008.172.026.344.055.517l.84 4.784a8.202 8.202 0 01-.355 4.053 9.568 9.568 0 00-.546 3.19v.633a9.62 9.62 0 001.199 4.643l.417.754A2.991 2.991 0 0010.339 48h1.54c.613 0 1.193-.295 1.554-.79a.508.508 0 01.41-.21h1.704c.161 0 .314.079.41.21.36.495.94.79 1.553.79h1.54c1.088 0 2.09-.591 2.617-1.543l.417-.754a9.617 9.617 0 001.198-4.643v-.634a9.58 9.58 0 00-.546-3.19 8.195 8.195 0 01-.357-4.045l.844-4.798zM12.505 1.415h4.379a.07.07 0 01.07.07v2.208a.07.07 0 01-.07.07h-4.379a.07.07 0 01-.07-.07V1.486a.07.07 0 01.07-.07zm.94 3.763h2.499a11.43 11.43 0 001.195 3.14H12.25c.552-.986.952-2.04 1.194-3.14zM7.523 18.712l.002-.106h2.07a.708.708 0 100-1.416H7.671c.163-.827.46-1.628.879-2.365l2.895-5.092h6.498l2.895 5.092c.42.738.715 1.538.879 2.365h-8.83a.708.708 0 000 1.416h8.977l.001.106v2.522c-.631-.12-1.03-.408-1.505-.749-.703-.504-1.499-1.076-3.04-1.076s-2.337.572-3.04 1.076c-.63.453-1.128.811-2.213.811-1.085 0-1.583-.358-2.213-.81-.586-.421-1.238-.888-2.332-1.032v-.742zm0 6.11c.631.122 1.03.409 1.505.75.703.505 1.499 1.076 3.04 1.076 1.54 0 2.337-.572 3.04-1.076.63-.453 1.128-.81 2.213-.81 1.085 0 1.583.357 2.214.81.585.42 1.238.887 2.331 1.03v.537H7.523v-2.316zM21.867 41.06a8.2 8.2 0 01-1.022 3.958l-.417.754a1.575 1.575 0 01-1.378.813h-1.54a.508.508 0 01-.41-.209 1.928 1.928 0 00-1.553-.79h-1.704c-.613 0-1.194.295-1.554.79a.508.508 0 01-.41.209h-1.54c-.572 0-1.1-.312-1.378-.813l-.417-.754a8.198 8.198 0 01-1.021-3.958v-.634c0-.928.156-1.843.465-2.719.536-1.52.68-3.164.416-4.761l-.772-4.392h14.125l-.773 4.399a9.622 9.622 0 00.417 4.754c.309.876.466 1.79.466 2.72v.633zm0-15.889c-.632-.12-1.032-.408-1.506-.749-.703-.504-1.499-1.076-3.04-1.076s-2.337.572-3.04 1.076c-.63.453-1.128.811-2.213.811-1.085 0-1.583-.358-2.213-.81-.586-.421-1.238-.888-2.332-1.032v-2.505c.631.12 1.031.408 1.505.749.703.504 1.499 1.076 3.04 1.076s2.337-.572 3.04-1.076c.63-.453 1.128-.81 2.213-.81 1.085 0 1.583.357 2.214.81.585.42 1.238.887 2.332 1.03v2.506zm19.967-.614a1.107 1.107 0 00-1.108-1.012h-12.28c-.58 0-1.056.435-1.108 1.012-.105 1.154-.201 4.229.919 9.15l.036.156a56.826 56.826 0 00.307 1.26c1.24 4.813.81 8.803.444 10.754a1.789 1.789 0 001.76 2.124h7.564c.535 0 1.037-.236 1.378-.648.342-.412.481-.95.382-1.476-.367-1.95-.797-5.941.443-10.754a46.358 46.358 0 00.306-1.254l.038-.163c1.12-4.92 1.023-7.995.919-9.149zM38.657 46.45a.37.37 0 01-.289.135h-7.565a.37.37 0 01-.288-.135.373.373 0 01-.08-.311c.05-.265.1-.566.149-.899 1.21.066 2.58.1 4.002.1a75.76 75.76 0 004.002-.1c.048.333.1.634.149.899a.373.373 0 01-.08.31zM33.46 27.43h6.97c-.025.415-.062.878-.117 1.389l-.005.039-.014.124c-.256 2.198-.715 4.256-.986 5.357-.036.143-.07.285-.108.43a27.18 27.18 0 00-.774 9.063c-1.165.06-2.477.092-3.841.092-1.365 0-2.677-.032-3.841-.093a27.184 27.184 0 00-.774-9.061c-.038-.146-.073-.289-.108-.431-.271-1.102-.73-3.158-.987-5.354l-.014-.13-.004-.034a29.98 29.98 0 01-.118-1.39h1.428a.708.708 0 100-1.416h-1.479c.001-.359.013-.712.036-1.055h11.72c.025.343.036.696.037 1.055h-7.02a.708.708 0 100 1.416z"/></g><defs><clipPath id="bbclip0"><path fill="#fff" d="M0 0h48v48H0z"/></clipPath></defs></svg><svg fill="none" viewBox="0 0 48 48" id="spoon-fork" xmlns="http://www.w3.org/2000/svg"><path d="M29.835 20.359l-1.177 22.356a3.6 3.6 0 107.184 0l-1.177-22.356C37.275 18.936 39 15.362 39 11.25c0-5.376-3.029-9.75-6.75-9.75s-6.75 4.374-6.75 9.75c0 4.113 1.725 7.686 4.335 9.109zM32.25 3c2.895 0 5.25 3.702 5.25 8.25 0 3.708-1.606 6.983-3.904 7.962a.75.75 0 00-.455.73l1.2 22.852a2.101 2.101 0 01-4.077.852 2.101 2.101 0 01-.111-.852l1.207-22.853a.75.75 0 00-.456-.73C28.606 18.233 27 14.959 27 11.252 27 6.7 29.355 3 32.25 3zM13.325 20.546l-1.167 22.169a3.6 3.6 0 107.184 0l-1.167-22.17A6.778 6.778 0 0022.5 14.25v-12a.75.75 0 00-.75-.75h-1.5a.75.75 0 00-.744.657L18.088 13.5h-.134L17.25 2.204a.75.75 0 00-.75-.704H15a.75.75 0 00-.75.704L13.546 13.5h-.134L11.994 2.157a.75.75 0 00-.744-.657h-1.5a.75.75 0 00-.75.75v12a6.777 6.777 0 004.325 6.296zM10.5 3h.088l1.418 11.343a.75.75 0 00.744.657h1.5a.75.75 0 00.75-.703L15.704 3h.092l.704 11.297a.75.75 0 00.75.703h1.5a.75.75 0 00.744-.657L20.912 3H21v11.25a5.268 5.268 0 01-3.81 5.045.75.75 0 00-.54.76l1.2 22.74a2.08 2.08 0 01-.573 1.552 2.147 2.147 0 01-3.042 0 2.082 2.082 0 01-.573-1.553l1.188-22.739a.75.75 0 00-.543-.76A5.268 5.268 0 0110.5 14.25V3z" fill="#38A428"/></svg><svg fill="none" viewBox="0 0 80 80" id="table-main-false" xmlns="http://www.w3.org/2000/svg"><path d="M80 40c0 22.11-17.893 40-40 40C17.89 80 0 62.107 0 40 0 17.89 17.893 0 40 0c22.11 0 40 17.893 40 40zm-6.25 0C73.75 21.345 58.653 6.25 40 6.25 21.345 6.25 6.25 21.347 6.25 40c0 18.655 15.097 33.75 33.75 33.75 18.655 0 33.75-15.097 33.75-33.75z" fill="#D03535"/><rect x="22.051" y="52.941" width="43.686" height="6" rx="3" transform="rotate(-45 22.05 52.941)" fill="#D03535"/><rect x="26.293" y="22.051" width="43.686" height="6" rx="3" transform="rotate(45 26.293 22.05)" fill="#D03535"/></svg><svg fill="none" viewBox="0 0 80 80" id="table-main-right" xmlns="http://www.w3.org/2000/svg"><path d="M57.682 27.308a3.125 3.125 0 010 4.42L36.717 52.691a3.126 3.126 0 01-4.419 0l-9.98-9.98a3.124 3.124 0 114.42-4.42l7.77 7.771 18.754-18.755a3.126 3.126 0 014.42 0zM80 40c0 22.11-17.893 40-40 40C17.89 80 0 62.107 0 40 0 17.89 17.893 0 40 0c22.11 0 40 17.893 40 40zm-6.25 0C73.75 21.345 58.653 6.25 40 6.25 21.345 6.25 6.25 21.347 6.25 40c0 18.655 15.097 33.75 33.75 33.75 18.655 0 33.75-15.097 33.75-33.75z" fill="#38A428"/></svg><svg fill="none" viewBox="0 0 48 48" id="twitter" xmlns="http://www.w3.org/2000/svg"><g clip-path="url(#bfclip0)"><path d="M24 48c13.255 0 24-10.745 24-24S37.255 0 24 0 0 10.745 0 24s10.745 24 24 24z" fill="#55ACEE"/><path d="M38.7 17.249a11.446 11.446 0 01-3.295.902 5.753 5.753 0 002.523-3.173 11.488 11.488 0 01-3.643 1.392 5.731 5.731 0 00-4.189-1.811 5.737 5.737 0 00-5.587 7.044 16.284 16.284 0 01-11.825-5.995 5.712 5.712 0 00-.776 2.884 5.736 5.736 0 002.551 4.775 5.696 5.696 0 01-2.598-.718v.073a5.74 5.74 0 004.602 5.624 5.715 5.715 0 01-2.59.1 5.743 5.743 0 005.358 3.983 11.51 11.51 0 01-7.125 2.456c-.462 0-.92-.027-1.368-.08a16.226 16.226 0 008.793 2.577c10.552 0 16.322-8.741 16.322-16.322 0-.249-.005-.497-.016-.742a11.635 11.635 0 002.863-2.97z" fill="#F1F2F2"/></g><defs><clipPath id="bfclip0"><path fill="#fff" d="M0 0h48v48H0z"/></clipPath></defs></svg><svg fill="none" viewBox="0 0 32 32" id="user-ico" xmlns="http://www.w3.org/2000/svg"><path d="M16 .001c-8.836 0-16 7.163-16 16C0 24.836 7.164 32 16 32c8.837 0 16-7.163 16-16C32 7.164 24.837.001 16 .001zm0 4.784a5.292 5.292 0 110 10.585 5.292 5.292 0 010-10.585zm-.004 23.032a11.742 11.742 0 01-7.646-2.82 2.255 2.255 0 01-.791-1.714c0-2.964 2.398-5.336 5.363-5.336h6.158a5.33 5.33 0 015.354 5.336 2.25 2.25 0 01-.79 1.713 11.738 11.738 0 01-7.647 2.82z" fill="#226C17"/></svg><svg fill="none" viewBox="0 0 28 28" id="visibility" xmlns="http://www.w3.org/2000/svg"><g clip-path="url(#bhclip0)" fill="#E1E1E1"><path d="M14 10.183A3.821 3.821 0 0010.182 14 3.821 3.821 0 0014 17.819a3.821 3.821 0 003.818-3.818A3.821 3.821 0 0014 10.183z"/><path d="M14 4.455c-6.364 0-11.798 3.958-14 9.546 2.202 5.587 7.636 9.545 14 9.545 6.37 0 11.798-3.958 14-9.545-2.202-5.588-7.63-9.546-14-9.546zm0 15.91A6.366 6.366 0 017.636 14 6.366 6.366 0 0114 7.637 6.366 6.366 0 0120.364 14 6.366 6.366 0 0114 20.364z"/></g><defs><clipPath id="bhclip0"><path fill="#fff" d="M0 0h28v28H0z"/></clipPath></defs></svg><svg fill="none" viewBox="0 0 48 48" id="vk" xmlns="http://www.w3.org/2000/svg"><path d="M24 48c13.255 0 24-10.745 24-24S37.255 0 24 0 0 10.745 0 24s10.745 24 24 24z" fill="#4D76A1"/><path fill-rule="evenodd" clip-rule="evenodd" d="M23.094 34.526h1.884s.569-.063.86-.376c.267-.287.258-.827.258-.827s-.037-2.528 1.137-2.9c1.156-.366 2.641 2.443 4.215 3.523 1.19.818 2.095.639 2.095.639l4.208-.059s2.202-.136 1.158-1.867c-.086-.141-.608-1.28-3.13-3.62-2.638-2.45-2.285-2.053.894-6.29 1.936-2.58 2.71-4.156 2.468-4.83-.23-.643-1.654-.473-1.654-.473l-4.739.03s-.351-.048-.612.107c-.254.153-.418.509-.418.509s-.75 1.997-1.75 3.695c-2.11 3.583-2.954 3.772-3.299 3.55-.802-.52-.602-2.084-.602-3.195 0-3.472.527-4.92-1.025-5.295-.515-.125-.894-.207-2.212-.22-1.69-.017-3.121.005-3.932.402-.539.264-.955.852-.701.886.313.042 1.022.192 1.398.704.486.66.469 2.144.469 2.144s.279 4.087-.652 4.595c-.639.348-1.515-.363-3.396-3.613-.964-1.665-1.692-3.506-1.692-3.506s-.14-.344-.39-.528c-.304-.223-.728-.294-.728-.294l-4.503.03s-.676.019-.924.313c-.221.261-.018.802-.018.802s3.525 8.247 7.517 12.404c3.66 3.81 7.816 3.56 7.816 3.56z" fill="#fff"/></svg></svg>