<?xml version="1.0" encoding="UTF-8"?> <svg xmlns="http://www.w3.org/2000/svg" width="316" height="206" viewBox="0 0 316 206" fill="none"> <g clip-path="url(#clip0)"> <path d="M304.035 0C293.157 3.26896 282.279 5.9931 271.401 9.26206C260.523 12.531 249.646 15.2552 238.768 18.5241C232.241 20.1586 226.802 28.8758 226.802 37.0483V59.931V82.8137C226.802 90.9861 232.241 99.7034 238.768 101.338C249.646 104.607 260.523 107.331 271.401 110.6C282.279 113.869 293.157 116.593 304.035 119.862C310.561 121.496 315.456 112.234 316 99.1586V21.2483C316 8.71724 311.105 0 305.666 0C305.122 0 304.578 0 304.035 0Z" fill="#033D41"></path> <path d="M77.2324 18.5291C66.3546 15.2601 55.4768 12.536 44.599 9.26701C33.7212 5.99804 22.8434 3.27391 11.9656 0.00494233C5.4389 -1.62954 0 8.17735 0 22.3429V60.4808V98.6187C0 112.784 5.4389 122.591 11.9656 120.412C22.8434 117.143 33.7212 114.419 44.599 111.15C55.4768 107.881 66.3546 105.157 77.2324 101.888C83.759 100.253 89.1979 91.5359 89.1979 83.3635V59.936V37.0532C89.1979 28.8808 83.759 20.7084 77.2324 18.5291Z" fill="#8FC584"></path> <path d="M181.115 18.5244C186.554 15.2554 191.993 12.5313 197.432 9.26233C202.871 5.99337 208.31 3.26923 213.749 0.000272542C217.012 -1.63421 219.731 8.17268 219.731 21.7933V59.9312V98.0691C219.731 112.235 217.012 122.041 213.749 119.862C208.31 116.593 202.871 113.869 197.432 110.6C191.993 107.331 186.554 104.607 181.115 101.338C177.852 99.7036 175.132 90.9863 175.132 82.8139V59.9312V37.0485C175.132 28.8761 177.852 20.7037 181.115 18.5244Z" fill="#025842"></path> <path d="M134.884 18.5244C129.445 15.2554 124.006 12.5313 118.567 9.26233C113.129 5.99337 107.69 3.26923 102.251 0.000272542C98.9875 -1.63421 96.2681 8.17268 96.2681 21.7933V59.9312V98.0691C96.2681 112.235 98.9875 122.041 102.251 119.862C107.69 116.593 113.129 113.869 118.567 110.6C124.006 107.331 129.445 104.607 134.884 101.338C138.147 99.7036 140.867 90.9863 140.867 82.8139V59.9312V37.0485C140.867 28.8761 138.147 20.7037 134.884 18.5244Z" fill="#6BB86F"></path> <path d="M162.623 18.5244C163.167 15.2554 164.255 12.5313 164.798 9.26233C165.886 5.99337 166.43 3.26923 167.518 0.000272542C168.062 -1.63421 168.606 8.17268 168.606 21.7933V59.9312V98.0691C168.606 112.235 168.062 122.041 167.518 119.862C166.974 116.593 165.886 113.869 164.798 110.6C164.255 107.331 163.167 104.607 162.623 101.338C162.079 99.7036 161.535 90.9863 161.535 82.8139V59.9312V37.0485C161.535 28.8761 162.079 20.7037 162.623 18.5244Z" fill="#08775B"></path> <path d="M153.921 18.5244C152.833 15.2554 152.289 12.5313 151.201 9.26233C150.114 5.99337 149.57 3.26923 148.482 0.000272542C147.938 -1.63421 147.394 8.17267 147.394 21.7933V59.9312V98.0691C147.394 112.235 147.938 122.041 148.482 119.862C149.57 116.593 150.114 113.869 151.201 110.6C152.289 107.331 152.833 104.607 153.921 101.338C154.465 99.7036 155.009 90.9863 155.009 82.8139V59.9312V37.0485C154.465 28.8761 153.921 20.7037 153.921 18.5244Z" fill="#368F3A"></path> <path d="M71.2497 202.676V166.172H61.4597V196.683C60.9158 196.683 60.3719 197.227 59.2841 197.227C58.1964 197.227 57.1086 197.227 56.0208 197.227C53.8452 197.227 52.2136 196.683 51.1258 195.593C50.038 194.503 49.4941 192.869 49.4941 191.234V165.627H39.7041V190.69C39.7041 193.958 40.248 196.683 41.3358 198.862C42.4235 201.041 44.5991 202.676 46.7747 203.765C48.9502 204.855 52.2136 205.4 55.4769 205.4C57.6525 205.4 59.2841 205.4 61.4597 204.855C63.6353 204.855 65.2669 204.31 66.8986 203.765C68.5303 203.765 70.1619 203.221 71.2497 202.676ZM108.234 204.855V178.158C108.234 175.434 107.69 173.255 106.603 171.076C105.515 168.896 103.339 167.807 101.164 166.717C98.4442 165.627 95.7248 165.083 91.9175 165.083C88.6542 165.083 85.9347 165.627 83.2153 165.627C80.4958 166.172 78.3203 166.717 76.1447 167.807V204.31H85.9347V174.345C86.4786 174.345 87.5664 173.8 88.6542 173.8C89.742 173.8 90.8298 173.255 91.9175 173.255C94.0931 173.255 95.7248 173.8 96.8125 174.89C97.9003 175.979 98.4442 177.614 98.4442 179.248V204.855H108.234ZM124.007 154.731C124.007 153.641 124.007 153.096 123.463 152.007C122.919 151.462 122.375 150.372 121.288 150.372C120.2 149.827 119.656 149.827 118.568 149.827C117.48 149.827 116.393 149.827 115.849 150.372C114.761 150.917 114.217 151.462 113.673 152.007C113.129 152.552 113.129 153.641 113.129 154.731C113.129 155.821 113.129 156.365 113.673 157.455C114.217 158 114.761 159.09 115.849 159.634C116.936 160.179 117.48 160.179 118.568 160.179C119.656 160.179 120.744 160.179 121.288 159.634C122.375 159.09 122.919 158.545 123.463 157.455C124.007 156.91 124.007 155.821 124.007 154.731ZM123.463 166.172H113.673V204.855H123.463V166.172ZM148.482 204.31V196.138C147.938 196.138 147.938 196.683 147.394 196.683C146.85 196.683 146.307 196.683 145.763 196.683C144.675 196.683 144.131 196.683 143.587 196.138C143.043 196.138 142.499 195.593 141.955 195.048C141.412 194.503 141.412 193.414 141.412 192.324V173.255H148.482V166.172H141.412V154.731L131.622 157.455V166.172H126.726V173.255H131.622V192.869C131.622 196.683 132.709 199.952 134.341 202.131C135.973 204.31 138.692 205.4 142.499 205.4C143.043 205.4 144.131 205.4 144.675 205.4C145.219 205.4 146.307 205.4 146.85 204.855C147.394 204.855 147.938 204.31 148.482 204.31ZM183.835 183.062C183.835 180.338 183.291 178.158 182.747 175.979C182.203 173.8 181.115 172.165 179.484 170.531C177.852 168.896 176.22 167.807 174.045 166.717C171.869 165.627 169.694 165.627 166.974 165.627C164.255 165.627 161.535 166.172 159.36 167.262C157.184 168.352 155.009 169.441 153.921 171.621C152.289 173.255 151.202 175.434 150.658 178.158C150.114 180.883 149.57 183.062 149.57 186.331C149.57 189.055 150.114 191.779 150.658 194.503C151.745 197.227 152.833 198.862 154.465 201.041C156.097 202.676 158.272 204.31 160.448 205.4C162.623 206.49 165.887 207.034 168.606 207.034C170.238 207.034 172.413 207.034 174.045 206.49C175.677 206.49 177.308 205.945 178.94 205.4C180.572 204.855 181.659 204.31 182.747 203.765L180.028 196.683C178.94 197.227 177.852 197.772 176.764 197.772C175.677 198.317 174.589 198.317 172.957 198.862C171.869 198.862 170.238 199.407 169.15 199.407C167.518 199.407 165.343 198.862 164.255 198.317C162.623 197.772 161.535 196.683 160.448 195.593C159.36 194.503 158.816 192.869 158.816 190.69L183.835 187.421C183.835 186.876 183.835 186.331 183.835 185.786C183.835 184.152 183.835 183.607 183.835 183.062ZM174.589 181.427L158.272 183.607C158.272 181.427 158.816 179.248 159.36 177.614C159.904 175.979 160.992 174.89 162.623 173.8C163.711 172.71 165.343 172.71 166.974 172.71C168.606 172.71 169.694 173.255 170.782 173.8C171.869 174.345 172.957 175.434 173.501 176.524C174.045 177.614 174.589 179.248 174.589 181.427ZM197.976 148.738H188.186V204.855H197.976V148.738ZM213.749 148.738H203.959V204.855H213.749V148.738ZM251.821 183.062C251.821 180.338 251.277 178.158 250.733 175.979C250.189 173.8 249.102 172.165 247.47 170.531C245.838 168.896 244.207 167.807 242.031 166.717C239.856 165.627 237.68 165.627 234.961 165.627C232.241 165.627 229.522 166.172 227.346 167.262C225.171 168.352 222.995 169.441 221.907 171.621C220.276 173.255 219.188 175.434 218.644 178.158C218.1 179.793 217.556 182.517 217.556 185.786C217.556 188.51 218.1 191.234 218.644 193.958C219.732 196.683 220.819 198.317 222.451 200.496C224.083 202.131 226.258 203.765 228.434 204.855C230.609 205.945 233.873 206.49 236.592 206.49C238.224 206.49 240.399 206.489 242.031 205.945C243.663 205.945 245.294 205.4 246.926 204.855C248.558 204.31 249.646 203.765 250.733 203.221L248.014 196.138C246.926 196.683 245.838 197.227 244.751 197.227C243.663 197.772 242.575 197.772 240.943 198.317C239.856 198.317 238.224 198.862 237.136 198.862C235.504 198.862 233.329 198.317 232.241 197.772C230.609 197.227 229.522 196.138 228.434 195.048C227.346 193.958 226.802 192.324 226.802 190.145L251.821 186.876C251.821 186.331 251.821 185.786 251.821 185.241C251.821 184.152 251.821 183.607 251.821 183.062ZM242.575 181.427L226.258 183.607C226.258 181.427 226.802 179.248 227.346 177.614C227.89 175.979 228.978 174.89 230.609 173.8C231.697 172.71 233.329 172.71 234.961 172.71C236.592 172.71 237.68 173.255 238.768 173.8C239.856 174.345 240.943 175.434 241.487 176.524C242.031 177.614 242.575 179.248 242.575 181.427ZM276.296 165.627C275.752 165.627 274.665 165.627 274.121 165.627C273.033 165.627 272.489 165.627 271.401 165.627C268.138 165.627 265.418 166.172 262.699 166.172C259.98 166.717 257.804 167.262 255.628 168.352V204.855H265.418V173.8C265.962 173.8 267.05 173.255 267.594 173.255C268.682 173.255 269.226 173.255 270.313 173.255C270.857 173.255 271.945 173.255 272.489 173.255C273.033 173.255 274.121 173.255 274.665 173.8L276.296 165.627Z" fill="#4A4A49"></path> </g> <defs> <clipPath id="clip0"> <rect width="316" height="205.945" fill="white"></rect> </clipPath> </defs> </svg> 