<svg width="1069" height="102" viewBox="0 0 1069 102" fill="none" xmlns="http://www.w3.org/2000/svg">
<path d="M47 53.5328V48.2796V44.9963L307.054 42.3696L388.823 38.4296H471.5L558.5 27.9231L635 35.1463L721.263 24.6398L797.5 31.2064L884.802 16.1032L965 19.3865L1047 1V100.812L972 81.1126L875.418 89.6492L791.5 75.8593L713.22 81.1126L635 71.9193L549.681 75.8593L474.614 68.636H378.099L286.946 63.3827L47 61.4128V53.5328Z" fill="url(#paint0_linear)"/>
<path d="M47 48.2796V53.5328M47 53.5328V61.4128L286.946 63.3827L378.099 68.636H474.614L549.681 75.8593L635 71.9193L713.22 81.1126L791.5 75.8593L875.418 89.6492L972 81.1126L1047 100.812V1L965 19.3865L884.802 16.1032L797.5 31.2064L721.263 24.6398L635 35.1463L558.5 27.9231L471.5 38.4296H388.823L307.054 42.3696C205.496 43.3954 148.557 43.9705 47 44.9962V53.5328Z" stroke="black"/>
<rect y="51" width="1064" height="4" fill="url(#paint1_linear)"/>
<rect x="42" y="39" width="1" height="35" fill="#24282D"/>
<rect x="73" y="39" width="1" height="25" fill="#24282D"/>
<rect x="104" y="39" width="1" height="35" fill="#3D4151"/>
<rect x="135" y="39" width="1" height="25" fill="#24282D"/>
<rect x="166" y="39" width="1" height="35" fill="#3D4151"/>
<rect x="197" y="39" width="1" height="25" fill="#24282D"/>
<rect x="228" y="39" width="1" height="35" fill="#3D4151"/>
<rect x="259" y="39" width="1" height="25" fill="#24282D"/>
<rect x="290" y="39" width="1" height="35" fill="#3D4151"/>
<rect x="321" y="39" width="1" height="25" fill="#24282D"/>
<rect x="352" y="39" width="1" height="35" fill="#3D4151"/>
<rect x="383" y="39" width="1" height="25" fill="#24282D"/>
<rect x="414" y="39" width="1" height="35" fill="#3D4151"/>
<rect x="445" y="39" width="1" height="25" fill="#24282D"/>
<rect x="476" y="39" width="1" height="35" fill="#3D4151"/>
<rect x="507" y="39" width="1" height="25" fill="#24282D"/>
<rect x="538" y="39" width="1" height="35" fill="#3D4151"/>
<rect x="569" y="39" width="1" height="25" fill="#24282D"/>
<rect x="600" y="39" width="1" height="35" fill="#3D4151"/>
<rect x="631" y="39" width="1" height="25" fill="#24282D"/>
<rect x="662" y="39" width="1" height="35" fill="#3D4151"/>
<rect x="693" y="39" width="1" height="25" fill="#24282D"/>
<rect x="724" y="39" width="1" height="35" fill="#3D4151"/>
<rect x="755" y="39" width="1" height="25" fill="#24282D"/>
<rect x="786" y="39" width="1" height="35" fill="#3D4151"/>
<rect x="817" y="39" width="1" height="25" fill="#24282D"/>
<rect x="848" y="39" width="1" height="35" fill="#3D4151"/>
<rect x="879" y="39" width="1" height="25" fill="#24282D"/>
<rect x="910" y="39" width="1" height="35" fill="#3D4151"/>
<rect x="941" y="39" width="1" height="25" fill="#24282D"/>
<rect x="972" y="39" width="1" height="35" fill="#3D4151"/>
<rect x="1003" y="39" width="1" height="25" fill="#24282D"/>
<rect x="1034" y="39" width="1" height="35" fill="#3D4151"/>
<circle cx="1060.5" cy="54.5" r="8.5" fill="#D5F053"/>
<defs>
<linearGradient id="paint0_linear" x1="1009.5" y1="50.9063" x2="64.4998" y2="50.9065" gradientUnits="userSpaceOnUse">
<stop stop-color="#E1FD52"/>
<stop offset="1" stop-color="#C4C4C4" stop-opacity="0"/>
</linearGradient>
<linearGradient id="paint1_linear" x1="0" y1="51" x2="1064" y2="55.0017" gradientUnits="userSpaceOnUse">
<stop stop-color="#15171C"/>
<stop offset="0.364583" stop-color="#3D4151"/>
<stop offset="1" stop-color="#DFFB53"/>
</linearGradient>
</defs>
</svg>
