<svg width="1064" height="35" viewBox="0 0 1064 35" fill="none" xmlns="http://www.w3.org/2000/svg">
<rect y="12" width="1064" height="4" fill="url(#paint0_linear)"/>
<rect x="42" width="1" height="35" fill="#24282D"/>
<rect x="73" width="1" height="25" fill="#24282D"/>
<rect x="104" width="1" height="35" fill="#3D4151"/>
<rect x="135" width="1" height="25" fill="#24282D"/>
<rect x="166" width="1" height="35" fill="#3D4151"/>
<rect x="197" width="1" height="25" fill="#24282D"/>
<rect x="228" width="1" height="35" fill="#3D4151"/>
<rect x="259" width="1" height="25" fill="#24282D"/>
<rect x="290" width="1" height="35" fill="#3D4151"/>
<rect x="321" width="1" height="25" fill="#24282D"/>
<rect x="352" width="1" height="35" fill="#3D4151"/>
<rect x="383" width="1" height="25" fill="#24282D"/>
<rect x="414" width="1" height="35" fill="#3D4151"/>
<rect x="445" width="1" height="25" fill="#24282D"/>
<rect x="476" width="1" height="35" fill="#3D4151"/>
<rect x="507" width="1" height="25" fill="#24282D"/>
<rect x="538" width="1" height="35" fill="#3D4151"/>
<rect x="569" width="1" height="25" fill="#24282D"/>
<rect x="600" width="1" height="35" fill="#3D4151"/>
<rect x="631" width="1" height="25" fill="#24282D"/>
<rect x="662" width="1" height="35" fill="#3D4151"/>
<rect x="693" width="1" height="25" fill="#24282D"/>
<rect x="724" width="1" height="35" fill="#3D4151"/>
<rect x="755" width="1" height="25" fill="#24282D"/>
<rect x="786" width="1" height="35" fill="#3D4151"/>
<rect x="817" width="1" height="25" fill="#24282D"/>
<rect x="848" width="1" height="35" fill="#3D4151"/>
<rect x="879" width="1" height="25" fill="#24282D"/>
<rect x="910" width="1" height="35" fill="#3D4151"/>
<rect x="941" width="1" height="25" fill="#24282D"/>
<rect x="972" width="1" height="35" fill="#3D4151"/>
<rect x="1003" width="1" height="25" fill="#24282D"/>
<rect x="1034" width="1" height="35" fill="#3D4151"/>
<path d="M34 14.0526V13.9474V13.8816L39.2108 13.8289L40.8493 13.75H42.506L44.2492 13.5395L45.7821 13.6842L47.5106 13.4737L49.0382 13.6053L50.7875 13.3026L52.3945 13.3684L54.0376 13V15L52.5348 14.6053L50.5995 14.7763L48.918 14.5L47.3494 14.6053L45.7821 14.4211L44.0725 14.5L42.5684 14.3553H40.6344L38.8079 14.25L34 14.2105V14.0526Z" fill="url(#paint1_linear)"/>
<circle cx="1055.5" cy="13.5" r="8.5" fill="#D5F053"/>
<defs>
<linearGradient id="paint0_linear" x1="0" y1="12" x2="1064" y2="16.0017" gradientUnits="userSpaceOnUse">
<stop stop-color="#15171C"/>
<stop offset="0.364583" stop-color="#3D4151"/>
<stop offset="1" stop-color="#DFFB53"/>
</linearGradient>
<linearGradient id="paint1_linear" x1="53.2862" y1="14" x2="34.3507" y2="14" gradientUnits="userSpaceOnUse">
<stop stop-color="#E1FD52"/>
<stop offset="1" stop-color="#C4C4C4" stop-opacity="0"/>
</linearGradient>
</defs>
</svg>
