<svg width="1002" height="102" viewBox="0 0 1002 102" fill="none" xmlns="http://www.w3.org/2000/svg">
<path d="M1 53.5328V48.2796V44.9963L261.054 42.3696L342.823 38.4296H425.5L512.5 27.9231L589 35.1463L675.263 24.6398L751.5 31.2064L838.802 16.1032L919 19.3865L1001 1V100.812L926 81.1126L829.418 89.6492L745.5 75.8593L667.22 81.1126L589 71.9193L503.681 75.8593L428.614 68.636H332.099L240.946 63.3827L1 61.4128V53.5328Z" fill="url(#paint0_linear)"/>
<path d="M1 48.2796V53.5328M1 53.5328V61.4128L240.946 63.3827L332.099 68.636H428.614L503.681 75.8593L589 71.9193L667.22 81.1126L745.5 75.8593L829.418 89.6492L926 81.1126L1001 100.812V1L919 19.3865L838.802 16.1032L751.5 31.2064L675.263 24.6398L589 35.1463L512.5 27.9231L425.5 38.4296H342.823L261.054 42.3696C159.496 43.3954 102.557 43.9705 1 44.9962V53.5328Z" stroke="black"/>
<defs>
<linearGradient id="paint0_linear" x1="963.5" y1="50.9063" x2="18.4998" y2="50.9065" gradientUnits="userSpaceOnUse">
<stop stop-color="#E1FD52"/>
<stop offset="1" stop-color="#C4C4C4" stop-opacity="0"/>
</linearGradient>
</defs>
</svg>
