<svg width="98" height="86" viewBox="0 0 98 86" fill="none" xmlns="http://www.w3.org/2000/svg">
<rect width="2" height="2" fill="white"/>
<rect x="16" width="2" height="2" fill="white"/>
<rect x="32" width="2" height="2" fill="white"/>
<rect x="48" width="2" height="2" fill="white"/>
<rect x="64" width="2" height="2" fill="white"/>
<rect x="80" width="2" height="2" fill="white"/>
<rect x="96" width="2" height="2" fill="white"/>
<rect y="14" width="2" height="2" fill="white"/>
<rect x="16" y="14" width="2" height="2" fill="white"/>
<rect x="32" y="14" width="2" height="2" fill="white"/>
<rect x="48" y="14" width="2" height="2" fill="white"/>
<rect x="64" y="14" width="2" height="2" fill="white"/>
<rect x="80" y="14" width="2" height="2" fill="white"/>
<rect x="96" y="14" width="2" height="2" fill="white"/>
<rect y="28" width="2" height="2" fill="white"/>
<rect x="16" y="28" width="2" height="2" fill="white"/>
<rect x="32" y="28" width="2" height="2" fill="white"/>
<rect x="48" y="28" width="2" height="2" fill="white"/>
<rect x="64" y="28" width="2" height="2" fill="white"/>
<rect x="80" y="28" width="2" height="2" fill="white"/>
<rect x="96" y="28" width="2" height="2" fill="white"/>
<rect y="42" width="2" height="2" fill="white"/>
<rect x="16" y="42" width="2" height="2" fill="white"/>
<rect x="32" y="42" width="2" height="2" fill="white"/>
<rect x="48" y="42" width="2" height="2" fill="white"/>
<rect x="64" y="42" width="2" height="2" fill="white"/>
<rect x="80" y="42" width="2" height="2" fill="white"/>
<rect x="96" y="42" width="2" height="2" fill="white"/>
<rect x="16" y="56" width="2" height="2" fill="white"/>
<rect y="56" width="2" height="2" fill="white"/>
<rect x="32" y="56" width="2" height="2" fill="white"/>
<rect x="48" y="56" width="2" height="2" fill="white"/>
<rect x="64" y="56" width="2" height="2" fill="white"/>
<rect x="80" y="56" width="2" height="2" fill="white"/>
<rect x="96" y="56" width="2" height="2" fill="white"/>
<rect y="70" width="2" height="2" fill="white"/>
<rect x="16" y="70" width="2" height="2" fill="white"/>
<rect x="32" y="70" width="2" height="2" fill="white"/>
<rect x="48" y="70" width="2" height="2" fill="white"/>
<rect x="64" y="70" width="2" height="2" fill="white"/>
<rect x="80" y="70" width="2" height="2" fill="white"/>
<rect x="96" y="70" width="2" height="2" fill="white"/>
<rect y="84" width="2" height="2" fill="white"/>
<rect x="16" y="84" width="2" height="2" fill="white"/>
<rect x="32" y="84" width="2" height="2" fill="white"/>
<rect x="48" y="84" width="2" height="2" fill="white"/>
<rect x="64" y="84" width="2" height="2" fill="white"/>
<rect x="80" y="84" width="2" height="2" fill="white"/>
<rect x="96" y="84" width="2" height="2" fill="white"/>
</svg>
