<svg width="217" height="217" viewBox="0 0 217 217" fill="none" xmlns="http://www.w3.org/2000/svg">
<circle cx="108.5" cy="108.5" r="108" fill="#1C2025" stroke="#2F333C"/>
<path d="M211 142.5L108 109L214 131.5L211 142.5Z" fill="#4E5915"/>
<path d="M210.5 70C167.398 85.3709 151.617 95.0689 108 109L196 43C196 43 198.409 46.1763 200 48.5C201.346 50.4668 203.5 54 203.5 54L206.5 60L210.5 70Z" fill="#C9E347"/>
<path d="M214.5 85.4999L108 109L210.5 69.5L212.5 76.9999L214.5 85.4999Z" fill="#B5CC41"/>
<path d="M216 96L108 109L214.5 85.5L216 96Z" fill="#95A837"/>
<path d="M216 96L216.5 104L108 109L216 96Z" fill="#7C8B30"/>
<path d="M216.5 112.5L108 109L216.5 104V112.5Z" fill="#73812E"/>
<path d="M216 120.5L108 109L216.5 112.5L216 120.5Z" fill="#606B26"/>
<path d="M214 131.5L108 109L216 120.5L214 131.5Z" fill="#59651A"/>
<path d="M211 142.5L108 109L178.5 137.905L208 150L211 142.5Z" fill="#454F10"/>
<path d="M108 109L151.5 9.00013C151.5 9.00013 161.703 12.7186 174.5 22.4998C183.537 29.4071 196 43.0002 196 43.0002L108 109Z" fill="#DFFB53"/>
</svg>
