<svg width="181" height="173" viewBox="0 0 181 173" fill="none" xmlns="http://www.w3.org/2000/svg">
<rect x="5.5" y="0.5" width="174" height="156" rx="78" fill="#1C2025" stroke="#2F333C"/>
<rect x="44" y="87" width="2" height="2" fill="#2F333C"/>
<rect x="60" y="87" width="2" height="2" fill="#2F333C"/>
<rect x="76" y="87" width="2" height="2" fill="#2F333C"/>
<rect x="92" y="87" width="2" height="2" fill="#2F333C"/>
<rect x="108" y="87" width="2" height="2" fill="#2F333C"/>
<rect x="124" y="87" width="2" height="2" fill="#2F333C"/>
<rect x="140" y="87" width="2" height="2" fill="#2F333C"/>
<rect x="44" y="101" width="2" height="2" fill="#2F333C"/>
<rect x="60" y="101" width="2" height="2" fill="#2F333C"/>
<rect x="76" y="101" width="2" height="2" fill="#2F333C"/>
<rect x="92" y="101" width="2" height="2" fill="#2F333C"/>
<rect x="108" y="101" width="2" height="2" fill="#2F333C"/>
<rect x="124" y="101" width="2" height="2" fill="#2F333C"/>
<rect x="140" y="101" width="2" height="2" fill="#2F333C"/>
<rect x="44" y="115" width="2" height="2" fill="#2F333C"/>
<rect x="60" y="115" width="2" height="2" fill="#2F333C"/>
<rect x="76" y="115" width="2" height="2" fill="#2F333C"/>
<rect x="92" y="115" width="2" height="2" fill="#2F333C"/>
<rect x="108" y="115" width="2" height="2" fill="#2F333C"/>
<rect x="124" y="115" width="2" height="2" fill="#2F333C"/>
<rect x="140" y="115" width="2" height="2" fill="#2F333C"/>
<rect x="44" y="129" width="2" height="2" fill="#2F333C"/>
<rect x="60" y="129" width="2" height="2" fill="#2F333C"/>
<rect x="76" y="129" width="2" height="2" fill="#2F333C"/>
<rect x="92" y="129" width="2" height="2" fill="#2F333C"/>
<rect x="108" y="129" width="2" height="2" fill="#2F333C"/>
<rect x="124" y="129" width="2" height="2" fill="#2F333C"/>
<rect x="140" y="129" width="2" height="2" fill="#2F333C"/>
<rect x="60" y="143" width="2" height="2" fill="#2F333C"/>
<rect x="44" y="143" width="2" height="2" fill="#2F333C"/>
<rect x="76" y="143" width="2" height="2" fill="#2F333C"/>
<rect x="92" y="143" width="2" height="2" fill="#2F333C"/>
<rect x="108" y="143" width="2" height="2" fill="#2F333C"/>
<rect x="124" y="143" width="2" height="2" fill="#2F333C"/>
<rect x="140" y="143" width="2" height="2" fill="#2F333C"/>
<rect x="44" y="157" width="2" height="2" fill="#2F333C"/>
<rect x="60" y="157" width="2" height="2" fill="#2F333C"/>
<rect x="76" y="157" width="2" height="2" fill="#2F333C"/>
<rect x="92" y="157" width="2" height="2" fill="#2F333C"/>
<rect x="108" y="157" width="2" height="2" fill="#2F333C"/>
<rect x="124" y="157" width="2" height="2" fill="#2F333C"/>
<rect x="140" y="157" width="2" height="2" fill="#2F333C"/>
<rect x="44" y="171" width="2" height="2" fill="#2F333C"/>
<rect x="60" y="171" width="2" height="2" fill="#2F333C"/>
<rect x="76" y="171" width="2" height="2" fill="#2F333C"/>
<rect x="92" y="171" width="2" height="2" fill="#2F333C"/>
<rect x="108" y="171" width="2" height="2" fill="#2F333C"/>
<rect x="124" y="171" width="2" height="2" fill="#2F333C"/>
<rect x="140" y="171" width="2" height="2" fill="#2F333C"/>
<path d="M11.3894 123.557C9.71902 120.664 6.01986 119.673 3.12668 121.343C0.233772 123.013 -0.892076 126.712 0.778433 129.606C2.44854 132.499 6.28239 133.49 9.17529 131.819C12.0685 130.149 13.0596 126.45 11.3894 123.557Z" fill="#DFFB53"/>
<path d="M11.3894 123.557C9.71902 120.664 6.01986 119.673 3.12668 121.343C0.233772 123.013 -0.892076 126.712 0.778433 129.606C2.44854 132.499 6.28239 133.49 9.17529 131.819C12.0685 130.149 13.0596 126.45 11.3894 123.557Z" fill="#DFFB53"/>
<path d="M31.4066 125.968C30.2952 124.043 27.8234 123.381 25.8983 124.492L22.406 126.509L14.3411 112.54L17.8333 110.524C19.7586 109.412 20.4208 106.94 19.3094 105.015C18.1979 103.09 15.7261 102.428 13.801 103.539L6.81684 107.572C3.48684 109.494 2.05858 113.446 3.16589 116.97C7.56307 115.605 12.485 117.389 14.8818 121.541C17.2785 125.692 16.3626 130.846 12.9822 133.972C15.4805 136.693 19.6165 137.432 22.9465 135.509L29.9307 131.477C31.8558 130.365 32.5181 127.894 31.4066 125.968Z" fill="#DFFB53"/>
<path d="M31.4066 125.968C30.2952 124.043 27.8234 123.381 25.8983 124.492L22.406 126.509L14.3411 112.54L17.8333 110.524C19.7586 109.412 20.4208 106.94 19.3094 105.015C18.1979 103.09 15.7261 102.428 13.801 103.539L6.81684 107.572C3.48684 109.494 2.05858 113.446 3.16589 116.97C7.56307 115.605 12.485 117.389 14.8818 121.541C17.2785 125.692 16.3626 130.846 12.9822 133.972C15.4805 136.693 19.6165 137.432 22.9465 135.509L29.9307 131.477C31.8558 130.365 32.5181 127.894 31.4066 125.968Z" fill="#DFFB53"/>
<path d="M169.556 25.0286C171.227 27.9218 174.926 28.9129 177.819 27.2424C180.712 25.5722 181.838 21.873 180.167 18.9798C178.497 16.0869 174.663 15.0956 171.771 16.766C168.877 18.4364 167.886 22.1357 169.556 25.0286Z" fill="#DFFB53"/>
<path d="M169.556 25.0286C171.227 27.9218 174.926 28.9129 177.819 27.2424C180.712 25.5722 181.838 21.873 180.167 18.9798C178.497 16.0869 174.663 15.0956 171.771 16.766C168.877 18.4364 167.886 22.1357 169.556 25.0286Z" fill="#DFFB53"/>
<path d="M149.539 22.617C150.651 24.5423 153.122 25.2044 155.048 24.0931L158.54 22.0769L166.605 36.0457L163.113 38.0618C161.187 39.1733 160.525 41.6451 161.636 43.5702C162.748 45.4955 165.22 46.1576 167.145 45.0463L174.129 41.0138C177.459 39.0914 178.887 35.1399 177.78 31.6157C173.383 32.9805 168.461 31.1964 166.064 27.0449C163.667 22.8935 164.583 17.7391 167.964 14.6133C165.465 11.8926 161.329 11.1536 157.999 13.076L151.015 17.1086C149.09 18.2201 148.428 20.6919 149.539 22.617Z" fill="#DFFB53"/>
<path d="M149.539 22.617C150.651 24.5423 153.122 25.2044 155.048 24.0931L158.54 22.0769L166.605 36.0457L163.113 38.0618C161.187 39.1733 160.525 41.6451 161.636 43.5702C162.748 45.4955 165.22 46.1576 167.145 45.0463L174.129 41.0138C177.459 39.0914 178.887 35.1399 177.78 31.6157C173.383 32.9805 168.461 31.1964 166.064 27.0449C163.667 22.8935 164.583 17.7391 167.964 14.6133C165.465 11.8926 161.329 11.1536 157.999 13.076L151.015 17.1086C149.09 18.2201 148.428 20.6919 149.539 22.617Z" fill="#DFFB53"/>
</svg>
