<svg width="262" height="173" viewBox="0 0 262 173" fill="none" xmlns="http://www.w3.org/2000/svg">
<rect x="34.5" y="0.5" width="174" height="156" fill="#1C2025" stroke="#2F333C"/>
<rect x="77" y="87" width="2" height="2" fill="#2F333C"/>
<rect x="93" y="87" width="2" height="2" fill="#2F333C"/>
<rect x="109" y="87" width="2" height="2" fill="#2F333C"/>
<rect x="125" y="87" width="2" height="2" fill="#2F333C"/>
<rect x="141" y="87" width="2" height="2" fill="#2F333C"/>
<rect x="157" y="87" width="2" height="2" fill="#2F333C"/>
<rect x="173" y="87" width="2" height="2" fill="#2F333C"/>
<rect x="77" y="101" width="2" height="2" fill="#2F333C"/>
<rect x="93" y="101" width="2" height="2" fill="#2F333C"/>
<rect x="109" y="101" width="2" height="2" fill="#2F333C"/>
<rect x="125" y="101" width="2" height="2" fill="#2F333C"/>
<rect x="141" y="101" width="2" height="2" fill="#2F333C"/>
<rect x="157" y="101" width="2" height="2" fill="#2F333C"/>
<rect x="173" y="101" width="2" height="2" fill="#2F333C"/>
<rect x="77" y="115" width="2" height="2" fill="#2F333C"/>
<rect x="93" y="115" width="2" height="2" fill="#2F333C"/>
<rect x="109" y="115" width="2" height="2" fill="#2F333C"/>
<rect x="125" y="115" width="2" height="2" fill="#2F333C"/>
<rect x="141" y="115" width="2" height="2" fill="#2F333C"/>
<rect x="157" y="115" width="2" height="2" fill="#2F333C"/>
<rect x="173" y="115" width="2" height="2" fill="#2F333C"/>
<rect x="77" y="129" width="2" height="2" fill="#2F333C"/>
<rect x="93" y="129" width="2" height="2" fill="#2F333C"/>
<rect x="109" y="129" width="2" height="2" fill="#2F333C"/>
<rect x="125" y="129" width="2" height="2" fill="#2F333C"/>
<rect x="141" y="129" width="2" height="2" fill="#2F333C"/>
<rect x="157" y="129" width="2" height="2" fill="#2F333C"/>
<rect x="173" y="129" width="2" height="2" fill="#2F333C"/>
<rect x="93" y="143" width="2" height="2" fill="#2F333C"/>
<rect x="77" y="143" width="2" height="2" fill="#2F333C"/>
<rect x="109" y="143" width="2" height="2" fill="#2F333C"/>
<rect x="125" y="143" width="2" height="2" fill="#2F333C"/>
<rect x="141" y="143" width="2" height="2" fill="#2F333C"/>
<rect x="157" y="143" width="2" height="2" fill="#2F333C"/>
<rect x="173" y="143" width="2" height="2" fill="#2F333C"/>
<rect x="77" y="157" width="2" height="2" fill="#2F333C"/>
<rect x="93" y="157" width="2" height="2" fill="#2F333C"/>
<rect x="109" y="157" width="2" height="2" fill="#2F333C"/>
<rect x="125" y="157" width="2" height="2" fill="#2F333C"/>
<rect x="141" y="157" width="2" height="2" fill="#2F333C"/>
<rect x="157" y="157" width="2" height="2" fill="#2F333C"/>
<rect x="173" y="157" width="2" height="2" fill="#2F333C"/>
<rect x="77" y="171" width="2" height="2" fill="#2F333C"/>
<rect x="93" y="171" width="2" height="2" fill="#2F333C"/>
<rect x="109" y="171" width="2" height="2" fill="#2F333C"/>
<rect x="125" y="171" width="2" height="2" fill="#2F333C"/>
<rect x="141" y="171" width="2" height="2" fill="#2F333C"/>
<rect x="157" y="171" width="2" height="2" fill="#2F333C"/>
<rect x="173" y="171" width="2" height="2" fill="#2F333C"/>
<rect x="0.5" y="36.5" width="230" height="19" rx="3.5" fill="#15171C" stroke="#2F333C"/>
<path d="M8.00879 29.1309V28.4805H6.25684V27.4053H8.2959V26.7344H5.43066V31H8.30469V30.335H6.25684V29.1309H8.00879ZM11.8701 29.4473V28.7881H9.42969V29.4473H11.8701ZM13.6016 26.7344H12.5791V31H13.335V29.7373L13.2998 27.8213L13.8008 29.5938H14.208L14.7676 27.7422L14.7324 29.7373V31H15.4883V26.7344H14.4658L14.0059 28.3369L13.6016 26.7344ZM18.2041 31H19.0303V30.9502C18.9893 30.8701 18.958 30.7744 18.9365 30.6631C18.915 30.5518 18.9043 30.4111 18.9043 30.2412V28.8818C18.9043 28.6982 18.8701 28.5371 18.8018 28.3984C18.7334 28.2578 18.6387 28.1416 18.5176 28.0498C18.3965 27.958 18.2529 27.8887 18.0869 27.8418C17.9229 27.7949 17.7451 27.7715 17.5537 27.7715C17.3408 27.7715 17.1514 27.7988 16.9854 27.8535C16.8213 27.9062 16.6826 27.9785 16.5693 28.0703C16.4541 28.1621 16.3662 28.2686 16.3057 28.3896C16.2471 28.5107 16.2178 28.6387 16.2178 28.7734H17.0322C17.0322 28.7168 17.04 28.665 17.0557 28.6182C17.0732 28.5713 17.0996 28.5312 17.1348 28.498C17.1738 28.4609 17.2246 28.4326 17.2871 28.4131C17.3496 28.3916 17.4238 28.3809 17.5098 28.3809C17.6074 28.3809 17.6924 28.3936 17.7646 28.4189C17.8389 28.4424 17.9004 28.4766 17.9492 28.5215C17.9961 28.5645 18.0312 28.6162 18.0547 28.6768C18.0781 28.7354 18.0898 28.8018 18.0898 28.876V29.0635H17.6357C17.4014 29.0635 17.1934 29.085 17.0117 29.1279C16.832 29.1689 16.6807 29.2295 16.5576 29.3096C16.4209 29.3975 16.3184 29.5098 16.25 29.6465C16.1816 29.7812 16.1475 29.9365 16.1475 30.1123C16.1475 30.249 16.1748 30.376 16.2295 30.4932C16.2842 30.6084 16.3604 30.708 16.458 30.792C16.5557 30.876 16.6719 30.9414 16.8066 30.9883C16.9434 31.0352 17.0928 31.0586 17.2549 31.0586C17.3545 31.0586 17.4473 31.0488 17.5332 31.0293C17.6191 31.0117 17.6982 30.9863 17.7705 30.9531C17.8408 30.9219 17.9053 30.8848 17.9639 30.8418C18.0225 30.7988 18.0742 30.7529 18.1191 30.7041C18.1289 30.7607 18.1406 30.8145 18.1543 30.8652C18.168 30.916 18.1846 30.9609 18.2041 31ZM17.4277 30.4287C17.3516 30.4287 17.2842 30.4199 17.2256 30.4023C17.1689 30.3828 17.1211 30.3574 17.082 30.3262C17.043 30.293 17.0127 30.2529 16.9912 30.2061C16.9717 30.1572 16.9619 30.1045 16.9619 30.0479C16.9619 29.9756 16.9756 29.9092 17.0029 29.8486C17.0303 29.7861 17.0723 29.7324 17.1289 29.6875C17.1855 29.6445 17.2588 29.6113 17.3486 29.5879C17.4385 29.5625 17.5469 29.5498 17.6738 29.5498H18.0898V30.0947C18.0664 30.1357 18.0342 30.1768 17.9932 30.2178C17.9521 30.2568 17.9033 30.292 17.8467 30.3232C17.79 30.3545 17.7266 30.3799 17.6562 30.3994C17.5859 30.4189 17.5098 30.4287 17.4277 30.4287ZM20.0439 27.8301V28.4951H20.9463V30.3379H20.0439V31H22.6279V30.3379H21.7695V27.8301H20.0439ZM20.8877 27.0186C20.8877 27.0811 20.8984 27.1396 20.9199 27.1943C20.9434 27.2471 20.9756 27.292 21.0166 27.3291C21.0576 27.3682 21.1064 27.3984 21.1631 27.4199C21.2217 27.4414 21.2861 27.4521 21.3564 27.4521C21.501 27.4521 21.6152 27.4121 21.6992 27.332C21.7852 27.25 21.8281 27.1455 21.8281 27.0186C21.8281 26.8916 21.7852 26.7881 21.6992 26.708C21.6152 26.626 21.501 26.585 21.3564 26.585C21.2861 26.585 21.2217 26.5957 21.1631 26.6172C21.1064 26.6387 21.0576 26.668 21.0166 26.7051C20.9756 26.7441 20.9434 26.791 20.9199 26.8457C20.8984 26.8984 20.8877 26.9561 20.8877 27.0186ZM23.6006 26.5V27.165H24.5498V30.3379H23.6006V31H26.2812V30.3379H25.373V26.5H23.6006Z" fill="#DFFB53"/>
<rect x="0.5" y="70.5" width="124" height="19" rx="3.5" fill="#15171C" stroke="#2F333C"/>
<path d="M6.25977 63.4355H6.89551C7.12793 63.4355 7.33789 63.4023 7.52539 63.3359C7.71289 63.2695 7.87305 63.1768 8.00586 63.0576C8.13672 62.9404 8.2373 62.8008 8.30762 62.6387C8.37988 62.4766 8.41602 62.2998 8.41602 62.1084C8.41602 61.9033 8.37988 61.7168 8.30762 61.5488C8.2373 61.3809 8.13672 61.2363 8.00586 61.1152C7.87305 60.9961 7.71289 60.9033 7.52539 60.8369C7.33789 60.7686 7.12793 60.7344 6.89551 60.7344H5.43652V65H6.25977V63.4355ZM6.25977 62.7676V61.4023H6.89551C7.0127 61.4023 7.11426 61.4209 7.2002 61.458C7.28613 61.4951 7.3584 61.5459 7.41699 61.6104C7.47363 61.6748 7.51562 61.75 7.54297 61.8359C7.57227 61.9219 7.58691 62.0146 7.58691 62.1143C7.58691 62.2002 7.57227 62.2832 7.54297 62.3633C7.51562 62.4414 7.47363 62.5107 7.41699 62.5713C7.3584 62.6318 7.28613 62.6797 7.2002 62.7148C7.11426 62.75 7.0127 62.7676 6.89551 62.7676H6.25977ZM10.9971 65H11.8232V64.9502C11.7822 64.8701 11.751 64.7744 11.7295 64.6631C11.708 64.5518 11.6973 64.4111 11.6973 64.2412V62.8818C11.6973 62.6982 11.6631 62.5371 11.5947 62.3984C11.5264 62.2578 11.4316 62.1416 11.3105 62.0498C11.1895 61.958 11.0459 61.8887 10.8799 61.8418C10.7158 61.7949 10.5381 61.7715 10.3467 61.7715C10.1338 61.7715 9.94434 61.7988 9.77832 61.8535C9.61426 61.9062 9.47559 61.9785 9.3623 62.0703C9.24707 62.1621 9.15918 62.2686 9.09863 62.3896C9.04004 62.5107 9.01074 62.6387 9.01074 62.7734H9.8252C9.8252 62.7168 9.83301 62.665 9.84863 62.6182C9.86621 62.5713 9.89258 62.5312 9.92773 62.498C9.9668 62.4609 10.0176 62.4326 10.0801 62.4131C10.1426 62.3916 10.2168 62.3809 10.3027 62.3809C10.4004 62.3809 10.4854 62.3936 10.5576 62.4189C10.6318 62.4424 10.6934 62.4766 10.7422 62.5215C10.7891 62.5645 10.8242 62.6162 10.8477 62.6768C10.8711 62.7354 10.8828 62.8018 10.8828 62.876V63.0635H10.4287C10.1943 63.0635 9.98633 63.085 9.80469 63.1279C9.625 63.1689 9.47363 63.2295 9.35059 63.3096C9.21387 63.3975 9.11133 63.5098 9.04297 63.6465C8.97461 63.7812 8.94043 63.9365 8.94043 64.1123C8.94043 64.249 8.96777 64.376 9.02246 64.4932C9.07715 64.6084 9.15332 64.708 9.25098 64.792C9.34863 64.876 9.46484 64.9414 9.59961 64.9883C9.73633 65.0352 9.88574 65.0586 10.0479 65.0586C10.1475 65.0586 10.2402 65.0488 10.3262 65.0293C10.4121 65.0117 10.4912 64.9863 10.5635 64.9531C10.6338 64.9219 10.6982 64.8848 10.7568 64.8418C10.8154 64.7988 10.8672 64.7529 10.9121 64.7041C10.9219 64.7607 10.9336 64.8145 10.9473 64.8652C10.9609 64.916 10.9775 64.9609 10.9971 65ZM10.2207 64.4287C10.1445 64.4287 10.0771 64.4199 10.0186 64.4023C9.96191 64.3828 9.91406 64.3574 9.875 64.3262C9.83594 64.293 9.80566 64.2529 9.78418 64.2061C9.76465 64.1572 9.75488 64.1045 9.75488 64.0479C9.75488 63.9756 9.76855 63.9092 9.7959 63.8486C9.82324 63.7861 9.86523 63.7324 9.92188 63.6875C9.97852 63.6445 10.0518 63.6113 10.1416 63.5879C10.2314 63.5625 10.3398 63.5498 10.4668 63.5498H10.8828V64.0947C10.8594 64.1357 10.8271 64.1768 10.7861 64.2178C10.7451 64.2568 10.6963 64.292 10.6396 64.3232C10.583 64.3545 10.5195 64.3799 10.4492 64.3994C10.3789 64.4189 10.3027 64.4287 10.2207 64.4287ZM14.665 64.1299C14.665 64.1787 14.6523 64.2236 14.627 64.2646C14.6035 64.3057 14.5674 64.3418 14.5186 64.373C14.4678 64.4043 14.4023 64.4297 14.3223 64.4492C14.2441 64.4668 14.1523 64.4756 14.0469 64.4756C13.959 64.4756 13.873 64.4668 13.7891 64.4492C13.707 64.4316 13.6338 64.4033 13.5693 64.3643C13.5049 64.3271 13.4521 64.2783 13.4111 64.2178C13.3701 64.1553 13.3467 64.0811 13.3408 63.9951H12.5645C12.5645 64.124 12.5957 64.2529 12.6582 64.3818C12.7227 64.5088 12.8164 64.6221 12.9395 64.7217C13.0625 64.8232 13.2148 64.9053 13.3965 64.9678C13.5801 65.0303 13.791 65.0615 14.0293 65.0615C14.2461 65.0615 14.4424 65.0381 14.6182 64.9912C14.7939 64.9424 14.9443 64.875 15.0693 64.7891C15.1924 64.7031 15.2871 64.6016 15.3535 64.4844C15.4219 64.3652 15.4561 64.2354 15.4561 64.0947C15.4561 63.9424 15.4219 63.8115 15.3535 63.7021C15.2871 63.5908 15.1943 63.4961 15.0752 63.418C14.9561 63.3418 14.8145 63.2793 14.6504 63.2305C14.4863 63.1816 14.3086 63.1416 14.1172 63.1104C13.9844 63.0908 13.875 63.0684 13.7891 63.043C13.7031 63.0156 13.6357 62.9854 13.5869 62.9521C13.5361 62.9209 13.501 62.8857 13.4814 62.8467C13.4619 62.8057 13.4521 62.7617 13.4521 62.7148C13.4521 62.668 13.4629 62.624 13.4844 62.583C13.5078 62.54 13.541 62.5029 13.584 62.4717C13.6309 62.4365 13.6914 62.4092 13.7656 62.3896C13.8398 62.3701 13.9268 62.3604 14.0264 62.3604C14.1436 62.3604 14.2432 62.375 14.3252 62.4043C14.4092 62.4336 14.4756 62.4727 14.5244 62.5215C14.5596 62.5586 14.5859 62.6006 14.6035 62.6475C14.6211 62.6924 14.6299 62.7412 14.6299 62.7939H15.4443C15.4443 62.6475 15.4121 62.5117 15.3477 62.3867C15.2832 62.2617 15.1904 62.1533 15.0693 62.0615C14.9463 61.9717 14.7969 61.9014 14.6211 61.8506C14.4453 61.7979 14.2471 61.7715 14.0264 61.7715C13.8154 61.7715 13.626 61.7979 13.458 61.8506C13.29 61.9033 13.1475 61.9746 13.0303 62.0645C12.9131 62.1543 12.8232 62.2588 12.7607 62.3779C12.6982 62.4971 12.667 62.6221 12.667 62.7529C12.667 62.8877 12.6973 63.0068 12.7578 63.1104C12.8203 63.2139 12.9062 63.3047 13.0156 63.3828C13.125 63.4629 13.2559 63.5312 13.4082 63.5879C13.5625 63.6426 13.7324 63.6885 13.918 63.7256C14.0645 63.7529 14.1855 63.7803 14.2812 63.8076C14.377 63.835 14.4541 63.8643 14.5127 63.8955C14.5693 63.9287 14.6084 63.9639 14.6299 64.001C14.6533 64.0381 14.665 64.0811 14.665 64.1299ZM18.2686 64.1299C18.2686 64.1787 18.2559 64.2236 18.2305 64.2646C18.207 64.3057 18.1709 64.3418 18.1221 64.373C18.0713 64.4043 18.0059 64.4297 17.9258 64.4492C17.8477 64.4668 17.7559 64.4756 17.6504 64.4756C17.5625 64.4756 17.4766 64.4668 17.3926 64.4492C17.3105 64.4316 17.2373 64.4033 17.1729 64.3643C17.1084 64.3271 17.0557 64.2783 17.0146 64.2178C16.9736 64.1553 16.9502 64.0811 16.9443 63.9951H16.168C16.168 64.124 16.1992 64.2529 16.2617 64.3818C16.3262 64.5088 16.4199 64.6221 16.543 64.7217C16.666 64.8232 16.8184 64.9053 17 64.9678C17.1836 65.0303 17.3945 65.0615 17.6328 65.0615C17.8496 65.0615 18.0459 65.0381 18.2217 64.9912C18.3975 64.9424 18.5479 64.875 18.6729 64.7891C18.7959 64.7031 18.8906 64.6016 18.957 64.4844C19.0254 64.3652 19.0596 64.2354 19.0596 64.0947C19.0596 63.9424 19.0254 63.8115 18.957 63.7021C18.8906 63.5908 18.7979 63.4961 18.6787 63.418C18.5596 63.3418 18.418 63.2793 18.2539 63.2305C18.0898 63.1816 17.9121 63.1416 17.7207 63.1104C17.5879 63.0908 17.4785 63.0684 17.3926 63.043C17.3066 63.0156 17.2393 62.9854 17.1904 62.9521C17.1396 62.9209 17.1045 62.8857 17.085 62.8467C17.0654 62.8057 17.0557 62.7617 17.0557 62.7148C17.0557 62.668 17.0664 62.624 17.0879 62.583C17.1113 62.54 17.1445 62.5029 17.1875 62.4717C17.2344 62.4365 17.2949 62.4092 17.3691 62.3896C17.4434 62.3701 17.5303 62.3604 17.6299 62.3604C17.7471 62.3604 17.8467 62.375 17.9287 62.4043C18.0127 62.4336 18.0791 62.4727 18.1279 62.5215C18.1631 62.5586 18.1895 62.6006 18.207 62.6475C18.2246 62.6924 18.2334 62.7412 18.2334 62.7939H19.0479C19.0479 62.6475 19.0156 62.5117 18.9512 62.3867C18.8867 62.2617 18.7939 62.1533 18.6729 62.0615C18.5498 61.9717 18.4004 61.9014 18.2246 61.8506C18.0488 61.7979 17.8506 61.7715 17.6299 61.7715C17.4189 61.7715 17.2295 61.7979 17.0615 61.8506C16.8936 61.9033 16.751 61.9746 16.6338 62.0645C16.5166 62.1543 16.4268 62.2588 16.3643 62.3779C16.3018 62.4971 16.2705 62.6221 16.2705 62.7529C16.2705 62.8877 16.3008 63.0068 16.3613 63.1104C16.4238 63.2139 16.5098 63.3047 16.6191 63.3828C16.7285 63.4629 16.8594 63.5312 17.0117 63.5879C17.166 63.6426 17.3359 63.6885 17.5215 63.7256C17.668 63.7529 17.7891 63.7803 17.8848 63.8076C17.9805 63.835 18.0576 63.8643 18.1162 63.8955C18.1729 63.9287 18.2119 63.9639 18.2334 64.001C18.2568 64.0381 18.2686 64.0811 18.2686 64.1299ZM20.0615 65H20.7764L21.1133 63.3066L21.1777 62.9844L21.2451 63.3066L21.5938 65H22.3086L22.877 61.8301H22.1299L21.8955 63.6992L21.8545 64.0068L21.7988 63.7051L21.4561 61.8301H20.9111L20.5684 63.7139L20.5127 64.0156L20.4746 63.7139L20.2373 61.8301H19.4932L20.0615 65ZM23.3193 63.3857V63.4473C23.3193 63.6797 23.3525 63.8945 23.4189 64.0918C23.4854 64.2871 23.583 64.457 23.7119 64.6016C23.8389 64.7461 23.9951 64.8594 24.1807 64.9414C24.3682 65.0215 24.5811 65.0615 24.8193 65.0615C25.0557 65.0615 25.2666 65.0215 25.4521 64.9414C25.6377 64.8594 25.7939 64.7461 25.9209 64.6016C26.0479 64.457 26.1445 64.2871 26.2109 64.0918C26.2773 63.8945 26.3105 63.6797 26.3105 63.4473V63.3857C26.3105 63.1553 26.2773 62.9424 26.2109 62.7471C26.1445 62.5498 26.0479 62.3789 25.9209 62.2344C25.792 62.0898 25.6348 61.9766 25.4492 61.8945C25.2637 61.8125 25.0518 61.7715 24.8135 61.7715C24.5752 61.7715 24.3633 61.8125 24.1777 61.8945C23.9941 61.9766 23.8389 62.0898 23.7119 62.2344C23.583 62.3789 23.4854 62.5498 23.4189 62.7471C23.3525 62.9424 23.3193 63.1553 23.3193 63.3857ZM24.1338 63.4473V63.3857C24.1338 63.2568 24.1465 63.1348 24.1719 63.0195C24.1973 62.9043 24.2373 62.8027 24.292 62.7148C24.3467 62.627 24.417 62.5576 24.5029 62.5068C24.5889 62.4561 24.6924 62.4307 24.8135 62.4307C24.9365 62.4307 25.041 62.4561 25.127 62.5068C25.2129 62.5576 25.2832 62.627 25.3379 62.7148C25.3906 62.8027 25.4297 62.9043 25.4551 63.0195C25.4805 63.1348 25.4932 63.2568 25.4932 63.3857V63.4473C25.4932 63.5801 25.4805 63.7051 25.4551 63.8223C25.4297 63.9375 25.3906 64.0381 25.3379 64.124C25.2832 64.2119 25.2129 64.2812 25.127 64.332C25.041 64.3828 24.9385 64.4082 24.8193 64.4082C24.6963 64.4082 24.5908 64.3828 24.5029 64.332C24.417 64.2812 24.3467 64.2119 24.292 64.124C24.2373 64.0381 24.1973 63.9375 24.1719 63.8223C24.1465 63.7051 24.1338 63.5801 24.1338 63.4473ZM29.3105 61.7715C29.0977 61.7715 28.9014 61.8232 28.7217 61.9268C28.542 62.0283 28.3877 62.1689 28.2588 62.3486L28.2529 62.2783L28.2207 61.8301H27.4619V65H28.2764V63.0957C28.3135 63.0059 28.3604 62.9277 28.417 62.8613C28.4736 62.7949 28.542 62.7402 28.6221 62.6973C28.6885 62.6602 28.7637 62.6328 28.8477 62.6152C28.9336 62.5957 29.0293 62.5859 29.1348 62.5859C29.2363 62.5859 29.3428 62.5928 29.4541 62.6064C29.5674 62.6182 29.6777 62.6367 29.7852 62.6621L29.9053 61.8506C29.8408 61.8311 29.7559 61.8135 29.6504 61.7979C29.5469 61.7803 29.4336 61.7715 29.3105 61.7715ZM30.5527 63.3916V63.4531C30.5527 63.6836 30.5811 63.8975 30.6377 64.0947C30.6943 64.29 30.7764 64.459 30.8838 64.6016C30.9893 64.7441 31.1182 64.8564 31.2705 64.9385C31.4248 65.0186 31.5986 65.0586 31.792 65.0586C31.9697 65.0586 32.126 65.0244 32.2607 64.9561C32.3955 64.8877 32.5127 64.792 32.6123 64.6689L32.6533 65H33.3887V60.5H32.5713V62.1143C32.4736 62.0049 32.3613 61.9209 32.2344 61.8623C32.1094 61.8018 31.9639 61.7715 31.7979 61.7715C31.6006 61.7715 31.4248 61.8105 31.2705 61.8887C31.1182 61.9668 30.9883 62.0771 30.8809 62.2197C30.7734 62.3623 30.6914 62.5332 30.6348 62.7324C30.5801 62.9316 30.5527 63.1514 30.5527 63.3916ZM31.3672 63.4531V63.3916C31.3672 63.2588 31.3789 63.1348 31.4023 63.0195C31.4258 62.9023 31.4629 62.7998 31.5137 62.7119C31.5645 62.626 31.6299 62.5586 31.71 62.5098C31.792 62.459 31.8906 62.4336 32.0059 62.4336C32.1445 62.4336 32.2598 62.4639 32.3516 62.5244C32.4434 62.583 32.5166 62.666 32.5713 62.7734V64.0566C32.5166 64.1621 32.4424 64.2451 32.3486 64.3057C32.2568 64.3662 32.1406 64.3965 32 64.3965C31.8848 64.3965 31.7871 64.3721 31.707 64.3232C31.627 64.2744 31.5615 64.207 31.5107 64.1211C31.46 64.0371 31.4229 63.9385 31.3994 63.8252C31.3779 63.71 31.3672 63.5859 31.3672 63.4531Z" fill="#DFFB53"/>
<rect x="0.5" y="106.5" width="141" height="19" rx="3.5" fill="#15171C" stroke="#2F333C"/>
<path d="M8.51855 97.4053V96.7344H5.0791V97.4053H6.37695V101H7.20312V97.4053H8.51855ZM10.5547 101.059C10.8613 101.059 11.127 100.999 11.3516 100.88C11.5762 100.761 11.7402 100.628 11.8438 100.481L11.4365 100.042C11.3428 100.163 11.2207 100.254 11.0703 100.314C10.9199 100.375 10.7646 100.405 10.6045 100.405C10.4912 100.405 10.3867 100.388 10.291 100.353C10.1953 100.317 10.1104 100.268 10.0361 100.203C9.96387 100.141 9.90625 100.071 9.86328 99.9951C9.82031 99.917 9.78516 99.8145 9.75781 99.6875V99.6787H11.9082V99.333C11.9082 99.1006 11.876 98.8887 11.8115 98.6973C11.7471 98.5039 11.6533 98.3389 11.5303 98.2021C11.4053 98.0654 11.2529 97.96 11.0732 97.8857C10.8955 97.8096 10.6924 97.7715 10.4639 97.7715C10.2432 97.7715 10.0391 97.8115 9.85156 97.8916C9.66406 97.9717 9.50195 98.084 9.36523 98.2285C9.22852 98.373 9.12207 98.5459 9.0459 98.7471C8.96973 98.9463 8.93164 99.167 8.93164 99.4092V99.5264C8.93164 99.7393 8.96973 99.9395 9.0459 100.127C9.12402 100.312 9.23438 100.474 9.37695 100.61C9.51953 100.749 9.69043 100.858 9.88965 100.938C10.0889 101.019 10.3105 101.059 10.5547 101.059ZM10.458 98.4307C10.5615 98.4307 10.6523 98.4473 10.7305 98.4805C10.8105 98.5117 10.8779 98.5547 10.9326 98.6094C10.9873 98.666 11.0303 98.7324 11.0615 98.8086C11.0928 98.8848 11.1084 98.9658 11.1084 99.0518V99.1162H9.77246C9.79199 99.0127 9.82129 98.9189 9.86035 98.835C9.89941 98.751 9.94824 98.6787 10.0068 98.6182C10.0635 98.5576 10.1299 98.5117 10.2061 98.4805C10.2822 98.4473 10.3662 98.4307 10.458 98.4307ZM12.79 96.5V97.165H13.7393V100.338H12.79V101H15.4707V100.338H14.5625V96.5H12.79ZM17.7617 101.059C18.0684 101.059 18.334 100.999 18.5586 100.88C18.7832 100.761 18.9473 100.628 19.0508 100.481L18.6436 100.042C18.5498 100.163 18.4277 100.254 18.2773 100.314C18.127 100.375 17.9717 100.405 17.8115 100.405C17.6982 100.405 17.5938 100.388 17.498 100.353C17.4023 100.317 17.3174 100.268 17.2432 100.203C17.1709 100.141 17.1133 100.071 17.0703 99.9951C17.0273 99.917 16.9922 99.8145 16.9648 99.6875V99.6787H19.1152V99.333C19.1152 99.1006 19.083 98.8887 19.0186 98.6973C18.9541 98.5039 18.8604 98.3389 18.7373 98.2021C18.6123 98.0654 18.46 97.96 18.2803 97.8857C18.1025 97.8096 17.8994 97.7715 17.6709 97.7715C17.4502 97.7715 17.2461 97.8115 17.0586 97.8916C16.8711 97.9717 16.709 98.084 16.5723 98.2285C16.4355 98.373 16.3291 98.5459 16.2529 98.7471C16.1768 98.9463 16.1387 99.167 16.1387 99.4092V99.5264C16.1387 99.7393 16.1768 99.9395 16.2529 100.127C16.3311 100.312 16.4414 100.474 16.584 100.61C16.7266 100.749 16.8975 100.858 17.0967 100.938C17.2959 101.019 17.5176 101.059 17.7617 101.059ZM17.665 98.4307C17.7686 98.4307 17.8594 98.4473 17.9375 98.4805C18.0176 98.5117 18.085 98.5547 18.1396 98.6094C18.1943 98.666 18.2373 98.7324 18.2686 98.8086C18.2998 98.8848 18.3154 98.9658 18.3154 99.0518V99.1162H16.9795C16.999 99.0127 17.0283 98.9189 17.0674 98.835C17.1064 98.751 17.1553 98.6787 17.2139 98.6182C17.2705 98.5576 17.3369 98.5117 17.4131 98.4805C17.4893 98.4473 17.5732 98.4307 17.665 98.4307ZM19.7451 99.3916V99.4531C19.7451 99.6836 19.7744 99.8975 19.833 100.095C19.8936 100.29 19.9795 100.459 20.0908 100.602C20.2021 100.744 20.3359 100.856 20.4922 100.938C20.6504 101.019 20.8281 101.059 21.0254 101.059C21.125 101.059 21.2178 101.048 21.3037 101.026C21.3916 101.005 21.4717 100.975 21.5439 100.936C21.5928 100.908 21.6387 100.877 21.6816 100.842C21.7246 100.807 21.7656 100.768 21.8047 100.725V100.906C21.8047 101.014 21.7891 101.11 21.7578 101.196C21.7285 101.282 21.6855 101.354 21.6289 101.413C21.5664 101.478 21.4883 101.526 21.3945 101.56C21.3027 101.593 21.1973 101.609 21.0781 101.609C21.0039 101.609 20.9316 101.602 20.8613 101.586C20.793 101.572 20.7266 101.551 20.6621 101.521C20.5957 101.492 20.5322 101.454 20.4717 101.407C20.4111 101.362 20.3545 101.31 20.3018 101.249L19.9355 101.744C20.0039 101.832 20.0859 101.907 20.1816 101.97C20.2773 102.034 20.3789 102.087 20.4863 102.128C20.5938 102.169 20.7021 102.199 20.8115 102.219C20.9209 102.238 21.0234 102.248 21.1191 102.248C21.3418 102.248 21.5449 102.218 21.7285 102.157C21.9141 102.099 22.0732 102.012 22.2061 101.896C22.3369 101.781 22.4385 101.64 22.5107 101.472C22.585 101.304 22.6221 101.112 22.6221 100.897V97.8301H21.8809L21.8486 98.1318C21.8096 98.083 21.7666 98.0391 21.7197 98C21.6729 97.959 21.6221 97.9238 21.5674 97.8945C21.4951 97.8535 21.4141 97.8232 21.3242 97.8037C21.2363 97.7822 21.1387 97.7715 21.0312 97.7715C20.832 97.7715 20.6533 97.8105 20.4951 97.8887C20.3369 97.9668 20.2021 98.0771 20.0908 98.2197C19.9795 98.3623 19.8936 98.5332 19.833 98.7324C19.7744 98.9316 19.7451 99.1514 19.7451 99.3916ZM20.5625 99.4531V99.3916C20.5625 99.2588 20.5762 99.1348 20.6035 99.0195C20.6309 98.9023 20.6729 98.7998 20.7295 98.7119C20.7842 98.626 20.8535 98.5586 20.9375 98.5098C21.0215 98.459 21.1211 98.4336 21.2363 98.4336C21.2988 98.4336 21.3564 98.4395 21.4092 98.4512C21.4639 98.4629 21.5137 98.4795 21.5586 98.501C21.6113 98.5264 21.6582 98.5596 21.6992 98.6006C21.7402 98.6416 21.7754 98.6895 21.8047 98.7441V100.086C21.7773 100.135 21.7451 100.179 21.708 100.218C21.6709 100.257 21.6279 100.29 21.5791 100.317C21.5322 100.343 21.4795 100.362 21.4209 100.376C21.3643 100.39 21.3008 100.396 21.2305 100.396C21.1152 100.396 21.0156 100.372 20.9316 100.323C20.8477 100.274 20.7783 100.207 20.7236 100.121C20.6689 100.037 20.6279 99.9385 20.6006 99.8252C20.5752 99.71 20.5625 99.5859 20.5625 99.4531ZM25.707 97.7715C25.4941 97.7715 25.2979 97.8232 25.1182 97.9268C24.9385 98.0283 24.7842 98.1689 24.6553 98.3486L24.6494 98.2783L24.6172 97.8301H23.8584V101H24.6729V99.0957C24.71 99.0059 24.7568 98.9277 24.8135 98.8613C24.8701 98.7949 24.9385 98.7402 25.0186 98.6973C25.085 98.6602 25.1602 98.6328 25.2441 98.6152C25.3301 98.5957 25.4258 98.5859 25.5312 98.5859C25.6328 98.5859 25.7393 98.5928 25.8506 98.6064C25.9639 98.6182 26.0742 98.6367 26.1816 98.6621L26.3018 97.8506C26.2373 97.8311 26.1523 97.8135 26.0469 97.7979C25.9434 97.7803 25.8301 97.7715 25.707 97.7715ZM29.0146 101H29.8408V100.95C29.7998 100.87 29.7686 100.774 29.7471 100.663C29.7256 100.552 29.7148 100.411 29.7148 100.241V98.8818C29.7148 98.6982 29.6807 98.5371 29.6123 98.3984C29.5439 98.2578 29.4492 98.1416 29.3281 98.0498C29.207 97.958 29.0635 97.8887 28.8975 97.8418C28.7334 97.7949 28.5557 97.7715 28.3643 97.7715C28.1514 97.7715 27.9619 97.7988 27.7959 97.8535C27.6318 97.9062 27.4932 97.9785 27.3799 98.0703C27.2646 98.1621 27.1768 98.2686 27.1162 98.3896C27.0576 98.5107 27.0283 98.6387 27.0283 98.7734H27.8428C27.8428 98.7168 27.8506 98.665 27.8662 98.6182C27.8838 98.5713 27.9102 98.5312 27.9453 98.498C27.9844 98.4609 28.0352 98.4326 28.0977 98.4131C28.1602 98.3916 28.2344 98.3809 28.3203 98.3809C28.418 98.3809 28.5029 98.3936 28.5752 98.4189C28.6494 98.4424 28.7109 98.4766 28.7598 98.5215C28.8066 98.5645 28.8418 98.6162 28.8652 98.6768C28.8887 98.7354 28.9004 98.8018 28.9004 98.876V99.0635H28.4463C28.2119 99.0635 28.0039 99.085 27.8223 99.1279C27.6426 99.1689 27.4912 99.2295 27.3682 99.3096C27.2314 99.3975 27.1289 99.5098 27.0605 99.6465C26.9922 99.7812 26.958 99.9365 26.958 100.112C26.958 100.249 26.9854 100.376 27.04 100.493C27.0947 100.608 27.1709 100.708 27.2686 100.792C27.3662 100.876 27.4824 100.941 27.6172 100.988C27.7539 101.035 27.9033 101.059 28.0654 101.059C28.165 101.059 28.2578 101.049 28.3438 101.029C28.4297 101.012 28.5088 100.986 28.5811 100.953C28.6514 100.922 28.7158 100.885 28.7744 100.842C28.833 100.799 28.8848 100.753 28.9297 100.704C28.9395 100.761 28.9512 100.814 28.9648 100.865C28.9785 100.916 28.9951 100.961 29.0146 101ZM28.2383 100.429C28.1621 100.429 28.0947 100.42 28.0361 100.402C27.9795 100.383 27.9316 100.357 27.8926 100.326C27.8535 100.293 27.8232 100.253 27.8018 100.206C27.7822 100.157 27.7725 100.104 27.7725 100.048C27.7725 99.9756 27.7861 99.9092 27.8135 99.8486C27.8408 99.7861 27.8828 99.7324 27.9395 99.6875C27.9961 99.6445 28.0693 99.6113 28.1592 99.5879C28.249 99.5625 28.3574 99.5498 28.4844 99.5498H28.9004V100.095C28.877 100.136 28.8447 100.177 28.8037 100.218C28.7627 100.257 28.7139 100.292 28.6572 100.323C28.6006 100.354 28.5371 100.38 28.4668 100.399C28.3965 100.419 28.3203 100.429 28.2383 100.429ZM31.1445 97.8301H30.4443V101H31.1855V98.627C31.1953 98.6016 31.2061 98.5781 31.2178 98.5566C31.2295 98.5352 31.2432 98.5166 31.2588 98.501C31.2803 98.4795 31.3047 98.4629 31.332 98.4512C31.3594 98.4395 31.3906 98.4336 31.4258 98.4336C31.457 98.4336 31.4863 98.4385 31.5137 98.4482C31.541 98.4561 31.5654 98.4707 31.5869 98.4922C31.6064 98.5137 31.6221 98.5439 31.6338 98.583C31.6455 98.6221 31.6514 98.6719 31.6514 98.7324V101H32.3691V98.6621C32.3691 98.6387 32.3691 98.6201 32.3691 98.6064C32.3691 98.5928 32.3691 98.584 32.3691 98.5801C32.3789 98.5586 32.3906 98.54 32.4043 98.5244C32.418 98.5068 32.4336 98.4912 32.4512 98.4775C32.4727 98.4639 32.4951 98.4531 32.5186 98.4453C32.5439 98.4375 32.5723 98.4336 32.6035 98.4336C32.6328 98.4336 32.6611 98.4385 32.6885 98.4482C32.7178 98.4561 32.7432 98.4707 32.7646 98.4922C32.7861 98.5156 32.8027 98.5469 32.8145 98.5859C32.8281 98.625 32.835 98.6748 32.835 98.7354V101H33.5762V98.7383C33.5762 98.5625 33.5586 98.4141 33.5234 98.293C33.4902 98.1699 33.4434 98.0693 33.3828 97.9912C33.3203 97.915 33.2471 97.8594 33.1631 97.8242C33.0811 97.7891 32.9922 97.7715 32.8965 97.7715C32.8203 97.7715 32.75 97.7812 32.6855 97.8008C32.6211 97.8203 32.5635 97.8477 32.5127 97.8828C32.4717 97.9102 32.4336 97.9434 32.3984 97.9824C32.3652 98.0195 32.335 98.0615 32.3076 98.1084C32.29 98.0596 32.2686 98.0166 32.2432 97.9795C32.2197 97.9404 32.1914 97.9072 32.1582 97.8799C32.1152 97.8428 32.0645 97.8154 32.0059 97.7979C31.9473 97.7803 31.8809 97.7715 31.8066 97.7715C31.6543 97.7715 31.5244 97.8115 31.417 97.8916C31.3115 97.9697 31.2285 98.0771 31.168 98.2139L31.1445 97.8301Z" fill="#DFFB53"/>
<rect x="137.5" y="70.5" width="124" height="19" rx="3.5" fill="#15171C" stroke="#2F333C"/>
<path d="M143.831 63.4062L144.634 65H145.516V64.9619L144.599 63.2012C144.716 63.1484 144.821 63.0859 144.915 63.0137C145.011 62.9414 145.093 62.8564 145.161 62.7588C145.228 62.6631 145.278 62.5547 145.313 62.4336C145.351 62.3105 145.369 62.1729 145.369 62.0205C145.369 61.8096 145.332 61.624 145.258 61.4639C145.186 61.3037 145.082 61.1699 144.947 61.0625C144.811 60.9551 144.646 60.874 144.455 60.8193C144.264 60.7627 144.05 60.7344 143.813 60.7344H142.384V65H143.207V63.4062H143.831ZM143.207 62.7383V61.4023H143.813C143.927 61.4023 144.027 61.416 144.115 61.4434C144.203 61.4707 144.277 61.5098 144.338 61.5605C144.406 61.6172 144.457 61.6895 144.49 61.7773C144.525 61.8633 144.543 61.9629 144.543 62.0762C144.543 62.1699 144.529 62.2549 144.502 62.3311C144.477 62.4072 144.438 62.4727 144.388 62.5273C144.327 62.5957 144.248 62.6484 144.15 62.6855C144.055 62.7207 143.943 62.7383 143.816 62.7383H143.207ZM147.555 65.0586C147.861 65.0586 148.127 64.999 148.352 64.8799C148.576 64.7607 148.74 64.6279 148.844 64.4814L148.437 64.042C148.343 64.1631 148.221 64.2539 148.07 64.3145C147.92 64.375 147.765 64.4053 147.604 64.4053C147.491 64.4053 147.387 64.3877 147.291 64.3525C147.195 64.3174 147.11 64.2676 147.036 64.2031C146.964 64.1406 146.906 64.0713 146.863 63.9951C146.82 63.917 146.785 63.8145 146.758 63.6875V63.6787H148.908V63.333C148.908 63.1006 148.876 62.8887 148.812 62.6973C148.747 62.5039 148.653 62.3389 148.53 62.2021C148.405 62.0654 148.253 61.96 148.073 61.8857C147.896 61.8096 147.692 61.7715 147.464 61.7715C147.243 61.7715 147.039 61.8115 146.852 61.8916C146.664 61.9717 146.502 62.084 146.365 62.2285C146.229 62.373 146.122 62.5459 146.046 62.7471C145.97 62.9463 145.932 63.167 145.932 63.4092V63.5264C145.932 63.7393 145.97 63.9395 146.046 64.127C146.124 64.3125 146.234 64.4736 146.377 64.6104C146.52 64.749 146.69 64.8584 146.89 64.9385C147.089 65.0186 147.311 65.0586 147.555 65.0586ZM147.458 62.4307C147.562 62.4307 147.652 62.4473 147.73 62.4805C147.811 62.5117 147.878 62.5547 147.933 62.6094C147.987 62.666 148.03 62.7324 148.062 62.8086C148.093 62.8848 148.108 62.9658 148.108 63.0518V63.1162H146.772C146.792 63.0127 146.821 62.9189 146.86 62.835C146.899 62.751 146.948 62.6787 147.007 62.6182C147.063 62.5576 147.13 62.5117 147.206 62.4805C147.282 62.4473 147.366 62.4307 147.458 62.4307ZM149.632 66.2188H150.446V64.7246C150.483 64.7656 150.522 64.8027 150.563 64.8359C150.604 64.8691 150.647 64.8994 150.692 64.9268C150.769 64.9697 150.851 65.002 150.938 65.0234C151.028 65.0469 151.126 65.0586 151.231 65.0586C151.431 65.0586 151.607 65.0176 151.762 64.9355C151.916 64.8535 152.046 64.7402 152.151 64.5957C152.255 64.4531 152.333 64.2832 152.386 64.0859C152.44 63.8887 152.468 63.6748 152.468 63.4443V63.3828C152.468 63.1426 152.44 62.9238 152.386 62.7266C152.333 62.5273 152.254 62.3564 152.148 62.2139C152.043 62.0732 151.913 61.9648 151.759 61.8887C151.604 61.8105 151.427 61.7715 151.226 61.7715C151.128 61.7715 151.036 61.7822 150.95 61.8037C150.866 61.8232 150.789 61.8516 150.719 61.8887C150.66 61.9199 150.605 61.957 150.555 62C150.504 62.041 150.457 62.0879 150.414 62.1406L150.385 61.8301H149.632V66.2188ZM151.653 63.3828V63.4443C151.653 63.5752 151.642 63.6992 151.618 63.8164C151.595 63.9316 151.558 64.0332 151.507 64.1211C151.456 64.209 151.39 64.2783 151.308 64.3291C151.228 64.3799 151.13 64.4053 151.015 64.4053C150.942 64.4053 150.877 64.3984 150.818 64.3848C150.76 64.3691 150.708 64.3477 150.663 64.3203C150.616 64.291 150.574 64.2559 150.537 64.2148C150.502 64.1738 150.472 64.1279 150.446 64.0771V62.7529C150.474 62.6982 150.506 62.6504 150.543 62.6094C150.582 62.5684 150.627 62.5342 150.678 62.5068C150.723 62.4834 150.772 62.4658 150.827 62.4541C150.882 62.4404 150.942 62.4336 151.009 62.4336C151.124 62.4336 151.222 62.458 151.302 62.5068C151.384 62.5557 151.451 62.6221 151.504 62.7061C151.555 62.792 151.592 62.8936 151.615 63.0107C151.641 63.126 151.653 63.25 151.653 63.3828ZM154.762 65.0586C155.068 65.0586 155.334 64.999 155.559 64.8799C155.783 64.7607 155.947 64.6279 156.051 64.4814L155.644 64.042C155.55 64.1631 155.428 64.2539 155.277 64.3145C155.127 64.375 154.972 64.4053 154.812 64.4053C154.698 64.4053 154.594 64.3877 154.498 64.3525C154.402 64.3174 154.317 64.2676 154.243 64.2031C154.171 64.1406 154.113 64.0713 154.07 63.9951C154.027 63.917 153.992 63.8145 153.965 63.6875V63.6787H156.115V63.333C156.115 63.1006 156.083 62.8887 156.019 62.6973C155.954 62.5039 155.86 62.3389 155.737 62.2021C155.612 62.0654 155.46 61.96 155.28 61.8857C155.103 61.8096 154.899 61.7715 154.671 61.7715C154.45 61.7715 154.246 61.8115 154.059 61.8916C153.871 61.9717 153.709 62.084 153.572 62.2285C153.436 62.373 153.329 62.5459 153.253 62.7471C153.177 62.9463 153.139 63.167 153.139 63.4092V63.5264C153.139 63.7393 153.177 63.9395 153.253 64.127C153.331 64.3125 153.441 64.4736 153.584 64.6104C153.727 64.749 153.897 64.8584 154.097 64.9385C154.296 65.0186 154.518 65.0586 154.762 65.0586ZM154.665 62.4307C154.769 62.4307 154.859 62.4473 154.938 62.4805C155.018 62.5117 155.085 62.5547 155.14 62.6094C155.194 62.666 155.237 62.7324 155.269 62.8086C155.3 62.8848 155.315 62.9658 155.315 63.0518V63.1162H153.979C153.999 63.0127 154.028 62.9189 154.067 62.835C154.106 62.751 154.155 62.6787 154.214 62.6182C154.271 62.5576 154.337 62.5117 154.413 62.4805C154.489 62.4473 154.573 62.4307 154.665 62.4307ZM158.808 65H159.634V64.9502C159.593 64.8701 159.562 64.7744 159.54 64.6631C159.519 64.5518 159.508 64.4111 159.508 64.2412V62.8818C159.508 62.6982 159.474 62.5371 159.405 62.3984C159.337 62.2578 159.242 62.1416 159.121 62.0498C159 61.958 158.856 61.8887 158.69 61.8418C158.526 61.7949 158.349 61.7715 158.157 61.7715C157.944 61.7715 157.755 61.7988 157.589 61.8535C157.425 61.9062 157.286 61.9785 157.173 62.0703C157.058 62.1621 156.97 62.2686 156.909 62.3896C156.851 62.5107 156.821 62.6387 156.821 62.7734H157.636C157.636 62.7168 157.644 62.665 157.659 62.6182C157.677 62.5713 157.703 62.5312 157.738 62.498C157.777 62.4609 157.828 62.4326 157.891 62.4131C157.953 62.3916 158.027 62.3809 158.113 62.3809C158.211 62.3809 158.296 62.3936 158.368 62.4189C158.442 62.4424 158.504 62.4766 158.553 62.5215C158.6 62.5645 158.635 62.6162 158.658 62.6768C158.682 62.7354 158.693 62.8018 158.693 62.876V63.0635H158.239C158.005 63.0635 157.797 63.085 157.615 63.1279C157.436 63.1689 157.284 63.2295 157.161 63.3096C157.024 63.3975 156.922 63.5098 156.854 63.6465C156.785 63.7812 156.751 63.9365 156.751 64.1123C156.751 64.249 156.778 64.376 156.833 64.4932C156.888 64.6084 156.964 64.708 157.062 64.792C157.159 64.876 157.275 64.9414 157.41 64.9883C157.547 65.0352 157.696 65.0586 157.858 65.0586C157.958 65.0586 158.051 65.0488 158.137 65.0293C158.223 65.0117 158.302 64.9863 158.374 64.9531C158.444 64.9219 158.509 64.8848 158.567 64.8418C158.626 64.7988 158.678 64.7529 158.723 64.7041C158.732 64.7607 158.744 64.8145 158.758 64.8652C158.771 64.916 158.788 64.9609 158.808 65ZM158.031 64.4287C157.955 64.4287 157.888 64.4199 157.829 64.4023C157.772 64.3828 157.725 64.3574 157.686 64.3262C157.646 64.293 157.616 64.2529 157.595 64.2061C157.575 64.1572 157.565 64.1045 157.565 64.0479C157.565 63.9756 157.579 63.9092 157.606 63.8486C157.634 63.7861 157.676 63.7324 157.732 63.6875C157.789 63.6445 157.862 63.6113 157.952 63.5879C158.042 63.5625 158.15 63.5498 158.277 63.5498H158.693V64.0947C158.67 64.1357 158.638 64.1768 158.597 64.2178C158.556 64.2568 158.507 64.292 158.45 64.3232C158.394 64.3545 158.33 64.3799 158.26 64.3994C158.189 64.4189 158.113 64.4287 158.031 64.4287ZM161.925 61.0537H161.11V61.8301H160.387V62.4307H161.11V63.8721C161.11 64.0811 161.138 64.2607 161.192 64.4111C161.247 64.5596 161.325 64.6816 161.427 64.7773C161.526 64.875 161.646 64.9473 161.787 64.9941C161.93 65.0391 162.088 65.0615 162.262 65.0615C162.352 65.0615 162.442 65.0566 162.534 65.0469C162.628 65.0391 162.718 65.0273 162.804 65.0117C162.89 64.9961 162.971 64.9766 163.047 64.9531C163.123 64.9277 163.189 64.8984 163.246 64.8652L163.167 64.3057C163.13 64.3154 163.085 64.3252 163.032 64.335C162.981 64.3447 162.927 64.3535 162.868 64.3613C162.808 64.3711 162.744 64.3789 162.678 64.3848C162.613 64.3906 162.55 64.3936 162.487 64.3936C162.401 64.3936 162.323 64.3838 162.253 64.3643C162.185 64.3447 162.126 64.3115 162.077 64.2646C162.028 64.2197 161.99 64.1592 161.963 64.083C161.938 64.0049 161.925 63.9082 161.925 63.793V62.4307H163.108V61.8301H161.925V61.0537ZM168.484 63.4355H169.12C169.353 63.4355 169.562 63.4023 169.75 63.3359C169.938 63.2695 170.098 63.1768 170.23 63.0576C170.361 62.9404 170.462 62.8008 170.532 62.6387C170.604 62.4766 170.641 62.2998 170.641 62.1084C170.641 61.9033 170.604 61.7168 170.532 61.5488C170.462 61.3809 170.361 61.2363 170.23 61.1152C170.098 60.9961 169.938 60.9033 169.75 60.8369C169.562 60.7686 169.353 60.7344 169.12 60.7344H167.661V65H168.484V63.4355ZM168.484 62.7676V61.4023H169.12C169.237 61.4023 169.339 61.4209 169.425 61.458C169.511 61.4951 169.583 61.5459 169.642 61.6104C169.698 61.6748 169.74 61.75 169.768 61.8359C169.797 61.9219 169.812 62.0146 169.812 62.1143C169.812 62.2002 169.797 62.2832 169.768 62.3633C169.74 62.4414 169.698 62.5107 169.642 62.5713C169.583 62.6318 169.511 62.6797 169.425 62.7148C169.339 62.75 169.237 62.7676 169.12 62.7676H168.484ZM173.222 65H174.048V64.9502C174.007 64.8701 173.976 64.7744 173.954 64.6631C173.933 64.5518 173.922 64.4111 173.922 64.2412V62.8818C173.922 62.6982 173.888 62.5371 173.819 62.3984C173.751 62.2578 173.656 62.1416 173.535 62.0498C173.414 61.958 173.271 61.8887 173.104 61.8418C172.94 61.7949 172.763 61.7715 172.571 61.7715C172.358 61.7715 172.169 61.7988 172.003 61.8535C171.839 61.9062 171.7 61.9785 171.587 62.0703C171.472 62.1621 171.384 62.2686 171.323 62.3896C171.265 62.5107 171.235 62.6387 171.235 62.7734H172.05C172.05 62.7168 172.058 62.665 172.073 62.6182C172.091 62.5713 172.117 62.5312 172.152 62.498C172.191 62.4609 172.242 62.4326 172.305 62.4131C172.367 62.3916 172.441 62.3809 172.527 62.3809C172.625 62.3809 172.71 62.3936 172.782 62.4189C172.856 62.4424 172.918 62.4766 172.967 62.5215C173.014 62.5645 173.049 62.6162 173.072 62.6768C173.096 62.7354 173.107 62.8018 173.107 62.876V63.0635H172.653C172.419 63.0635 172.211 63.085 172.029 63.1279C171.85 63.1689 171.698 63.2295 171.575 63.3096C171.438 63.3975 171.336 63.5098 171.268 63.6465C171.199 63.7812 171.165 63.9365 171.165 64.1123C171.165 64.249 171.192 64.376 171.247 64.4932C171.302 64.6084 171.378 64.708 171.476 64.792C171.573 64.876 171.689 64.9414 171.824 64.9883C171.961 65.0352 172.11 65.0586 172.272 65.0586C172.372 65.0586 172.465 65.0488 172.551 65.0293C172.637 65.0117 172.716 64.9863 172.788 64.9531C172.858 64.9219 172.923 64.8848 172.981 64.8418C173.04 64.7988 173.092 64.7529 173.137 64.7041C173.146 64.7607 173.158 64.8145 173.172 64.8652C173.186 64.916 173.202 64.9609 173.222 65ZM172.445 64.4287C172.369 64.4287 172.302 64.4199 172.243 64.4023C172.187 64.3828 172.139 64.3574 172.1 64.3262C172.061 64.293 172.03 64.2529 172.009 64.2061C171.989 64.1572 171.979 64.1045 171.979 64.0479C171.979 63.9756 171.993 63.9092 172.021 63.8486C172.048 63.7861 172.09 63.7324 172.146 63.6875C172.203 63.6445 172.276 63.6113 172.366 63.5879C172.456 63.5625 172.564 63.5498 172.691 63.5498H173.107V64.0947C173.084 64.1357 173.052 64.1768 173.011 64.2178C172.97 64.2568 172.921 64.292 172.864 64.3232C172.808 64.3545 172.744 64.3799 172.674 64.3994C172.604 64.4189 172.527 64.4287 172.445 64.4287ZM176.89 64.1299C176.89 64.1787 176.877 64.2236 176.852 64.2646C176.828 64.3057 176.792 64.3418 176.743 64.373C176.692 64.4043 176.627 64.4297 176.547 64.4492C176.469 64.4668 176.377 64.4756 176.271 64.4756C176.184 64.4756 176.098 64.4668 176.014 64.4492C175.932 64.4316 175.858 64.4033 175.794 64.3643C175.729 64.3271 175.677 64.2783 175.636 64.2178C175.595 64.1553 175.571 64.0811 175.565 63.9951H174.789C174.789 64.124 174.82 64.2529 174.883 64.3818C174.947 64.5088 175.041 64.6221 175.164 64.7217C175.287 64.8232 175.439 64.9053 175.621 64.9678C175.805 65.0303 176.016 65.0615 176.254 65.0615C176.471 65.0615 176.667 65.0381 176.843 64.9912C177.019 64.9424 177.169 64.875 177.294 64.7891C177.417 64.7031 177.512 64.6016 177.578 64.4844C177.646 64.3652 177.681 64.2354 177.681 64.0947C177.681 63.9424 177.646 63.8115 177.578 63.7021C177.512 63.5908 177.419 63.4961 177.3 63.418C177.181 63.3418 177.039 63.2793 176.875 63.2305C176.711 63.1816 176.533 63.1416 176.342 63.1104C176.209 63.0908 176.1 63.0684 176.014 63.043C175.928 63.0156 175.86 62.9854 175.812 62.9521C175.761 62.9209 175.726 62.8857 175.706 62.8467C175.687 62.8057 175.677 62.7617 175.677 62.7148C175.677 62.668 175.688 62.624 175.709 62.583C175.732 62.54 175.766 62.5029 175.809 62.4717C175.855 62.4365 175.916 62.4092 175.99 62.3896C176.064 62.3701 176.151 62.3604 176.251 62.3604C176.368 62.3604 176.468 62.375 176.55 62.4043C176.634 62.4336 176.7 62.4727 176.749 62.5215C176.784 62.5586 176.811 62.6006 176.828 62.6475C176.846 62.6924 176.854 62.7412 176.854 62.7939H177.669C177.669 62.6475 177.637 62.5117 177.572 62.3867C177.508 62.2617 177.415 62.1533 177.294 62.0615C177.171 61.9717 177.021 61.9014 176.846 61.8506C176.67 61.7979 176.472 61.7715 176.251 61.7715C176.04 61.7715 175.851 61.7979 175.683 61.8506C175.515 61.9033 175.372 61.9746 175.255 62.0645C175.138 62.1543 175.048 62.2588 174.985 62.3779C174.923 62.4971 174.892 62.6221 174.892 62.7529C174.892 62.8877 174.922 63.0068 174.982 63.1104C175.045 63.2139 175.131 63.3047 175.24 63.3828C175.35 63.4629 175.48 63.5312 175.633 63.5879C175.787 63.6426 175.957 63.6885 176.143 63.7256C176.289 63.7529 176.41 63.7803 176.506 63.8076C176.602 63.835 176.679 63.8643 176.737 63.8955C176.794 63.9287 176.833 63.9639 176.854 64.001C176.878 64.0381 176.89 64.0811 176.89 64.1299ZM178.683 65H179.397L179.734 63.3066L179.799 62.9844L179.866 63.3066L180.215 65H180.93L181.498 61.8301H180.751L180.517 63.6992L180.476 64.0068L180.42 63.7051L180.077 61.8301H179.532L179.189 63.7139L179.134 64.0156L179.096 63.7139L178.858 61.8301H178.114L178.683 65ZM181.94 63.3857V63.4473C181.94 63.6797 181.974 63.8945 182.04 64.0918C182.106 64.2871 182.204 64.457 182.333 64.6016C182.46 64.7461 182.616 64.8594 182.802 64.9414C182.989 65.0215 183.202 65.0615 183.44 65.0615C183.677 65.0615 183.888 65.0215 184.073 64.9414C184.259 64.8594 184.415 64.7461 184.542 64.6016C184.669 64.457 184.766 64.2871 184.832 64.0918C184.898 63.8945 184.932 63.6797 184.932 63.4473V63.3857C184.932 63.1553 184.898 62.9424 184.832 62.7471C184.766 62.5498 184.669 62.3789 184.542 62.2344C184.413 62.0898 184.256 61.9766 184.07 61.8945C183.885 61.8125 183.673 61.7715 183.435 61.7715C183.196 61.7715 182.984 61.8125 182.799 61.8945C182.615 61.9766 182.46 62.0898 182.333 62.2344C182.204 62.3789 182.106 62.5498 182.04 62.7471C181.974 62.9424 181.94 63.1553 181.94 63.3857ZM182.755 63.4473V63.3857C182.755 63.2568 182.768 63.1348 182.793 63.0195C182.818 62.9043 182.858 62.8027 182.913 62.7148C182.968 62.627 183.038 62.5576 183.124 62.5068C183.21 62.4561 183.313 62.4307 183.435 62.4307C183.558 62.4307 183.662 62.4561 183.748 62.5068C183.834 62.5576 183.904 62.627 183.959 62.7148C184.012 62.8027 184.051 62.9043 184.076 63.0195C184.102 63.1348 184.114 63.2568 184.114 63.3857V63.4473C184.114 63.5801 184.102 63.7051 184.076 63.8223C184.051 63.9375 184.012 64.0381 183.959 64.124C183.904 64.2119 183.834 64.2812 183.748 64.332C183.662 64.3828 183.56 64.4082 183.44 64.4082C183.317 64.4082 183.212 64.3828 183.124 64.332C183.038 64.2812 182.968 64.2119 182.913 64.124C182.858 64.0381 182.818 63.9375 182.793 63.8223C182.768 63.7051 182.755 63.5801 182.755 63.4473ZM187.932 61.7715C187.719 61.7715 187.522 61.8232 187.343 61.9268C187.163 62.0283 187.009 62.1689 186.88 62.3486L186.874 62.2783L186.842 61.8301H186.083V65H186.897V63.0957C186.935 63.0059 186.981 62.9277 187.038 62.8613C187.095 62.7949 187.163 62.7402 187.243 62.6973C187.31 62.6602 187.385 62.6328 187.469 62.6152C187.555 62.5957 187.65 62.5859 187.756 62.5859C187.857 62.5859 187.964 62.5928 188.075 62.6064C188.188 62.6182 188.299 62.6367 188.406 62.6621L188.526 61.8506C188.462 61.8311 188.377 61.8135 188.271 61.7979C188.168 61.7803 188.055 61.7715 187.932 61.7715ZM189.174 63.3916V63.4531C189.174 63.6836 189.202 63.8975 189.259 64.0947C189.315 64.29 189.397 64.459 189.505 64.6016C189.61 64.7441 189.739 64.8564 189.892 64.9385C190.046 65.0186 190.22 65.0586 190.413 65.0586C190.591 65.0586 190.747 65.0244 190.882 64.9561C191.017 64.8877 191.134 64.792 191.233 64.6689L191.274 65H192.01V60.5H191.192V62.1143C191.095 62.0049 190.982 61.9209 190.855 61.8623C190.73 61.8018 190.585 61.7715 190.419 61.7715C190.222 61.7715 190.046 61.8105 189.892 61.8887C189.739 61.9668 189.609 62.0771 189.502 62.2197C189.395 62.3623 189.312 62.5332 189.256 62.7324C189.201 62.9316 189.174 63.1514 189.174 63.3916ZM189.988 63.4531V63.3916C189.988 63.2588 190 63.1348 190.023 63.0195C190.047 62.9023 190.084 62.7998 190.135 62.7119C190.186 62.626 190.251 62.5586 190.331 62.5098C190.413 62.459 190.512 62.4336 190.627 62.4336C190.766 62.4336 190.881 62.4639 190.973 62.5244C191.064 62.583 191.138 62.666 191.192 62.7734V64.0566C191.138 64.1621 191.063 64.2451 190.97 64.3057C190.878 64.3662 190.762 64.3965 190.621 64.3965C190.506 64.3965 190.408 64.3721 190.328 64.3232C190.248 64.2744 190.183 64.207 190.132 64.1211C190.081 64.0371 190.044 63.9385 190.021 63.8252C189.999 63.71 189.988 63.5859 189.988 63.4531Z" fill="#DFFB53"/>
</svg>
