<svg width="272" height="173" viewBox="0 0 272 173" fill="none" xmlns="http://www.w3.org/2000/svg">
<rect x="48.5" y="0.5" width="223" height="134" fill="#1C2025" stroke="#2F333C"/>
<rect x="103" y="87" width="2" height="2" fill="#2F333C"/>
<rect x="119" y="87" width="2" height="2" fill="#2F333C"/>
<rect x="135" y="87" width="2" height="2" fill="#2F333C"/>
<rect x="151" y="87" width="2" height="2" fill="#2F333C"/>
<rect x="167" y="87" width="2" height="2" fill="#2F333C"/>
<rect x="183" y="87" width="2" height="2" fill="#2F333C"/>
<rect x="199" y="87" width="2" height="2" fill="#2F333C"/>
<rect x="103" y="101" width="2" height="2" fill="#2F333C"/>
<rect x="119" y="101" width="2" height="2" fill="#2F333C"/>
<rect x="135" y="101" width="2" height="2" fill="#2F333C"/>
<rect x="151" y="101" width="2" height="2" fill="#2F333C"/>
<rect x="167" y="101" width="2" height="2" fill="#2F333C"/>
<rect x="183" y="101" width="2" height="2" fill="#2F333C"/>
<rect x="199" y="101" width="2" height="2" fill="#2F333C"/>
<rect x="103" y="115" width="2" height="2" fill="#2F333C"/>
<rect x="119" y="115" width="2" height="2" fill="#2F333C"/>
<rect x="135" y="115" width="2" height="2" fill="#2F333C"/>
<rect x="151" y="115" width="2" height="2" fill="#2F333C"/>
<rect x="167" y="115" width="2" height="2" fill="#2F333C"/>
<rect x="183" y="115" width="2" height="2" fill="#2F333C"/>
<rect x="199" y="115" width="2" height="2" fill="#2F333C"/>
<rect x="103" y="129" width="2" height="2" fill="#2F333C"/>
<rect x="119" y="129" width="2" height="2" fill="#2F333C"/>
<rect x="135" y="129" width="2" height="2" fill="#2F333C"/>
<rect x="151" y="129" width="2" height="2" fill="#2F333C"/>
<rect x="167" y="129" width="2" height="2" fill="#2F333C"/>
<rect x="183" y="129" width="2" height="2" fill="#2F333C"/>
<rect x="199" y="129" width="2" height="2" fill="#2F333C"/>
<rect x="119" y="143" width="2" height="2" fill="#2F333C"/>
<rect x="103" y="143" width="2" height="2" fill="#2F333C"/>
<rect x="135" y="143" width="2" height="2" fill="#2F333C"/>
<rect x="151" y="143" width="2" height="2" fill="#2F333C"/>
<rect x="167" y="143" width="2" height="2" fill="#2F333C"/>
<rect x="183" y="143" width="2" height="2" fill="#2F333C"/>
<rect x="199" y="143" width="2" height="2" fill="#2F333C"/>
<rect x="103" y="157" width="2" height="2" fill="#2F333C"/>
<rect x="119" y="157" width="2" height="2" fill="#2F333C"/>
<rect x="135" y="157" width="2" height="2" fill="#2F333C"/>
<rect x="151" y="157" width="2" height="2" fill="#2F333C"/>
<rect x="167" y="157" width="2" height="2" fill="#2F333C"/>
<rect x="183" y="157" width="2" height="2" fill="#2F333C"/>
<rect x="199" y="157" width="2" height="2" fill="#2F333C"/>
<rect x="103" y="171" width="2" height="2" fill="#2F333C"/>
<rect x="119" y="171" width="2" height="2" fill="#2F333C"/>
<rect x="135" y="171" width="2" height="2" fill="#2F333C"/>
<rect x="151" y="171" width="2" height="2" fill="#2F333C"/>
<rect x="167" y="171" width="2" height="2" fill="#2F333C"/>
<rect x="183" y="171" width="2" height="2" fill="#2F333C"/>
<rect x="199" y="171" width="2" height="2" fill="#2F333C"/>
<rect x="11.5" y="59.5" width="43" height="19" rx="3.5" fill="#15171C" stroke="#2F333C"/>
<path d="M16.5654 49.7344V50.3994H17.377V53.3379H16.5654V54H19.0322V53.3379H18.2002V50.3994H19.0322V49.7344H16.5654ZM19.9697 54H21.1152C21.3047 54 21.4824 53.9766 21.6484 53.9297C21.8164 53.8828 21.9697 53.8154 22.1084 53.7275C22.2275 53.6533 22.3369 53.5615 22.4365 53.4521C22.5361 53.3408 22.623 53.2197 22.6973 53.0889C22.7754 52.9424 22.8359 52.7812 22.8789 52.6055C22.9219 52.4297 22.9434 52.2432 22.9434 52.0459V51.6943C22.9434 51.4893 22.9199 51.2959 22.873 51.1143C22.8281 50.9326 22.7637 50.7666 22.6797 50.6162C22.6074 50.4932 22.5225 50.3799 22.4248 50.2764C22.3291 50.1709 22.2197 50.082 22.0967 50.0098C21.9561 49.9219 21.7998 49.8545 21.6279 49.8076C21.4561 49.7588 21.2715 49.7344 21.0742 49.7344H19.9697V54ZM20.7988 50.4023H21.0742C21.1738 50.4023 21.2656 50.4141 21.3496 50.4375C21.4355 50.459 21.5137 50.4902 21.584 50.5312C21.6758 50.5859 21.7559 50.6562 21.8242 50.7422C21.8945 50.8281 21.9512 50.9258 21.9941 51.0352C22.0293 51.127 22.0557 51.2285 22.0732 51.3398C22.0928 51.4492 22.1025 51.5654 22.1025 51.6885V52.0459C22.1025 52.1768 22.0928 52.2988 22.0732 52.4121C22.0557 52.5234 22.0293 52.625 21.9941 52.7168C21.9512 52.8223 21.8994 52.915 21.8389 52.9951C21.7803 53.0732 21.7139 53.1377 21.6396 53.1885C21.5674 53.2373 21.4873 53.2744 21.3994 53.2998C21.3115 53.3252 21.2168 53.3379 21.1152 53.3379H20.7988V50.4023Z" fill="#DFFB53"/>
<rect x="65.5" y="59.5" width="43" height="19" rx="3.5" fill="#15171C" stroke="#2F333C"/>
<path d="M73.1963 54V49.7344H72.3701L72.3672 52.4736L71.1895 49.7344H70.3604V54H71.1895V51.249L72.376 54H73.1963ZM75.9971 54H76.8232V53.9502C76.7822 53.8701 76.751 53.7744 76.7295 53.6631C76.708 53.5518 76.6973 53.4111 76.6973 53.2412V51.8818C76.6973 51.6982 76.6631 51.5371 76.5947 51.3984C76.5264 51.2578 76.4316 51.1416 76.3105 51.0498C76.1895 50.958 76.0459 50.8887 75.8799 50.8418C75.7158 50.7949 75.5381 50.7715 75.3467 50.7715C75.1338 50.7715 74.9443 50.7988 74.7783 50.8535C74.6143 50.9062 74.4756 50.9785 74.3623 51.0703C74.2471 51.1621 74.1592 51.2686 74.0986 51.3896C74.04 51.5107 74.0107 51.6387 74.0107 51.7734H74.8252C74.8252 51.7168 74.833 51.665 74.8486 51.6182C74.8662 51.5713 74.8926 51.5312 74.9277 51.498C74.9668 51.4609 75.0176 51.4326 75.0801 51.4131C75.1426 51.3916 75.2168 51.3809 75.3027 51.3809C75.4004 51.3809 75.4854 51.3936 75.5576 51.4189C75.6318 51.4424 75.6934 51.4766 75.7422 51.5215C75.7891 51.5645 75.8242 51.6162 75.8477 51.6768C75.8711 51.7354 75.8828 51.8018 75.8828 51.876V52.0635H75.4287C75.1943 52.0635 74.9863 52.085 74.8047 52.1279C74.625 52.1689 74.4736 52.2295 74.3506 52.3096C74.2139 52.3975 74.1113 52.5098 74.043 52.6465C73.9746 52.7812 73.9404 52.9365 73.9404 53.1123C73.9404 53.249 73.9678 53.376 74.0225 53.4932C74.0771 53.6084 74.1533 53.708 74.251 53.792C74.3486 53.876 74.4648 53.9414 74.5996 53.9883C74.7363 54.0352 74.8857 54.0586 75.0479 54.0586C75.1475 54.0586 75.2402 54.0488 75.3262 54.0293C75.4121 54.0117 75.4912 53.9863 75.5635 53.9531C75.6338 53.9219 75.6982 53.8848 75.7568 53.8418C75.8154 53.7988 75.8672 53.7529 75.9121 53.7041C75.9219 53.7607 75.9336 53.8145 75.9473 53.8652C75.9609 53.916 75.9775 53.9609 75.9971 54ZM75.2207 53.4287C75.1445 53.4287 75.0771 53.4199 75.0186 53.4023C74.9619 53.3828 74.9141 53.3574 74.875 53.3262C74.8359 53.293 74.8057 53.2529 74.7842 53.2061C74.7646 53.1572 74.7549 53.1045 74.7549 53.0479C74.7549 52.9756 74.7686 52.9092 74.7959 52.8486C74.8232 52.7861 74.8652 52.7324 74.9219 52.6875C74.9785 52.6445 75.0518 52.6113 75.1416 52.5879C75.2314 52.5625 75.3398 52.5498 75.4668 52.5498H75.8828V53.0947C75.8594 53.1357 75.8271 53.1768 75.7861 53.2178C75.7451 53.2568 75.6963 53.292 75.6396 53.3232C75.583 53.3545 75.5195 53.3799 75.4492 53.3994C75.3789 53.4189 75.3027 53.4287 75.2207 53.4287ZM78.127 50.8301H77.4268V54H78.168V51.627C78.1777 51.6016 78.1885 51.5781 78.2002 51.5566C78.2119 51.5352 78.2256 51.5166 78.2412 51.501C78.2627 51.4795 78.2871 51.4629 78.3145 51.4512C78.3418 51.4395 78.373 51.4336 78.4082 51.4336C78.4395 51.4336 78.4688 51.4385 78.4961 51.4482C78.5234 51.4561 78.5479 51.4707 78.5693 51.4922C78.5889 51.5137 78.6045 51.5439 78.6162 51.583C78.6279 51.6221 78.6338 51.6719 78.6338 51.7324V54H79.3516V51.6621C79.3516 51.6387 79.3516 51.6201 79.3516 51.6064C79.3516 51.5928 79.3516 51.584 79.3516 51.5801C79.3613 51.5586 79.373 51.54 79.3867 51.5244C79.4004 51.5068 79.416 51.4912 79.4336 51.4775C79.4551 51.4639 79.4775 51.4531 79.501 51.4453C79.5264 51.4375 79.5547 51.4336 79.5859 51.4336C79.6152 51.4336 79.6436 51.4385 79.6709 51.4482C79.7002 51.4561 79.7256 51.4707 79.7471 51.4922C79.7686 51.5156 79.7852 51.5469 79.7969 51.5859C79.8105 51.625 79.8174 51.6748 79.8174 51.7354V54H80.5586V51.7383C80.5586 51.5625 80.541 51.4141 80.5059 51.293C80.4727 51.1699 80.4258 51.0693 80.3652 50.9912C80.3027 50.915 80.2295 50.8594 80.1455 50.8242C80.0635 50.7891 79.9746 50.7715 79.8789 50.7715C79.8027 50.7715 79.7324 50.7812 79.668 50.8008C79.6035 50.8203 79.5459 50.8477 79.4951 50.8828C79.4541 50.9102 79.416 50.9434 79.3809 50.9824C79.3477 51.0195 79.3174 51.0615 79.29 51.1084C79.2725 51.0596 79.251 51.0166 79.2256 50.9795C79.2021 50.9404 79.1738 50.9072 79.1406 50.8799C79.0977 50.8428 79.0469 50.8154 78.9883 50.7979C78.9297 50.7803 78.8633 50.7715 78.7891 50.7715C78.6367 50.7715 78.5068 50.8115 78.3994 50.8916C78.2939 50.9697 78.2109 51.0771 78.1504 51.2139L78.127 50.8301ZM82.7617 54.0586C83.0684 54.0586 83.334 53.999 83.5586 53.8799C83.7832 53.7607 83.9473 53.6279 84.0508 53.4814L83.6436 53.042C83.5498 53.1631 83.4277 53.2539 83.2773 53.3145C83.127 53.375 82.9717 53.4053 82.8115 53.4053C82.6982 53.4053 82.5938 53.3877 82.498 53.3525C82.4023 53.3174 82.3174 53.2676 82.2432 53.2031C82.1709 53.1406 82.1133 53.0713 82.0703 52.9951C82.0273 52.917 81.9922 52.8145 81.9648 52.6875V52.6787H84.1152V52.333C84.1152 52.1006 84.083 51.8887 84.0186 51.6973C83.9541 51.5039 83.8604 51.3389 83.7373 51.2021C83.6123 51.0654 83.46 50.96 83.2803 50.8857C83.1025 50.8096 82.8994 50.7715 82.6709 50.7715C82.4502 50.7715 82.2461 50.8115 82.0586 50.8916C81.8711 50.9717 81.709 51.084 81.5723 51.2285C81.4355 51.373 81.3291 51.5459 81.2529 51.7471C81.1768 51.9463 81.1387 52.167 81.1387 52.4092V52.5264C81.1387 52.7393 81.1768 52.9395 81.2529 53.127C81.3311 53.3125 81.4414 53.4736 81.584 53.6104C81.7266 53.749 81.8975 53.8584 82.0967 53.9385C82.2959 54.0186 82.5176 54.0586 82.7617 54.0586ZM82.665 51.4307C82.7686 51.4307 82.8594 51.4473 82.9375 51.4805C83.0176 51.5117 83.085 51.5547 83.1396 51.6094C83.1943 51.666 83.2373 51.7324 83.2686 51.8086C83.2998 51.8848 83.3154 51.9658 83.3154 52.0518V52.1162H81.9795C81.999 52.0127 82.0283 51.9189 82.0674 51.835C82.1064 51.751 82.1553 51.6787 82.2139 51.6182C82.2705 51.5576 82.3369 51.5117 82.4131 51.4805C82.4893 51.4473 82.5732 51.4307 82.665 51.4307Z" fill="#DFFB53"/>
<rect x="119.5" y="59.5" width="66" height="19" rx="3.5" fill="#15171C" stroke="#2F333C"/>
<path d="M127.346 52.6641H126.522C126.515 52.793 126.493 52.9033 126.458 52.9951C126.423 53.0869 126.375 53.1621 126.314 53.2207C126.254 53.2793 126.181 53.3223 126.095 53.3496C126.009 53.377 125.912 53.3906 125.805 53.3906C125.725 53.3906 125.651 53.3818 125.585 53.3643C125.521 53.3447 125.462 53.3154 125.409 53.2764C125.36 53.2412 125.316 53.1973 125.277 53.1445C125.24 53.0918 125.208 53.0312 125.181 52.9629C125.142 52.8633 125.112 52.7471 125.093 52.6143C125.075 52.4795 125.066 52.3271 125.066 52.1572V51.5771C125.066 51.4521 125.072 51.3359 125.084 51.2285C125.096 51.1191 125.114 51.0195 125.14 50.9297C125.173 50.8145 125.217 50.7139 125.271 50.6279C125.328 50.54 125.396 50.4727 125.477 50.4258C125.523 50.3984 125.574 50.3779 125.629 50.3643C125.686 50.3506 125.746 50.3438 125.811 50.3438C125.932 50.3438 126.035 50.3604 126.121 50.3936C126.209 50.4248 126.282 50.4717 126.341 50.5342C126.397 50.5986 126.44 50.6787 126.47 50.7744C126.501 50.8701 126.521 50.9814 126.528 51.1084H127.349C127.329 50.8857 127.282 50.6855 127.208 50.5078C127.134 50.3301 127.032 50.1797 126.903 50.0566C126.774 49.9336 126.618 49.8389 126.435 49.7725C126.253 49.7061 126.045 49.6729 125.811 49.6729C125.652 49.6729 125.504 49.6934 125.365 49.7344C125.229 49.7734 125.103 49.8301 124.987 49.9043C124.858 49.9922 124.743 50.0996 124.642 50.2266C124.54 50.3535 124.458 50.498 124.396 50.6602C124.341 50.793 124.3 50.9375 124.272 51.0938C124.245 51.248 124.231 51.4111 124.231 51.583V52.1572C124.231 52.3408 124.246 52.5146 124.275 52.6787C124.307 52.8428 124.351 52.9932 124.407 53.1299C124.466 53.2666 124.537 53.3916 124.621 53.5049C124.707 53.6182 124.805 53.7148 124.914 53.7949C125.033 53.8809 125.167 53.9473 125.315 53.9941C125.466 54.0391 125.629 54.0615 125.805 54.0615C126.027 54.0615 126.23 54.0293 126.414 53.9648C126.598 53.8984 126.756 53.8047 126.889 53.6836C127.021 53.5625 127.127 53.416 127.205 53.2441C127.285 53.0723 127.332 52.8789 127.346 52.6641ZM130.293 50.7715C130.08 50.7715 129.884 50.8232 129.704 50.9268C129.524 51.0283 129.37 51.1689 129.241 51.3486L129.235 51.2783L129.203 50.8301H128.444V54H129.259V52.0957C129.296 52.0059 129.343 51.9277 129.399 51.8613C129.456 51.7949 129.524 51.7402 129.604 51.6973C129.671 51.6602 129.746 51.6328 129.83 51.6152C129.916 51.5957 130.012 51.5859 130.117 51.5859C130.219 51.5859 130.325 51.5928 130.437 51.6064C130.55 51.6182 130.66 51.6367 130.768 51.6621L130.888 50.8506C130.823 50.8311 130.738 50.8135 130.633 50.7979C130.529 50.7803 130.416 50.7715 130.293 50.7715ZM133.158 54.0586C133.465 54.0586 133.73 53.999 133.955 53.8799C134.18 53.7607 134.344 53.6279 134.447 53.4814L134.04 53.042C133.946 53.1631 133.824 53.2539 133.674 53.3145C133.523 53.375 133.368 53.4053 133.208 53.4053C133.095 53.4053 132.99 53.3877 132.895 53.3525C132.799 53.3174 132.714 53.2676 132.64 53.2031C132.567 53.1406 132.51 53.0713 132.467 52.9951C132.424 52.917 132.389 52.8145 132.361 52.6875V52.6787H134.512V52.333C134.512 52.1006 134.479 51.8887 134.415 51.6973C134.351 51.5039 134.257 51.3389 134.134 51.2021C134.009 51.0654 133.856 50.96 133.677 50.8857C133.499 50.8096 133.296 50.7715 133.067 50.7715C132.847 50.7715 132.643 50.8115 132.455 50.8916C132.268 50.9717 132.105 51.084 131.969 51.2285C131.832 51.373 131.726 51.5459 131.649 51.7471C131.573 51.9463 131.535 52.167 131.535 52.4092V52.5264C131.535 52.7393 131.573 52.9395 131.649 53.127C131.728 53.3125 131.838 53.4736 131.98 53.6104C132.123 53.749 132.294 53.8584 132.493 53.9385C132.692 54.0186 132.914 54.0586 133.158 54.0586ZM133.062 51.4307C133.165 51.4307 133.256 51.4473 133.334 51.4805C133.414 51.5117 133.481 51.5547 133.536 51.6094C133.591 51.666 133.634 51.7324 133.665 51.8086C133.696 51.8848 133.712 51.9658 133.712 52.0518V52.1162H132.376C132.396 52.0127 132.425 51.9189 132.464 51.835C132.503 51.751 132.552 51.6787 132.61 51.6182C132.667 51.5576 132.733 51.5117 132.81 51.4805C132.886 51.4473 132.97 51.4307 133.062 51.4307ZM137.204 54H138.03V53.9502C137.989 53.8701 137.958 53.7744 137.937 53.6631C137.915 53.5518 137.904 53.4111 137.904 53.2412V51.8818C137.904 51.6982 137.87 51.5371 137.802 51.3984C137.733 51.2578 137.639 51.1416 137.518 51.0498C137.396 50.958 137.253 50.8887 137.087 50.8418C136.923 50.7949 136.745 50.7715 136.554 50.7715C136.341 50.7715 136.151 50.7988 135.985 50.8535C135.821 50.9062 135.683 50.9785 135.569 51.0703C135.454 51.1621 135.366 51.2686 135.306 51.3896C135.247 51.5107 135.218 51.6387 135.218 51.7734H136.032C136.032 51.7168 136.04 51.665 136.056 51.6182C136.073 51.5713 136.1 51.5312 136.135 51.498C136.174 51.4609 136.225 51.4326 136.287 51.4131C136.35 51.3916 136.424 51.3809 136.51 51.3809C136.607 51.3809 136.692 51.3936 136.765 51.4189C136.839 51.4424 136.9 51.4766 136.949 51.5215C136.996 51.5645 137.031 51.6162 137.055 51.6768C137.078 51.7354 137.09 51.8018 137.09 51.876V52.0635H136.636C136.401 52.0635 136.193 52.085 136.012 52.1279C135.832 52.1689 135.681 52.2295 135.558 52.3096C135.421 52.3975 135.318 52.5098 135.25 52.6465C135.182 52.7812 135.147 52.9365 135.147 53.1123C135.147 53.249 135.175 53.376 135.229 53.4932C135.284 53.6084 135.36 53.708 135.458 53.792C135.556 53.876 135.672 53.9414 135.807 53.9883C135.943 54.0352 136.093 54.0586 136.255 54.0586C136.354 54.0586 136.447 54.0488 136.533 54.0293C136.619 54.0117 136.698 53.9863 136.771 53.9531C136.841 53.9219 136.905 53.8848 136.964 53.8418C137.022 53.7988 137.074 53.7529 137.119 53.7041C137.129 53.7607 137.141 53.8145 137.154 53.8652C137.168 53.916 137.185 53.9609 137.204 54ZM136.428 53.4287C136.352 53.4287 136.284 53.4199 136.226 53.4023C136.169 53.3828 136.121 53.3574 136.082 53.3262C136.043 53.293 136.013 53.2529 135.991 53.2061C135.972 53.1572 135.962 53.1045 135.962 53.0479C135.962 52.9756 135.976 52.9092 136.003 52.8486C136.03 52.7861 136.072 52.7324 136.129 52.6875C136.186 52.6445 136.259 52.6113 136.349 52.5879C136.438 52.5625 136.547 52.5498 136.674 52.5498H137.09V53.0947C137.066 53.1357 137.034 53.1768 136.993 53.2178C136.952 53.2568 136.903 53.292 136.847 53.3232C136.79 53.3545 136.727 53.3799 136.656 53.3994C136.586 53.4189 136.51 53.4287 136.428 53.4287ZM140.321 50.0537H139.507V50.8301H138.783V51.4307H139.507V52.8721C139.507 53.0811 139.534 53.2607 139.589 53.4111C139.644 53.5596 139.722 53.6816 139.823 53.7773C139.923 53.875 140.043 53.9473 140.184 53.9941C140.326 54.0391 140.484 54.0615 140.658 54.0615C140.748 54.0615 140.839 54.0566 140.931 54.0469C141.024 54.0391 141.114 54.0273 141.2 54.0117C141.286 53.9961 141.367 53.9766 141.443 53.9531C141.52 53.9277 141.586 53.8984 141.643 53.8652L141.563 53.3057C141.526 53.3154 141.481 53.3252 141.429 53.335C141.378 53.3447 141.323 53.3535 141.265 53.3613C141.204 53.3711 141.141 53.3789 141.074 53.3848C141.01 53.3906 140.946 53.3936 140.884 53.3936C140.798 53.3936 140.72 53.3838 140.649 53.3643C140.581 53.3447 140.522 53.3115 140.474 53.2646C140.425 53.2197 140.387 53.1592 140.359 53.083C140.334 53.0049 140.321 52.9082 140.321 52.793V51.4307H141.505V50.8301H140.321V50.0537ZM142.647 50.8301V51.4951H143.55V53.3379H142.647V54H145.231V53.3379H144.373V50.8301H142.647ZM143.491 50.0186C143.491 50.0811 143.502 50.1396 143.523 50.1943C143.547 50.2471 143.579 50.292 143.62 50.3291C143.661 50.3682 143.71 50.3984 143.767 50.4199C143.825 50.4414 143.89 50.4521 143.96 50.4521C144.104 50.4521 144.219 50.4121 144.303 50.332C144.389 50.25 144.432 50.1455 144.432 50.0186C144.432 49.8916 144.389 49.7881 144.303 49.708C144.219 49.626 144.104 49.585 143.96 49.585C143.89 49.585 143.825 49.5957 143.767 49.6172C143.71 49.6387 143.661 49.668 143.62 49.7051C143.579 49.7441 143.547 49.791 143.523 49.8457C143.502 49.8984 143.491 49.9561 143.491 50.0186ZM145.923 52.3857V52.4473C145.923 52.6797 145.956 52.8945 146.022 53.0918C146.089 53.2871 146.187 53.457 146.315 53.6016C146.442 53.7461 146.599 53.8594 146.784 53.9414C146.972 54.0215 147.185 54.0615 147.423 54.0615C147.659 54.0615 147.87 54.0215 148.056 53.9414C148.241 53.8594 148.397 53.7461 148.524 53.6016C148.651 53.457 148.748 53.2871 148.814 53.0918C148.881 52.8945 148.914 52.6797 148.914 52.4473V52.3857C148.914 52.1553 148.881 51.9424 148.814 51.7471C148.748 51.5498 148.651 51.3789 148.524 51.2344C148.396 51.0898 148.238 50.9766 148.053 50.8945C147.867 50.8125 147.655 50.7715 147.417 50.7715C147.179 50.7715 146.967 50.8125 146.781 50.8945C146.598 50.9766 146.442 51.0898 146.315 51.2344C146.187 51.3789 146.089 51.5498 146.022 51.7471C145.956 51.9424 145.923 52.1553 145.923 52.3857ZM146.737 52.4473V52.3857C146.737 52.2568 146.75 52.1348 146.775 52.0195C146.801 51.9043 146.841 51.8027 146.896 51.7148C146.95 51.627 147.021 51.5576 147.106 51.5068C147.192 51.4561 147.296 51.4307 147.417 51.4307C147.54 51.4307 147.645 51.4561 147.73 51.5068C147.816 51.5576 147.887 51.627 147.941 51.7148C147.994 51.8027 148.033 51.9043 148.059 52.0195C148.084 52.1348 148.097 52.2568 148.097 52.3857V52.4473C148.097 52.5801 148.084 52.7051 148.059 52.8223C148.033 52.9375 147.994 53.0381 147.941 53.124C147.887 53.2119 147.816 53.2812 147.73 53.332C147.645 53.3828 147.542 53.4082 147.423 53.4082C147.3 53.4082 147.194 53.3828 147.106 53.332C147.021 53.2812 146.95 53.2119 146.896 53.124C146.841 53.0381 146.801 52.9375 146.775 52.8223C146.75 52.7051 146.737 52.5801 146.737 52.4473ZM149.638 54H150.455V51.7471C150.482 51.7041 150.513 51.665 150.546 51.6299C150.579 51.5947 150.616 51.5645 150.657 51.5391C150.708 51.5039 150.766 51.4775 150.83 51.46C150.896 51.4424 150.969 51.4336 151.047 51.4336C151.141 51.4336 151.225 51.4434 151.299 51.4629C151.373 51.4805 151.437 51.5127 151.489 51.5596C151.542 51.6064 151.582 51.6709 151.609 51.7529C151.639 51.833 151.653 51.9355 151.653 52.0605V54H152.468V52.0488C152.468 51.8184 152.44 51.623 152.386 51.4629C152.333 51.3008 152.259 51.168 152.163 51.0645C152.065 50.9629 151.95 50.8887 151.817 50.8418C151.685 50.7949 151.538 50.7715 151.378 50.7715C151.253 50.7715 151.135 50.7891 151.023 50.8242C150.912 50.8594 150.81 50.9102 150.716 50.9766C150.661 51.0156 150.609 51.0596 150.561 51.1084C150.512 51.1572 150.467 51.2109 150.426 51.2695L150.376 50.8301H149.638V54ZM159.95 50.4053V49.7344H156.511V50.4053H157.809V54H158.635V50.4053H159.95ZM160.665 50.8301V51.4951H161.567V53.3379H160.665V54H163.249V53.3379H162.391V50.8301H160.665ZM161.509 50.0186C161.509 50.0811 161.52 50.1396 161.541 50.1943C161.564 50.2471 161.597 50.292 161.638 50.3291C161.679 50.3682 161.728 50.3984 161.784 50.4199C161.843 50.4414 161.907 50.4521 161.978 50.4521C162.122 50.4521 162.236 50.4121 162.32 50.332C162.406 50.25 162.449 50.1455 162.449 50.0186C162.449 49.8916 162.406 49.7881 162.32 49.708C162.236 49.626 162.122 49.585 161.978 49.585C161.907 49.585 161.843 49.5957 161.784 49.6172C161.728 49.6387 161.679 49.668 161.638 49.7051C161.597 49.7441 161.564 49.791 161.541 49.8457C161.52 49.8984 161.509 49.9561 161.509 50.0186ZM164.559 50.8301H163.858V54H164.6V51.627C164.609 51.6016 164.62 51.5781 164.632 51.5566C164.644 51.5352 164.657 51.5166 164.673 51.501C164.694 51.4795 164.719 51.4629 164.746 51.4512C164.773 51.4395 164.805 51.4336 164.84 51.4336C164.871 51.4336 164.9 51.4385 164.928 51.4482C164.955 51.4561 164.979 51.4707 165.001 51.4922C165.021 51.5137 165.036 51.5439 165.048 51.583C165.06 51.6221 165.065 51.6719 165.065 51.7324V54H165.783V51.6621C165.783 51.6387 165.783 51.6201 165.783 51.6064C165.783 51.5928 165.783 51.584 165.783 51.5801C165.793 51.5586 165.805 51.54 165.818 51.5244C165.832 51.5068 165.848 51.4912 165.865 51.4775C165.887 51.4639 165.909 51.4531 165.933 51.4453C165.958 51.4375 165.986 51.4336 166.018 51.4336C166.047 51.4336 166.075 51.4385 166.103 51.4482C166.132 51.4561 166.157 51.4707 166.179 51.4922C166.2 51.5156 166.217 51.5469 166.229 51.5859C166.242 51.625 166.249 51.6748 166.249 51.7354V54H166.99V51.7383C166.99 51.5625 166.973 51.4141 166.938 51.293C166.904 51.1699 166.857 51.0693 166.797 50.9912C166.734 50.915 166.661 50.8594 166.577 50.8242C166.495 50.7891 166.406 50.7715 166.311 50.7715C166.234 50.7715 166.164 50.7812 166.1 50.8008C166.035 50.8203 165.978 50.8477 165.927 50.8828C165.886 50.9102 165.848 50.9434 165.812 50.9824C165.779 51.0195 165.749 51.0615 165.722 51.1084C165.704 51.0596 165.683 51.0166 165.657 50.9795C165.634 50.9404 165.605 50.9072 165.572 50.8799C165.529 50.8428 165.479 50.8154 165.42 50.7979C165.361 50.7803 165.295 50.7715 165.221 50.7715C165.068 50.7715 164.938 50.8115 164.831 50.8916C164.726 50.9697 164.643 51.0771 164.582 51.2139L164.559 50.8301ZM169.193 54.0586C169.5 54.0586 169.766 53.999 169.99 53.8799C170.215 53.7607 170.379 53.6279 170.482 53.4814L170.075 53.042C169.981 53.1631 169.859 53.2539 169.709 53.3145C169.559 53.375 169.403 53.4053 169.243 53.4053C169.13 53.4053 169.025 53.3877 168.93 53.3525C168.834 53.3174 168.749 53.2676 168.675 53.2031C168.603 53.1406 168.545 53.0713 168.502 52.9951C168.459 52.917 168.424 52.8145 168.396 52.6875V52.6787H170.547V52.333C170.547 52.1006 170.515 51.8887 170.45 51.6973C170.386 51.5039 170.292 51.3389 170.169 51.2021C170.044 51.0654 169.892 50.96 169.712 50.8857C169.534 50.8096 169.331 50.7715 169.103 50.7715C168.882 50.7715 168.678 50.8115 168.49 50.8916C168.303 50.9717 168.141 51.084 168.004 51.2285C167.867 51.373 167.761 51.5459 167.685 51.7471C167.608 51.9463 167.57 52.167 167.57 52.4092V52.5264C167.57 52.7393 167.608 52.9395 167.685 53.127C167.763 53.3125 167.873 53.4736 168.016 53.6104C168.158 53.749 168.329 53.8584 168.528 53.9385C168.728 54.0186 168.949 54.0586 169.193 54.0586ZM169.097 51.4307C169.2 51.4307 169.291 51.4473 169.369 51.4805C169.449 51.5117 169.517 51.5547 169.571 51.6094C169.626 51.666 169.669 51.7324 169.7 51.8086C169.731 51.8848 169.747 51.9658 169.747 52.0518V52.1162H168.411C168.431 52.0127 168.46 51.9189 168.499 51.835C168.538 51.751 168.587 51.6787 168.646 51.6182C168.702 51.5576 168.769 51.5117 168.845 51.4805C168.921 51.4473 169.005 51.4307 169.097 51.4307Z" fill="#DFFB53"/>
<path d="M215.266 53.335V49.7344H214.439V54H217.264V53.335H215.266ZM218.233 50.8301V51.4951H219.136V53.3379H218.233V54H220.817V53.3379H219.959V50.8301H218.233ZM219.077 50.0186C219.077 50.0811 219.088 50.1396 219.109 50.1943C219.133 50.2471 219.165 50.292 219.206 50.3291C219.247 50.3682 219.296 50.3984 219.353 50.4199C219.411 50.4414 219.476 50.4521 219.546 50.4521C219.69 50.4521 219.805 50.4121 219.889 50.332C219.975 50.25 220.018 50.1455 220.018 50.0186C220.018 49.8916 219.975 49.7881 219.889 49.708C219.805 49.626 219.69 49.585 219.546 49.585C219.476 49.585 219.411 49.5957 219.353 49.6172C219.296 49.6387 219.247 49.668 219.206 49.7051C219.165 49.7441 219.133 49.791 219.109 49.8457C219.088 49.8984 219.077 49.9561 219.077 50.0186ZM221.62 54H222.438V51.7471C222.465 51.7041 222.495 51.665 222.528 51.6299C222.562 51.5947 222.599 51.5645 222.64 51.5391C222.69 51.5039 222.748 51.4775 222.812 51.46C222.879 51.4424 222.951 51.4336 223.029 51.4336C223.123 51.4336 223.207 51.4434 223.281 51.4629C223.355 51.4805 223.419 51.5127 223.472 51.5596C223.524 51.6064 223.564 51.6709 223.592 51.7529C223.621 51.833 223.636 51.9355 223.636 52.0605V54H224.45V52.0488C224.45 51.8184 224.423 51.623 224.368 51.4629C224.315 51.3008 224.241 51.168 224.146 51.0645C224.048 50.9629 223.933 50.8887 223.8 50.8418C223.667 50.7949 223.521 50.7715 223.36 50.7715C223.235 50.7715 223.117 50.7891 223.006 50.8242C222.895 50.8594 222.792 50.9102 222.698 50.9766C222.644 51.0156 222.592 51.0596 222.543 51.1084C222.494 51.1572 222.449 51.2109 222.408 51.2695L222.358 50.8301H221.62V54ZM226.416 52.6904L227.315 54H228.314L226.952 52.1514L228.147 50.8301H227.169L226.293 51.791L226.047 52.0723V49.5H225.232V54H226.047V53.0332L226.416 52.6904Z" fill="#DFFB53"/>
<path d="M245.5 98L243 84L257 87.5L253.5 91L257 94L253.5 98L249 94L245.5 98Z" stroke="#DFFB53"/>
<g filter="url(#filter0_d)">
<rect x="12" y="23" width="81" height="18" rx="4" fill="#DFFB53"/>
</g>
<path d="M21.3457 32.6641H20.5225C20.5146 32.793 20.4932 32.9033 20.458 32.9951C20.4229 33.0869 20.375 33.1621 20.3145 33.2207C20.2539 33.2793 20.1807 33.3223 20.0947 33.3496C20.0088 33.377 19.9121 33.3906 19.8047 33.3906C19.7246 33.3906 19.6514 33.3818 19.585 33.3643C19.5205 33.3447 19.4619 33.3154 19.4092 33.2764C19.3604 33.2412 19.3164 33.1973 19.2773 33.1445C19.2402 33.0918 19.208 33.0312 19.1807 32.9629C19.1416 32.8633 19.1123 32.7471 19.0928 32.6143C19.0752 32.4795 19.0664 32.3271 19.0664 32.1572V31.5771C19.0664 31.4521 19.0723 31.3359 19.084 31.2285C19.0957 31.1191 19.1143 31.0195 19.1396 30.9297C19.1729 30.8145 19.2168 30.7139 19.2715 30.6279C19.3281 30.54 19.3965 30.4727 19.4766 30.4258C19.5234 30.3984 19.5742 30.3779 19.6289 30.3643C19.6855 30.3506 19.7461 30.3438 19.8105 30.3438C19.9316 30.3438 20.0352 30.3604 20.1211 30.3936C20.209 30.4248 20.2822 30.4717 20.3408 30.5342C20.3975 30.5986 20.4404 30.6787 20.4697 30.7744C20.501 30.8701 20.5205 30.9814 20.5283 31.1084H21.3486C21.3291 30.8857 21.2822 30.6855 21.208 30.5078C21.1338 30.3301 21.0322 30.1797 20.9033 30.0566C20.7744 29.9336 20.6182 29.8389 20.4346 29.7725C20.2529 29.7061 20.0449 29.6729 19.8105 29.6729C19.6523 29.6729 19.5039 29.6934 19.3652 29.7344C19.2285 29.7734 19.1025 29.8301 18.9873 29.9043C18.8584 29.9922 18.7432 30.0996 18.6416 30.2266C18.54 30.3535 18.458 30.498 18.3955 30.6602C18.3408 30.793 18.2998 30.9375 18.2725 31.0938C18.2451 31.248 18.2314 31.4111 18.2314 31.583V32.1572C18.2314 32.3408 18.2461 32.5146 18.2754 32.6787C18.3066 32.8428 18.3506 32.9932 18.4072 33.1299C18.4658 33.2666 18.5371 33.3916 18.6211 33.5049C18.707 33.6182 18.8047 33.7148 18.9141 33.7949C19.0332 33.8809 19.167 33.9473 19.3154 33.9941C19.4658 34.0391 19.6289 34.0615 19.8047 34.0615C20.0273 34.0615 20.2305 34.0293 20.4141 33.9648C20.5977 33.8984 20.7559 33.8047 20.8887 33.6836C21.0215 33.5625 21.127 33.416 21.2051 33.2441C21.2852 33.0723 21.332 32.8789 21.3457 32.6641ZM23.4346 32.4062L24.2373 34H25.1191V33.9619L24.2021 32.2012C24.3193 32.1484 24.4248 32.0859 24.5186 32.0137C24.6143 31.9414 24.6963 31.8564 24.7646 31.7588C24.8311 31.6631 24.8818 31.5547 24.917 31.4336C24.9541 31.3105 24.9727 31.1729 24.9727 31.0205C24.9727 30.8096 24.9355 30.624 24.8613 30.4639C24.7891 30.3037 24.6855 30.1699 24.5508 30.0625C24.4141 29.9551 24.25 29.874 24.0586 29.8193C23.8672 29.7627 23.6533 29.7344 23.417 29.7344H21.9873V34H22.8105V32.4062H23.4346ZM22.8105 31.7383V30.4023H23.417C23.5303 30.4023 23.6309 30.416 23.7188 30.4434C23.8066 30.4707 23.8809 30.5098 23.9414 30.5605C24.0098 30.6172 24.0605 30.6895 24.0938 30.7773C24.1289 30.8633 24.1465 30.9629 24.1465 31.0762C24.1465 31.1699 24.1328 31.2549 24.1055 31.3311C24.0801 31.4072 24.042 31.4727 23.9912 31.5273C23.9307 31.5957 23.8516 31.6484 23.7539 31.6855C23.6582 31.7207 23.5469 31.7383 23.4199 31.7383H22.8105ZM28.2158 32.1309V31.4805H26.4639V30.4053H28.5029V29.7344H25.6377V34H28.5117V33.335H26.4639V32.1309H28.2158ZM31.292 33.1094L31.541 34H32.4082L31.0371 29.7344H30.29L28.8926 34H29.7598L30.0117 33.1094H31.292ZM30.2139 32.4092L30.6621 30.8389L31.0986 32.4092H30.2139ZM35.9326 30.4053V29.7344H32.4932V30.4053H33.791V34H34.6172V30.4053H35.9326ZM39.0264 32.1309V31.4805H37.2744V30.4053H39.3135V29.7344H36.4482V34H39.3223V33.335H37.2744V32.1309H39.0264ZM45.7061 33.1094L45.9551 34H46.8223L45.4512 29.7344H44.7041L43.3066 34H44.1738L44.4258 33.1094H45.7061ZM44.6279 32.4092L45.0762 30.8389L45.5127 32.4092H44.6279ZM52.2627 32.4062L53.0654 34H53.9473V33.9619L53.0303 32.2012C53.1475 32.1484 53.2529 32.0859 53.3467 32.0137C53.4424 31.9414 53.5244 31.8564 53.5928 31.7588C53.6592 31.6631 53.71 31.5547 53.7451 31.4336C53.7822 31.3105 53.8008 31.1729 53.8008 31.0205C53.8008 30.8096 53.7637 30.624 53.6895 30.4639C53.6172 30.3037 53.5137 30.1699 53.3789 30.0625C53.2422 29.9551 53.0781 29.874 52.8867 29.8193C52.6953 29.7627 52.4814 29.7344 52.2451 29.7344H50.8154V34H51.6387V32.4062H52.2627ZM51.6387 31.7383V30.4023H52.2451C52.3584 30.4023 52.459 30.416 52.5469 30.4434C52.6348 30.4707 52.709 30.5098 52.7695 30.5605C52.8379 30.6172 52.8887 30.6895 52.9219 30.7773C52.957 30.8633 52.9746 30.9629 52.9746 31.0762C52.9746 31.1699 52.9609 31.2549 52.9336 31.3311C52.9082 31.4072 52.8701 31.4727 52.8193 31.5273C52.7588 31.5957 52.6797 31.6484 52.582 31.6855C52.4863 31.7207 52.375 31.7383 52.248 31.7383H51.6387ZM57.3955 32.1807V31.5596C57.3955 31.3662 57.377 31.1836 57.3398 31.0117C57.3047 30.8398 57.2529 30.6816 57.1846 30.5371C57.1221 30.4102 57.0469 30.2939 56.959 30.1885C56.873 30.083 56.7725 29.9932 56.6572 29.9189C56.542 29.8408 56.4121 29.7812 56.2676 29.7402C56.125 29.6973 55.9717 29.6758 55.8076 29.6758C55.6455 29.6758 55.4951 29.6963 55.3564 29.7373C55.2178 29.7783 55.0928 29.8369 54.9814 29.9131C54.8682 29.9912 54.7676 30.085 54.6797 30.1943C54.5938 30.3037 54.5205 30.4258 54.46 30.5605C54.3975 30.7031 54.3496 30.8584 54.3164 31.0264C54.2852 31.1943 54.2695 31.3721 54.2695 31.5596V32.1807C54.2695 32.3564 54.2832 32.5234 54.3105 32.6816C54.3398 32.8398 54.3818 32.9863 54.4365 33.1211C54.4971 33.2676 54.5723 33.3994 54.6621 33.5166C54.752 33.6318 54.8535 33.7305 54.9668 33.8125C55.082 33.8906 55.21 33.9512 55.3506 33.9941C55.4912 34.0371 55.6445 34.0586 55.8105 34.0586C55.9668 34.0586 56.1123 34.0391 56.2471 34C56.3838 33.9629 56.5088 33.9102 56.6221 33.8418C56.7471 33.7637 56.8584 33.666 56.9561 33.5488C57.0537 33.4316 57.1357 33.3027 57.2021 33.1621C57.2646 33.0215 57.3125 32.8691 57.3457 32.7051C57.3789 32.5391 57.3955 32.3643 57.3955 32.1807ZM56.5605 31.5537V32.1807C56.5605 32.2861 56.5547 32.3877 56.543 32.4854C56.5332 32.583 56.5176 32.6729 56.4961 32.7549C56.4688 32.8604 56.4316 32.9551 56.3848 33.0391C56.3398 33.1211 56.2842 33.1895 56.2178 33.2441C56.165 33.2891 56.1045 33.3232 56.0361 33.3467C55.9678 33.3701 55.8926 33.3818 55.8105 33.3818C55.7246 33.3818 55.6475 33.3691 55.5791 33.3438C55.5127 33.3184 55.4531 33.2822 55.4004 33.2354C55.3438 33.1826 55.2939 33.1143 55.251 33.0303C55.21 32.9443 55.1787 32.8496 55.1572 32.7461C55.1377 32.6641 55.124 32.5752 55.1162 32.4795C55.1084 32.3838 55.1045 32.2842 55.1045 32.1807V31.5537C55.1045 31.4443 55.1084 31.3398 55.1162 31.2402C55.126 31.1406 55.1406 31.0488 55.1602 30.9648C55.1855 30.8555 55.2207 30.7598 55.2656 30.6777C55.3125 30.5957 55.3691 30.5273 55.4355 30.4727C55.4844 30.4355 55.5391 30.4072 55.5996 30.3877C55.6621 30.3682 55.7314 30.3584 55.8076 30.3584C55.8877 30.3584 55.96 30.3691 56.0244 30.3906C56.0908 30.4121 56.1504 30.4424 56.2031 30.4814C56.2695 30.5342 56.3271 30.6025 56.376 30.6865C56.4248 30.7686 56.4639 30.8623 56.4932 30.9678C56.5166 31.0518 56.5332 31.1436 56.543 31.2432C56.5547 31.3408 56.5605 31.4443 56.5605 31.5537ZM61.1572 30.4053V29.7344H57.7178V30.4053H59.0156V34H59.8418V30.4053H61.1572ZM63.7236 33.1094L63.9727 34H64.8398L63.4688 29.7344H62.7217L61.3242 34H62.1914L62.4434 33.1094H63.7236ZM62.6455 32.4092L63.0938 30.8389L63.5303 32.4092H62.6455ZM68.3643 30.4053V29.7344H64.9248V30.4053H66.2227V34H67.0488V30.4053H68.3643ZM71.8096 32.1807V31.5596C71.8096 31.3662 71.791 31.1836 71.7539 31.0117C71.7188 30.8398 71.667 30.6816 71.5986 30.5371C71.5361 30.4102 71.4609 30.2939 71.373 30.1885C71.2871 30.083 71.1865 29.9932 71.0713 29.9189C70.9561 29.8408 70.8262 29.7812 70.6816 29.7402C70.5391 29.6973 70.3857 29.6758 70.2217 29.6758C70.0596 29.6758 69.9092 29.6963 69.7705 29.7373C69.6318 29.7783 69.5068 29.8369 69.3955 29.9131C69.2822 29.9912 69.1816 30.085 69.0938 30.1943C69.0078 30.3037 68.9346 30.4258 68.874 30.5605C68.8115 30.7031 68.7637 30.8584 68.7305 31.0264C68.6992 31.1943 68.6836 31.3721 68.6836 31.5596V32.1807C68.6836 32.3564 68.6973 32.5234 68.7246 32.6816C68.7539 32.8398 68.7959 32.9863 68.8506 33.1211C68.9111 33.2676 68.9863 33.3994 69.0762 33.5166C69.166 33.6318 69.2676 33.7305 69.3809 33.8125C69.4961 33.8906 69.624 33.9512 69.7646 33.9941C69.9053 34.0371 70.0586 34.0586 70.2246 34.0586C70.3809 34.0586 70.5264 34.0391 70.6611 34C70.7979 33.9629 70.9229 33.9102 71.0361 33.8418C71.1611 33.7637 71.2725 33.666 71.3701 33.5488C71.4678 33.4316 71.5498 33.3027 71.6162 33.1621C71.6787 33.0215 71.7266 32.8691 71.7598 32.7051C71.793 32.5391 71.8096 32.3643 71.8096 32.1807ZM70.9746 31.5537V32.1807C70.9746 32.2861 70.9688 32.3877 70.957 32.4854C70.9473 32.583 70.9316 32.6729 70.9102 32.7549C70.8828 32.8604 70.8457 32.9551 70.7988 33.0391C70.7539 33.1211 70.6982 33.1895 70.6318 33.2441C70.5791 33.2891 70.5186 33.3232 70.4502 33.3467C70.3818 33.3701 70.3066 33.3818 70.2246 33.3818C70.1387 33.3818 70.0615 33.3691 69.9932 33.3438C69.9268 33.3184 69.8672 33.2822 69.8145 33.2354C69.7578 33.1826 69.708 33.1143 69.665 33.0303C69.624 32.9443 69.5928 32.8496 69.5713 32.7461C69.5518 32.6641 69.5381 32.5752 69.5303 32.4795C69.5225 32.3838 69.5186 32.2842 69.5186 32.1807V31.5537C69.5186 31.4443 69.5225 31.3398 69.5303 31.2402C69.54 31.1406 69.5547 31.0488 69.5742 30.9648C69.5996 30.8555 69.6348 30.7598 69.6797 30.6777C69.7266 30.5957 69.7832 30.5273 69.8496 30.4727C69.8984 30.4355 69.9531 30.4072 70.0137 30.3877C70.0762 30.3682 70.1455 30.3584 70.2217 30.3584C70.3018 30.3584 70.374 30.3691 70.4385 30.3906C70.5049 30.4121 70.5645 30.4424 70.6172 30.4814C70.6836 30.5342 70.7412 30.6025 70.79 30.6865C70.8389 30.7686 70.8779 30.8623 70.9072 30.9678C70.9307 31.0518 70.9473 31.1436 70.957 31.2432C70.9688 31.3408 70.9746 31.4443 70.9746 31.5537ZM73.8838 32.4062L74.6865 34H75.5684V33.9619L74.6514 32.2012C74.7686 32.1484 74.874 32.0859 74.9678 32.0137C75.0635 31.9414 75.1455 31.8564 75.2139 31.7588C75.2803 31.6631 75.3311 31.5547 75.3662 31.4336C75.4033 31.3105 75.4219 31.1729 75.4219 31.0205C75.4219 30.8096 75.3848 30.624 75.3105 30.4639C75.2383 30.3037 75.1348 30.1699 75 30.0625C74.8633 29.9551 74.6992 29.874 74.5078 29.8193C74.3164 29.7627 74.1025 29.7344 73.8662 29.7344H72.4365V34H73.2598V32.4062H73.8838ZM73.2598 31.7383V30.4023H73.8662C73.9795 30.4023 74.0801 30.416 74.168 30.4434C74.2559 30.4707 74.3301 30.5098 74.3906 30.5605C74.459 30.6172 74.5098 30.6895 74.543 30.7773C74.5781 30.8633 74.5957 30.9629 74.5957 31.0762C74.5957 31.1699 74.582 31.2549 74.5547 31.3311C74.5293 31.4072 74.4912 31.4727 74.4404 31.5273C74.3799 31.5957 74.3008 31.6484 74.2031 31.6855C74.1074 31.7207 73.9961 31.7383 73.8691 31.7383H73.2598Z" fill="#15171C"/>
<path d="M85.1416 31.6211V30.4668H84.3652V31.6211H83.29V32.3652H84.3652V33.5723H85.1416V32.3652H86.2139V31.6211H85.1416Z" fill="#15171C"/>
<path d="M218.417 69.5819C218.407 69.5819 218.396 69.5819 218.386 69.5819H212.255C211.232 69.5819 210.402 68.746 210.402 67.7154C210.402 66.6848 211.232 65.849 212.255 65.849H216.893C216.901 64.9381 217.212 64.1002 217.728 63.4287H211.991C209.787 63.4287 208 65.2282 208 67.4476V67.9812C208 70.2006 209.787 72.0001 211.991 72.0001H218.652C219.938 72.0001 221.08 71.3895 221.81 70.44H220.885C219.954 70.4421 219.096 70.1195 218.417 69.5819Z" fill="#DFFB53"/>
<path d="M219.323 66.1349C219.884 66.4622 220.261 67.0816 220.261 67.7942C220.261 67.817 220.261 67.8377 220.259 67.8584C220.529 68.0159 220.838 68.1049 221.168 68.1049H222.656C222.656 68.0925 222.656 68.078 222.656 68.0656V67.5208C222.656 66.2116 222.062 65.0474 221.137 64.2954C220.153 64.312 219.355 65.124 219.323 66.1349Z" fill="#DFFB53"/>
<path d="M227.369 61.9143H220.871C219.617 61.9143 218.503 62.5248 217.791 63.474H218.693C219.602 63.474 220.439 63.7945 221.101 64.334C221.111 64.334 221.121 64.334 221.131 64.334H227.112C228.11 64.334 228.92 65.1697 228.92 66.2C228.92 67.2304 228.11 68.066 227.112 68.066H222.587H221.131C220.808 68.066 220.504 67.9788 220.242 67.8247C219.694 67.5042 219.324 66.8977 219.324 66.2C219.324 66.1777 219.324 66.1574 219.326 66.1371C219.063 65.983 218.76 65.8958 218.438 65.8958L216.981 65.7861C216.981 65.7861 216.981 65.9221 216.981 65.9343V66.4678C216.981 67.7496 217.563 68.8895 218.467 69.6258C219.13 70.1653 219.965 70.4857 220.875 70.4857H221.777H227.373C229.524 70.4857 231.267 68.6867 231.267 66.4678V65.9343C231.263 63.7134 229.52 61.9143 227.369 61.9143Z" fill="url(#paint0_linear)"/>
<path d="M218.109 65.9153C218.407 65.9153 219.116 66.0348 219.357 66.2003C219.386 65.1375 220.306 64.4077 221.196 64.3903C220.584 63.811 219.473 63.4287 218.632 63.4287H217.701C216.893 64.0665 216.902 64.8566 216.893 65.8344L218.109 65.9153Z" fill="#DFFB53"/>
<defs>
<filter id="filter0_d" x="0" y="13" width="105" height="42" filterUnits="userSpaceOnUse" color-interpolation-filters="sRGB">
<feFlood flood-opacity="0" result="BackgroundImageFix"/>
<feColorMatrix in="SourceAlpha" type="matrix" values="0 0 0 0 0 0 0 0 0 0 0 0 0 0 0 0 0 0 127 0"/>
<feMorphology radius="2" operator="dilate" in="SourceAlpha" result="effect1_dropShadow"/>
<feOffset dy="2"/>
<feGaussianBlur stdDeviation="5"/>
<feColorMatrix type="matrix" values="0 0 0 0 0 0 0 0 0 0 0 0 0 0 0 0 0 0 1 0"/>
<feBlend mode="normal" in2="BackgroundImageFix" result="effect1_dropShadow"/>
<feBlend mode="normal" in="SourceGraphic" in2="effect1_dropShadow" result="shape"/>
</filter>
<linearGradient id="paint0_linear" x1="200.969" y1="66.1992" x2="228.992" y2="66.1992" gradientUnits="userSpaceOnUse">
<stop stop-color="#011C4B"/>
<stop offset="0.3436" stop-color="#DFFB53"/>
<stop offset="1" stop-color="#3D4151"/>
</linearGradient>
</defs>
</svg>
