<svg width="239" height="216" viewBox="0 0 239 216" fill="none" xmlns="http://www.w3.org/2000/svg">
<path d="M126.976 6.1829C128.326 3.86571 131.674 3.86572 133.024 6.18291L220.461 156.238C221.82 158.571 220.137 161.5 217.436 161.5H42.5635C39.863 161.5 38.1799 158.571 39.5395 156.238L126.976 6.1829Z" fill="#1C2025" stroke="#2F333C"/>
<rect x="96" y="92" width="2" height="2" fill="#2F333C"/>
<rect x="112" y="92" width="2" height="2" fill="#2F333C"/>
<rect x="128" y="92" width="2" height="2" fill="#2F333C"/>
<rect x="144" y="92" width="2" height="2" fill="#2F333C"/>
<rect x="160" y="92" width="2" height="2" fill="#2F333C"/>
<rect x="176" y="92" width="2" height="2" fill="#2F333C"/>
<rect x="80" y="106" width="2" height="2" fill="#2F333C"/>
<rect x="96" y="106" width="2" height="2" fill="#2F333C"/>
<rect x="112" y="106" width="2" height="2" fill="#2F333C"/>
<rect x="128" y="106" width="2" height="2" fill="#2F333C"/>
<rect x="144" y="106" width="2" height="2" fill="#2F333C"/>
<rect x="160" y="106" width="2" height="2" fill="#2F333C"/>
<rect x="176" y="106" width="2" height="2" fill="#2F333C"/>
<rect x="80" y="120" width="2" height="2" fill="#2F333C"/>
<rect x="96" y="120" width="2" height="2" fill="#2F333C"/>
<rect x="112" y="120" width="2" height="2" fill="#2F333C"/>
<rect x="128" y="120" width="2" height="2" fill="#2F333C"/>
<rect x="144" y="120" width="2" height="2" fill="#2F333C"/>
<rect x="160" y="120" width="2" height="2" fill="#2F333C"/>
<rect x="176" y="120" width="2" height="2" fill="#2F333C"/>
<rect x="80" y="134" width="2" height="2" fill="#2F333C"/>
<rect x="96" y="134" width="2" height="2" fill="#2F333C"/>
<rect x="112" y="134" width="2" height="2" fill="#2F333C"/>
<rect x="128" y="134" width="2" height="2" fill="#2F333C"/>
<rect x="144" y="134" width="2" height="2" fill="#2F333C"/>
<rect x="160" y="134" width="2" height="2" fill="#2F333C"/>
<rect x="176" y="134" width="2" height="2" fill="#2F333C"/>
<rect x="96" y="148" width="2" height="2" fill="#2F333C"/>
<rect x="80" y="148" width="2" height="2" fill="#2F333C"/>
<rect x="112" y="148" width="2" height="2" fill="#2F333C"/>
<rect x="128" y="148" width="2" height="2" fill="#2F333C"/>
<rect x="144" y="148" width="2" height="2" fill="#2F333C"/>
<rect x="160" y="148" width="2" height="2" fill="#2F333C"/>
<rect x="176" y="148" width="2" height="2" fill="#2F333C"/>
<rect y="162" width="2" height="2" fill="#2F333C"/>
<rect x="16" y="162" width="2" height="2" fill="#2F333C"/>
<rect x="32" y="162" width="2" height="2" fill="#2F333C"/>
<rect x="48" y="162" width="2" height="2" fill="#2F333C"/>
<rect x="64" y="162" width="2" height="2" fill="#2F333C"/>
<rect x="80" y="162" width="2" height="2" fill="#2F333C"/>
<rect x="96" y="162" width="2" height="2" fill="#2F333C"/>
<rect y="176" width="2" height="2" fill="#2F333C"/>
<rect x="16" y="176" width="2" height="2" fill="#2F333C"/>
<rect x="32" y="176" width="2" height="2" fill="#2F333C"/>
<rect x="48" y="176" width="2" height="2" fill="#2F333C"/>
<rect x="64" y="176" width="2" height="2" fill="#2F333C"/>
<rect x="80" y="176" width="2" height="2" fill="#2F333C"/>
<rect x="96" y="176" width="2" height="2" fill="#2F333C"/>
<rect x="80" y="92" width="2" height="2" fill="#2F333C"/>
<path d="M113.727 92.4563C110.449 92.7892 108 95.7976 108 99.0923C108 99.5834 108.398 99.9814 108.889 99.9814H119.422C120.118 99.9814 120.682 99.4174 120.682 98.7216C120.682 95.0322 117.494 92.0734 113.727 92.4563Z" fill="#DFFB53"/>
<path d="M129.5 92.4226C126.026 92.4226 123.201 95.2486 123.201 98.7214C123.201 99.4173 123.765 99.9812 124.461 99.9812H134.539C135.235 99.9812 135.799 99.4173 135.799 98.7214C135.799 95.2486 132.974 92.4226 129.5 92.4226Z" fill="#DFFB53"/>
<path d="M144.617 92.4226C141.143 92.4226 138.318 95.2486 138.318 98.7214C138.318 99.4173 138.882 99.9812 139.578 99.9812H149.74C150.436 99.9812 151 99.4173 151 98.7214C151 95.2486 148.091 92.4226 144.617 92.4226Z" fill="#DFFB53"/>
<path d="M114.383 92.4226C116.467 92.4226 118.162 90.7275 118.162 88.6433C118.162 86.5594 116.467 84.864 114.383 84.864C112.299 84.864 110.604 86.5594 110.604 88.6433C110.604 90.7275 112.299 92.4226 114.383 92.4226Z" fill="#DFFB53"/>
<path d="M133.279 88.6433C133.279 86.5594 131.584 84.864 129.5 84.864C127.416 84.864 125.721 86.5594 125.721 88.6433C125.721 90.7275 127.416 92.4226 129.5 92.4226C131.584 92.4226 133.279 90.7275 133.279 88.6433Z" fill="#DFFB53"/>
<path d="M126.98 73.5261C126.98 71.4423 125.285 69.7468 123.201 69.7468C121.117 69.7468 119.422 71.4423 119.422 73.5261C119.422 75.6103 121.117 77.3054 123.201 77.3054C125.285 77.3054 126.98 75.6103 126.98 73.5261Z" fill="#DFFB53"/>
<path d="M139.578 73.5261C139.578 71.4423 137.883 69.7468 135.799 69.7468C133.715 69.7468 132.02 71.4423 132.02 73.5261C132.02 75.6103 133.715 77.3054 135.799 77.3054C137.883 77.3054 139.578 75.6103 139.578 73.5261Z" fill="#DFFB53"/>
<path d="M148.396 88.6433C148.396 86.5594 146.701 84.864 144.617 84.864C142.533 84.864 140.838 86.5594 140.838 88.6433C140.838 90.7275 142.533 92.4226 144.617 92.4226C146.701 92.4226 148.396 90.7275 148.396 88.6433Z" fill="#DFFB53"/>
<path d="M127.871 61.6684L128.24 61.299V65.8165C128.24 66.513 128.804 67.0762 129.5 67.0762C130.196 67.0762 130.76 66.513 130.76 65.8165V61.299L131.129 61.6684C131.621 62.1605 132.418 62.1605 132.91 61.6684C133.402 61.1763 133.402 60.3788 132.91 59.887L130.392 57.3688C129.901 56.8761 129.097 56.878 128.608 57.3688L126.09 59.887C125.598 60.3788 125.598 61.1763 126.09 61.6684C126.582 62.1602 127.379 62.1602 127.871 61.6684Z" fill="#DFFB53"/>
<path d="M140.469 61.6684L140.838 61.299V65.8165C140.838 66.513 141.402 67.0762 142.098 67.0762C142.794 67.0762 143.357 66.513 143.357 65.8165V61.299L143.726 61.6684C144.219 62.1605 145.016 62.1605 145.508 61.6684C146 61.1763 146 60.3788 145.508 59.887L142.99 57.3688C142.499 56.8761 141.695 56.878 141.205 57.3688L138.687 59.887C138.195 60.3788 138.195 61.1763 138.687 61.6684C139.18 62.1602 139.977 62.1602 140.469 61.6684Z" fill="#DFFB53"/>
<path d="M115.274 61.6684L115.643 61.299V65.8165C115.643 66.513 116.206 67.0763 116.902 67.0763C117.598 67.0763 118.162 66.513 118.162 65.8165V61.299L118.531 61.6684C119.023 62.1605 119.82 62.1605 120.313 61.6684C120.805 61.1763 120.805 60.3788 120.313 59.8871L117.795 57.3688C117.298 56.8715 116.494 56.884 116.01 57.3688L113.492 59.8871C113 60.3788 113 61.1763 113.492 61.6684C113.984 62.1602 114.781 62.1602 115.274 61.6684Z" fill="#DFFB53"/>
<path d="M138.318 88.6436C138.318 86.0952 139.846 83.9071 142.028 82.9163C141.68 79.7698 139.037 77.3054 135.799 77.3054C132.752 77.3054 130.206 79.4798 129.626 82.3576C133.041 82.4265 135.799 85.2137 135.799 88.6436C135.799 89.8037 135.462 90.8778 134.912 91.8124C135.772 92.4876 136.498 93.3081 137.059 94.2522C137.619 93.3081 138.345 92.4876 139.205 91.8124C138.656 90.8778 138.318 89.8037 138.318 88.6436Z" fill="#DFFB53"/>
<path d="M123.201 88.6436C123.201 85.2137 125.96 82.4265 129.374 82.3576C128.794 79.4798 126.248 77.3054 123.201 77.3054C119.963 77.3054 117.32 79.7698 116.972 82.9163C119.154 83.9071 120.682 86.0952 120.682 88.6436C120.682 89.8037 120.344 90.8774 119.795 91.8121C120.655 92.4872 121.381 93.3081 121.942 94.2519C122.502 93.3081 123.228 92.4876 124.088 91.8124C123.538 90.8778 123.201 89.8037 123.201 88.6436Z" fill="#DFFB53"/>
</svg>
