<svg width="152" height="38" viewBox="0 0 152 38" fill="none" xmlns="http://www.w3.org/2000/svg">
<path fill-rule="evenodd" clip-rule="evenodd" d="M22.2459 13.532L4.43793 31.1455C5.19092 32.0412 6.02608 32.8669 6.93202 33.611L24.7407 15.9962H26.7418V11.5499H22.2466V13.5327L22.2459 13.532Z" fill="white"/>
<path fill-rule="evenodd" clip-rule="evenodd" d="M16.1721 11.5499H11.6766V13.5327L3.71375 21.4071C3.59032 20.6229 3.52594 19.819 3.52594 19C3.52594 10.4332 10.5476 3.48794 19.209 3.48794C27.87 3.48794 34.8917 10.4332 34.8917 19C34.8917 27.5672 27.87 34.5124 19.209 34.5124C18.3817 34.5124 17.5693 34.4487 16.7768 34.3267L24.7396 26.4505H26.7407V22.0038H22.2455V23.9867L10.2762 35.8251C13.0264 37.2577 16.096 38 19.209 38C29.8174 38 38.418 29.4934 38.418 19C38.418 8.50699 29.8174 0 19.209 0C8.6002 0 0 8.50699 0 19C0 22.0791 0.74837 25.115 2.20065 27.8359L14.1724 15.9962H16.1721V11.5499Z" fill="#DFFB53"/>
<path d="M48.6248 20.6739V26.2643H54.2063C54.9867 26.2643 55.6938 25.9505 56.2045 25.4453C56.7164 24.9432 57.0322 24.2417 57.0322 23.4684C57.0322 22.6965 56.715 21.9971 56.2045 21.4919C55.6938 20.9867 54.9867 20.6739 54.2063 20.6739H52.5224H48.6248ZM146.47 29.6034H139.773V26.2643H141.433V22.0668L136.011 11.7462L134.257 11.7455V8.40598H138.058L143.121 18.0437L148.185 8.40598H151.987V11.7455H150.232L144.81 22.0671V26.2643H146.47V29.6034ZM132.597 29.6034H126.664L119.299 14.236V29.5848L114.291 29.6034V26.2643H115.923V11.736H114.291V8.39648L120.231 8.40563L127.588 23.7544V8.40563H132.597V11.7447H130.964V26.2643H132.597V29.6034ZM112.631 29.6034H108.459L106.643 24.0774H98.4938L96.6734 29.6034H92.5464V26.2643H94.2298L99.0124 11.7447H97.3805V8.40563H105.036L110.918 26.2643H112.631V29.6034ZM69.2878 29.6034H62.6478V26.2643H64.2801V11.7447H62.6478V8.40563H69.2878V11.7447H67.6559V26.2643H69.2878V29.6034ZM77.5886 29.6034H72.5805V26.2643H74.2127V11.736H72.5805V8.40563H78.5215L85.8783 23.7544V8.40563H90.8864V11.7447H89.2545V26.2643H90.8864V29.6034H84.9563L77.5886 14.236V29.6034ZM99.5936 20.7383H105.553L102.591 11.7447H102.556L99.5936 20.7383ZM43.6167 29.6034V26.2643H45.2486V11.7447H43.6167V8.40563C46.5856 8.40563 49.5535 8.40563 52.5224 8.40563C54.2344 8.40563 55.7852 9.09344 56.907 10.2031C58.0289 11.3127 58.7242 12.8466 58.7242 14.54C58.7242 15.9328 58.254 17.2176 57.4623 18.2478C57.8731 18.4986 58.2515 18.7959 58.5912 19.1312C59.7131 20.2412 60.4081 21.7751 60.4081 23.4684C60.4081 25.098 59.7554 26.6541 58.5912 27.806C57.469 28.9156 55.9182 29.6034 54.2063 29.6034C50.6764 29.6034 47.1462 29.6034 43.6167 29.6034ZM52.5587 17.3345C53.3249 17.325 54.0178 17.0136 54.5203 16.5165C55.0311 16.0113 55.3484 15.3118 55.3484 14.54C55.3484 13.7684 55.0311 13.0686 54.5203 12.5634C54.0096 12.0586 53.3028 11.7447 52.5224 11.7447H48.6248V17.3345H52.5587Z" fill="#DFFB53"/>
</svg>
