<svg width="116" height="102" viewBox="0 0 116 102" fill="none" xmlns="http://www.w3.org/2000/svg">
<rect x="0.388794" y="0.491852" width="2.35032" height="2.35032" fill="#2F333C"/>
<rect x="19.1913" y="0.491852" width="2.35032" height="2.35032" fill="#2F333C"/>
<rect x="37.9939" y="0.491852" width="2.35032" height="2.35032" fill="#2F333C"/>
<rect x="56.7965" y="0.491852" width="2.35032" height="2.35032" fill="#2F333C"/>
<rect x="75.599" y="0.491852" width="2.35032" height="2.35032" fill="#2F333C"/>
<rect x="94.4016" y="0.491852" width="2.35032" height="2.35032" fill="#2F333C"/>
<rect x="113.204" y="0.491852" width="2.35032" height="2.35032" fill="#2F333C"/>
<rect x="0.388794" y="16.9441" width="2.35032" height="2.35032" fill="#2F333C"/>
<rect x="19.1913" y="16.9441" width="2.35032" height="2.35032" fill="#2F333C"/>
<rect x="37.9939" y="16.9441" width="2.35032" height="2.35032" fill="#2F333C"/>
<rect x="56.7965" y="16.9441" width="2.35032" height="2.35032" fill="#2F333C"/>
<rect x="75.599" y="16.9441" width="2.35032" height="2.35032" fill="#2F333C"/>
<rect x="94.4016" y="16.9441" width="2.35032" height="2.35032" fill="#2F333C"/>
<rect x="113.204" y="16.9441" width="2.35032" height="2.35032" fill="#2F333C"/>
<rect x="0.388794" y="33.3963" width="2.35032" height="2.35032" fill="#2F333C"/>
<rect x="19.1913" y="33.3963" width="2.35032" height="2.35032" fill="#2F333C"/>
<rect x="37.9939" y="33.3963" width="2.35032" height="2.35032" fill="#2F333C"/>
<rect x="56.7965" y="33.3963" width="2.35032" height="2.35032" fill="#2F333C"/>
<rect x="75.599" y="33.3963" width="2.35032" height="2.35032" fill="#2F333C"/>
<rect x="94.4016" y="33.3963" width="2.35032" height="2.35032" fill="#2F333C"/>
<rect x="113.204" y="33.3963" width="2.35032" height="2.35032" fill="#2F333C"/>
<rect x="0.388794" y="49.8486" width="2.35032" height="2.35032" fill="#2F333C"/>
<rect x="19.1913" y="49.8486" width="2.35032" height="2.35032" fill="#2F333C"/>
<rect x="37.9939" y="49.8486" width="2.35032" height="2.35032" fill="#2F333C"/>
<rect x="56.7965" y="49.8486" width="2.35032" height="2.35032" fill="#2F333C"/>
<rect x="75.599" y="49.8486" width="2.35032" height="2.35032" fill="#2F333C"/>
<rect x="94.4016" y="49.8486" width="2.35032" height="2.35032" fill="#2F333C"/>
<rect x="113.204" y="49.8486" width="2.35032" height="2.35032" fill="#2F333C"/>
<rect x="19.1913" y="66.3008" width="2.35032" height="2.35032" fill="#2F333C"/>
<rect x="0.388794" y="66.3008" width="2.35032" height="2.35032" fill="#2F333C"/>
<rect x="37.9939" y="66.3008" width="2.35032" height="2.35032" fill="#2F333C"/>
<rect x="56.7965" y="66.3008" width="2.35032" height="2.35032" fill="#2F333C"/>
<rect x="75.599" y="66.3008" width="2.35032" height="2.35032" fill="#2F333C"/>
<rect x="94.4016" y="66.3008" width="2.35032" height="2.35032" fill="#2F333C"/>
<rect x="113.204" y="66.3008" width="2.35032" height="2.35032" fill="#2F333C"/>
<rect x="0.388794" y="82.7531" width="2.35032" height="2.35032" fill="#2F333C"/>
<rect x="19.1913" y="82.7531" width="2.35032" height="2.35032" fill="#2F333C"/>
<rect x="37.9939" y="82.7531" width="2.35032" height="2.35032" fill="#2F333C"/>
<rect x="56.7965" y="82.7531" width="2.35032" height="2.35032" fill="#2F333C"/>
<rect x="75.599" y="82.7531" width="2.35032" height="2.35032" fill="#2F333C"/>
<rect x="94.4016" y="82.7531" width="2.35032" height="2.35032" fill="#2F333C"/>
<rect x="113.204" y="82.7531" width="2.35032" height="2.35032" fill="#2F333C"/>
<rect x="0.388794" y="99.2053" width="2.35032" height="2.35032" fill="#2F333C"/>
<rect x="19.1913" y="99.2053" width="2.35032" height="2.35032" fill="#2F333C"/>
<rect x="37.9939" y="99.2053" width="2.35032" height="2.35032" fill="#2F333C"/>
<rect x="56.7965" y="99.2053" width="2.35032" height="2.35032" fill="#2F333C"/>
<rect x="75.599" y="99.2053" width="2.35032" height="2.35032" fill="#2F333C"/>
<rect x="94.4016" y="99.2053" width="2.35032" height="2.35032" fill="#2F333C"/>
<rect x="113.204" y="99.2053" width="2.35032" height="2.35032" fill="#2F333C"/>
</svg>
